<svg width="125" height="74" viewBox="0 0 125 74" fill="none" xmlns="http://www.w3.org/2000/svg">
<path fill-rule="evenodd" clip-rule="evenodd" d="M25.6318 15.6539H20.0055V15.7429H17.9067C13.1346 15.7429 8.6347 17.6125 5.21429 21.0315C1.85175 24.4669 0 28.949 0 33.6496C0 39.2291 2.58455 44.3789 6.93965 47.746V64.0109C6.93965 66.4684 7.9368 68.8762 9.67851 70.6166C11.4176 72.3556 13.8269 73.3529 16.2884 73.3529C17.6103 73.3529 18.8645 73.0693 20.0055 72.5718V72.5911C21.3221 71.7208 22.593 70.7868 23.4439 70.1249V51.5083L25.6318 53.6152V51.5535H29.3278L66.2281 63.0755C66.5028 63.1606 66.7857 63.2032 67.066 63.2032C67.6594 63.2032 68.2445 63.0164 68.7335 62.6565C69.4532 62.1263 69.8791 61.2842 69.8791 60.3899V45.2671L83.3654 53.9847C83.8214 54.2788 84.3517 54.4353 84.8929 54.4353H97.8078V62.3982C97.8078 63.9518 99.066 65.2114 100.621 65.2114H122.187C123.742 65.2114 125 63.9518 125 62.3982V40.8351C125 39.2815 123.742 38.0218 122.187 38.0218H100.621C99.066 38.0218 97.8078 39.2815 97.8078 40.8351V48.809H85.7225L69.8791 38.5672V27.1415L85.7225 16.901H97.8078V24.8735C97.8078 26.4271 99.066 27.6867 100.621 27.6867H122.187C123.742 27.6867 125 26.4271 125 24.8735V3.31033C125 1.75674 123.742 0.49707 122.187 0.49707H100.621C99.066 0.49707 97.8078 1.75674 97.8078 3.31033V11.2745H84.8929C84.3517 11.2745 83.8214 11.4312 83.3654 11.7251L69.8791 20.4418V6.93667C69.8791 6.04239 69.4532 5.20047 68.7335 4.67159C68.0137 4.13994 67.0853 3.98196 66.2281 4.25127L29.3337 15.7429H25.6318V15.6539ZM64.2527 10.7594L32.5742 20.6262V46.673L64.2527 56.5644V10.7594ZM13.6566 66.6387C14.3488 67.3296 15.3078 67.7266 16.2884 67.7266C18.338 67.7266 20.0055 66.0603 20.0055 64.0109V51.5535H17.9067C17.8458 51.5535 17.7859 51.5469 17.7261 51.5403C17.6717 51.5343 17.6173 51.5283 17.5622 51.5272C16.7941 51.5124 16.0297 51.4653 15.2771 51.3535C15.0785 51.3239 14.8843 51.2766 14.69 51.2293C14.5679 51.1995 14.4457 51.1698 14.3224 51.1444C14.2535 51.1303 14.1847 51.1163 14.1158 51.1022C13.6447 51.0064 13.174 50.9107 12.7148 50.7708C12.6908 50.7634 12.6662 50.7586 12.6416 50.7539C12.6162 50.7489 12.5907 50.744 12.566 50.7362V64.0109C12.566 64.9875 12.9643 65.945 13.6566 66.6387ZM103.434 43.6481V59.5851H119.374V43.6481H103.434ZM103.434 6.12341V22.0604H119.374V6.12341H103.434ZM17.9067 21.3693C14.6374 21.3693 11.5495 22.655 9.21428 24.9888C6.90934 27.3447 5.62634 30.4285 5.62634 33.6496C5.62634 37.8377 7.73619 41.6922 11.2747 43.9601C13.2582 45.2499 15.5468 45.9257 17.9067 45.9257H26.9479V21.3708H22.8188C22.8162 21.3708 22.814 21.3693 22.8114 21.3693H17.9067Z" fill="#E2E2E2"/>
</svg>
