<svg width="73" height="46" viewBox="0 0 73 46" fill="none" xmlns="http://www.w3.org/2000/svg">
<path d="M60.4057 1.24844C60.2108 1.51334 60.0699 1.81411 59.9914 2.13352C59.9129 2.45293 59.8981 2.7847 59.9481 3.10981C59.998 3.43492 60.1116 3.74698 60.2824 4.02811C60.4531 4.30924 60.6777 4.55389 60.9432 4.74807L61.6056 5.23551H33.7461C33.0832 5.23551 32.4473 5.49888 31.9785 5.96767C31.5098 6.43646 31.2464 7.07227 31.2464 7.73524V35.2198H17.2729C16.637 33.6263 15.4601 32.3078 13.9489 31.4956C12.4376 30.6834 10.6886 30.4295 9.00879 30.7785C7.329 31.1275 5.82582 32.0571 4.76313 33.404C3.70045 34.7509 3.14617 36.4291 3.19762 38.144C3.24907 39.8589 3.90295 41.5009 5.04446 42.7817C6.18598 44.0625 7.74218 44.9002 9.43988 45.1479C11.1376 45.3956 12.8682 45.0373 14.3281 44.136C15.7879 43.2347 16.8837 41.848 17.4229 40.2192H33.7461C34.4091 40.2192 35.0449 39.9559 35.5137 39.4871C35.9825 39.0183 36.2459 38.3825 36.2459 37.7195V10.2225H63.118L60.9432 11.8223C60.4078 12.2151 60.0505 12.8045 59.9497 13.4608C59.8489 14.1171 60.0129 14.7866 60.4057 15.3219C60.7986 15.8573 61.3879 16.2147 62.0443 16.3154C62.7006 16.4162 63.37 16.2522 63.9054 15.8594L71.4796 10.31C71.7972 10.0779 72.0556 9.77416 72.2338 9.42342C72.4119 9.07267 72.5048 8.68483 72.5048 8.29144C72.5048 7.89804 72.4119 7.5102 72.2338 7.15945C72.0556 6.80871 71.7972 6.50495 71.4796 6.2729L63.9054 0.711002C63.6405 0.516005 63.3397 0.375202 63.0203 0.296666C62.7009 0.21813 62.3691 0.203403 62.044 0.253331C61.7189 0.303259 61.4068 0.416863 61.1257 0.587624C60.8446 0.758386 60.5999 0.982948 60.4057 1.24844Z" fill="#E2E2E2"/>
<path d="M65.7306 39.3443C65.9593 39.5939 66.2364 39.7944 66.545 39.9337C66.8535 40.0731 67.1872 40.1482 67.5257 40.1547C67.8642 40.1612 68.2005 40.0989 68.5142 39.9715C68.8279 39.8441 69.1124 39.6543 69.3505 39.4136C69.5887 39.173 69.7754 38.8864 69.8995 38.5714C70.0235 38.2564 70.0823 37.9194 70.0722 37.581C70.0622 37.2426 69.9834 36.9098 69.8408 36.6027C69.6982 36.2956 69.4948 36.0207 69.2427 35.7946L66.0431 32.62L69.2427 29.4453C69.4948 29.2192 69.6982 28.9443 69.8408 28.6373C69.9834 28.3302 70.0622 27.9973 70.0722 27.6589C70.0823 27.3205 70.0235 26.9836 69.8995 26.6686C69.7754 26.3535 69.5887 26.067 69.3505 25.8263C69.1124 25.5857 68.8279 25.3959 68.5142 25.2685C68.2005 25.1411 67.8642 25.0787 67.5257 25.0852C67.1872 25.0917 66.8535 25.1669 66.545 25.3062C66.2364 25.4455 65.9593 25.6461 65.7306 25.8957L62.4935 29.0954L59.2563 25.8832C59.0276 25.6336 58.7505 25.433 58.4419 25.2937C58.1334 25.1544 57.7997 25.0792 57.4612 25.0727C57.1227 25.0662 56.7864 25.1286 56.4727 25.256C56.159 25.3834 55.8745 25.5732 55.6364 25.8138C55.3982 26.0545 55.2115 26.341 55.0874 26.6561C54.9634 26.9711 54.9046 27.308 54.9147 27.6464C54.9248 27.9848 55.0035 28.3177 55.1461 28.6248C55.2887 28.9318 55.4922 29.2068 55.7442 29.4328L58.9438 32.6075L55.7442 35.7821C55.3106 36.2553 55.0756 36.8771 55.0879 37.5188C55.1002 38.1605 55.3588 38.7729 55.8102 39.2291C56.2617 39.6853 56.8712 39.9504 57.5127 39.9696C58.1543 39.9887 58.7786 39.7603 59.2563 39.3318L62.4935 36.1321L65.7306 39.3443Z" fill="#E2E2E2"/>
<path d="M12.4987 8.97251C12.4987 8.30954 12.2353 7.67372 11.7665 7.20493C11.2977 6.73614 10.6619 6.47278 9.99892 6.47278C9.33595 6.47278 8.70013 6.73614 8.23134 7.20493C7.76255 7.67372 7.49919 8.30954 7.49919 8.97251V13.972H2.49973C1.83676 13.972 1.20094 14.2353 0.732152 14.7041C0.263362 15.1729 0 15.8087 0 16.4717C0 17.1347 0.263362 17.7705 0.732152 18.2393C1.20094 18.7081 1.83676 18.9714 2.49973 18.9714H7.49919V23.9709C7.49919 24.6339 7.76255 25.2697 8.23134 25.7385C8.70013 26.2073 9.33595 26.4706 9.99892 26.4706C10.6619 26.4706 11.2977 26.2073 11.7665 25.7385C12.2353 25.2697 12.4987 24.6339 12.4987 23.9709V18.9714H17.4981C18.1611 18.9714 18.7969 18.7081 19.2657 18.2393C19.7345 17.7705 19.9978 17.1347 19.9978 16.4717C19.9978 15.8087 19.7345 15.1729 19.2657 14.7041C18.7969 14.2353 18.1611 13.972 17.4981 13.972H12.4987V8.97251Z" fill="#E2E2E2"/>
</svg>
