<svg width="78" height="61" viewBox="0 0 78 61" fill="none" xmlns="http://www.w3.org/2000/svg">
<path d="M7.71164 9.79767C9.12105 9.79767 10.2636 8.65511 10.2636 7.2457C10.2636 5.83628 9.12105 4.69373 7.71164 4.69373C6.30222 4.69373 5.15967 5.83628 5.15967 7.2457C5.15967 8.65511 6.30222 9.79767 7.71164 9.79767Z" fill="black"/>
<path d="M14.6743 9.79767C16.0837 9.79767 17.2263 8.65511 17.2263 7.2457C17.2263 5.83628 16.0837 4.69373 14.6743 4.69373C13.2649 4.69373 12.1223 5.83628 12.1223 7.2457C12.1223 8.65511 13.2649 9.79767 14.6743 9.79767Z" fill="black"/>
<path d="M21.6369 9.79767C23.0463 9.79767 24.1889 8.65511 24.1889 7.2457C24.1889 5.83628 23.0463 4.69373 21.6369 4.69373C20.2275 4.69373 19.085 5.83628 19.085 7.2457C19.085 8.65511 20.2275 9.79767 21.6369 9.79767Z" fill="black"/>
<path d="M77.5668 52.2435L70.828 45.5036V41.7985L73.3475 39.278C73.6181 39.0094 73.7264 38.6164 73.6311 38.2461C73.5369 37.8758 73.2543 37.5824 72.8873 37.4742L70.828 36.8689V4.3819C70.828 1.99234 68.8845 0.0510254 66.4971 0.0510254H4.78205C2.39357 0.0510254 0.451172 1.99234 0.451172 4.3819V48.4118C0.451172 50.7992 2.39357 52.7427 4.78205 52.7427H54.6272L55.3083 55.0564C55.4165 55.4246 55.7089 55.7061 56.0792 55.8013C56.4516 55.8988 56.8436 55.7884 57.1121 55.5177L59.8871 52.7427H63.0822L70.0766 59.7338C70.2877 59.9449 70.5649 60.051 70.842 60.051C71.1192 60.051 71.3964 59.9449 71.6075 59.7338L77.5679 53.7745C77.9891 53.3522 77.9891 52.6669 77.5668 52.2435ZM2.61661 4.3819C2.61661 3.18658 3.58781 2.21646 4.78205 2.21646H66.4971C67.6924 2.21646 68.6625 3.18658 68.6625 4.3819V11.4131H2.61661V4.3819ZM4.78205 50.5772C3.58781 50.5772 2.61661 49.6049 2.61661 48.4118V13.5785H68.6625V36.2334L49.8849 30.7093C49.506 30.5967 49.0945 30.7007 48.8141 30.9822C48.5337 31.2637 48.4297 31.674 48.5413 32.0541L53.9895 50.5761H4.78205V50.5772ZM70.841 57.4373L62.2485 48.847C62.0374 48.6359 61.7602 48.5298 61.483 48.5298C61.2058 48.5298 60.9287 48.6359 60.7175 48.847L56.8695 52.6961L51.1777 33.3468L70.5259 39.0376L66.6779 42.8867C66.2546 43.31 66.2546 43.9943 66.6779 44.4176L75.2693 53.0101L70.841 57.4373Z" fill="black"/>
</svg>
