<svg width="77" height="77" viewBox="0 0 77 77" fill="none" xmlns="http://www.w3.org/2000/svg">
<path d="M61.5845 38.8752V11.5471C61.5845 10.5263 61.179 9.54725 60.4571 8.82542C59.7353 8.10358 58.7563 7.69806 57.7355 7.69806H46.1884V3.84903C46.1884 2.8282 45.7828 1.84919 45.061 1.12735C44.3392 0.405522 43.3602 0 42.3393 0H19.2452C18.2243 0 17.2453 0.405522 16.5235 1.12735C15.8016 1.84919 15.3961 2.8282 15.3961 3.84903V7.69806H3.84903C2.8282 7.69806 1.84919 8.10358 1.12735 8.82542C0.405522 9.54725 0 10.5263 0 11.5471V73.1316C0 74.1524 0.405522 75.1314 1.12735 75.8533C1.84919 76.5751 2.8282 76.9806 3.84903 76.9806H57.7355C62.5081 76.9854 67.1122 75.2167 70.6541 72.0178C74.196 68.8189 76.4229 64.418 76.9025 59.6696C77.3822 54.9211 76.0803 50.1638 73.2497 46.3213C70.4191 42.4787 66.2617 39.8249 61.5845 38.8752ZM68.5897 53.8864H61.5845V46.8812C63.1988 47.4559 64.6649 48.3827 65.8765 49.5944C67.0882 50.806 68.015 52.2722 68.5897 53.8864ZM23.0942 7.69806H38.4903V15.3961H23.0942V7.69806ZM7.69806 15.3961H15.3961V19.2452C15.3961 20.266 15.8016 21.245 16.5235 21.9668C17.2453 22.6887 18.2243 23.0942 19.2452 23.0942H42.3393C43.3602 23.0942 44.3392 22.6887 45.061 21.9668C45.7828 21.245 46.1884 20.266 46.1884 19.2452V15.3961H53.8864V38.8752C49.5395 39.7625 45.6326 42.1245 42.827 45.5614C40.0214 48.9982 38.4894 53.2989 38.4903 57.7355C38.4903 61.8995 39.8409 65.9513 42.3393 69.2826H7.69806V15.3961ZM57.7355 69.2826C55.0275 69.2615 52.4131 68.2895 50.3492 66.5362C48.2853 64.783 46.9033 62.3601 46.4447 59.6912C45.9861 57.0223 46.4802 54.2771 47.8405 51.9355C49.2008 49.5939 51.3408 47.8049 53.8864 46.8812V57.7355C53.8864 58.7563 54.2919 59.7353 55.0138 60.4571C55.7356 61.179 56.7146 61.5845 57.7355 61.5845H68.5897C67.7956 63.8306 66.3262 65.7761 64.383 67.1543C62.4397 68.5325 60.1178 69.2759 57.7355 69.2826Z" fill="#EFEFEF"/>
<path d="M30.7922 30.7922H15.3961C14.3753 30.7922 13.3963 31.1978 12.6744 31.9196C11.9526 32.6414 11.5471 33.6204 11.5471 34.6413C11.5471 35.6621 11.9526 36.6411 12.6744 37.3629C13.3963 38.0848 14.3753 38.4903 15.3961 38.4903H30.7922C31.8131 38.4903 32.7921 38.0848 33.5139 37.3629C34.2357 36.6411 34.6413 35.6621 34.6413 34.6413C34.6413 33.6204 34.2357 32.6414 33.5139 31.9196C32.7921 31.1978 31.8131 30.7922 30.7922 30.7922Z" fill="#EFEFEF"/>
<path d="M30.7922 46.1884H15.3961C14.3753 46.1884 13.3963 46.5939 12.6744 47.3157C11.9526 48.0375 11.5471 49.0166 11.5471 50.0374C11.5471 51.0582 11.9526 52.0372 12.6744 52.7591C13.3963 53.4809 14.3753 53.8864 15.3961 53.8864H30.7922C31.8131 53.8864 32.7921 53.4809 33.5139 52.7591C34.2357 52.0372 34.6413 51.0582 34.6413 50.0374C34.6413 49.0166 34.2357 48.0375 33.5139 47.3157C32.7921 46.5939 31.8131 46.1884 30.7922 46.1884Z" fill="#EFEFEF"/>
</svg>
