<svg width="147" height="20" viewBox="0 0 147 20" fill="none" xmlns="http://www.w3.org/2000/svg">
<g opacity="0.4">
<path fill-rule="evenodd" clip-rule="evenodd" d="M12.7663 18.4547C12.7663 19.3082 12.0744 20 11.221 20H1.54526C0.691838 20 0 19.3082 0 18.4547V1.54526C0 0.691838 0.691838 0 1.54526 0H2.80397C3.65739 0 4.34923 0.691837 4.34923 1.54526V14.0563C4.34923 14.9097 5.04107 15.6016 5.8945 15.6016H11.221C12.0744 15.6016 12.7663 16.2934 12.7663 17.1468V18.4547ZM27.8933 2.85318C27.8933 3.70661 27.2014 4.39845 26.348 4.39845H21.0918C20.2702 4.39845 19.6041 5.06452 19.6041 5.88616V5.88616C19.6041 6.7078 20.2702 7.37387 21.0918 7.37387H26.0666C26.92 7.37387 27.6118 8.06571 27.6118 8.91913V10.2271C27.6118 11.0805 26.92 11.7723 26.0666 11.7723H21.1494C20.296 11.7723 19.6041 12.4642 19.6041 13.3176V14.0563C19.6041 14.9097 20.296 15.6016 21.1494 15.6016H26.348C27.2014 15.6016 27.8933 16.2934 27.8933 17.1468V18.4547C27.8933 19.3082 27.2014 20 26.348 20H16.8002C15.9467 20 15.2549 19.3082 15.2549 18.4547V1.54526C15.2549 0.691838 15.9467 0 16.8002 0H26.348C27.2014 0 27.8933 0.691838 27.8933 1.54526V2.85318ZM33.1573 20C33.774 20 34.3317 19.6332 34.5761 19.0669L35.6129 16.664C35.8573 16.0977 36.415 15.7309 37.0317 15.7309H43.5386C44.1582 15.7309 44.7179 16.101 44.9605 16.6712L45.9768 19.0597C46.2194 19.6299 46.7791 20 47.3987 20H48.7894C49.8994 20 50.6474 18.8644 50.2091 17.8445L49.211 15.5224C49.0212 15.0808 48.5867 14.7946 48.106 14.7946V14.7946C47.4417 14.7946 46.9032 14.2561 46.9032 13.5918V12.7467C46.9032 12.5379 47.0725 12.3686 47.2814 12.3686V12.3686C47.553 12.3686 47.736 12.0907 47.6288 11.8411L46.9335 10.2236C46.798 9.90833 46.4878 9.704 46.1446 9.704H46.0945C45.6479 9.704 45.2859 9.34194 45.2859 8.89532V8.3762C45.2859 8.21629 45.4155 8.08665 45.5754 8.08665V8.08665C45.7834 8.08665 45.9236 7.87385 45.8415 7.68275L45.0715 5.89136C44.8896 5.46814 44.4732 5.19387 44.0125 5.19387V5.19387C43.376 5.19387 42.8599 4.67782 42.8599 4.04124V3.11296C42.8599 2.92236 43.0144 2.76785 43.205 2.76785V2.76785C43.4529 2.76785 43.62 2.51422 43.5221 2.28645L42.8993 0.837443C42.6809 0.329306 42.1809 0 41.6278 0H39.03C38.4118 0 37.8532 0.368409 37.6097 0.936606L30.3635 17.8461C29.9265 18.8657 30.6745 20 31.7838 20H33.1573ZM40.229 11.3325C39.119 11.3325 38.3711 10.197 38.8093 9.17713L38.8503 9.08182C39.3849 7.83756 41.1478 7.83412 41.6873 9.0763L41.7287 9.1716C42.172 10.1921 41.424 11.3325 40.3114 11.3325H40.229Z" fill="#282B31"/>
<path d="M65.1944 20H59.4436V0H65.1944C66.5929 0 67.9062 0.250108 69.1343 0.750323C70.3793 1.23329 71.4709 1.94049 72.409 2.87193C73.33 3.80336 74.0378 4.87279 74.5324 6.08021C75.027 7.28762 75.2743 8.57266 75.2743 9.93532C75.2743 11.298 75.0356 12.583 74.558 13.7904C74.0975 14.9978 73.4153 16.0673 72.5113 16.9987C72.0678 17.4817 71.5732 17.9043 71.0275 18.2665C70.4817 18.6287 69.9018 18.9392 69.2878 19.1979C67.9915 19.7326 66.6271 20 65.1944 20ZM59.4436 15.6016H65.1944C66.0301 15.6016 66.7976 15.4636 67.4969 15.1876C68.2132 14.9116 68.8187 14.5235 69.3133 14.0233C69.825 13.5231 70.2173 12.928 70.4902 12.238C70.7801 11.5308 70.9251 10.7633 70.9251 9.93532C70.9251 9.14187 70.7801 8.4088 70.4902 7.73609C70.2173 7.04614 69.825 6.45968 69.3133 5.97671C68.8017 5.4765 68.1962 5.0884 67.4969 4.81242C66.7976 4.53644 66.0301 4.39845 65.1944 4.39845H59.4436V15.6016Z" fill="#282B31"/>
<path d="M54.7148 1.54526C54.7148 0.691838 55.4067 0 56.2601 0H58.1882V4.40144H56.2601C55.4067 4.40144 54.7148 3.7096 54.7148 2.85618V1.54526Z" fill="#282B31"/>
<path d="M54.7148 17.1751C54.7148 16.3217 55.4067 15.6299 56.2601 15.6299H58.1882V19.9879H56.2601C55.4067 19.9879 54.7148 19.2961 54.7148 18.4426V17.1751Z" fill="#282B31"/>
<path d="M52.5635 6.87366C52.5635 6.20373 53.1066 5.66064 53.7765 5.66064V5.66064C54.4464 5.66064 54.9895 6.20373 54.9895 6.87366V6.87366C54.9895 7.54359 54.4464 8.08667 53.7765 8.08667V8.08667C53.1066 8.08667 52.5635 7.54359 52.5635 6.87366V6.87366Z" fill="#282B31"/>
<path d="M47.0735 2.24009C47.0735 1.38666 47.7653 0.694824 48.6187 0.694824H48.7629C49.6164 0.694824 50.3082 1.38666 50.3082 2.24009V2.38426C50.3082 3.23769 49.6164 3.92953 48.7629 3.92953H48.6187C47.7653 3.92953 47.0735 3.23769 47.0735 2.38426V2.24009Z" fill="#282B31"/>
<path d="M51.7549 14.5562C51.7549 14.1096 52.1169 13.7476 52.5636 13.7476V13.7476C53.0102 13.7476 53.3722 14.1096 53.3722 14.5562V14.5562C53.3722 15.0029 53.0102 15.3649 52.5636 15.3649V15.3649C52.1169 15.3649 51.7549 15.0029 51.7549 14.5562V14.5562Z" fill="#282B31"/>
<path d="M49.3289 10.1085C49.3289 9.43859 49.8719 8.89551 50.5419 8.89551V8.89551C51.2118 8.89551 51.7549 9.43859 51.7549 10.1085V10.1085C51.7549 10.7785 51.2118 11.3215 50.5419 11.3215V11.3215C49.8719 11.3215 49.3289 10.7785 49.3289 10.1085V10.1085Z" fill="#282B31"/>
<path d="M88.0163 7.00895C88.0163 7.36454 87.7281 7.65281 87.3725 7.65281H84.5019C84.1463 7.65281 83.8581 7.94107 83.8581 8.29667V8.48176C83.8581 8.83736 84.1463 9.12562 84.5019 9.12562H87.2313C87.5869 9.12562 87.8752 9.41389 87.8752 9.76948V10.659C87.8752 11.0146 87.5869 11.3028 87.2313 11.3028H84.5019C84.1463 11.3028 83.8581 11.5911 83.8581 11.9467V12.5544C83.8581 12.91 84.1463 13.1983 84.5019 13.1983H87.3725C87.7281 13.1983 88.0163 13.4865 88.0163 13.8421V14.7316C88.0163 15.0872 87.7281 15.3755 87.3725 15.3755H82.3201C81.9645 15.3755 81.6763 15.0872 81.6763 14.7316V6.11946C81.6763 5.76387 81.9645 5.4756 82.3201 5.4756H87.3725C87.7281 5.4756 88.0163 5.76387 88.0163 6.11946V7.00895Z" fill="#282B31"/>
<path d="M98.7725 5.4756H99.1939C99.5494 5.4756 99.8377 5.76387 99.8377 6.11946V14.7316C99.8377 15.0872 99.5494 15.3755 99.1939 15.3755H97.8099H97.806C97.6062 15.3755 97.4176 15.2827 97.2958 15.1243L93.548 10.254C93.1731 9.76685 92.3939 10.032 92.3939 10.6467V14.7316C92.3939 15.0872 92.1056 15.3755 91.75 15.3755H91.688H90.856C90.5004 15.3755 90.2121 15.0872 90.2121 14.7316V6.11946C90.2121 5.76387 90.5004 5.4756 90.856 5.4756H92.3078C92.5077 5.4756 92.6963 5.56851 92.8182 5.72705L96.5016 10.5185C96.8763 11.006 97.6559 10.7409 97.6559 10.1261V6.11946C97.6559 5.76387 97.9442 5.4756 98.2998 5.4756H98.7725Z" fill="#282B31"/>
<path d="M108.702 7.00895C108.702 7.36454 108.414 7.65281 108.058 7.65281H104.982C104.627 7.65281 104.338 7.94107 104.338 8.29667V8.9044C104.338 9.25999 104.627 9.54826 104.982 9.54826H107.891C108.247 9.54826 108.535 9.83652 108.535 10.1921V11.0816C108.535 11.4372 108.247 11.7255 107.891 11.7255H104.982C104.627 11.7255 104.338 12.0137 104.338 12.3693V14.7316C104.338 15.0872 104.05 15.3755 103.695 15.3755H102.801C102.445 15.3755 102.157 15.0872 102.157 14.7316V6.11946C102.157 5.76387 102.445 5.4756 102.801 5.4756H108.058C108.414 5.4756 108.702 5.76387 108.702 6.11946V7.00895Z" fill="#282B31"/>
<path d="M114.65 15.6444C113.94 15.6444 113.26 15.5078 112.61 15.2346C111.977 14.9614 111.42 14.59 110.941 14.1204C110.471 13.6423 110.098 13.0873 109.825 12.4555C109.551 11.8066 109.414 11.1278 109.414 10.4191C109.414 9.72756 109.551 9.04878 109.825 8.38281C109.962 8.07544 110.12 7.78515 110.3 7.51193C110.488 7.23017 110.702 6.96976 110.941 6.7307C111.189 6.48309 111.45 6.26964 111.724 6.09034C112.007 5.90251 112.302 5.74028 112.61 5.60367C113.26 5.33046 113.94 5.19385 114.65 5.19385C115.343 5.19385 116.024 5.33046 116.691 5.60367C116.999 5.74028 117.29 5.90251 117.564 6.09034C117.846 6.26964 118.107 6.48309 118.347 6.7307C118.595 6.96976 118.809 7.23017 118.988 7.51193C119.177 7.78515 119.339 8.07544 119.476 8.38281C119.75 9.04878 119.887 9.72756 119.887 10.4191C119.887 11.1278 119.75 11.8066 119.476 12.4555C119.339 12.7628 119.177 13.0574 118.988 13.3392C118.809 13.6124 118.595 13.8728 118.347 14.1204C118.107 14.3595 117.846 14.5729 117.564 14.7607C117.29 14.94 116.999 15.098 116.691 15.2346C116.024 15.5078 115.343 15.6444 114.65 15.6444ZM114.65 7.37105C114.231 7.37105 113.833 7.45216 113.457 7.61439C113.089 7.77661 112.768 7.99433 112.494 8.26755C112.22 8.54077 112.002 8.86521 111.84 9.24089C111.677 9.60802 111.596 10.0008 111.596 10.4191C111.596 10.8375 111.677 11.2345 111.84 11.6102C112.002 11.9773 112.22 12.2975 112.494 12.5707C112.768 12.8439 113.089 13.0617 113.457 13.2239C113.833 13.3861 114.231 13.4672 114.65 13.4672C115.07 13.4672 115.463 13.3861 115.831 13.2239C116.208 13.0617 116.533 12.8439 116.806 12.5707C117.08 12.2975 117.298 11.9773 117.461 11.6102C117.624 11.2345 117.705 10.8375 117.705 10.4191C117.705 10.0008 117.624 9.60802 117.461 9.24089C117.298 8.86521 117.08 8.54077 116.806 8.26755C116.533 7.99433 116.208 7.77661 115.831 7.61439C115.463 7.45216 115.07 7.37105 114.65 7.37105Z" fill="#282B31"/>
<path d="M128.227 14.5981C128.456 14.9253 128.222 15.3755 127.822 15.3755V15.3755H126.438C126.228 15.3755 126.031 15.2731 125.91 15.1012L124.472 13.0499C124.352 12.878 124.155 12.7756 123.945 12.7756H123.795C123.439 12.7756 123.151 13.0639 123.151 13.4195V14.7316C123.151 15.0872 122.863 15.3755 122.507 15.3755H121.613C121.257 15.3755 120.969 15.0872 120.969 14.7316V6.11946C120.969 5.76387 121.257 5.4756 121.613 5.4756H124.627C125.191 5.4756 125.705 5.54818 126.167 5.69332C126.637 5.82993 127.052 6.03485 127.412 6.30806C127.609 6.47029 127.784 6.64959 127.938 6.84596C128.1 7.0338 128.233 7.23871 128.336 7.4607C128.558 7.9303 128.669 8.43831 128.669 8.98475C128.669 9.50557 128.575 10.0008 128.387 10.4704C128.207 10.9229 127.938 11.3242 127.579 11.6742C127.485 11.768 127.387 11.8551 127.287 11.9356C126.975 12.1849 126.851 12.6384 127.08 12.965L128.227 14.5981ZM123.151 9.95458C123.151 10.3102 123.439 10.5984 123.795 10.5984H124.627H124.64C125.247 10.6155 125.718 10.4576 126.051 10.1246C126.342 9.83428 126.488 9.45434 126.488 8.98475C126.488 8.09679 125.867 7.65281 124.627 7.65281H123.795C123.439 7.65281 123.151 7.94107 123.151 8.29667V9.95458Z" fill="#282B31"/>
<path d="M134.991 15.606C134.29 15.606 133.614 15.4694 132.964 15.1962C132.656 15.0681 132.365 14.9102 132.091 14.7223C131.817 14.5345 131.556 14.321 131.308 14.082C130.829 13.6038 130.461 13.0574 130.204 12.4427C129.93 11.7938 129.794 11.1193 129.794 10.4191C129.794 9.71902 129.93 9.04451 130.204 8.39562C130.461 7.78942 130.829 7.23871 131.308 6.74351C131.804 6.26537 132.356 5.89824 132.964 5.6421C133.614 5.36888 134.29 5.23227 134.991 5.23227C135.684 5.23227 136.356 5.36888 137.006 5.6421C137.431 5.81636 137.823 6.04199 138.18 6.319C138.461 6.53644 138.459 6.9474 138.209 7.19926L137.583 7.82867C137.33 8.08392 136.919 8.07301 136.616 7.87939C136.468 7.78497 136.312 7.70517 136.146 7.64C135.787 7.48632 135.402 7.40947 134.991 7.40947C134.572 7.40947 134.179 7.49059 133.811 7.65281C133.451 7.80649 133.135 8.01995 132.861 8.29316C132.587 8.56638 132.369 8.88656 132.206 9.25369C132.052 9.61229 131.975 10.0008 131.975 10.4191C131.975 10.829 132.052 11.2174 132.206 11.5846C132.369 11.9517 132.587 12.2719 132.861 12.5451C133.135 12.8183 133.451 13.0361 133.811 13.1983C134.179 13.352 134.572 13.4288 134.991 13.4288C135.402 13.4288 135.787 13.3562 136.146 13.2111C136.313 13.1414 136.471 13.0577 136.62 12.96C136.921 12.7634 137.329 12.7523 137.583 13.0058L138.209 13.6302C138.46 13.8802 138.464 14.2896 138.186 14.5087C137.827 14.7918 137.434 15.021 137.006 15.1962C136.356 15.4694 135.684 15.606 134.991 15.606Z" fill="#282B31"/>
<path d="M146.597 7.00895C146.597 7.36454 146.309 7.65281 145.953 7.65281H143.083C142.727 7.65281 142.439 7.94107 142.439 8.29667V8.48176C142.439 8.83736 142.727 9.12562 143.083 9.12562H145.812C146.168 9.12562 146.456 9.41389 146.456 9.76948V10.659C146.456 11.0146 146.168 11.3028 145.812 11.3028H143.083C142.727 11.3028 142.439 11.5911 142.439 11.9467V12.5544C142.439 12.91 142.727 13.1983 143.083 13.1983H145.953C146.309 13.1983 146.597 13.4865 146.597 13.8421V14.7316C146.597 15.0872 146.309 15.3755 145.953 15.3755H140.901C140.545 15.3755 140.257 15.0872 140.257 14.7316V6.11946C140.257 5.76387 140.545 5.4756 140.901 5.4756H145.953C146.309 5.4756 146.597 5.76387 146.597 6.11946V7.00895Z" fill="#282B31"/>
</g>
</svg>
