<svg width="136" height="19" viewBox="0 0 136 19" fill="none" xmlns="http://www.w3.org/2000/svg">
<path fill-rule="evenodd" clip-rule="evenodd" d="M11.8434 17.3547C11.8434 18.0175 11.3062 18.5547 10.6434 18.5547H1.2C0.537258 18.5547 0 18.0175 0 17.3547V1.20049C0 0.537747 0.537257 0.000488281 1.2 0.000488281H2.83483C3.49757 0.000488281 4.03483 0.537748 4.03483 1.20049V13.2742C4.03483 13.937 4.57209 14.4742 5.23483 14.4742H10.6434C11.3062 14.4742 11.8434 15.0115 11.8434 15.6742V17.3547ZM25.8769 2.88098C25.8769 3.54372 25.3396 4.08098 24.6769 4.08098H19.387C18.7242 4.08098 18.187 4.61824 18.187 5.28098V5.64131C18.187 6.30405 18.7242 6.84131 19.387 6.84131H24.4158C25.0786 6.84131 25.6158 7.37857 25.6158 8.04131V9.7218C25.6158 10.3845 25.0786 10.9218 24.4158 10.9218H19.387C18.7242 10.9218 18.187 11.4591 18.187 12.1218V13.2742C18.187 13.937 18.7242 14.4742 19.387 14.4742H24.6769C25.3396 14.4742 25.8769 15.0115 25.8769 15.6742V17.3547C25.8769 18.0175 25.3396 18.5547 24.6769 18.5547H15.3521C14.6894 18.5547 14.1521 18.0175 14.1521 17.3547V1.20049C14.1521 0.537747 14.6894 0.000488281 15.3521 0.000488281H24.6769C25.3396 0.000488281 25.8769 0.537747 25.8769 1.20049V2.88098ZM30.914 18.5547C31.3929 18.5547 31.826 18.2699 32.0158 17.8301L33.0993 15.3188C33.2891 14.8791 33.7222 14.5942 34.2011 14.5942H40.5457C41.0269 14.5942 41.4615 14.8817 41.6499 15.3244L42.7137 17.8245C42.9021 18.2673 43.3367 18.5547 43.8179 18.5547H45.617C46.4791 18.5547 47.0599 17.6728 46.7195 16.8809L45.4748 13.9848C45.3941 13.7972 45.1665 13.7253 44.9623 13.7253H44.3117C43.8698 13.7253 43.5117 13.3671 43.5117 12.9253V12.2746C43.5117 11.8328 43.8698 11.4746 44.3117 11.4746C44.3515 11.4746 44.3784 11.4339 44.3626 11.3972L43.4664 9.312C43.3615 9.06801 43.0275 9.00266 42.7619 9.00266C42.3475 9.00266 42.0117 8.66678 42.0117 8.25245C42.0117 7.70557 42.469 6.99146 42.2531 6.48903L41.631 5.04166C41.5639 4.88566 41.3822 4.81849 41.2124 4.81849H40.5617C40.1199 4.81849 39.7617 4.46032 39.7617 4.01849V3.36784C39.7617 2.92601 40.1199 2.56784 40.5617 2.56784C40.5646 2.56784 40.5665 2.56496 40.5654 2.56237L39.7763 0.726636C39.587 0.28603 39.1534 0.000488281 38.6739 0.000488281H36.0546C35.5745 0.000488281 35.1407 0.286582 34.9516 0.727825L28.0291 16.8821C27.6897 17.6739 28.2706 18.5547 29.132 18.5547H30.914ZM36.9664 10.5138C36.1044 10.5138 35.5235 9.63195 35.8638 8.83998L36.2553 7.9291C36.6705 6.96285 38.0395 6.96018 38.4584 7.92481L38.8541 8.83569C39.1983 9.62818 38.6174 10.5138 37.7534 10.5138H36.9664Z" fill="#FF4D4D"/>
<path d="M60.4837 18.5542H55.1487V0H60.4837C61.7812 0 62.9996 0.232028 64.1388 0.696083C65.2939 1.14414 66.3066 1.80022 67.1768 2.66432C68.0312 3.52842 68.6879 4.52054 69.1467 5.64068C69.6056 6.76081 69.835 7.95295 69.835 9.21711C69.835 10.4813 69.6135 11.6734 69.1705 12.7935C68.7433 13.9137 68.1103 14.9058 67.2717 15.7699C66.8603 16.2179 66.4015 16.61 65.8951 16.946C65.3888 17.2821 64.8508 17.5701 64.2812 17.8101C63.0787 18.3062 61.8128 18.5542 60.4837 18.5542ZM55.1487 14.4737H60.4837C61.259 14.4737 61.9711 14.3457 62.6198 14.0897C63.2844 13.8337 63.8461 13.4736 64.3049 13.0096C64.7796 12.5455 65.1436 11.9934 65.3967 11.3534C65.6657 10.6973 65.8002 9.9852 65.8002 9.21711C65.8002 8.48102 65.6657 7.80094 65.3967 7.17686C65.1436 6.53678 64.7796 5.99272 64.3049 5.54467C63.8303 5.08061 63.2686 4.72057 62.6198 4.46454C61.9711 4.20851 61.259 4.08049 60.4837 4.08049H55.1487V14.4737Z" fill="#FF4D4D"/>
<path d="M50.7591 1.2C50.7591 0.537259 51.2964 0 51.9591 0H53.9814V4.08326H51.9591C51.2964 4.08326 50.7591 3.54601 50.7591 2.88326V1.2Z" fill="#FF4D4D"/>
<path d="M50.7591 15.7002C50.7591 15.0375 51.2964 14.5002 51.9591 14.5002H53.9814V18.5432H51.9591C51.2964 18.5432 50.7591 18.006 50.7591 17.3432V15.7002Z" fill="#FF4D4D"/>
<path d="M48.7643 6.05146C48.7643 5.60964 49.1225 5.25146 49.5643 5.25146H50.215C50.6568 5.25146 51.015 5.60964 51.015 6.05146V6.70212C51.015 7.14395 50.6568 7.50212 50.215 7.50212H49.5643C49.1225 7.50212 48.7643 7.14395 48.7643 6.70212V6.05146Z" fill="#FF4D4D"/>
<path d="M43.6721 1.44453C43.6721 1.0027 44.0302 0.644531 44.4721 0.644531H45.8729C46.3148 0.644531 46.6729 1.0027 46.6729 1.44453V2.8454C46.6729 3.28723 46.3148 3.6454 45.8729 3.6454H44.4721C44.0302 3.6454 43.6721 3.28723 43.6721 2.8454V1.44453Z" fill="#FF4D4D"/>
<path d="M48.0145 13.5039C48.0145 13.0895 48.3503 12.7537 48.7647 12.7537C49.179 12.7537 49.5149 13.0895 49.5149 13.5039C49.5149 13.9182 49.179 14.2541 48.7647 14.2541C48.3503 14.2541 48.0145 13.9182 48.0145 13.5039Z" fill="#FF4D4D"/>
<path d="M45.7644 9.0522C45.7644 8.61037 46.1226 8.2522 46.5644 8.2522H47.2151C47.6569 8.2522 48.0151 8.61037 48.0151 9.0522V9.70285C48.0151 10.1447 47.6569 10.5029 47.2151 10.5029H46.5644C46.1226 10.5029 45.7644 10.1447 45.7644 9.70285V9.0522Z" fill="#FF4D4D"/>
<path d="M81.6537 6.59957C81.6537 6.87571 81.4299 7.09957 81.1537 7.09957H78.2961C78.0199 7.09957 77.7961 7.32342 77.7961 7.59957V7.96591C77.7961 8.24206 78.0199 8.46591 78.2961 8.46591H81.0228C81.2989 8.46591 81.5228 8.68977 81.5228 8.96591V9.98573C81.5228 10.2619 81.2989 10.4857 81.0228 10.4857H78.2961C78.0199 10.4857 77.7961 10.7096 77.7961 10.9857V11.7442C77.7961 12.0203 78.0199 12.2442 78.2961 12.2442H81.1537C81.4299 12.2442 81.6537 12.468 81.6537 12.7442V13.764C81.6537 14.0401 81.4299 14.264 81.1537 14.264H76.272C75.9958 14.264 75.772 14.0401 75.772 13.764V5.57975C75.772 5.3036 75.9958 5.07975 76.272 5.07975H81.1537C81.4299 5.07975 81.6537 5.30361 81.6537 5.57975V6.59957Z" fill="#3F484D"/>
<path d="M91.6323 5.07975H92.1205C92.3967 5.07975 92.6205 5.30361 92.6205 5.57975V13.764C92.6205 14.0401 92.3967 14.264 92.1205 14.264H90.7393H90.6878C90.5326 14.264 90.3862 14.1919 90.2916 14.0689L86.6111 9.28606C86.32 8.90773 85.7148 9.11361 85.7148 9.59099V13.764C85.7148 14.0401 85.491 14.264 85.2148 14.264H85.06H84.1908C83.9146 14.264 83.6908 14.0401 83.6908 13.764V5.57975C83.6908 5.3036 83.9146 5.07975 84.1908 5.07975H85.6829C85.8381 5.07975 85.9846 5.1519 86.0793 5.27501L89.7001 9.98502C89.9911 10.3636 90.5965 10.1578 90.5965 9.68028V5.57975C90.5965 5.30361 90.8203 5.07975 91.0965 5.07975H91.6323Z" fill="#3F484D"/>
<path d="M100.844 6.59957C100.844 6.87571 100.62 7.09957 100.344 7.09957H97.296C97.0198 7.09957 96.796 7.32342 96.796 7.59957V8.35799C96.796 8.63414 97.0198 8.85799 97.296 8.85799H100.189C100.466 8.85799 100.689 9.08185 100.689 9.35799V10.3778C100.689 10.654 100.466 10.8778 100.189 10.8778H97.296C97.0198 10.8778 96.796 11.1017 96.796 11.3778V13.764C96.796 14.0401 96.5721 14.264 96.296 14.264H95.2719C94.9957 14.264 94.7719 14.0401 94.7719 13.764V5.57975C94.7719 5.3036 94.9957 5.07975 95.2719 5.07975H100.344C100.62 5.07975 100.844 5.30361 100.844 5.57975V6.59957Z" fill="#3F484D"/>
<path d="M106.362 14.5135C105.704 14.5135 105.073 14.3867 104.469 14.1333C103.882 13.8798 103.366 13.5353 102.921 13.0996C102.485 12.656 102.14 12.1412 101.886 11.555C101.632 10.9531 101.505 10.3234 101.505 9.66592C101.505 9.02433 101.632 8.39462 101.886 7.7768C102.013 7.49165 102.159 7.22234 102.326 6.96887C102.501 6.70748 102.699 6.4659 102.921 6.24411C103.152 6.01441 103.394 5.81639 103.648 5.65005C103.91 5.47579 104.184 5.32529 104.469 5.19856C105.073 4.94509 105.704 4.81836 106.362 4.81836C107.005 4.81836 107.636 4.94509 108.256 5.19856C108.541 5.32529 108.811 5.47579 109.065 5.65005C109.327 5.81639 109.569 6.01441 109.791 6.24411C110.022 6.4659 110.22 6.70748 110.387 6.96887C110.561 7.22234 110.712 7.49165 110.839 7.7768C111.093 8.39462 111.22 9.02433 111.22 9.66592C111.22 10.3234 111.093 10.9531 110.839 11.555C110.712 11.8402 110.561 12.1135 110.387 12.3749C110.22 12.6283 110.022 12.8699 109.791 13.0996C109.569 13.3214 109.327 13.5194 109.065 13.6937C108.811 13.86 108.541 14.0065 108.256 14.1333C107.636 14.3867 107.005 14.5135 106.362 14.5135ZM106.362 6.83818C105.973 6.83818 105.604 6.91343 105.255 7.06392C104.914 7.21442 104.616 7.4164 104.362 7.66987C104.108 7.92333 103.906 8.22433 103.755 8.57284C103.604 8.91344 103.529 9.2778 103.529 9.66592C103.529 10.054 103.604 10.4224 103.755 10.7709C103.906 11.1115 104.108 11.4085 104.362 11.662C104.616 11.9154 104.914 12.1174 105.255 12.2679C105.604 12.4184 105.973 12.4937 106.362 12.4937C106.751 12.4937 107.116 12.4184 107.458 12.2679C107.807 12.1174 108.109 11.9154 108.363 11.662C108.617 11.4085 108.819 11.1115 108.97 10.7709C109.121 10.4224 109.196 10.054 109.196 9.66592C109.196 9.2778 109.121 8.91344 108.97 8.57284C108.819 8.22433 108.617 7.92333 108.363 7.66987C108.109 7.4164 107.807 7.21442 107.458 7.06392C107.116 6.91343 106.751 6.83818 106.362 6.83818Z" fill="#3F484D"/>
<path d="M118.957 13.5428C119.17 13.8463 118.953 14.264 118.582 14.264H117.247C117.084 14.264 116.931 14.1845 116.837 14.051L115.445 12.0651C115.352 11.9316 115.199 11.8521 115.036 11.8521H114.748C114.472 11.8521 114.248 12.0759 114.248 12.3521V13.764C114.248 14.0401 114.024 14.264 113.748 14.264H112.724C112.448 14.264 112.224 14.0401 112.224 13.764V5.57975C112.224 5.3036 112.448 5.07975 112.724 5.07975H115.618C116.141 5.07975 116.618 5.14708 117.046 5.28173C117.483 5.40846 117.868 5.59856 118.201 5.85203C118.384 6.00253 118.547 6.16886 118.689 6.35104C118.84 6.5253 118.963 6.7154 119.059 6.92135C119.265 7.35699 119.368 7.82828 119.368 8.33522C119.368 8.81839 119.281 9.2778 119.106 9.71345C118.939 10.1333 118.689 10.5055 118.356 10.8303C118.241 10.9453 118.12 11.0496 117.994 11.1432C117.745 11.3278 117.649 11.6797 117.827 11.9333L118.957 13.5428ZM114.248 9.33226C114.248 9.6084 114.472 9.83226 114.748 9.83226H115.618H115.629C116.193 9.8481 116.63 9.70156 116.939 9.39265C117.209 9.12334 117.344 8.77086 117.344 8.33522C117.344 7.51145 116.769 7.09957 115.618 7.09957H114.748C114.472 7.09957 114.248 7.32342 114.248 7.59957V9.33226Z" fill="#3F484D"/>
<path d="M125.233 14.4778C124.582 14.4778 123.955 14.3511 123.352 14.0976C123.066 13.9788 122.796 13.8323 122.542 13.658C122.288 13.4838 122.046 13.2858 121.816 13.064C121.371 12.6204 121.03 12.1135 120.792 11.5432C120.538 10.9412 120.411 10.3154 120.411 9.66592C120.411 9.01641 120.538 8.39066 120.792 7.78868C121.03 7.2263 121.371 6.7154 121.816 6.25599C122.276 5.81243 122.788 5.47183 123.352 5.2342C123.955 4.98074 124.582 4.854 125.233 4.854C125.876 4.854 126.499 4.98074 127.102 5.2342C127.527 5.40833 127.915 5.63774 128.267 5.92244C128.482 6.0958 128.481 6.41433 128.286 6.60992L127.568 7.33292C127.371 7.53114 127.052 7.52409 126.823 7.36464C126.662 7.2527 126.489 7.16038 126.305 7.08768C125.971 6.94511 125.614 6.87382 125.233 6.87382C124.844 6.87382 124.479 6.94907 124.138 7.09957C123.804 7.24214 123.511 7.44016 123.257 7.69363C123.003 7.9471 122.8 8.24413 122.649 8.58473C122.506 8.9174 122.435 9.2778 122.435 9.66592C122.435 10.0461 122.506 10.4065 122.649 10.7471C122.8 11.0877 123.003 11.3847 123.257 11.6382C123.511 11.8917 123.804 12.0937 124.138 12.2442C124.479 12.3867 124.844 12.458 125.233 12.458C125.614 12.458 125.971 12.3907 126.305 12.256C126.49 12.1786 126.664 12.0824 126.826 11.9676C127.053 11.8064 127.371 11.7991 127.568 11.9959L128.287 12.7132C128.481 12.9073 128.484 13.2246 128.272 13.3992C127.919 13.6899 127.529 13.9227 127.102 14.0976C126.499 14.3511 125.876 14.4778 125.233 14.4778Z" fill="#3F484D"/>
<path d="M136 6.59957C136 6.87571 135.776 7.09957 135.5 7.09957H132.642C132.366 7.09957 132.142 7.32342 132.142 7.59957V7.96591C132.142 8.24206 132.366 8.46591 132.642 8.46591H135.369C135.645 8.46591 135.869 8.68977 135.869 8.96591V9.98573C135.869 10.2619 135.645 10.4857 135.369 10.4857H132.642C132.366 10.4857 132.142 10.7096 132.142 10.9857V11.7442C132.142 12.0203 132.366 12.2442 132.642 12.2442H135.5C135.776 12.2442 136 12.468 136 12.7442V13.764C136 14.0401 135.776 14.264 135.5 14.264H130.618C130.342 14.264 130.118 14.0401 130.118 13.764V5.57975C130.118 5.3036 130.342 5.07975 130.618 5.07975H135.5C135.776 5.07975 136 5.30361 136 5.57975V6.59957Z" fill="#3F484D"/>
</svg>
