<svg width="108" height="68" viewBox="0 0 108 68" fill="none" xmlns="http://www.w3.org/2000/svg">
<path d="M89.9778 2.01224C89.6873 2.40681 89.4776 2.85483 89.3606 3.33061C89.2436 3.80639 89.2217 4.30059 89.2961 4.78486C89.3704 5.26913 89.5396 5.73397 89.794 6.15272C90.0484 6.57147 90.3829 6.93591 90.7783 7.22514L91.7651 7.95122H50.2667C49.2792 7.95122 48.3321 8.34352 47.6338 9.04181C46.9355 9.7401 46.5432 10.6872 46.5432 11.6747V52.6146H25.7289C24.7817 50.241 23.0286 48.2769 20.7775 47.0672C18.5264 45.8574 15.9211 45.4792 13.419 45.9991C10.9168 46.5189 8.67775 47.9035 7.09482 49.9098C5.51188 51.9162 4.68626 54.416 4.7629 56.9704C4.83953 59.5248 5.81352 61.9706 7.51388 63.8785C9.21424 65.7863 11.5323 67.0342 14.0611 67.4031C16.5899 67.772 19.1679 67.2383 21.3424 65.8958C23.5169 64.5533 25.1491 62.4876 25.9523 60.0616H50.2667C51.2542 60.0616 52.2013 59.6693 52.8996 58.971C53.5979 58.2727 53.9902 57.3256 53.9902 56.3381V15.3796H94.0178L90.7783 17.7626C89.9809 18.3477 89.4486 19.2257 89.2984 20.2033C89.1483 21.1809 89.3927 22.1781 89.9778 22.9755C90.5629 23.773 91.4408 24.3053 92.4184 24.4554C93.396 24.6056 94.3932 24.3612 95.1907 23.7761L106.473 15.5099C106.946 15.1643 107.331 14.7118 107.596 14.1893C107.862 13.6669 108 13.0892 108 12.5032C108 11.9172 107.862 11.3395 107.596 10.817C107.331 10.2946 106.946 9.84212 106.473 9.49647L95.1907 1.21169C94.7961 0.921231 94.3481 0.711497 93.8723 0.594512C93.3965 0.477528 92.9023 0.455592 92.4181 0.529962C91.9338 0.604333 91.469 0.773553 91.0502 1.02791C90.6315 1.28227 90.267 1.61677 89.9778 2.01224Z" fill="#E2E2E2"/>
<path d="M97.9095 58.7582C98.2503 59.1301 98.663 59.4288 99.1226 59.6363C99.5822 59.8438 100.079 59.9558 100.583 59.9655C101.088 59.9752 101.589 59.8823 102.056 59.6925C102.523 59.5028 102.947 59.2201 103.302 58.8616C103.656 58.5031 103.935 58.0763 104.119 57.607C104.304 57.1378 104.392 56.6359 104.377 56.1318C104.362 55.6277 104.244 55.1319 104.032 54.6745C103.82 54.2171 103.516 53.8076 103.141 53.4709L98.375 48.742L103.141 44.0132C103.516 43.6764 103.82 43.2669 104.032 42.8095C104.244 42.3521 104.362 41.8563 104.377 41.3522C104.392 40.8482 104.304 40.3463 104.119 39.877C103.935 39.4078 103.656 38.981 103.302 38.6225C102.947 38.264 102.523 37.9813 102.056 37.7915C101.589 37.6018 101.088 37.5089 100.583 37.5186C100.079 37.5282 99.5822 37.6402 99.1226 37.8478C98.663 38.0553 98.2503 38.354 97.9095 38.7258L93.0876 43.4919L88.2657 38.7072C87.925 38.3354 87.5123 38.0367 87.0527 37.8291C86.593 37.6216 86.096 37.5096 85.5918 37.5C85.0876 37.4903 84.5866 37.5831 84.1194 37.7729C83.6521 37.9627 83.2283 38.2454 82.8736 38.6039C82.5189 38.9624 82.2407 39.3892 82.0559 39.8584C81.8711 40.3277 81.7836 40.8296 81.7986 41.3336C81.8136 41.8377 81.9309 42.3335 82.1433 42.7909C82.3557 43.2483 82.6588 43.6578 83.0342 43.9946L87.8003 48.7234L83.0342 53.4522C82.3883 54.1571 82.0383 55.0833 82.0566 56.0392C82.075 56.995 82.4602 57.9071 83.1326 58.5867C83.805 59.2663 84.713 59.6612 85.6686 59.6897C86.6241 59.7181 87.554 59.378 88.2657 58.7396L93.0876 53.9736L97.9095 58.7582Z" fill="#E2E2E2"/>
<path d="M18.6175 13.5177C18.6175 12.5302 18.2252 11.5831 17.5269 10.8848C16.8286 10.1865 15.8815 9.79419 14.894 9.79419C13.9065 9.79419 12.9594 10.1865 12.2611 10.8848C11.5628 11.5831 11.1705 12.5302 11.1705 13.5177V20.9647H3.7235C2.73596 20.9647 1.78887 21.357 1.09058 22.0553C0.392293 22.7536 0 23.7006 0 24.6882C0 25.6757 0.392293 26.6228 1.09058 27.3211C1.78887 28.0194 2.73596 28.4117 3.7235 28.4117H11.1705V35.8587C11.1705 36.8462 11.5628 37.7933 12.2611 38.4916C12.9594 39.1899 13.9065 39.5822 14.894 39.5822C15.8815 39.5822 16.8286 39.1899 17.5269 38.4916C18.2252 37.7933 18.6175 36.8462 18.6175 35.8587V28.4117H26.0645C27.052 28.4117 27.9991 28.0194 28.6974 27.3211C29.3957 26.6228 29.788 25.6757 29.788 24.6882C29.788 23.7006 29.3957 22.7536 28.6974 22.0553C27.9991 21.357 27.052 20.9647 26.0645 20.9647H18.6175V13.5177Z" fill="#E2E2E2"/>
</svg>
