<svg width="49" height="48" viewBox="0 0 49 48" fill="none" xmlns="http://www.w3.org/2000/svg">
<path d="M36.1543 17.0959C36.3444 17.2856 36.4953 17.5109 36.5982 17.7589C36.7011 18.0069 36.7541 18.2729 36.7541 18.5414C36.7541 18.81 36.7011 19.0759 36.5982 19.3239C36.4953 19.572 36.3444 19.7973 36.1543 19.9869L23.9043 32.2369C23.7146 32.427 23.4893 32.5779 23.2413 32.6808C22.9933 32.7837 22.7273 32.8367 22.4588 32.8367C22.1902 32.8367 21.9243 32.7837 21.6763 32.6808C21.4282 32.5779 21.2029 32.427 21.0133 32.2369L14.8883 26.1119C14.6985 25.9221 14.5479 25.6967 14.4452 25.4487C14.3424 25.2007 14.2896 24.9349 14.2896 24.6664C14.2896 24.398 14.3424 24.1321 14.4452 23.8841C14.5479 23.6361 14.6985 23.4107 14.8883 23.2209C15.0781 23.0311 15.3035 22.8805 15.5515 22.7778C15.7995 22.675 16.0653 22.6222 16.3338 22.6222C16.6023 22.6222 16.8681 22.675 17.1161 22.7778C17.3641 22.8805 17.5895 23.0311 17.7793 23.2209L22.4588 27.9045L33.2633 17.0959C33.4529 16.9058 33.6783 16.7549 33.9263 16.652C34.1743 16.5491 34.4402 16.4961 34.7088 16.4961C34.9773 16.4961 35.2433 16.5491 35.4913 16.652C35.7393 16.7549 35.9646 16.9058 36.1543 17.0959V17.0959Z" fill="#3FB981"/>
<path d="M8.16667 0C6.00073 0 3.92351 0.860415 2.39196 2.39196C0.860414 3.92351 0 6.00073 0 8.16667V39.1667C0 41.3326 0.860414 43.4098 2.39196 44.9414C3.92351 46.4729 6.00073 47.3333 8.16667 47.3333H40.8333C42.9993 47.3333 45.0765 46.4729 46.608 44.9414C48.1396 43.4098 49 41.3326 49 39.1667V8.16667C49 6.00073 48.1396 3.92351 46.608 2.39196C45.0765 0.860415 42.9993 0 40.8333 0H8.16667ZM8.16667 4.08333H40.8333C41.9163 4.08333 42.9549 4.51354 43.7207 5.27931C44.4865 6.04509 44.9167 7.0837 44.9167 8.16667V39.1667C44.9167 40.2496 44.4865 41.2882 43.7207 42.054C42.9549 42.8198 41.9163 43.25 40.8333 43.25H8.16667C7.0837 43.25 6.04509 42.8198 5.27931 42.054C4.51354 41.2882 4.08333 40.2496 4.08333 39.1667V8.16667C4.08333 7.0837 4.51354 6.04509 5.27931 5.27931C6.04509 4.51354 7.0837 4.08333 8.16667 4.08333Z" fill="#3FB981"/>
</svg>
