<svg width="26" height="23" viewBox="0 0 26 23" fill="none" xmlns="http://www.w3.org/2000/svg">
<path d="M20.8132 0.777344H5.10578C2.50424 0.777344 0.393555 2.61587 0.393555 4.88195V18.564C0.393555 20.8301 2.50424 22.6686 5.10578 22.6686H13.8103V14.1886H10.5379V10.8821H13.8103V8.44497C13.8103 5.62306 15.8065 4.08383 18.7025 4.08383C20.0769 4.08383 21.2713 4.16934 21.6149 4.2121V7.16229L19.6188 7.17654C18.0317 7.17654 17.7372 7.81788 17.7372 8.77277V10.8821H21.484L20.9932 14.1886H17.7372V22.6686H20.8132C23.4148 22.6686 25.5254 20.8301 25.5254 18.564V4.88195C25.5254 2.61587 23.4148 0.777344 20.8132 0.777344Z" fill="#5169A7"/>
</svg>
