<svg width="26" height="23" viewBox="0 0 26 23" fill="none" xmlns="http://www.w3.org/2000/svg">
<path d="M3.87777 19.1055V9.21459H7.65737V19.1055H3.87777ZM7.9028 6.16464C7.9028 7.10528 7.0847 7.87489 5.75939 7.87489H5.74303C4.4668 7.87489 3.6487 7.10528 3.6487 6.16464C3.6487 5.19549 4.49952 4.45439 5.79211 4.45439C7.0847 4.45439 7.88644 5.19549 7.9028 6.16464ZM17.4745 19.1055V13.818C17.4745 12.4783 16.9346 11.5804 15.5765 11.5804C14.5294 11.5804 13.9076 12.1933 13.6295 12.7776C13.5313 12.9914 13.5149 13.2907 13.5149 13.5757V19.1055H9.73533C9.78442 10.141 9.73533 9.21459 9.73533 9.21459H13.5149V10.654H13.4822C13.9731 9.96995 14.873 8.98656 16.9018 8.98656C19.3889 8.98656 21.2541 10.3975 21.2541 13.4332V19.1055H17.4745ZM25.1319 4.88195C25.1319 2.61587 23.0212 0.777344 20.4197 0.777344H4.71223C2.11069 0.777344 0 2.61587 0 4.88195V18.564C0 20.8301 2.11069 22.6686 4.71223 22.6686H20.4197C23.0212 22.6686 25.1319 20.8301 25.1319 18.564V4.88195Z" fill="#498EBE"/>
</svg>
