<svg width="42" height="44" viewBox="0 0 42 44" fill="none" xmlns="http://www.w3.org/2000/svg">
<path d="M1.00439 33.5656V18.7531C1.00439 17.0071 1.69799 15.3326 2.93261 14.098C4.16722 12.8634 5.84172 12.1698 7.58773 12.1698M1.00439 25.3364H14.1711M35.5669 22.0448H27.3377M35.5669 22.0448C36.8764 22.0448 38.1323 21.5246 39.0582 20.5986C39.9842 19.6726 40.5044 18.4168 40.5044 17.1073C40.5044 15.7978 39.9842 14.5419 39.0582 13.6159C38.1323 12.69 36.8764 12.1698 35.5669 12.1698H27.3377V22.0448M35.5669 22.0448C36.8764 22.0448 38.1323 22.565 39.0582 23.4909C39.9842 24.4169 40.5044 25.6728 40.5044 26.9823C40.5044 28.2918 39.9842 29.5476 39.0582 30.4736C38.1323 31.3996 36.8764 31.9198 35.5669 31.9198H27.3377V22.0448M20.7544 0.648926V43.4406" stroke="#383838" stroke-width="2"/>
<path d="M14.1667 33.5638V18.7513C14.1667 17.0053 13.4731 15.3308 12.2385 14.0962C11.0039 12.8616 9.32942 12.168 7.58341 12.168M14.1667 25.3346H1.00008" stroke="#383838" stroke-width="2"/>
</svg>
