<svg width="58" height="41" viewBox="0 0 58 41" fill="none" xmlns="http://www.w3.org/2000/svg">
<path d="M53 0.437012H5C3.6744 0.4386 2.40356 0.965894 1.46622 1.90323C0.528882 2.84057 0.00158786 4.11142 0 5.43701V30.437C0.00158786 31.7626 0.528882 33.0335 1.46622 33.9708C2.40356 34.9081 3.6744 35.4354 5 35.437H21.343C21.7416 35.4373 22.1362 35.5171 22.5036 35.6716C22.871 35.8261 23.204 36.0524 23.483 36.337L26.883 39.562C27.4428 40.1217 28.2011 40.4374 28.9927 40.4404C29.7843 40.4434 30.545 40.1334 31.109 39.578L35.125 35.734C35.3114 35.5468 35.5638 35.4402 35.828 35.437H53C54.3256 35.4354 55.5964 34.9081 56.5338 33.9708C57.4711 33.0335 57.9984 31.7626 58 30.437V5.43701C57.9984 4.11142 57.4711 2.84057 56.5338 1.90323C55.5964 0.965894 54.3256 0.4386 53 0.437012V0.437012ZM56 30.437C56 31.2327 55.6839 31.9957 55.1213 32.5583C54.5587 33.1209 53.7956 33.437 53 33.437H35.828C35.4376 33.4352 35.0507 33.5105 34.6894 33.6586C34.3282 33.8067 33.9998 34.0247 33.723 34.3L29.707 38.144C29.6118 38.237 29.4991 38.3102 29.3755 38.3596C29.252 38.4091 29.1199 38.4336 28.9868 38.4319C28.8537 38.4303 28.7222 38.4024 28.5999 38.3499C28.4776 38.2974 28.3669 38.2213 28.274 38.126L24.879 34.901C24.4157 34.4353 23.8646 34.0661 23.2576 33.8149C22.6507 33.5636 21.9999 33.4351 21.343 33.437H5C4.20435 33.437 3.44129 33.1209 2.87868 32.5583C2.31607 31.9957 2 31.2327 2 30.437V5.43701C2 4.64136 2.31607 3.8783 2.87868 3.31569C3.44129 2.75308 4.20435 2.43701 5 2.43701H53C53.7956 2.43701 54.5587 2.75308 55.1213 3.31569C55.6839 3.8783 56 4.64136 56 5.43701V30.437Z" fill="#383838"/>
<path d="M24 11.437H15C14.7348 11.437 14.4804 11.5424 14.2929 11.7299C14.1054 11.9174 14 12.1718 14 12.437C14 12.7022 14.1054 12.9566 14.2929 13.1441C14.4804 13.3317 14.7348 13.437 15 13.437H24C24.2652 13.437 24.5196 13.3317 24.7071 13.1441C24.8946 12.9566 25 12.7022 25 12.437C25 12.1718 24.8946 11.9174 24.7071 11.7299C24.5196 11.5424 24.2652 11.437 24 11.437Z" fill="#383838"/>
<path d="M24 15.437H7C6.73478 15.437 6.48043 15.5424 6.29289 15.7299C6.10536 15.9174 6 16.1718 6 16.437C6 16.7022 6.10536 16.9566 6.29289 17.1441C6.48043 17.3317 6.73478 17.437 7 17.437H24C24.2652 17.437 24.5196 17.3317 24.7071 17.1441C24.8946 16.9566 25 16.7022 25 16.437C25 16.1718 24.8946 15.9174 24.7071 15.7299C24.5196 15.5424 24.2652 15.437 24 15.437Z" fill="#383838"/>
<path d="M24 19.437H7C6.73478 19.437 6.48043 19.5424 6.29289 19.7299C6.10536 19.9174 6 20.1718 6 20.437C6 20.7022 6.10536 20.9566 6.29289 21.1441C6.48043 21.3317 6.73478 21.437 7 21.437H24C24.2652 21.437 24.5196 21.3317 24.7071 21.1441C24.8946 20.9566 25 20.7022 25 20.437C25 20.1718 24.8946 19.9174 24.7071 19.7299C24.5196 19.5424 24.2652 19.437 24 19.437Z" fill="#383838"/>
<path d="M21 23.437H7C6.73478 23.437 6.48043 23.5424 6.29289 23.7299C6.10536 23.9174 6 24.1718 6 24.437C6 24.7022 6.10536 24.9566 6.29289 25.1441C6.48043 25.3317 6.73478 25.437 7 25.437H21C21.2652 25.437 21.5196 25.3317 21.7071 25.1441C21.8946 24.9566 22 24.7022 22 24.437C22 24.1718 21.8946 23.9174 21.7071 23.7299C21.5196 23.5424 21.2652 23.437 21 23.437Z" fill="#383838"/>
<path d="M51.1442 14.3568L45.0932 13.4778L42.3862 7.99478C42.2944 7.83862 42.1633 7.70916 42.0061 7.61921C41.8489 7.52925 41.6708 7.48193 41.4897 7.48193C41.3085 7.48193 41.1305 7.52925 40.9733 7.61921C40.816 7.70916 40.685 7.83862 40.5932 7.99478L37.8872 13.4778L31.8352 14.3568C31.6504 14.3835 31.4768 14.4613 31.334 14.5816C31.1911 14.7018 31.0848 14.8596 31.0271 15.0372C30.9693 15.2147 30.9624 15.4049 31.0072 15.5861C31.0519 15.7674 31.1465 15.9325 31.2802 16.0628L35.6602 20.3308L34.6262 26.3578C34.5945 26.5418 34.6149 26.7309 34.6851 26.9039C34.7553 27.0769 34.8726 27.2268 35.0236 27.3366C35.1746 27.4464 35.3533 27.5117 35.5395 27.5252C35.7257 27.5386 35.912 27.4997 36.0772 27.4128L41.4892 24.5668L46.9002 27.4128C47.0442 27.4875 47.204 27.5266 47.3662 27.5268C47.5118 27.5268 47.6558 27.4951 47.7879 27.4337C47.92 27.3723 48.0371 27.2829 48.131 27.1715C48.2249 27.0602 48.2933 26.9297 48.3316 26.7891C48.3698 26.6486 48.3768 26.5013 48.3522 26.3578L47.3182 20.3308L51.7002 16.0618C51.8321 15.9313 51.9252 15.7668 51.969 15.5864C52.0127 15.4061 52.0054 15.2172 51.9479 15.0408C51.8905 14.8644 51.785 14.7074 51.6434 14.5875C51.5018 14.4676 51.3297 14.3894 51.1462 14.3618L51.1442 14.3568ZM45.5442 19.2658C45.4282 19.379 45.3415 19.5187 45.2915 19.6729C45.2415 19.827 45.2297 19.9911 45.2572 20.1508L46.0362 24.6988L41.9522 22.5518C41.8085 22.4761 41.6486 22.4366 41.4862 22.4366C41.3238 22.4366 41.1639 22.4761 41.0202 22.5518L36.9362 24.6988L37.7172 20.1508C37.7446 19.9911 37.7329 19.827 37.6829 19.6729C37.6329 19.5187 37.5462 19.379 37.4302 19.2658L34.1302 16.0448L38.6962 15.3818C38.8567 15.3584 39.0092 15.2963 39.1404 15.2008C39.2716 15.1053 39.3775 14.9794 39.4492 14.8338L41.4912 10.6968L43.5322 14.8368C43.6038 14.9824 43.7098 15.1083 43.841 15.2038C43.9722 15.2993 44.1246 15.3614 44.2852 15.3848L48.8512 16.0478L45.5442 19.2658Z" fill="#383838"/>
</svg>
