<svg width="46" height="46" viewBox="0 0 46 46" fill="none" xmlns="http://www.w3.org/2000/svg">
<path d="M22.7197 45.4404C18.2261 45.4404 13.8335 44.1078 10.0972 41.6112C6.36095 39.1146 3.44891 35.5661 1.72935 31.4145C0.00978029 27.263 -0.440088 22.6947 0.436631 18.2874C1.31335 13.8802 3.47728 9.83187 6.65478 6.65444C9.83228 3.47701 13.8806 1.31316 18.2879 0.436538C22.6952 -0.440088 27.2634 0.00987613 31.415 1.72953C35.5665 3.44918 39.1149 6.36129 41.6114 10.0976C44.1079 13.8339 45.4404 18.2266 45.4404 22.7202C45.4336 28.744 43.0376 34.519 38.7781 38.7784C34.5186 43.0378 28.7435 45.4337 22.7197 45.4404ZM22.7197 2.00002C18.6217 2.00012 14.6157 3.21542 11.2083 5.49224C7.80098 7.76907 5.14529 11.0052 3.5771 14.7913C2.00891 18.5774 1.59865 22.7436 2.3982 26.7629C3.19775 30.7821 5.1712 34.4741 8.069 37.3718C10.9668 40.2695 14.6588 42.2429 18.6781 43.0424C22.6974 43.8418 26.8635 43.4315 30.6496 41.8632C34.4357 40.2949 37.6718 37.6391 39.9485 34.2317C42.2252 30.8243 43.4405 26.8183 43.4404 22.7202C43.4343 17.2267 41.2492 11.96 37.3646 8.0755C33.4801 4.19103 28.2133 2.00609 22.7197 2.00002V2.00002Z" fill="#383838"/>
<path d="M19.1875 30.7837H14.4199C14.2886 30.7837 14.1585 30.7579 14.0372 30.7076C13.9159 30.6574 13.8056 30.5837 13.7127 30.4909C13.6199 30.398 13.5462 30.2878 13.496 30.1664C13.4457 30.0451 13.4199 29.915 13.4199 29.7837V14.5972C13.4199 14.4658 13.4457 14.3358 13.496 14.2144C13.5462 14.0931 13.6199 13.9829 13.7127 13.89C13.8056 13.7971 13.9159 13.7235 14.0372 13.6732C14.1585 13.623 14.2886 13.5971 14.4199 13.5972H19.1875C19.3188 13.5971 19.4489 13.623 19.5702 13.6732C19.6916 13.7235 19.8018 13.7971 19.8947 13.89C19.9875 13.9829 20.0612 14.0931 20.1114 14.2144C20.1617 14.3358 20.1875 14.4658 20.1875 14.5972V29.7837C20.1875 29.915 20.1617 30.0451 20.1114 30.1664C20.0612 30.2878 19.9875 30.398 19.8947 30.4909C19.8018 30.5837 19.6916 30.6574 19.5702 30.7076C19.4489 30.7579 19.3188 30.7837 19.1875 30.7837ZM15.4199 28.7837H18.1875V15.5972H15.4199V28.7837Z" fill="#383838"/>
<path d="M31.0195 30.7837H26.252C26.1206 30.7837 25.9906 30.7579 25.8692 30.7076C25.7479 30.6574 25.6376 30.5837 25.5448 30.4909C25.4519 30.398 25.3782 30.2878 25.328 30.1664C25.2778 30.0451 25.2519 29.915 25.252 29.7837V14.5972C25.2519 14.4658 25.2778 14.3358 25.328 14.2144C25.3782 14.0931 25.4519 13.9829 25.5448 13.89C25.6376 13.7971 25.7479 13.7235 25.8692 13.6732C25.9906 13.623 26.1206 13.5971 26.252 13.5972H31.0195C31.1509 13.5971 31.2809 13.623 31.4022 13.6732C31.5236 13.7235 31.6338 13.7971 31.7267 13.89C31.8196 13.9829 31.8932 14.0931 31.9435 14.2144C31.9937 14.3358 32.0196 14.4658 32.0195 14.5972V29.7837C32.0196 29.915 31.9937 30.0451 31.9435 30.1664C31.8932 30.2878 31.8196 30.398 31.7267 30.4909C31.6338 30.5837 31.5236 30.6574 31.4022 30.7076C31.2809 30.7579 31.1509 30.7837 31.0195 30.7837ZM27.252 28.7837H30.0195V15.5972H27.252V28.7837Z" fill="#383838"/>
</svg>
