<svg width="43" height="45" viewBox="0 0 43 45" fill="none" xmlns="http://www.w3.org/2000/svg">
<path d="M22.2891 14.3437C22.2891 13.9219 22.0078 13.6406 21.5859 13.6406H15.75V7.80469C15.75 7.38281 15.4688 7.10156 15.0469 7.10156C11.0391 7.10156 7.80469 10.3359 7.80469 14.3437C7.80469 18.3516 11.0391 21.5859 15.0469 21.5859C19.0547 21.5859 22.2891 18.2812 22.2891 14.3437ZM9.28125 14.3437C9.28125 11.3906 11.5313 8.92969 14.4141 8.57812V14.3437C14.4141 14.7656 14.6953 15.0469 15.1172 15.0469H20.8828C20.5313 17.9297 18.0703 20.1797 15.1172 20.1797C11.8828 20.1094 9.28125 17.5078 9.28125 14.3437Z" fill="black"/>
<path d="M18.3516 11.7422H24.8203C25.2422 11.7422 25.5234 11.4609 25.5234 11.0391C25.5234 7.03125 22.2891 3.79688 18.2812 3.79688C17.8594 3.79688 17.5781 4.07812 17.5781 4.5V11.0391C17.6484 11.4609 17.9297 11.7422 18.3516 11.7422ZM19.0547 5.27344C21.7266 5.625 23.7656 7.66406 24.1172 10.3359H19.0547V5.27344Z" fill="black"/>
<path d="M7.94531 36H4.35938C3.9375 36 3.65625 36.2812 3.65625 36.7031V40.6406C3.65625 41.0625 3.9375 41.3437 4.35938 41.3437H7.94531C8.36719 41.3437 8.64844 41.0625 8.64844 40.6406V36.7031C8.64844 36.2812 8.36719 36 7.94531 36ZM7.24219 39.9375H5.0625V37.4062H7.24219V39.9375Z" fill="black"/>
<path d="M14.9766 26.2969H11.3906C10.9687 26.2969 10.6875 26.5781 10.6875 27V40.6406C10.6875 41.0625 10.9687 41.3437 11.3906 41.3437H14.9766C15.3984 41.3437 15.6797 41.0625 15.6797 40.6406V27C15.6797 26.5781 15.3984 26.2969 14.9766 26.2969ZM14.2734 39.9375H12.0938V27.7031H14.2734V39.9375Z" fill="black"/>
<path d="M22.0078 33.3281H18.4219C18 33.3281 17.7188 33.6094 17.7188 34.0312V40.6406C17.7188 41.0625 18 41.3437 18.4219 41.3437H22.0078C22.4297 41.3437 22.7109 41.0625 22.7109 40.6406V34.0312C22.7109 33.6094 22.3594 33.3281 22.0078 33.3281ZM21.3047 39.9375H19.125V34.7344H21.3047V39.9375Z" fill="black"/>
<path d="M29.0391 28.3359H25.4531C25.0312 28.3359 24.75 28.6172 24.75 29.0391V40.6406C24.75 41.0625 25.0312 41.3438 25.4531 41.3438H29.0391C29.4609 41.3438 29.7422 41.0625 29.7422 40.6406V29.0391C29.7422 28.6172 29.3906 28.3359 29.0391 28.3359ZM28.3359 39.9375H26.1562V29.7422H28.3359V39.9375Z" fill="black"/>
<path d="M42.3984 29.0391L37.8281 24.3984C38.7422 23.2734 39.3047 21.8672 39.3047 20.25C39.3047 16.875 36.7031 14.0625 33.4688 13.7109V2.8125C33.4688 1.26562 32.2031 0 30.6562 0H2.8125C1.26562 0 0 1.26562 0 2.8125V42.1875C0 43.7344 1.26562 45 2.8125 45H30.5859C32.1328 45 33.3984 43.7344 33.3984 42.1875V26.8594C34.6641 26.7188 35.8594 26.2266 36.8438 25.4531L41.4141 30.0938C41.5547 30.2344 41.7656 30.3047 41.9062 30.3047C42.0469 30.3047 42.2578 30.2344 42.3984 30.0938C42.6797 29.7422 42.6797 29.3203 42.3984 29.0391ZM37.8281 20.3203C37.8281 23.1328 35.5078 25.4531 32.6953 25.4531C29.8828 25.4531 27.5625 23.1328 27.5625 20.3203C27.5625 17.5078 29.8828 15.1875 32.6953 15.1875C35.5781 15.1172 37.8281 17.4375 37.8281 20.3203ZM30.5859 43.5938H2.8125C2.03906 43.5938 1.40625 42.9609 1.40625 42.1875V2.8125C1.40625 2.03906 2.03906 1.40625 2.8125 1.40625H30.5859C31.3594 1.40625 31.9922 2.03906 31.9922 2.8125V13.7812C28.6875 14.1328 26.1562 16.9453 26.1562 20.3203C26.1562 23.6953 28.7578 26.5078 31.9922 26.8594V42.1875C31.9922 42.9609 31.3594 43.5938 30.5859 43.5938Z" fill="black"/>
</svg>
