<svg width="45" height="45" viewBox="0 0 45 45" fill="none" xmlns="http://www.w3.org/2000/svg">
<path d="M43.0042 39.7897V5.21034C43.4573 5.09551 43.872 4.86267 44.2059 4.53551C44.5398 4.20835 44.7811 3.79856 44.9051 3.34785C45.0292 2.89714 45.0316 2.4216 44.9122 1.96965C44.7927 1.5177 44.5556 1.10546 44.2251 0.774908C43.8945 0.444355 43.4823 0.207285 43.0304 0.0878326C42.5784 -0.03162 42.1029 -0.0291899 41.6522 0.0948734C41.2014 0.218937 40.7917 0.460204 40.4645 0.794117C40.1373 1.12803 39.9045 1.54266 39.7897 1.99582H5.21034C5.09551 1.54266 4.86267 1.12803 4.53551 0.794117C4.20835 0.460204 3.79856 0.218937 3.34785 0.0948734C2.89714 -0.0291899 2.4216 -0.03162 1.96965 0.0878326C1.5177 0.207285 1.10546 0.444355 0.774908 0.774908C0.444355 1.10546 0.207285 1.5177 0.0878326 1.96965C-0.03162 2.4216 -0.0291899 2.89714 0.0948734 3.34785C0.218937 3.79856 0.460204 4.20835 0.794117 4.53551C1.12803 4.86267 1.54266 5.09551 1.99582 5.21034V39.7897C1.54266 39.9045 1.12803 40.1373 0.794117 40.4645C0.460204 40.7917 0.218937 41.2014 0.0948734 41.6522C-0.0291899 42.1029 -0.03162 42.5784 0.0878326 43.0304C0.207285 43.4823 0.444355 43.8945 0.774908 44.2251C1.10546 44.5556 1.5177 44.7927 1.96965 44.9122C2.4216 45.0316 2.89714 45.0292 3.34785 44.9051C3.79856 44.7811 4.20835 44.5398 4.53551 44.2059C4.86267 43.872 5.09551 43.4573 5.21034 43.0042H39.7897C39.9045 43.4573 40.1373 43.872 40.4645 44.2059C40.7917 44.5398 41.2014 44.7811 41.6522 44.9051C42.1029 45.0292 42.5784 45.0316 43.0304 44.9122C43.4823 44.7927 43.8945 44.5556 44.2251 44.2251C44.5556 43.8945 44.7927 43.4823 44.9122 43.0304C45.0316 42.5784 45.0292 42.1029 44.9051 41.6522C44.7811 41.2014 44.5398 40.7917 44.2059 40.4645C43.872 40.1373 43.4573 39.9045 43.0042 39.7897ZM39.7897 41.6813H5.21034C5.09158 41.2264 4.85371 40.8113 4.52122 40.4788C4.18873 40.1463 3.77363 39.9084 3.31867 39.7897V5.21034C3.77363 5.09158 4.18873 4.85371 4.52122 4.52122C4.85371 4.18873 5.09158 3.77363 5.21034 3.31867H39.7897C39.9084 3.77363 40.1463 4.18873 40.4788 4.52122C40.8113 4.85371 41.2264 5.09158 41.6813 5.21034V39.7897C41.2264 39.9084 40.8113 40.1463 40.4788 40.4788C40.1463 40.8113 39.9084 41.2264 39.7897 41.6813ZM42.3428 1.33439C42.6044 1.33439 42.8602 1.41197 43.0777 1.55733C43.2952 1.70269 43.4648 1.90929 43.5649 2.15101C43.665 2.39273 43.6912 2.65871 43.6402 2.91532C43.5892 3.17192 43.4632 3.40763 43.2782 3.59264C43.0932 3.77764 42.8574 3.90363 42.6008 3.95467C42.3442 4.00572 42.0782 3.97952 41.8365 3.8794C41.5948 3.77927 41.3882 3.60972 41.2429 3.39218C41.0975 3.17464 41.0199 2.91888 41.0199 2.65724C41.0199 2.3064 41.1593 1.96993 41.4074 1.72184C41.6554 1.47376 41.9919 1.33439 42.3428 1.33439ZM1.33439 2.65724C1.33439 2.39561 1.41197 2.13985 1.55733 1.9223C1.70269 1.70476 1.90929 1.53521 2.15101 1.43509C2.39273 1.33496 2.65871 1.30877 2.91532 1.35981C3.17192 1.41085 3.40763 1.53684 3.59264 1.72184C3.77764 1.90685 3.90363 2.14256 3.95467 2.39917C4.00572 2.65577 3.97952 2.92175 3.8794 3.16347C3.77927 3.40519 3.60972 3.61179 3.39218 3.75715C3.17464 3.90251 2.91888 3.98009 2.65724 3.98009C2.3064 3.98009 1.96993 3.84072 1.72184 3.59264C1.47376 3.34455 1.33439 3.00808 1.33439 2.65724ZM2.65724 43.6656C2.39561 43.6656 2.13985 43.588 1.9223 43.4427C1.70476 43.2973 1.53521 43.0907 1.43509 42.849C1.33496 42.6073 1.30877 42.3413 1.35981 42.0847C1.41085 41.8281 1.53684 41.5924 1.72184 41.4074C1.90685 41.2224 2.14256 41.0964 2.39917 41.0453C2.65577 40.9943 2.92175 41.0205 3.16347 41.1206C3.40519 41.2207 3.61179 41.3903 3.75715 41.6078C3.90251 41.8254 3.98009 42.0811 3.98009 42.3428C3.98009 42.6936 3.84072 43.0301 3.59264 43.2782C3.34455 43.5262 3.00808 43.6656 2.65724 43.6656ZM42.3428 43.6656C42.0811 43.6656 41.8254 43.588 41.6078 43.4427C41.3903 43.2973 41.2207 43.0907 41.1206 42.849C41.0205 42.6073 40.9943 42.3413 41.0453 42.0847C41.0964 41.8281 41.2224 41.5924 41.4074 41.4074C41.5924 41.2224 41.8281 41.0964 42.0847 41.0453C42.3413 40.9943 42.6073 41.0205 42.849 41.1206C43.0907 41.2207 43.2973 41.3903 43.4427 41.6078C43.588 41.8254 43.6656 42.0811 43.6656 42.3428C43.6656 42.6936 43.5262 43.0301 43.2782 43.2782C43.0301 43.5262 42.6936 43.6656 42.3428 43.6656ZM33.0828 24.8679L33.1225 24.815C33.6879 24.0656 34.1341 23.2335 34.4453 22.3479C34.4736 22.2855 34.4979 22.2214 34.5181 22.1561C34.5776 21.9907 34.6239 21.8187 34.6702 21.6534C34.7165 21.488 34.7298 21.4285 34.7562 21.316C34.7827 21.2036 34.829 21.025 34.8554 20.8795C34.8819 20.734 34.9017 20.562 34.9282 20.4033C34.9546 20.2445 34.9282 20.1718 34.9679 20.0527C34.9679 19.7683 35.0142 19.4839 35.0142 19.1929C35.0142 18.9018 35.0142 18.6174 34.9679 18.333V18.1081C34.9679 17.8833 34.9017 17.6584 34.862 17.4467C34.862 17.3872 34.862 17.3343 34.862 17.2747C34.3713 14.9345 32.9881 12.8775 31.0059 11.5402L30.8935 11.474C30.7149 11.355 30.5363 11.2425 30.3445 11.1367C30.1527 11.0309 30.1593 11.0309 30.0601 10.9846L29.6566 10.7928L29.2928 10.5943H29.2598C28.1629 10.1514 26.9901 9.92675 25.8071 9.93292C23.7612 9.94039 21.7748 10.6223 20.1558 11.8731C18.5367 13.1239 17.3753 14.8737 16.8514 16.8514C14.9653 17.3425 13.2822 18.4161 12.0418 19.9194C10.8014 21.4228 10.067 23.2792 9.94313 25.2242C9.81927 27.1693 10.3123 29.1038 11.352 30.7524C12.3917 32.4009 13.925 33.6794 15.7336 34.4057L15.8924 34.4652C16.104 34.5446 16.3223 34.6239 16.5538 34.6901L16.7985 34.7562C17.0036 34.8091 17.202 34.862 17.4136 34.9017L17.8303 34.9679C17.9825 34.9679 18.1346 35.0208 18.2933 35.034C18.5924 35.0614 18.8927 35.0725 19.1929 35.0671C19.4839 35.0671 19.7683 35.0671 20.0527 35.0208C20.1718 35.0208 20.2842 35.0208 20.4033 34.9811L20.8795 34.9083C21.025 34.8819 21.1705 34.8488 21.316 34.8091L21.6534 34.7231C21.8187 34.6768 21.9907 34.6305 22.1561 34.571L22.3479 34.4983C23.2335 34.187 24.0656 33.7408 24.815 33.1754L24.8679 33.1357C25.0399 33.0034 25.2052 32.8645 25.364 32.719L25.483 32.6132C25.6285 32.4743 25.7741 32.3354 25.913 32.1833L26.0519 32.0311C26.1841 31.8856 26.3098 31.7467 26.4289 31.5946L26.5744 31.4028C26.7596 31.1581 26.9316 30.9001 27.0969 30.6355C27.163 30.5231 27.2358 30.4173 27.2953 30.3048C27.3549 30.1924 27.4144 30.0733 27.4739 29.9543L27.6723 29.5442C27.7253 29.4251 27.7649 29.3061 27.8179 29.187C27.8708 29.068 27.9237 28.9026 27.97 28.7571C28.0166 28.6315 28.0564 28.5034 28.089 28.3735C28.089 28.3073 28.1353 28.2412 28.1486 28.175C28.1618 28.1089 28.2809 28.1353 28.347 28.1155C28.4769 28.0828 28.605 28.0431 28.7306 27.9964L29.1606 27.8443L29.5177 27.6988L29.9278 27.5004C30.0469 27.4408 30.1659 27.3879 30.2784 27.3218L30.6025 27.1234C30.867 26.9646 31.125 26.786 31.3763 26.6008C31.443 26.5561 31.5071 26.5075 31.5681 26.4553C31.7203 26.3363 31.8592 26.2106 32.0047 26.0783L32.1568 25.9394C32.3089 25.8005 32.4478 25.655 32.5867 25.5095L32.6926 25.3904C32.8381 25.2273 32.9682 25.0531 33.0828 24.8679ZM33.6781 19.9403C33.6781 20.0461 33.6781 20.1519 33.6384 20.2578L33.5789 20.6546C33.5789 20.7869 33.5193 20.9258 33.4863 21.0581C33.4532 21.1904 33.44 21.2433 33.4135 21.3293C33.3751 21.4837 33.3287 21.636 33.2746 21.7857L33.2085 21.9642C33.1423 22.1362 33.0762 22.3016 33.0034 22.4669C33.001 22.4911 33.001 22.5155 33.0034 22.5397C32.6351 23.3243 32.1414 24.0437 31.5417 24.6695C31.4159 24.8018 31.2835 24.9277 31.1448 25.0465L31.0192 25.1655C30.9001 25.2714 30.7744 25.3706 30.6488 25.4698L30.4437 25.6153C30.3313 25.7013 30.2122 25.7807 30.0865 25.86L29.8286 26.0188L29.478 26.2172L29.1738 26.3627C29.0613 26.4156 28.9489 26.4752 28.8298 26.5215L28.4925 26.6471H28.4198C28.4198 26.3627 28.4661 26.0717 28.4661 25.7741C28.4658 24.469 28.1878 23.1789 27.6507 21.9895C27.1136 20.8001 26.3296 19.7386 25.3507 18.8754L29.3193 12.0363L29.478 12.109L29.7095 12.2347C31.4749 13.2258 32.7986 14.8497 33.4135 16.7787V16.8117C33.4898 17.0531 33.5538 17.2981 33.6053 17.5459C33.6053 17.5459 33.6053 17.5922 33.6053 17.6121C33.645 17.8237 33.6781 18.0354 33.7045 18.2735C33.7078 18.333 33.7078 18.3926 33.7045 18.4521C33.7316 18.6981 33.7449 18.9454 33.7442 19.1929C33.7444 19.4425 33.7311 19.692 33.7045 19.9403H33.6781ZM26.5347 28.8166C26.4884 28.9357 26.4289 29.0481 26.376 29.1606C26.323 29.273 26.2834 29.3656 26.2304 29.4648L26.032 29.8154L25.8733 30.0733C25.7939 30.199 25.7145 30.318 25.6285 30.4305C25.5426 30.5429 25.5293 30.5694 25.483 30.6355C25.4367 30.7017 25.2846 30.8869 25.1788 31.0059L25.0597 31.1316C24.9409 31.2702 24.8151 31.4027 24.6827 31.5285C24.0569 32.1282 23.3375 32.6219 22.5529 32.9902H22.4802L21.9775 33.1952L21.7989 33.2614C21.6492 33.3155 21.4969 33.3619 21.3425 33.4003L21.0713 33.473L20.6679 33.5656L20.271 33.6252C20.1652 33.6252 20.0593 33.6582 19.9535 33.6649C19.7016 33.7052 19.4477 33.7317 19.1929 33.7442C18.9548 33.7442 18.7166 33.7442 18.4785 33.7442H18.2603C18.0883 33.7442 17.9296 33.6979 17.7642 33.6649C17.5988 33.6318 17.6055 33.6649 17.5327 33.6252C17.3409 33.5855 17.1491 33.5326 16.9573 33.4797L20.7142 26.9778C22.2288 27.9619 24.001 28.4752 25.8071 28.4528C26.1048 28.4528 26.3958 28.4528 26.6802 28.4065V28.4793C26.6207 28.5917 26.581 28.7042 26.5347 28.8166ZM27.0241 27.0241C26.6221 27.0931 26.215 27.1285 25.8071 27.13C24.2263 27.1331 22.6816 26.6581 21.3756 25.7674L24.6827 20.0726C25.46 20.8111 26.0781 21.7008 26.4989 22.687C26.9198 23.6731 27.1345 24.7349 27.13 25.8071C27.1285 26.215 27.0931 26.6221 27.0241 27.0241ZM11.2558 25.8071C11.2568 23.99 11.8813 22.2283 13.0249 20.8162C14.1685 19.4041 15.7621 18.4272 17.5393 18.0486C17.6643 18.022 17.779 17.9597 17.8694 17.8694C17.9597 17.779 18.022 17.6643 18.0486 17.5393C18.4272 15.7621 19.4041 14.1685 20.8162 13.0249C22.2283 11.8813 23.99 11.2568 25.8071 11.2558C26.5638 11.2586 27.3164 11.3677 28.0427 11.5799L23.9221 18.7166L15.7138 32.9307C14.3785 32.2795 13.2528 31.2666 12.4647 30.0073C11.6766 28.748 11.2577 27.2927 11.2558 25.8071Z" fill="black"/>
</svg>
