<svg width="40" height="40" viewBox="0 0 40 40" fill="none" xmlns="http://www.w3.org/2000/svg">
<path d="M35.7624 19.3517V6.8504C35.7624 5.96672 35.4114 5.11924 34.7866 4.49438C34.1617 3.86953 33.3142 3.51849 32.4305 3.51849H28.7654V1.11064C28.7654 0.816076 28.6484 0.533582 28.4402 0.325297C28.2319 0.117013 27.9494 0 27.6548 0C27.3603 0 27.0778 0.117013 26.8695 0.325297C26.6612 0.533582 26.5442 0.816076 26.5442 1.11064V3.51849H9.00059V1.11064C9.00059 0.816076 8.88357 0.533582 8.67529 0.325297C8.467 0.117013 8.18451 0 7.88995 0C7.59539 0 7.3129 0.117013 7.10461 0.325297C6.89633 0.533582 6.77932 0.816076 6.77932 1.11064V3.51849H3.33191C2.44823 3.51849 1.60075 3.86953 0.975892 4.49438C0.351039 5.11924 0 5.96672 0 6.8504V32.4305C0 33.3142 0.351039 34.1617 0.975892 34.7866C1.60075 35.4114 2.44823 35.7624 3.33191 35.7624H19.3517C20.3857 37.0154 21.6702 38.0385 23.1227 38.7659C24.5753 39.4934 26.1639 39.9092 27.7866 39.9867C29.4093 40.0642 31.0302 39.8017 32.5455 39.216C34.0608 38.6303 35.437 37.7344 36.5857 36.5857C37.7344 35.437 38.6303 34.0608 39.216 32.5455C39.8017 31.0302 40.0642 29.4093 39.9867 27.7866C39.9092 26.1639 39.4934 24.5753 38.7659 23.1227C38.0385 21.6702 37.0154 20.3857 35.7624 19.3517ZM3.33191 5.73976H6.77932V8.14318C6.77932 8.43773 6.89633 8.72023 7.10461 8.92851C7.3129 9.1368 7.59539 9.25381 7.88995 9.25381C8.18451 9.25381 8.467 9.1368 8.67529 8.92851C8.88357 8.72023 9.00059 8.43773 9.00059 8.14318V5.73976H26.5442V8.14318C26.5442 8.43773 26.6612 8.72023 26.8695 8.92851C27.0778 9.1368 27.3603 9.25381 27.6548 9.25381C27.9494 9.25381 28.2319 9.1368 28.4402 8.92851C28.6484 8.72023 28.7654 8.43773 28.7654 8.14318V5.73976H32.4305C32.7251 5.73976 33.0076 5.85677 33.2159 6.06506C33.4242 6.27334 33.5412 6.55584 33.5412 6.8504V12.217H2.22127V6.8504C2.22127 6.55584 2.33828 6.27334 2.54657 6.06506C2.75485 5.85677 3.03735 5.73976 3.33191 5.73976ZM3.33191 33.5412C3.03735 33.5412 2.75485 33.4242 2.54657 33.2159C2.33828 33.0076 2.22127 32.7251 2.22127 32.4305V14.4383H33.5412V17.899C31.3526 16.8003 28.8734 16.419 26.4558 16.8094C24.0382 17.1997 21.8051 18.3418 20.0734 20.0734C18.3418 21.8051 17.1997 24.0382 16.8094 26.4558C16.419 28.8734 16.8003 31.3526 17.899 33.5412H3.33191ZM28.3212 37.7616C26.4541 37.7616 24.6289 37.2079 23.0764 36.1706C21.5239 35.1333 20.3139 33.6589 19.5994 31.9339C18.8849 30.2089 18.6979 28.3107 19.0622 26.4795C19.4265 24.6482 20.3256 22.9661 21.6458 21.6458C22.9661 20.3256 24.6482 19.4265 26.4795 19.0622C28.3107 18.6979 30.2089 18.8849 31.9339 19.5994C33.6589 20.3139 35.1333 21.5239 36.1706 23.0764C37.2079 24.6289 37.7616 26.4541 37.7616 28.3212C37.7592 30.8242 36.7639 33.2241 34.994 34.994C33.2241 36.7639 30.8242 37.7592 28.3212 37.7616Z" fill="black"/>
<path d="M29.4322 27.2106V23.4744C29.4322 23.1798 29.3152 22.8973 29.1069 22.689C28.8986 22.4808 28.6161 22.3637 28.3216 22.3637C28.027 22.3637 27.7445 22.4808 27.5362 22.689C27.3279 22.8973 27.2109 23.1798 27.2109 23.4744V27.988C27.2109 28.3662 27.3612 28.7289 27.6286 28.9964C27.8961 29.2638 28.2588 29.4141 28.637 29.4141H34.5767C34.8712 29.4141 35.1537 29.297 35.362 29.0888C35.5703 28.8805 35.6873 28.598 35.6873 28.3034C35.6873 28.0089 35.5703 27.7264 35.362 27.5181C35.1537 27.3098 34.8712 27.1928 34.5767 27.1928L29.4322 27.2106Z" fill="black"/>
</svg>
