<svg width="50" height="50" viewBox="0 0 50 50" fill="none" xmlns="http://www.w3.org/2000/svg">
<path d="M37.7126 14.4976C37.5993 14.1751 37.4046 13.8874 37.1474 13.6623C36.8902 13.4372 36.5791 13.2825 36.2445 13.213C35.8091 13.1594 35.3672 13.2016 34.9498 13.3364C34.5323 13.4713 34.1493 13.6957 33.8276 13.9939C33.566 14.2516 33.4098 14.4117 32.8983 21.3657C32.6601 24.6065 32.4336 28.2885 32.4336 28.9444C32.4336 29.452 32.2462 31.1544 32.0432 32.8919C32.0002 32.7904 31.9573 32.685 31.9143 32.564C31.3013 30.8811 29.884 29.4403 27.9161 28.5227C26.6041 27.9058 25.3234 27.9527 24.4918 28.6555C24.1897 28.904 23.9657 29.2344 23.8466 29.6069C23.7275 29.9795 23.7183 30.3785 23.8202 30.7562C24.0193 31.4785 24.5308 32.193 25.1243 33.0247C25.6697 33.7282 26.1482 34.4811 26.5534 35.2737C26.9072 36.0971 27.1957 36.947 27.4163 37.8156C27.6711 38.8352 28.0242 39.8277 28.4705 40.7792C28.6814 41.1891 28.9078 41.6264 29.1421 42.0716C29.8686 43.3807 30.5204 44.73 31.0944 46.1128C31.7738 47.944 34.5733 49.6503 34.8896 49.8377C35.0658 49.9173 35.2652 49.9288 35.4493 49.8698C35.6335 49.8109 35.7892 49.6857 35.8863 49.5186C35.9835 49.3515 36.0152 49.1543 35.9754 48.9651C35.9355 48.7759 35.8269 48.6083 35.6705 48.4946C34.6553 47.8894 32.9061 46.5423 32.5469 45.5661C31.9581 44.1211 31.2854 42.7118 30.5321 41.3453C30.3018 40.9041 30.0753 40.4746 29.8683 40.0685C29.4592 39.2089 29.1336 38.3119 28.8961 37.39C28.6535 36.4423 28.3363 35.5153 27.9473 34.6178C27.5065 33.7363 26.9836 32.8983 26.3855 32.1149C25.9467 31.5777 25.5865 30.9808 25.3156 30.3423C25.2885 30.252 25.2893 30.1556 25.3179 30.0657C25.3464 29.9758 25.4015 29.8967 25.4757 29.8386C25.7451 29.6082 26.3503 29.5145 27.2289 29.9245C29.3725 30.9319 30.1495 32.3375 30.4228 33.0872C30.6839 33.887 31.1308 34.6136 31.7269 35.2074C31.6566 35.754 31.5942 36.2382 31.5473 36.5974C31.5326 36.7009 31.5388 36.8064 31.5655 36.9075C31.5923 37.0087 31.6392 37.1034 31.7033 37.186C31.7674 37.2687 31.8474 37.3376 31.9387 37.3888C32.0299 37.4399 32.1305 37.4722 32.2345 37.4837H32.3399C32.5306 37.4853 32.7153 37.4171 32.8591 37.292C33.003 37.1668 33.0961 36.9934 33.1208 36.8043C33.2107 36.1249 34.0072 30.1314 34.0072 28.9366C34.0072 27.4841 34.7608 16.6724 35.0653 15.0013C35.3246 14.8207 35.636 14.7302 35.9517 14.7436C36.0102 14.7436 36.1469 14.7865 36.2757 15.0911C36.5139 15.7431 36.5491 19.7531 36.4632 24.6611C36.4632 24.6924 36.4632 24.7197 36.4632 24.747C36.4632 24.7744 36.4632 24.747 36.4632 24.7744C36.4163 27.4099 36.3343 30.2993 36.2328 33.0598C36.2289 33.1624 36.2453 33.2647 36.281 33.3609C36.3167 33.4571 36.371 33.5454 36.4408 33.6206C36.5106 33.6958 36.5945 33.7566 36.6878 33.7994C36.7811 33.8422 36.8819 33.8662 36.9844 33.87C37.087 33.8739 37.1893 33.8575 37.2855 33.8218C37.3817 33.7861 37.4699 33.7318 37.5452 33.662C37.6204 33.5922 37.6812 33.5083 37.724 33.415C37.7668 33.3218 37.7908 33.221 37.7946 33.1184C37.8571 31.4043 37.9742 27.9917 38.0328 24.5284C38.0371 24.4207 38.0666 24.3156 38.1188 24.2214C38.171 24.1272 38.2445 24.0464 38.3334 23.9857C38.5931 23.8587 38.8758 23.7859 39.1645 23.7718C39.4531 23.7577 39.7416 23.8026 40.0124 23.9037C40.6098 24.1614 40.6098 24.9657 40.6098 24.9891C40.6098 25.0477 40.7308 30.9358 40.7074 32.2633C40.7074 32.4704 40.7897 32.6691 40.9361 32.8155C41.0826 32.962 41.2812 33.0442 41.4883 33.0442C41.6954 33.0442 41.8941 32.962 42.0405 32.8155C42.187 32.6691 42.2692 32.4704 42.2692 32.2633C42.2888 31.1778 42.2185 27.3084 42.1872 25.6646C42.5049 25.6495 42.8222 25.7004 43.1192 25.8139C43.4162 25.9275 43.6865 26.1013 43.913 26.3245C44.1864 26.6407 44.4831 27.8863 44.5924 28.8234C44.5924 28.8234 44.5924 28.8234 44.5924 28.8507C44.5924 28.8781 44.5924 28.8703 44.5924 28.882C44.8135 30.2324 44.8228 31.609 44.6198 32.9622C44.6018 33.0632 44.6039 33.1668 44.6259 33.267C44.648 33.3672 44.6896 33.4621 44.7483 33.5462C44.8071 33.6304 44.8818 33.7021 44.9683 33.7573C45.0548 33.8125 45.1513 33.8502 45.2523 33.8681C45.2978 33.8721 45.3435 33.8721 45.389 33.8681C45.5744 33.8709 45.7549 33.8077 45.898 33.6896C46.0411 33.5716 46.1374 33.4065 46.1699 33.2238C46.3636 32.0034 46.3951 30.7627 46.2636 29.534C46.5073 29.5831 46.7418 29.6701 46.9586 29.7917C47.5794 30.1431 47.9972 30.7913 47.9933 32.8178C47.9933 33.5557 48.0714 34.6529 48.1612 35.9414C48.3252 38.2841 48.5517 41.2048 48.3096 42.9696C47.9738 45.5935 46.5838 48.8265 46.5721 48.8772C46.5258 48.9722 46.4993 49.0755 46.4942 49.181C46.489 49.2865 46.5053 49.3919 46.5421 49.4909C46.5789 49.5899 46.6353 49.6805 46.7081 49.757C46.7808 49.8336 46.8684 49.8946 46.9654 49.9363C47.0624 49.9781 47.1668 49.9998 47.2724 50C47.3781 50.0002 47.4826 49.979 47.5798 49.9377C47.677 49.8963 47.7648 49.8357 47.8379 49.7595C47.911 49.6832 47.9678 49.593 48.005 49.4941C48.0675 49.3536 49.4927 46.0152 49.8558 43.1687C50.0979 41.2711 49.887 38.2646 49.7152 35.8516C49.6293 34.61 49.5512 33.5401 49.5512 32.8568C49.5512 31.1974 49.3365 29.3818 47.7239 28.4681C47.2075 28.1768 46.6325 28.0047 46.041 27.9644C45.9044 27.1562 45.6154 25.934 45.0883 25.3288C44.6964 24.9202 44.2204 24.6017 43.6931 24.3954C43.1659 24.1891 42.6001 24.0999 42.035 24.134C41.9354 23.769 41.7559 23.4307 41.5094 23.1437C41.2629 22.8567 40.9556 22.6281 40.6098 22.4746C39.7907 22.1748 38.8952 22.1555 38.064 22.4199C38.0874 18.6442 38.025 15.2277 37.7126 14.4976Z" fill="black"/>
<path d="M28.7391 17.8477C28.7391 15.9418 28.1739 14.0787 27.115 12.494C26.0562 10.9093 24.5512 9.67417 22.7903 8.94481C21.0295 8.21545 19.0919 8.02461 17.2226 8.39644C15.3533 8.76826 13.6363 9.68605 12.2886 11.0337C10.9409 12.3814 10.0231 14.0985 9.65132 15.9678C9.2795 17.837 9.47033 19.7746 10.1997 21.5354C10.9291 23.2963 12.1642 24.8013 13.7489 25.8601C15.3336 26.919 17.1967 27.4842 19.1026 27.4842C21.6574 27.4811 24.1067 26.4648 25.9132 24.6583C27.7197 22.8518 28.736 20.4025 28.7391 17.8477ZM19.1026 25.9224C17.5056 25.9224 15.9445 25.4488 14.6166 24.5615C13.2887 23.6743 12.2538 22.4132 11.6426 20.9378C11.0315 19.4623 10.8716 17.8388 11.1831 16.2724C11.4947 14.7061 12.2637 13.2674 13.393 12.1381C14.5222 11.0088 15.961 10.2398 17.5273 9.92825C19.0937 9.61669 20.7172 9.7766 22.1926 10.3877C23.6681 10.9989 24.9292 12.0338 25.8164 13.3617C26.7037 14.6896 27.1772 16.2507 27.1772 17.8477C27.1752 19.9886 26.3238 22.0412 24.8099 23.5551C23.2961 25.0689 21.2435 25.9203 19.1026 25.9224Z" fill="black"/>
<path d="M0.755375 21.354L4.86687 22.6464C5.50249 24.5283 6.50291 26.2665 7.81091 27.7614L6.88944 31.9744C6.85728 32.1171 6.86586 32.266 6.91418 32.404C6.9625 32.5421 7.04863 32.6638 7.16276 32.7553C8.67138 33.9649 10.3553 34.9379 12.1567 35.6408C12.2928 35.6939 12.441 35.7078 12.5845 35.6809C12.7281 35.6539 12.8612 35.5873 12.9688 35.4885L16.151 32.5757C17.1217 32.77 18.1091 32.8681 19.099 32.8685C20.1073 32.892 21.1147 32.7897 22.0977 32.564C22.2996 32.5179 22.475 32.3935 22.5852 32.2181C22.6954 32.0427 22.7314 31.8308 22.6853 31.6288C22.6392 31.4269 22.5148 31.2516 22.3395 31.1413C22.1641 31.0311 21.9521 30.9951 21.7502 31.0412C20.8813 31.2421 19.9904 31.3313 19.099 31.3067C18.0873 31.3063 17.0788 31.1923 16.0925 30.967C15.9698 30.939 15.8422 30.9411 15.7205 30.9731C15.5988 31.005 15.4867 31.0659 15.3936 31.1505L12.2699 34.0048C10.9325 33.44 9.67074 32.7107 8.51373 31.8338L9.43521 27.7223C9.46216 27.599 9.45884 27.4711 9.42552 27.3493C9.3922 27.2276 9.32988 27.1158 9.24389 27.0234C7.86611 25.5304 6.84249 23.746 6.24909 21.803C6.21195 21.6821 6.14599 21.572 6.05689 21.4823C5.96779 21.3925 5.85822 21.3257 5.73759 21.2876L1.69637 20.0147C1.51866 18.5742 1.51866 17.1173 1.69637 15.6768L5.72197 14.4039C5.84548 14.368 5.95822 14.3022 6.05018 14.2123C6.14214 14.1224 6.21046 14.0112 6.24909 13.8885C6.84921 11.9496 7.87812 10.1707 9.2595 8.6837C9.34549 8.59133 9.40782 8.4795 9.44114 8.35778C9.47446 8.23606 9.47778 8.10807 9.45083 7.98479L8.52154 3.86157C9.67864 2.98483 10.9404 2.25558 12.2777 1.69064L15.4014 4.54097C15.4945 4.62559 15.6066 4.68648 15.7283 4.71843C15.85 4.75038 15.9776 4.75246 16.1003 4.72448C18.0777 4.27175 20.1319 4.27175 22.1094 4.72448C22.2321 4.75246 22.3597 4.75038 22.4814 4.71843C22.6031 4.68648 22.7152 4.62559 22.8083 4.54097L25.932 1.69064C27.2652 2.2564 28.523 2.98564 29.6764 3.86157L28.7706 7.98869C28.7436 8.11198 28.747 8.23996 28.7803 8.36168C28.8136 8.48341 28.8759 8.59524 28.9619 8.68761C30.1491 9.95928 31.0775 11.4499 31.6951 13.0763C31.7315 13.1722 31.7864 13.26 31.8568 13.3346C31.9271 13.4093 32.0114 13.4694 32.105 13.5114C32.1985 13.5535 32.2994 13.5767 32.402 13.5798C32.5045 13.5828 32.6066 13.5657 32.7025 13.5293C32.7984 13.4929 32.8861 13.4379 32.9608 13.3676C33.0354 13.2973 33.0955 13.2129 33.1376 13.1194C33.1796 13.0258 33.2029 12.9249 33.2059 12.8224C33.209 12.7199 33.1918 12.6178 33.1554 12.5219C32.5168 10.8382 31.5789 9.28392 30.3871 7.93403L31.3125 3.7171C31.3446 3.5744 31.336 3.42554 31.2877 3.28748C31.2394 3.14941 31.1533 3.0277 31.0391 2.93619C29.5302 1.72807 27.8463 0.756442 26.0452 0.0546283C25.9091 0.00151677 25.7609 -0.0123687 25.6173 0.0145494C25.4738 0.0414675 25.3406 0.10811 25.2331 0.206906L22.0508 3.12361C20.1049 2.7334 18.1009 2.7334 16.155 3.12361L12.9688 0.203002C12.8608 0.10486 12.7275 0.0389398 12.584 0.0127149C12.4404 -0.01351 12.2924 0.00100996 12.1567 0.0546283C10.3567 0.758 8.67415 1.73094 7.16666 2.9401C7.05254 3.0316 6.96641 3.15332 6.91808 3.29138C6.86976 3.42945 6.86119 3.57831 6.89334 3.72101L7.81091 7.93012C6.49961 9.42173 5.49521 11.1572 4.85516 13.0373L0.755375 14.3375C0.615665 14.3812 0.491064 14.4634 0.39579 14.5745C0.300516 14.6857 0.238405 14.8214 0.216546 14.9661C-0.0721819 16.8763 -0.0721819 18.8191 0.216546 20.7293C0.239083 20.8733 0.301499 21.0082 0.396728 21.1186C0.491956 21.229 0.616194 21.3105 0.755375 21.354Z" fill="black"/>
<path d="M30.126 28.0464C30.764 27.4216 31.2478 26.657 31.5395 25.813C31.5934 25.6174 31.569 25.4084 31.4715 25.2304C31.374 25.0525 31.211 24.9194 31.0171 24.8595C30.8232 24.7996 30.6136 24.8176 30.4327 24.9095C30.2518 25.0015 30.1138 25.1603 30.0479 25.3523C29.8196 25.9768 29.4509 26.5405 28.9703 27C28.8715 27.1125 28.807 27.251 28.7847 27.3991C28.7624 27.5472 28.7832 27.6986 28.8445 27.8352C28.9058 27.9718 29.0051 28.0879 29.1306 28.1697C29.256 28.2514 29.4023 28.2954 29.5521 28.2963C29.6598 28.2965 29.7664 28.2744 29.8652 28.2314C29.964 28.1884 30.0528 28.1254 30.126 28.0464Z" fill="black"/>
</svg>
