<svg width="41" height="35" viewBox="0 0 41 35" fill="none" xmlns="http://www.w3.org/2000/svg">
<path d="M36.942 2.79586V24.7485C36.942 26.3018 35.6994 27.5444 34.1462 27.5444H15.6107L6.49823 34.5858C6.18758 34.7929 5.77338 35 5.35918 35C5.04853 35 4.73788 34.8964 4.42723 34.7929C3.80593 34.4822 3.49527 33.7574 3.59882 33.1361L4.11657 27.6479H2.87397C1.32072 27.6479 0.0781174 26.4053 0.0781174 24.8521V2.79586C0.0781174 1.2426 1.32072 0 2.87397 0H34.1462C35.6994 0 36.942 1.2426 36.942 2.79586ZM34.871 2.79586C34.871 2.48521 34.5604 2.17456 34.2497 2.17456H2.87397C2.56332 2.17456 2.25267 2.48521 2.25267 2.79586V24.7485C2.25267 25.0592 2.56332 25.3698 2.87397 25.3698H6.49823L5.87693 32.4112L14.9894 25.4734H34.1462C34.4568 25.4734 34.7675 25.1627 34.7675 24.8521V2.79586H34.871Z" fill="black"/>
<path d="M16.128 21.6422L8.98303 14.4972L11.6753 11.9085L15.8174 16.0505L23.4801 6.42032L26.3795 8.69843L16.128 21.6422Z" fill="#010101"/>
</svg>
