<svg width="80" height="40" viewBox="0 0 80 40" fill="none" xmlns="http://www.w3.org/2000/svg">
<path d="M0.8 31.2V24.8H4.2V31.2H0.8Z" stroke="black" stroke-width="1.6"/>
<path d="M7.8 31.2V19.8H11.2V31.2H7.8Z" stroke="black" stroke-width="1.6"/>
<path d="M15.8 31.2V14.8H19.2V31.2H15.8Z" stroke="black" stroke-width="1.6"/>
<path d="M22.8 31.2V9.8H26.2V31.2H22.8Z" stroke="black" stroke-width="1.6"/>
<path d="M30.8 31.2V6.8H34.2V31.2H30.8Z" stroke="black" stroke-width="1.6"/>
<path d="M45.8 31.2V21.8H49.2V31.2H45.8Z" stroke="black" stroke-width="1.6"/>
<path d="M53.8 31.2V14.8H57.2V31.2H53.8Z" stroke="black" stroke-width="1.6"/>
<path d="M60.8 31.2V17.8H64.2V31.2H60.8Z" stroke="black" stroke-width="1.6"/>
<path d="M68.8 31.2V15.8H72.2V31.2H68.8Z" stroke="black" stroke-width="1.6"/>
<path d="M75.8 31.2V12.8H79.2V31.2H75.8Z" stroke="black" stroke-width="1.6"/>
<path d="M40 0V39.5" stroke="black" stroke-width="1.6" stroke-dasharray="2 2"/>
</svg>
