<svg width="35" height="35" viewBox="0 0 35 35" fill="none" xmlns="http://www.w3.org/2000/svg">
<path d="M22.7204 4.11764L6.17684 4.11764C3.90273 4.11764 2.05919 5.96117 2.05919 8.23529L2.05919 28.8235C2.05919 31.0976 3.90273 32.9412 6.17684 32.9412H26.7651C29.0392 32.9412 30.8827 31.0976 30.8827 28.8235L30.8827 12.28C31.6096 12.176 32.3016 11.9635 32.9415 11.6595L32.9415 28.8235C32.9415 32.2347 30.1762 35 26.7651 35L6.17684 35C2.76567 35 0.000366211 32.2347 0.000366211 28.8235L0.000366211 8.23529C0.000366211 4.82412 2.76567 2.05882 6.17684 2.05882L23.3409 2.05882C23.0368 2.69881 22.8244 3.39072 22.7204 4.11764Z" fill="black"/>
<path d="M34.9997 5.14306C34.9997 2.30262 32.6971 0 29.8567 0C27.0163 0 24.7136 2.30262 24.7136 5.14306C24.7136 7.98349 27.0163 10.2861 29.8567 10.2861C32.6971 10.2861 34.9997 7.98349 34.9997 5.14306Z" fill="black"/>
</svg>
