<svg width="59" height="45" viewBox="0 0 59 45" fill="none" xmlns="http://www.w3.org/2000/svg">
<path d="M5.44523 7.30998C6.50229 7.30998 7.35921 6.45306 7.35921 5.396C7.35921 4.33894 6.50229 3.48203 5.44523 3.48203C4.38817 3.48203 3.53125 4.33894 3.53125 5.396C3.53125 6.45306 4.38817 7.30998 5.44523 7.30998Z" fill="black"/>
<path d="M10.6672 7.30998C11.7243 7.30998 12.5812 6.45306 12.5812 5.396C12.5812 4.33894 11.7243 3.48203 10.6672 3.48203C9.61015 3.48203 8.75323 4.33894 8.75323 5.396C8.75323 6.45306 9.61015 7.30998 10.6672 7.30998Z" fill="black"/>
<path d="M15.8891 7.30998C16.9462 7.30998 17.8031 6.45306 17.8031 5.396C17.8031 4.33894 16.9462 3.48203 15.8891 3.48203C14.8321 3.48203 13.9752 4.33894 13.9752 5.396C13.9752 6.45306 14.8321 7.30998 15.8891 7.30998Z" fill="black"/>
<path d="M57.8367 39.1444L52.7826 34.0894V31.3106L54.6722 29.4202C54.8752 29.2188 54.9564 28.924 54.885 28.6463C54.8143 28.3686 54.6024 28.1485 54.3271 28.0673L52.7826 27.6134V3.24816C52.7826 1.45599 51.325 0 49.5344 0H3.24816C1.4568 0 0 1.45599 0 3.24816V36.2706C0 38.0611 1.4568 39.5187 3.24816 39.5187H40.632L41.1428 41.2541C41.224 41.5302 41.4433 41.7413 41.721 41.8127C42.0003 41.8858 42.2943 41.803 42.4957 41.6L44.5769 39.5187H46.9733L52.219 44.7621C52.3774 44.9204 52.5853 45 52.7931 45C53.001 45 53.2089 44.9204 53.3673 44.7621L57.8375 40.2926C58.1534 39.9759 58.1534 39.4619 57.8367 39.1444ZM1.62408 3.24816C1.62408 2.35167 2.35248 1.62408 3.24816 1.62408H49.5344C50.4309 1.62408 51.1585 2.35167 51.1585 3.24816V8.52155H1.62408V3.24816ZM3.24816 37.8947C2.35248 37.8947 1.62408 37.1654 1.62408 36.2706V10.1456H51.1585V27.1367L37.0753 22.9937C36.7911 22.9093 36.4825 22.9872 36.2722 23.1984C36.0619 23.4095 35.9839 23.7172 36.0676 24.0023L40.1537 37.8938H3.24816V37.8947ZM52.7923 43.0397L46.348 36.597C46.1896 36.4387 45.9818 36.3591 45.7739 36.3591C45.566 36.3591 45.3581 36.4387 45.1998 36.597L42.3138 39.4838L38.0449 24.9718L52.556 29.2399L49.67 32.1267C49.3525 32.4442 49.3525 32.9575 49.67 33.275L56.1136 39.7193L52.7923 43.0397Z" fill="black"/>
</svg>
