<svg width="63" height="40" viewBox="0 0 63 40" fill="none" xmlns="http://www.w3.org/2000/svg">
<path d="M5.24823 24.6203C5.97715 24.6203 6.48739 24.3272 6.77896 23.741C7.07053 23.1548 7.07053 22.5686 6.77896 21.9824C6.48739 21.3962 5.97715 21.1031 5.24823 21.1031C4.51931 21.1031 4.00906 21.3962 3.71749 21.9824C3.42593 22.5686 3.42593 23.1548 3.71749 23.741C4.00906 24.3272 4.51931 24.6203 5.24823 24.6203ZM45.512 23.0266C45.3297 22.7884 44.9789 22.3305 44.4596 21.6527C43.9402 20.9749 43.5621 20.4803 43.3252 20.1689C43.0883 19.8574 42.7421 19.4086 42.2865 18.8224C41.8309 18.2362 41.4437 17.7508 41.1248 17.3661C40.8059 16.9814 40.4369 16.5509 40.0177 16.0746C39.5986 15.5983 39.1886 15.1495 38.7877 14.7282L35.3709 18.5751C33.8584 20.2971 31.9586 21.1397 29.6716 21.1031C27.3846 21.0665 25.5122 20.1689 24.0544 18.4103C23.0157 17.1463 22.5009 15.6991 22.51 14.0687C22.5191 12.4384 23.0521 11.0004 24.109 9.75469L28.9473 4.09422C28.5463 3.89272 28.0817 3.74159 27.5532 3.64084C27.0247 3.54008 26.5919 3.48513 26.2548 3.47597C25.9177 3.46681 25.4029 3.47139 24.7104 3.48971C24.0179 3.50802 23.5715 3.51718 23.371 3.51718C21.6945 3.51718 20.2549 4.1217 19.0522 5.33073L14.7333 9.67226H10.4965V24.6203C10.5876 24.6203 10.7789 24.6157 11.0705 24.6066C11.362 24.5974 11.5625 24.5974 11.6718 24.6066C11.7812 24.6157 11.9588 24.634 12.2049 24.6615C12.4509 24.689 12.6377 24.7302 12.7652 24.7852C12.8928 24.8401 13.0522 24.918 13.2436 25.0187C13.4349 25.1195 13.6035 25.2431 13.7493 25.3897L21.8676 33.4132C23.9633 35.4466 26.0316 36.4633 28.0725 36.4633C29.4939 36.4633 30.6329 36.0328 31.4894 35.1718C32.5281 35.5382 33.5531 35.4649 34.5645 34.952C35.5759 34.4391 36.2365 33.6606 36.5462 32.6164C37.8947 32.7263 39.0519 32.3233 40.0177 31.4074C40.3822 31.0776 40.7102 30.6609 41.0018 30.1571C41.2933 29.6533 41.4209 29.1908 41.3845 28.7695C41.5667 28.9527 41.9585 29.0442 42.5598 29.0442C43.3434 29.0442 44.045 28.8519 44.6646 28.4672C45.2842 28.0825 45.7352 27.5971 46.0177 27.0109C46.3001 26.4247 46.4095 25.7698 46.3457 25.0462C46.2819 24.3226 46.004 23.6494 45.512 23.0266ZM49.8582 24.6203H52.4823V10.5516H49.9402L45.6486 5.60551C44.4459 4.21329 42.9061 3.51718 41.0291 3.51718H36.4642C34.8424 3.51718 33.5121 4.13086 32.4734 5.35821L26.7605 12.0354C26.2502 12.6399 25.9951 13.3268 25.9951 14.0962C25.9951 14.8656 26.2411 15.5525 26.7332 16.1571C27.5167 17.0913 28.519 17.5676 29.74 17.5859C30.9609 17.6042 31.9723 17.1554 32.7741 16.2395L38.0496 10.2493C38.5052 9.82797 38.9927 9.63104 39.512 9.65852C40.0314 9.686 40.4596 9.9333 40.7968 10.4004C41.1339 10.8675 41.2113 11.3851 41.0291 11.9529C41.3207 12.301 41.8309 12.878 42.5598 13.684C43.2888 14.4901 43.8354 15.1129 44.1999 15.5525C44.7284 16.212 45.4801 17.1783 46.455 18.4515C47.4299 19.7246 48.0176 20.4986 48.2181 20.7734C49.1657 21.9824 49.7124 23.2647 49.8582 24.6203ZM57.7305 24.6203C58.4594 24.6203 58.9697 24.3272 59.2612 23.741C59.5528 23.1548 59.5528 22.5686 59.2612 21.9824C58.9697 21.3962 58.4594 21.1031 57.7305 21.1031C57.0016 21.1031 56.4913 21.3962 56.1998 21.9824C55.9082 22.5686 55.9082 23.1548 56.1998 23.741C56.4913 24.3272 57.0016 24.6203 57.7305 24.6203ZM62.9787 8.79296V26.3789C62.9787 26.8552 62.8056 27.2673 62.4594 27.6154C62.1131 27.9634 61.7031 28.1375 61.2293 28.1375H49.3661C48.8741 29.3282 48.127 30.3037 47.1247 31.0639C46.1224 31.8241 44.9835 32.2958 43.7079 32.479C43.1065 33.3583 42.3731 34.1048 41.5075 34.7185C40.6419 35.3321 39.7079 35.7489 38.7057 35.9687C37.9403 36.9396 36.9882 37.6861 35.8492 38.2082C34.7103 38.7302 33.5395 38.9546 32.3367 38.8814C31.2434 39.5042 30.0953 39.866 28.8926 39.9668C27.6899 40.0675 26.5281 39.9393 25.4074 39.5821C24.2867 39.2248 23.2207 38.7348 22.2093 38.112C21.1979 37.4892 20.2549 36.7472 19.3802 35.8863L11.5352 28.1375H1.74941C1.27561 28.1375 0.865593 27.9634 0.519356 27.6154C0.173119 27.2673 0 26.8552 0 26.3789V7.91366C0 7.43738 0.173119 7.02521 0.519356 6.67715C0.865593 6.3291 1.27561 6.15507 1.74941 6.15507H13.2572C13.5124 5.89861 13.9406 5.45896 14.542 4.83613C15.1433 4.21329 15.5761 3.77365 15.8404 3.51718C16.1046 3.26072 16.5055 2.89435 17.0431 2.41806C17.5806 1.94178 18.0408 1.5983 18.4235 1.38764C18.8061 1.17697 19.2708 0.943411 19.8175 0.68695C20.3642 0.430489 20.9291 0.251882 21.5123 0.151129C22.0954 0.0503763 22.715 0 23.371 0H26.5691C28.3732 0 30.0224 0.512923 31.5167 1.53877C33.011 0.512923 34.6602 0 36.4642 0H41.0291C41.6669 0 42.2774 0.054956 42.8605 0.164868C43.4437 0.27478 43.9585 0.40759 44.4049 0.563299C44.8514 0.719008 45.3206 0.96173 45.8126 1.29147C46.3047 1.6212 46.7101 1.90514 47.029 2.14328C47.3479 2.38143 47.7397 2.74322 48.2044 3.22867C48.6691 3.71411 49.0245 4.0988 49.2705 4.38274C49.5165 4.66668 49.89 5.10633 50.3912 5.70169C50.8923 6.29704 51.2704 6.74127 51.5256 7.03437H61.2293C61.7031 7.03437 62.1131 7.2084 62.4594 7.55645C62.8056 7.90451 62.9787 8.31668 62.9787 8.79296Z" fill="#434343"/>
</svg>
