<svg width="44" height="44" viewBox="0 0 44 44" fill="none" xmlns="http://www.w3.org/2000/svg">
<path d="M26 4.538C26 3.136 24.864 2 23.462 2H20.54C19.136 2 18 3.136 18 4.538C18 5.694 17.208 6.686 16.13 7.11C15.96 7.178 15.79 7.25 15.624 7.322C14.562 7.782 13.3 7.642 12.48 6.824C12.0041 6.34842 11.3588 6.08127 10.686 6.08127C10.0132 6.08127 9.36792 6.34842 8.892 6.824L6.824 8.892C6.34842 9.36792 6.08127 10.0132 6.08127 10.686C6.08127 11.3588 6.34842 12.0041 6.824 12.48V12.48C7.644 13.3 7.784 14.56 7.32 15.624C7.2471 15.7914 7.17709 15.9601 7.11 16.13C6.686 17.208 5.694 18 4.538 18C3.136 18 2 19.136 2 20.538V23.462C2 24.864 3.136 26 4.538 26C5.694 26 6.686 26.792 7.11 27.87C7.178 28.04 7.25 28.21 7.32 28.376C7.782 29.438 7.642 30.7 6.824 31.52C6.34842 31.9959 6.08127 32.6412 6.08127 33.314C6.08127 33.9868 6.34842 34.6321 6.824 35.108L8.892 37.176C9.36792 37.6516 10.0132 37.9187 10.686 37.9187C11.3588 37.9187 12.0041 37.6516 12.48 37.176C13.3 36.356 14.56 36.216 15.624 36.678C15.79 36.752 15.96 36.822 16.13 36.89C17.208 37.314 18 38.306 18 39.462C18 40.864 19.136 42 20.538 42H23.462C24.864 42 26 40.864 26 39.462C26 38.306 26.792 37.314 27.87 36.888C28.04 36.822 28.21 36.752 28.376 36.68C29.438 36.216 30.7 36.358 31.518 37.176C31.7537 37.4118 32.0335 37.5988 32.3415 37.7264C32.6495 37.854 32.9796 37.9197 33.313 37.9197C33.6464 37.9197 33.9765 37.854 34.2845 37.7264C34.5925 37.5988 34.8723 37.4118 35.108 37.176L37.176 35.108C37.6516 34.6321 37.9187 33.9868 37.9187 33.314C37.9187 32.6412 37.6516 31.9959 37.176 31.52V31.52C36.356 30.7 36.216 29.44 36.678 28.376C36.752 28.21 36.822 28.04 36.89 27.87C37.314 26.792 38.306 26 39.462 26C40.864 26 42 24.864 42 23.462V20.54C42 19.138 40.864 18.002 39.462 18.002C38.306 18.002 37.314 17.21 36.888 16.132C36.821 15.9621 36.751 15.7934 36.678 15.626C36.218 14.564 36.358 13.302 37.176 12.482C37.6516 12.0061 37.9187 11.3608 37.9187 10.688C37.9187 10.0152 37.6516 9.36992 37.176 8.894L35.108 6.826C34.6321 6.35042 33.9868 6.08327 33.314 6.08327C32.6412 6.08327 31.9959 6.35042 31.52 6.826V6.826C30.7 7.646 29.44 7.786 28.376 7.324C28.2086 7.25042 28.0399 7.17974 27.87 7.112C26.792 6.686 26 5.694 26 4.54V4.538Z" stroke="#434343" stroke-width="4"/>
<path d="M30 22C30 24.1217 29.1571 26.1566 27.6569 27.6569C26.1566 29.1571 24.1217 30 22 30C19.8783 30 17.8434 29.1571 16.3431 27.6569C14.8429 26.1566 14 24.1217 14 22C14 19.8783 14.8429 17.8434 16.3431 16.3431C17.8434 14.8429 19.8783 14 22 14C24.1217 14 26.1566 14.8429 27.6569 16.3431C29.1571 17.8434 30 19.8783 30 22V22Z" stroke="#434343" stroke-width="4"/>
</svg>
