<svg width="342" height="221" viewBox="0 0 342 221" fill="none" xmlns="http://www.w3.org/2000/svg">
<g filter="url(#filter0_d)">
<path d="M82.4773 29.6914C82.4773 23.064 87.8499 17.6914 94.4773 17.6914H248.246C254.873 17.6914 260.246 23.064 260.246 29.6914V60.8714C260.246 67.4989 254.873 72.8714 248.246 72.8714H94.4773C87.8499 72.8714 82.4773 67.4989 82.4773 60.8714V29.6914Z" fill="white"/>
</g>
<path d="M155.259 50.2815V40.6906H157.966C158.801 40.6906 159.538 40.875 160.18 41.2439C160.821 41.6128 161.315 42.1375 161.662 42.8182C162.013 43.4989 162.191 44.2806 162.195 45.1633V45.7759C162.195 46.6805 162.02 47.4732 161.668 48.1538C161.321 48.8345 160.823 49.3571 160.173 49.7216C159.527 50.0861 158.774 50.2727 157.914 50.2815H155.259ZM156.524 41.7313V49.2473H157.854C158.829 49.2473 159.587 48.9443 160.127 48.3383C160.671 47.7323 160.944 46.8693 160.944 45.7495V45.1896C160.944 44.1005 160.687 43.2552 160.173 42.6535C159.664 42.0475 158.939 41.7401 157.999 41.7313H156.524ZM168.321 49.5767C167.847 50.1344 167.151 50.4132 166.233 50.4132C165.474 50.4132 164.894 50.1937 164.494 49.7545C164.099 49.311 163.899 48.6567 163.895 47.7915V43.1542H165.113V47.7586C165.113 48.8389 165.553 49.3791 166.431 49.3791C167.362 49.3791 167.981 49.0321 168.288 48.3383V43.1542H169.507V50.2815H168.348L168.321 49.5767ZM177.385 46.7969C177.385 47.8816 177.137 48.7555 176.641 49.4186C176.145 50.0817 175.473 50.4132 174.625 50.4132C173.76 50.4132 173.079 50.1388 172.583 49.5898V53.0218H171.365V43.1542H172.478L172.537 43.9446C173.033 43.3298 173.723 43.0224 174.606 43.0224C175.462 43.0224 176.138 43.3452 176.634 43.9907C177.135 44.6363 177.385 45.5343 177.385 46.6849V46.7969ZM176.167 46.6585C176.167 45.8549 175.995 45.2203 175.653 44.7549C175.31 44.2894 174.84 44.0566 174.243 44.0566C173.505 44.0566 172.952 44.3838 172.583 45.0381V48.4437C172.948 49.0936 173.505 49.4186 174.256 49.4186C174.84 49.4186 175.304 49.188 175.646 48.7269C175.993 48.2614 176.167 47.572 176.167 46.6585ZM180.264 50.2815H179.045V40.1636H180.264V50.2815ZM183.544 50.2815H182.326V43.1542H183.544V50.2815ZM182.227 41.2636C182.227 41.066 182.286 40.8992 182.405 40.763C182.528 40.6269 182.708 40.5588 182.945 40.5588C183.182 40.5588 183.362 40.6269 183.485 40.763C183.608 40.8992 183.669 41.066 183.669 41.2636C183.669 41.4613 183.608 41.6259 183.485 41.7577C183.362 41.8894 183.182 41.9553 182.945 41.9553C182.708 41.9553 182.528 41.8894 182.405 41.7577C182.286 41.6259 182.227 41.4613 182.227 41.2636ZM188.36 49.4186C188.794 49.4186 189.174 49.2868 189.499 49.0233C189.824 48.7599 190.004 48.4305 190.039 48.0353H191.192C191.17 48.4437 191.03 48.8323 190.77 49.2012C190.511 49.5701 190.164 49.8643 189.73 50.0839C189.299 50.3035 188.843 50.4132 188.36 50.4132C187.389 50.4132 186.616 50.0905 186.041 49.4449C185.47 48.795 185.185 47.9079 185.185 46.7837V46.5795C185.185 45.8857 185.312 45.2687 185.567 44.7285C185.821 44.1884 186.186 43.769 186.66 43.4704C187.139 43.1717 187.703 43.0224 188.353 43.0224C189.152 43.0224 189.815 43.2618 190.342 43.7404C190.874 44.2191 191.157 44.8405 191.192 45.6046H190.039C190.004 45.1435 189.828 44.7658 189.512 44.4716C189.201 44.173 188.814 44.0237 188.353 44.0237C187.734 44.0237 187.253 44.2476 186.91 44.6956C186.572 45.1391 186.403 45.7825 186.403 46.6256V46.8562C186.403 47.6774 186.572 48.3097 186.91 48.7533C187.249 49.1968 187.732 49.4186 188.36 49.4186ZM196.962 50.2815C196.892 50.141 196.835 49.8907 196.791 49.5306C196.225 50.119 195.548 50.4132 194.762 50.4132C194.06 50.4132 193.482 50.2156 193.03 49.8204C192.582 49.4208 192.358 48.9158 192.358 48.3053C192.358 47.5632 192.639 46.9879 193.201 46.5795C193.768 46.1667 194.562 45.9603 195.586 45.9603H196.771V45.4004C196.771 44.9744 196.644 44.6363 196.389 44.386C196.135 44.1313 195.759 44.0039 195.263 44.0039C194.828 44.0039 194.464 44.1137 194.169 44.3333C193.875 44.5528 193.728 44.8185 193.728 45.1303H192.503C192.503 44.7746 192.628 44.4321 192.878 44.1027C193.133 43.769 193.476 43.5055 193.906 43.3123C194.341 43.119 194.817 43.0224 195.335 43.0224C196.157 43.0224 196.8 43.2288 197.265 43.6416C197.731 44.05 197.972 44.6143 197.99 45.3345V48.6149C197.99 49.2693 198.073 49.7897 198.24 50.1761V50.2815H196.962ZM194.94 49.3527C195.322 49.3527 195.685 49.2539 196.027 49.0563C196.37 48.8587 196.618 48.6018 196.771 48.2856V46.8232H195.816C194.323 46.8232 193.577 47.2602 193.577 48.1341C193.577 48.5161 193.704 48.8147 193.959 49.0299C194.213 49.2451 194.541 49.3527 194.94 49.3527ZM201.554 41.4283V43.1542H202.884V44.0961H201.554V48.5161C201.554 48.8016 201.613 49.0168 201.732 49.1617C201.85 49.3022 202.052 49.3725 202.338 49.3725C202.478 49.3725 202.671 49.3461 202.917 49.2934V50.2815C202.597 50.3693 202.285 50.4132 201.982 50.4132C201.437 50.4132 201.027 50.2486 200.75 49.9192C200.473 49.5898 200.335 49.1222 200.335 48.5161V44.0961H199.037V43.1542H200.335V41.4283H201.554ZM207.271 50.4132C206.305 50.4132 205.519 50.0971 204.913 49.4647C204.307 48.8279 204.004 47.9782 204.004 46.9154V46.6915C204.004 45.9845 204.138 45.3543 204.406 44.801C204.678 44.2432 205.056 43.8085 205.539 43.4967C206.026 43.1805 206.553 43.0224 207.12 43.0224C208.046 43.0224 208.767 43.3276 209.28 43.938C209.794 44.5485 210.051 45.4224 210.051 46.5597V47.067H205.223C205.24 47.7696 205.445 48.3383 205.835 48.773C206.231 49.2034 206.731 49.4186 207.337 49.4186C207.768 49.4186 208.132 49.3307 208.431 49.1551C208.729 48.9794 208.991 48.7467 209.215 48.4568L209.959 49.0365C209.362 49.9543 208.466 50.4132 207.271 50.4132ZM207.12 44.0237C206.628 44.0237 206.215 44.2037 205.881 44.5638C205.548 44.9195 205.341 45.4202 205.262 46.0657H208.833V45.9735C208.797 45.3543 208.631 44.8756 208.332 44.5375C208.033 44.1949 207.629 44.0237 207.12 44.0237Z" fill="#333333"/>
<path d="M99.6106 33.2815C99.6106 31.6246 100.954 30.2815 102.611 30.2815H129.611C131.267 30.2815 132.611 31.6246 132.611 33.2815V57.2815C132.611 58.9383 131.267 60.2815 129.611 60.2815H102.611C100.954 60.2815 99.6106 58.9383 99.6106 57.2815V33.2815Z" fill="#F4F4F4"/>
<path d="M122.967 41.8534V52.1387H112.682V41.8534H122.967ZM122.967 40.7106H112.682C112.379 40.7106 112.088 40.831 111.874 41.0454C111.659 41.2597 111.539 41.5503 111.539 41.8534V52.1387C111.539 52.4418 111.659 52.7325 111.874 52.9468C112.088 53.1611 112.379 53.2815 112.682 53.2815H122.967C123.27 53.2815 123.561 53.1611 123.775 52.9468C123.99 52.7325 124.11 52.4418 124.11 52.1387V41.8534C124.11 41.5503 123.99 41.2597 123.775 41.0454C123.561 40.831 123.27 40.7106 122.967 40.7106Z" fill="#797777"/>
<path d="M109.254 46.4239H108.111V38.4243C108.111 38.1212 108.231 37.8305 108.446 37.6162C108.66 37.4019 108.951 37.2815 109.254 37.2815H117.254V38.4243H109.254V46.4239Z" fill="#797777"/>
<g filter="url(#filter1_d)">
<path d="M17.6829 94.8137C17.6829 88.1862 23.0554 82.8137 29.6829 82.8137H153.451C160.079 82.8137 165.451 88.1862 165.451 94.8137V125.994C165.451 132.621 160.079 137.994 153.451 137.994H29.6829C23.0554 137.994 17.6829 132.621 17.6829 125.994V94.8137Z" fill="white"/>
</g>
<path d="M93.2905 111.129C92.2058 110.817 91.4153 110.435 90.9191 109.982C90.4272 109.526 90.1813 108.964 90.1813 108.296C90.1813 107.541 90.4821 106.917 91.0837 106.425C91.6898 105.929 92.4758 105.681 93.442 105.681C94.1007 105.681 94.6869 105.808 95.2007 106.063C95.7189 106.318 96.1185 106.669 96.3996 107.117C96.685 107.565 96.8278 108.055 96.8278 108.586H95.5564C95.5564 108.006 95.372 107.552 95.0031 107.222C94.6342 106.889 94.1138 106.722 93.442 106.722C92.8184 106.722 92.3309 106.86 91.9796 107.137C91.6327 107.409 91.4592 107.789 91.4592 108.276C91.4592 108.667 91.6239 108.999 91.9533 109.271C92.287 109.539 92.8513 109.785 93.6462 110.009C94.4454 110.233 95.069 110.481 95.5169 110.753C95.9692 111.021 96.303 111.335 96.5182 111.695C96.7377 112.055 96.8475 112.479 96.8475 112.966C96.8475 113.744 96.5445 114.367 95.9385 114.837C95.3325 115.303 94.5223 115.535 93.5078 115.535C92.8491 115.535 92.2343 115.41 91.6634 115.16C91.0925 114.905 90.6512 114.558 90.3394 114.119C90.032 113.68 89.8783 113.182 89.8783 112.624H91.1496C91.1496 113.204 91.3626 113.663 91.7886 114.001C92.2189 114.334 92.792 114.501 93.5078 114.501C94.1753 114.501 94.6869 114.365 95.0426 114.093C95.3983 113.821 95.5762 113.45 95.5762 112.98C95.5762 112.51 95.4115 112.147 95.0822 111.893C94.7528 111.634 94.1556 111.379 93.2905 111.129ZM99.9369 106.551V108.276H101.268V109.218H99.9369V113.638C99.9369 113.924 99.9962 114.139 100.115 114.284C100.233 114.424 100.435 114.495 100.721 114.495C100.861 114.495 101.055 114.468 101.3 114.416V115.404C100.98 115.492 100.668 115.535 100.365 115.535C99.8205 115.535 99.4099 115.371 99.1333 115.041C98.8566 114.712 98.7183 114.244 98.7183 113.638V109.218H97.4206V108.276H98.7183V106.551H99.9369ZM107.097 115.404C107.027 115.263 106.97 115.013 106.926 114.653C106.359 115.241 105.683 115.535 104.897 115.535C104.194 115.535 103.617 115.338 103.165 114.943C102.717 114.543 102.493 114.038 102.493 113.428C102.493 112.685 102.774 112.11 103.336 111.702C103.902 111.289 104.697 111.083 105.72 111.083H106.906V110.523C106.906 110.097 106.779 109.759 106.524 109.508C106.269 109.254 105.894 109.126 105.398 109.126C104.963 109.126 104.598 109.236 104.304 109.456C104.01 109.675 103.863 109.941 103.863 110.253H102.638C102.638 109.897 102.763 109.554 103.013 109.225C103.268 108.891 103.61 108.628 104.041 108.435C104.475 108.241 104.952 108.145 105.47 108.145C106.291 108.145 106.935 108.351 107.4 108.764C107.866 109.172 108.107 109.737 108.125 110.457V113.737C108.125 114.392 108.208 114.912 108.375 115.298V115.404H107.097ZM105.075 114.475C105.457 114.475 105.819 114.376 106.162 114.179C106.504 113.981 106.752 113.724 106.906 113.408V111.945H105.951C104.458 111.945 103.711 112.382 103.711 113.256C103.711 113.638 103.839 113.937 104.093 114.152C104.348 114.367 104.675 114.475 105.075 114.475ZM113.48 109.37C113.296 109.339 113.096 109.324 112.881 109.324C112.081 109.324 111.539 109.664 111.254 110.345V115.404H110.035V108.276H111.221L111.241 109.1C111.64 108.463 112.207 108.145 112.94 108.145C113.177 108.145 113.357 108.175 113.48 108.237V109.37ZM116.589 106.551V108.276H117.92V109.218H116.589V113.638C116.589 113.924 116.649 114.139 116.767 114.284C116.886 114.424 117.088 114.495 117.373 114.495C117.514 114.495 117.707 114.468 117.953 114.416V115.404C117.632 115.492 117.32 115.535 117.017 115.535C116.473 115.535 116.062 115.371 115.786 115.041C115.509 114.712 115.371 114.244 115.371 113.638V109.218H114.073V108.276H115.371V106.551H116.589Z" fill="#333333"/>
<path d="M34.8162 98.1594C34.8162 96.5025 36.1593 95.1594 37.8162 95.1594H64.8162C66.473 95.1594 67.8162 96.5025 67.8162 98.1594V122.159C67.8162 123.816 66.473 125.159 64.8162 125.159H37.8162C36.1593 125.159 34.8162 123.816 34.8162 122.159V98.1594Z" fill="#3FB981"/>
<path d="M47.6721 116.382V103.937L57.9604 109.666L47.6721 116.382Z" fill="white"/>
<g filter="url(#filter2_d)">
<path d="M177.272 94.8137C177.272 88.1862 182.644 82.8137 189.272 82.8137H313.04C319.668 82.8137 325.04 88.1862 325.04 94.8137V125.994C325.04 132.621 319.668 137.994 313.04 137.994H189.272C182.644 137.994 177.272 132.621 177.272 125.994V94.8137Z" fill="white"/>
</g>
<path d="M251.318 111.649V115.404H250.053V105.813H253.591C254.64 105.813 255.461 106.081 256.054 106.616C256.652 107.152 256.95 107.861 256.95 108.744C256.95 109.675 256.658 110.393 256.074 110.898C255.494 111.399 254.662 111.649 253.578 111.649H251.318ZM251.318 110.615H253.591C254.267 110.615 254.785 110.457 255.145 110.141C255.505 109.82 255.685 109.359 255.685 108.757C255.685 108.186 255.505 107.73 255.145 107.387C254.785 107.045 254.291 106.867 253.663 106.854H251.318V110.615ZM262.694 115.404C262.624 115.263 262.567 115.013 262.523 114.653C261.956 115.241 261.28 115.535 260.494 115.535C259.791 115.535 259.214 115.338 258.762 114.943C258.314 114.543 258.09 114.038 258.09 113.428C258.09 112.685 258.371 112.11 258.933 111.702C259.499 111.289 260.294 111.083 261.317 111.083H262.503V110.523C262.503 110.097 262.376 109.759 262.121 109.508C261.866 109.254 261.491 109.126 260.995 109.126C260.56 109.126 260.195 109.236 259.901 109.456C259.607 109.675 259.46 109.941 259.46 110.253H258.235C258.235 109.897 258.36 109.554 258.61 109.225C258.865 108.891 259.207 108.628 259.638 108.435C260.073 108.241 260.549 108.145 261.067 108.145C261.888 108.145 262.532 108.351 262.997 108.764C263.463 109.172 263.704 109.737 263.722 110.457V113.737C263.722 114.392 263.805 114.912 263.972 115.298V115.404H262.694ZM260.672 114.475C261.054 114.475 261.416 114.376 261.759 114.179C262.101 113.981 262.349 113.724 262.503 113.408V111.945H261.548C260.055 111.945 259.308 112.382 259.308 113.256C259.308 113.638 259.436 113.937 259.69 114.152C259.945 114.367 260.272 114.475 260.672 114.475ZM270.032 114.699C269.558 115.257 268.862 115.535 267.944 115.535C267.184 115.535 266.605 115.316 266.205 114.877C265.81 114.433 265.61 113.779 265.606 112.914V108.276H266.824V112.881C266.824 113.961 267.264 114.501 268.142 114.501C269.073 114.501 269.692 114.154 269.999 113.461V108.276H271.218V115.404H270.059L270.032 114.699ZM277.226 113.513C277.226 113.184 277.1 112.929 276.85 112.749C276.604 112.565 276.172 112.407 275.552 112.275C274.938 112.143 274.448 111.985 274.083 111.801C273.723 111.616 273.455 111.397 273.28 111.142C273.109 110.887 273.023 110.584 273.023 110.233C273.023 109.649 273.269 109.155 273.761 108.751C274.257 108.347 274.889 108.145 275.658 108.145C276.466 108.145 277.12 108.353 277.621 108.77C278.126 109.188 278.378 109.721 278.378 110.371H277.153C277.153 110.037 277.01 109.75 276.725 109.508C276.444 109.267 276.088 109.146 275.658 109.146C275.214 109.146 274.867 109.243 274.617 109.436C274.367 109.629 274.242 109.881 274.242 110.193C274.242 110.488 274.358 110.709 274.591 110.859C274.823 111.008 275.243 111.151 275.849 111.287C276.459 111.423 276.953 111.585 277.331 111.774C277.709 111.963 277.987 112.191 278.167 112.459C278.352 112.723 278.444 113.046 278.444 113.428C278.444 114.064 278.189 114.576 277.68 114.962C277.171 115.344 276.51 115.535 275.697 115.535C275.126 115.535 274.621 115.434 274.182 115.232C273.743 115.03 273.398 114.749 273.148 114.389C272.902 114.025 272.779 113.632 272.779 113.21H273.998C274.02 113.619 274.182 113.944 274.485 114.185C274.793 114.422 275.197 114.541 275.697 114.541C276.158 114.541 276.527 114.449 276.804 114.264C277.085 114.075 277.226 113.825 277.226 113.513ZM282.989 115.535C282.023 115.535 281.237 115.219 280.631 114.587C280.025 113.95 279.722 113.1 279.722 112.038V111.814C279.722 111.107 279.856 110.477 280.124 109.923C280.396 109.366 280.774 108.931 281.257 108.619C281.744 108.303 282.271 108.145 282.838 108.145C283.764 108.145 284.485 108.45 284.998 109.06C285.512 109.671 285.769 110.545 285.769 111.682V112.189H280.941C280.958 112.892 281.162 113.461 281.553 113.895C281.949 114.326 282.449 114.541 283.055 114.541C283.486 114.541 283.85 114.453 284.149 114.277C284.447 114.102 284.709 113.869 284.933 113.579L285.677 114.159C285.08 115.077 284.184 115.535 282.989 115.535ZM282.838 109.146C282.346 109.146 281.933 109.326 281.599 109.686C281.266 110.042 281.059 110.542 280.98 111.188H284.55V111.096C284.515 110.477 284.348 109.998 284.05 109.66C283.751 109.317 283.347 109.146 282.838 109.146Z" fill="#333333"/>
<path d="M193.615 98.4037C193.615 96.7469 194.959 95.4037 196.615 95.4037H223.615C225.272 95.4037 226.615 96.7469 226.615 98.4037V122.404C226.615 124.061 225.272 125.404 223.615 125.404H196.615C194.959 125.404 193.615 124.061 193.615 122.404V98.4037Z" fill="#FF4D4D"/>
<rect x="202.986" y="103.289" width="5.45852" height="14.4603" fill="white"/>
<rect x="211.301" y="103.289" width="5.45852" height="14.4603" fill="white"/>
<g filter="url(#filter3_d)">
<path d="M50.1514 160.404C50.1514 153.776 55.524 148.404 62.1514 148.404H185.92C192.547 148.404 197.92 153.776 197.92 160.404V191.584C197.92 198.211 192.547 203.584 185.92 203.584H62.1514C55.5239 203.584 50.1514 198.211 50.1514 191.584V160.404Z" fill="white"/>
</g>
<path d="M130.304 180.994H129.033L124.204 173.603V180.994H122.933V171.403H124.204L129.046 178.827V171.403H130.304V180.994ZM132.037 177.364C132.037 176.666 132.173 176.038 132.445 175.48C132.722 174.923 133.104 174.492 133.591 174.189C134.083 173.886 134.643 173.735 135.271 173.735C136.241 173.735 137.025 174.071 137.622 174.743C138.224 175.414 138.525 176.308 138.525 177.424V177.509C138.525 178.203 138.391 178.827 138.123 179.38C137.86 179.929 137.48 180.357 136.984 180.664C136.492 180.972 135.925 181.126 135.284 181.126C134.318 181.126 133.534 180.79 132.932 180.118C132.335 179.446 132.037 178.557 132.037 177.45V177.364ZM133.262 177.509C133.262 178.3 133.444 178.934 133.808 179.413C134.177 179.892 134.669 180.131 135.284 180.131C135.903 180.131 136.395 179.889 136.76 179.406C137.124 178.919 137.306 178.238 137.306 177.364C137.306 176.583 137.12 175.95 136.746 175.467C136.377 174.98 135.886 174.736 135.271 174.736C134.669 174.736 134.184 174.975 133.815 175.454C133.446 175.933 133.262 176.618 133.262 177.509ZM141.707 172.141V173.867H143.037V174.808H141.707V179.228C141.707 179.514 141.766 179.729 141.884 179.874C142.003 180.015 142.205 180.085 142.49 180.085C142.631 180.085 142.824 180.058 143.07 180.006V180.994C142.749 181.082 142.438 181.126 142.135 181.126C141.59 181.126 141.18 180.961 140.903 180.632C140.626 180.302 140.488 179.834 140.488 179.228V174.808H139.19V173.867H140.488V172.141H141.707ZM145.791 180.994H144.572V173.867H145.791V180.994ZM144.473 171.976C144.473 171.778 144.532 171.611 144.651 171.475C144.774 171.339 144.954 171.271 145.191 171.271C145.428 171.271 145.608 171.339 145.731 171.475C145.854 171.611 145.916 171.778 145.916 171.976C145.916 172.174 145.854 172.338 145.731 172.47C145.608 172.602 145.428 172.668 145.191 172.668C144.954 172.668 144.774 172.602 144.651 172.47C144.532 172.338 144.473 172.174 144.473 171.976ZM148.346 180.994V174.808H147.22V173.867H148.346V173.135C148.346 172.371 148.551 171.781 148.959 171.363C149.367 170.946 149.945 170.738 150.691 170.738C150.972 170.738 151.251 170.775 151.528 170.85L151.462 171.838C151.256 171.798 151.036 171.778 150.803 171.778C150.408 171.778 150.103 171.895 149.888 172.127C149.673 172.356 149.565 172.685 149.565 173.116V173.867H151.087V174.808H149.565V180.994H148.346ZM154.769 179.209L156.429 173.867H157.733L154.868 182.094C154.424 183.28 153.719 183.872 152.753 183.872L152.523 183.853L152.068 183.767V182.779L152.398 182.805C152.81 182.805 153.131 182.722 153.359 182.555C153.592 182.388 153.783 182.083 153.932 181.639L154.202 180.915L151.66 173.867H152.99L154.769 179.209Z" fill="#333333"/>
<path d="M69.873 163.994C69.873 162.337 71.2162 160.994 72.873 160.994H99.873C101.53 160.994 102.873 162.337 102.873 163.994V187.994C102.873 189.651 101.53 190.994 99.873 190.994H72.873C71.2162 190.994 69.873 189.651 69.873 187.994V163.994Z" fill="#F4F4F4"/>
<path d="M87.2476 184.993C87.8443 184.993 88.4166 184.756 88.8385 184.334C89.2605 183.912 89.4975 183.34 89.4975 182.743H84.9977C84.9977 183.34 85.2348 183.912 85.6567 184.334C86.0786 184.756 86.6509 184.993 87.2476 184.993ZM87.2476 169.152L86.351 169.333C85.3341 169.54 84.4199 170.093 83.7633 170.896C83.1067 171.7 82.748 172.706 82.7479 173.744C82.7479 174.45 82.5971 176.215 82.2315 177.953C82.0515 178.816 81.8085 179.715 81.4857 180.494H93.0095C92.6867 179.715 92.4448 178.817 92.2637 177.953C91.8981 176.215 91.7474 174.45 91.7474 173.744C91.747 172.706 91.3882 171.701 90.7316 170.897C90.075 170.093 89.161 169.541 88.1442 169.334L87.2476 169.151V169.152ZM94.2447 180.494C94.4956 180.996 94.7858 181.395 95.1222 181.619H79.373C79.7094 181.395 79.9996 180.996 80.2505 180.494C81.2629 178.469 81.6229 174.734 81.6229 173.744C81.6229 171.022 83.5578 168.749 86.1283 168.231C86.1126 168.074 86.1299 167.916 86.179 167.767C86.2281 167.618 86.3079 167.48 86.4134 167.364C86.5188 167.247 86.6476 167.154 86.7913 167.09C86.935 167.026 87.0904 166.993 87.2476 166.993C87.4048 166.993 87.5603 167.026 87.704 167.09C87.8477 167.154 87.9764 167.247 88.0818 167.364C88.1873 167.48 88.2672 167.618 88.3163 167.767C88.3654 167.916 88.3826 168.074 88.3669 168.231C89.6384 168.489 90.7815 169.179 91.6025 170.184C92.4236 171.189 92.8721 172.446 92.8723 173.744C92.8723 174.734 93.2323 178.469 94.2447 180.494Z" fill="#DF5D14"/>
<defs>
<filter id="filter0_d" x="65.6141" y="0.82823" width="211.495" height="88.9064" filterUnits="userSpaceOnUse" color-interpolation-filters="sRGB">
<feFlood flood-opacity="0" result="BackgroundImageFix"/>
<feColorMatrix in="SourceAlpha" type="matrix" values="0 0 0 0 0 0 0 0 0 0 0 0 0 0 0 0 0 0 127 0" result="hardAlpha"/>
<feOffset/>
<feGaussianBlur stdDeviation="8.43159"/>
<feColorMatrix type="matrix" values="0 0 0 0 0 0 0 0 0 0 0 0 0 0 0 0 0 0 0.1 0"/>
<feBlend mode="normal" in2="BackgroundImageFix" result="effect1_dropShadow"/>
<feBlend mode="normal" in="SourceGraphic" in2="effect1_dropShadow" result="shape"/>
</filter>
<filter id="filter1_d" x="0.819685" y="65.9505" width="181.495" height="88.9064" filterUnits="userSpaceOnUse" color-interpolation-filters="sRGB">
<feFlood flood-opacity="0" result="BackgroundImageFix"/>
<feColorMatrix in="SourceAlpha" type="matrix" values="0 0 0 0 0 0 0 0 0 0 0 0 0 0 0 0 0 0 127 0" result="hardAlpha"/>
<feOffset/>
<feGaussianBlur stdDeviation="8.43159"/>
<feColorMatrix type="matrix" values="0 0 0 0 0 0 0 0 0 0 0 0 0 0 0 0 0 0 0.1 0"/>
<feBlend mode="normal" in2="BackgroundImageFix" result="effect1_dropShadow"/>
<feBlend mode="normal" in="SourceGraphic" in2="effect1_dropShadow" result="shape"/>
</filter>
<filter id="filter2_d" x="160.409" y="65.9505" width="181.495" height="88.9064" filterUnits="userSpaceOnUse" color-interpolation-filters="sRGB">
<feFlood flood-opacity="0" result="BackgroundImageFix"/>
<feColorMatrix in="SourceAlpha" type="matrix" values="0 0 0 0 0 0 0 0 0 0 0 0 0 0 0 0 0 0 127 0" result="hardAlpha"/>
<feOffset/>
<feGaussianBlur stdDeviation="8.43159"/>
<feColorMatrix type="matrix" values="0 0 0 0 0 0 0 0 0 0 0 0 0 0 0 0 0 0 0.1 0"/>
<feBlend mode="normal" in2="BackgroundImageFix" result="effect1_dropShadow"/>
<feBlend mode="normal" in="SourceGraphic" in2="effect1_dropShadow" result="shape"/>
</filter>
<filter id="filter3_d" x="33.2882" y="131.541" width="181.495" height="88.9064" filterUnits="userSpaceOnUse" color-interpolation-filters="sRGB">
<feFlood flood-opacity="0" result="BackgroundImageFix"/>
<feColorMatrix in="SourceAlpha" type="matrix" values="0 0 0 0 0 0 0 0 0 0 0 0 0 0 0 0 0 0 127 0" result="hardAlpha"/>
<feOffset/>
<feGaussianBlur stdDeviation="8.43159"/>
<feColorMatrix type="matrix" values="0 0 0 0 0 0 0 0 0 0 0 0 0 0 0 0 0 0 0.1 0"/>
<feBlend mode="normal" in2="BackgroundImageFix" result="effect1_dropShadow"/>
<feBlend mode="normal" in="SourceGraphic" in2="effect1_dropShadow" result="shape"/>
</filter>
</defs>
</svg>
