<svg width="283" height="90" viewBox="0 0 283 90" fill="none" xmlns="http://www.w3.org/2000/svg">
<g filter="url(#filter0_d)">
<path d="M17.4575 29.8423C17.4575 23.2149 22.8301 17.8423 29.4575 17.8423H253.798C260.426 17.8423 265.798 23.2149 265.798 29.8423V61.0223C265.798 67.6497 260.426 73.0223 253.798 73.0223H29.4575C22.8301 73.0223 17.4575 67.6497 17.4575 61.0223V29.8423Z" fill="white"/>
</g>
<path d="M37.9878 42.5378C37.9878 41.4333 38.8832 40.5378 39.9878 40.5378C41.0924 40.5378 41.9878 41.4333 41.9878 42.5378C41.9878 43.6424 41.0924 44.5378 39.9878 44.5378C38.8832 44.5378 37.9878 43.6424 37.9878 42.5378Z" fill="#DBD5D5"/>
<path d="M43.9009 42.5378C43.9009 41.4333 44.7963 40.5378 45.9009 40.5378C47.0054 40.5378 47.9009 41.4333 47.9009 42.5378C47.9009 43.6424 47.0054 44.5378 45.9009 44.5378C44.7963 44.5378 43.9009 43.6424 43.9009 42.5378Z" fill="#DBD5D5"/>
<path d="M49.814 42.5378C49.814 41.4333 50.7094 40.5378 51.814 40.5378C52.9185 40.5378 53.814 41.4333 53.814 42.5378C53.814 43.6424 52.9185 44.5378 51.814 44.5378C50.7094 44.5378 49.814 43.6424 49.814 42.5378Z" fill="#DBD5D5"/>
<path d="M65.7903 33.3698C65.7903 33.0936 66.0141 32.8698 66.2903 32.8698C66.5664 32.8698 66.7903 33.0936 66.7903 33.3698V62.0268C66.7903 62.3029 66.5664 62.5268 66.2903 62.5268C66.0141 62.5268 65.7903 62.3029 65.7903 62.0268V33.3698Z" fill="#DFDFDF"/>
<path d="M196.645 33.3698C196.645 33.0936 196.869 32.8698 197.145 32.8698C197.421 32.8698 197.645 33.0936 197.645 33.3698V62.0268C197.645 62.3029 197.421 62.5268 197.145 62.5268C196.869 62.5268 196.645 62.3029 196.645 62.0268V33.3698Z" fill="#DFDFDF"/>
<path d="M37.9878 49.6982C37.9878 48.5937 38.8832 47.6982 39.9878 47.6982C41.0924 47.6982 41.9878 48.5937 41.9878 49.6982C41.9878 50.8028 41.0924 51.6982 39.9878 51.6982C38.8832 51.6982 37.9878 50.8028 37.9878 49.6982Z" fill="#DBD5D5"/>
<path d="M43.9009 49.6982C43.9009 48.5937 44.7963 47.6982 45.9009 47.6982C47.0054 47.6982 47.9009 48.5937 47.9009 49.6982C47.9009 50.8028 47.0054 51.6982 45.9009 51.6982C44.7963 51.6982 43.9009 50.8028 43.9009 49.6982Z" fill="#DBD5D5"/>
<path d="M49.814 49.6982C49.814 48.5937 50.7094 47.6982 51.814 47.6982C52.9185 47.6982 53.814 48.5937 53.814 49.6982C53.814 50.8028 52.9185 51.6982 51.814 51.6982C50.7094 51.6982 49.814 50.8028 49.814 49.6982Z" fill="#DBD5D5"/>
<path d="M82.2903 47.9992H78.1338V51.3982H82.9622V52.4324H76.8691V42.8414H82.8964V43.8822H78.1338V46.965H82.2903V47.9992ZM86.5259 50.779L88.2913 45.305H89.5362L86.9804 52.4324H86.0516L83.4694 45.305H84.7144L86.5259 50.779ZM93.5742 52.5641C92.6081 52.5641 91.822 52.2479 91.216 51.6156C90.6099 50.9788 90.3069 50.1291 90.3069 49.0663V48.8424C90.3069 48.1353 90.4409 47.5052 90.7088 46.9518C90.981 46.3941 91.3587 45.9594 91.8417 45.6476C92.3292 45.3314 92.8562 45.1733 93.4227 45.1733C94.3493 45.1733 95.0695 45.4785 95.5833 46.0889C96.0971 46.6993 96.354 47.5732 96.354 48.7106V49.2178H91.5256C91.5431 49.9205 91.7473 50.4892 92.1382 50.9239C92.5334 51.3543 93.034 51.5695 93.64 51.5695C94.0704 51.5695 94.4349 51.4816 94.7335 51.306C95.0321 51.1303 95.2934 50.8976 95.5174 50.6077L96.2617 51.1874C95.6645 52.1052 94.7687 52.5641 93.5742 52.5641ZM93.4227 46.1746C92.9308 46.1746 92.518 46.3546 92.1843 46.7147C91.8505 47.0704 91.6441 47.571 91.5651 48.2166H95.1353V48.1244C95.1002 47.5052 94.9333 47.0265 94.6347 46.6884C94.3361 46.3458 93.9321 46.1746 93.4227 46.1746ZM101.215 46.3985C101.031 46.3678 100.831 46.3524 100.616 46.3524C99.8166 46.3524 99.2743 46.6927 98.9888 47.3734V52.4324H97.7702V45.305H98.9559L98.9757 46.1284C99.3753 45.4917 99.9418 45.1733 100.675 45.1733C100.912 45.1733 101.092 45.204 101.215 45.2655V46.3985ZM104.792 50.6472L106.452 45.305H107.756L104.891 53.5324C104.447 54.7181 103.743 55.311 102.776 55.311L102.546 55.2912L102.091 55.2056V54.2175L102.421 54.2438C102.834 54.2438 103.154 54.1604 103.382 53.9935C103.615 53.8267 103.806 53.5215 103.956 53.0779L104.226 52.3533L101.683 45.305H103.014L104.792 50.6472ZM116.076 52.4324H114.851V44.3104L112.394 45.2128V44.1062L115.885 42.7953H116.076V52.4324ZM120.206 47.6237L120.694 42.8414H125.608V43.9678H121.728L121.438 46.583C121.908 46.3063 122.441 46.168 123.039 46.168C123.913 46.168 124.606 46.4578 125.12 47.0375C125.634 47.6128 125.891 48.3922 125.891 49.3759C125.891 50.364 125.623 51.1435 125.087 51.7144C124.556 52.2809 123.812 52.5641 122.854 52.5641C122.007 52.5641 121.315 52.3292 120.779 51.8593C120.243 51.3894 119.938 50.7395 119.864 49.9095H121.016C121.091 50.4584 121.286 50.8734 121.603 51.1545C121.919 51.4311 122.336 51.5695 122.854 51.5695C123.421 51.5695 123.864 51.3762 124.185 50.9898C124.51 50.6033 124.672 50.0698 124.672 49.3891C124.672 48.7479 124.497 48.2341 124.145 47.8477C123.798 47.4569 123.335 47.2614 122.755 47.2614C122.224 47.2614 121.807 47.3778 121.504 47.6106L121.181 47.874L120.206 47.6237ZM131.839 45.305L131.872 46.0955C132.395 45.4807 133.099 45.1733 133.987 45.1733C134.983 45.1733 135.662 45.5554 136.022 46.3195C136.259 45.9769 136.566 45.7003 136.944 45.4895C137.326 45.2787 137.776 45.1733 138.295 45.1733C139.858 45.1733 140.653 46.0011 140.679 47.6567V52.4324H139.46V47.7291C139.46 47.2197 139.344 46.8399 139.111 46.5895C138.879 46.3348 138.488 46.2075 137.939 46.2075C137.487 46.2075 137.111 46.3436 136.812 46.6159C136.514 46.8838 136.34 47.2461 136.292 47.7028V52.4324H135.067V47.7621C135.067 46.7257 134.56 46.2075 133.545 46.2075C132.746 46.2075 132.199 46.5478 131.905 47.2285V52.4324H130.686V45.305H131.839ZM143.848 52.4324H142.629V45.305H143.848V52.4324ZM142.53 43.4145C142.53 43.2169 142.589 43.05 142.708 42.9139C142.831 42.7778 143.011 42.7097 143.248 42.7097C143.485 42.7097 143.665 42.7778 143.788 42.9139C143.911 43.05 143.973 43.2169 143.973 43.4145C143.973 43.6121 143.911 43.7768 143.788 43.9086C143.665 44.0403 143.485 44.1062 143.248 44.1062C143.011 44.1062 142.831 44.0403 142.708 43.9086C142.589 43.7768 142.53 43.6121 142.53 43.4145ZM146.957 45.305L146.996 46.2009C147.541 45.5158 148.252 45.1733 149.13 45.1733C150.637 45.1733 151.396 46.023 151.41 47.7225V52.4324H150.191V47.716C150.187 47.2022 150.068 46.8223 149.835 46.5764C149.607 46.3305 149.249 46.2075 148.762 46.2075C148.366 46.2075 148.019 46.3129 147.721 46.5237C147.422 46.7345 147.189 47.0111 147.023 47.3537V52.4324H145.804V45.305H146.957ZM157.648 51.7275C157.173 52.2853 156.477 52.5641 155.56 52.5641C154.8 52.5641 154.22 52.3445 153.821 51.9054C153.425 51.4619 153.225 50.8075 153.221 49.9424V45.305H154.44V49.9095C154.44 50.9898 154.879 51.5299 155.757 51.5299C156.688 51.5299 157.307 51.183 157.615 50.4892V45.305H158.833V52.4324H157.674L157.648 51.7275ZM162.344 43.5792V45.305H163.675V46.247H162.344V50.667C162.344 50.9525 162.404 51.1676 162.522 51.3126C162.641 51.4531 162.843 51.5233 163.128 51.5233C163.269 51.5233 163.462 51.497 163.708 51.4443V52.4324C163.387 52.5202 163.075 52.5641 162.772 52.5641C162.228 52.5641 161.817 52.3994 161.541 52.0701C161.264 51.7407 161.126 51.273 161.126 50.667V46.247H159.828V45.305H161.126V43.5792H162.344ZM168.062 52.5641C167.096 52.5641 166.31 52.2479 165.704 51.6156C165.098 50.9788 164.795 50.1291 164.795 49.0663V48.8424C164.795 48.1353 164.929 47.5052 165.197 46.9518C165.469 46.3941 165.847 45.9594 166.33 45.6476C166.817 45.3314 167.344 45.1733 167.91 45.1733C168.837 45.1733 169.557 45.4785 170.071 46.0889C170.585 46.6993 170.842 47.5732 170.842 48.7106V49.2178H166.013C166.031 49.9205 166.235 50.4892 166.626 50.9239C167.021 51.3543 167.522 51.5695 168.128 51.5695C168.558 51.5695 168.923 51.4816 169.221 51.306C169.52 51.1303 169.781 50.8976 170.005 50.6077L170.75 51.1874C170.152 52.1052 169.256 52.5641 168.062 52.5641ZM167.91 46.1746C167.419 46.1746 167.006 46.3546 166.672 46.7147C166.338 47.0704 166.132 47.571 166.053 48.2166H169.623V48.1244C169.588 47.5052 169.421 47.0265 169.123 46.6884C168.824 46.3458 168.42 46.1746 167.91 46.1746ZM176.408 50.5419C176.408 50.2125 176.283 49.9578 176.032 49.7777C175.787 49.5933 175.354 49.4352 174.735 49.3035C174.12 49.1717 173.63 49.0136 173.266 48.8292C172.906 48.6447 172.638 48.4252 172.462 48.1705C172.291 47.9158 172.205 47.6128 172.205 47.2614C172.205 46.6774 172.451 46.1833 172.943 45.7793C173.439 45.3753 174.072 45.1733 174.84 45.1733C175.648 45.1733 176.303 45.3819 176.803 45.7991C177.308 46.2163 177.561 46.7498 177.561 47.3998H176.335C176.335 47.066 176.193 46.7784 175.907 46.5368C175.626 46.2953 175.271 46.1746 174.84 46.1746C174.397 46.1746 174.05 46.2712 173.799 46.4644C173.549 46.6576 173.424 46.9101 173.424 47.2219C173.424 47.5161 173.54 47.7379 173.773 47.8872C174.006 48.0365 174.425 48.1793 175.031 48.3154C175.642 48.4515 176.136 48.614 176.513 48.8028C176.891 48.9917 177.17 49.22 177.35 49.4879C177.534 49.7514 177.627 50.0742 177.627 50.4562C177.627 51.093 177.372 51.6046 176.862 51.991C176.353 52.3731 175.692 52.5641 174.88 52.5641C174.309 52.5641 173.804 52.4631 173.365 52.2611C172.926 52.0591 172.581 51.778 172.33 51.4179C172.085 51.0535 171.962 50.6604 171.962 50.2388H173.18C173.202 50.6472 173.365 50.9722 173.668 51.2137C173.975 51.4509 174.379 51.5695 174.88 51.5695C175.341 51.5695 175.71 51.4772 175.986 51.2928C176.267 51.104 176.408 50.8536 176.408 50.5419Z" fill="#333333"/>
<rect x="215.806" y="36.4324" width="30" height="18" rx="9" fill="#00A65A"/>
<path d="M228.806 45.4324C228.806 41.0141 232.387 37.4324 236.806 37.4324C241.224 37.4324 244.806 41.0141 244.806 45.4324C244.806 49.8507 241.224 53.4324 236.806 53.4324C232.387 53.4324 228.806 49.8507 228.806 45.4324Z" fill="white"/>
<defs>
<filter id="filter0_d" x="0.594343" y="0.979109" width="282.067" height="88.9064" filterUnits="userSpaceOnUse" color-interpolation-filters="sRGB">
<feFlood flood-opacity="0" result="BackgroundImageFix"/>
<feColorMatrix in="SourceAlpha" type="matrix" values="0 0 0 0 0 0 0 0 0 0 0 0 0 0 0 0 0 0 127 0" result="hardAlpha"/>
<feOffset/>
<feGaussianBlur stdDeviation="8.43159"/>
<feColorMatrix type="matrix" values="0 0 0 0 0 0 0 0 0 0 0 0 0 0 0 0 0 0 0.1 0"/>
<feBlend mode="normal" in2="BackgroundImageFix" result="effect1_dropShadow"/>
<feBlend mode="normal" in="SourceGraphic" in2="effect1_dropShadow" result="shape"/>
</filter>
</defs>
</svg>
