<svg width="332" height="218" viewBox="0 0 332 218" fill="none" xmlns="http://www.w3.org/2000/svg">
<g filter="url(#filter0_d)">
<path d="M17.6829 47.842C17.6829 41.2146 23.0554 35.842 29.6829 35.842H254.024C260.651 35.842 266.024 41.2146 266.024 47.842V79.0221C266.024 85.6495 260.651 91.0221 254.024 91.0221H29.6829C23.0555 91.0221 17.6829 85.6495 17.6829 79.0221V47.842Z" fill="white"/>
</g>
<path d="M38.2131 60.5377C38.2131 59.4331 39.1086 58.5377 40.2131 58.5377C41.3177 58.5377 42.2131 59.4331 42.2131 60.5377C42.2131 61.6422 41.3177 62.5377 40.2131 62.5377C39.1086 62.5377 38.2131 61.6422 38.2131 60.5377Z" fill="#DBD5D5"/>
<path d="M44.1262 60.5377C44.1262 59.4331 45.0217 58.5377 46.1262 58.5377C47.2308 58.5377 48.1262 59.4331 48.1262 60.5377C48.1262 61.6422 47.2308 62.5377 46.1262 62.5377C45.0217 62.5377 44.1262 61.6422 44.1262 60.5377Z" fill="#DBD5D5"/>
<path d="M50.0393 60.5377C50.0393 59.4331 50.9347 58.5377 52.0393 58.5377C53.1439 58.5377 54.0393 59.4331 54.0393 60.5377C54.0393 61.6422 53.1439 62.5377 52.0393 62.5377C50.9347 62.5377 50.0393 61.6422 50.0393 60.5377Z" fill="#DBD5D5"/>
<path d="M66.0156 51.3695C66.0156 51.0934 66.2395 50.8695 66.5156 50.8695C66.7918 50.8695 67.0156 51.0934 67.0156 51.3695V80.0266C67.0156 80.3027 66.7918 80.5266 66.5156 80.5266C66.2395 80.5266 66.0156 80.3027 66.0156 80.0266V51.3695Z" fill="#DFDFDF"/>
<path d="M171.015 51.3695C171.015 51.0934 171.239 50.8695 171.515 50.8695C171.792 50.8695 172.015 51.0934 172.015 51.3695V80.0266C172.015 80.3027 171.792 80.5266 171.515 80.5266C171.239 80.5266 171.015 80.3027 171.015 80.0266V51.3695Z" fill="#DFDFDF"/>
<path d="M38.2131 67.698C38.2131 66.5934 39.1086 65.698 40.2131 65.698C41.3177 65.698 42.2131 66.5934 42.2131 67.698C42.2131 68.8026 41.3177 69.698 40.2131 69.698C39.1086 69.698 38.2131 68.8026 38.2131 67.698Z" fill="#DBD5D5"/>
<path d="M44.1262 67.698C44.1262 66.5934 45.0217 65.698 46.1262 65.698C47.2308 65.698 48.1262 66.5934 48.1262 67.698C48.1262 68.8026 47.2308 69.698 46.1262 69.698C45.0217 69.698 44.1262 68.8026 44.1262 67.698Z" fill="#DBD5D5"/>
<path d="M50.0393 67.698C50.0393 66.5934 50.9347 65.698 52.0393 65.698C53.1439 65.698 54.0393 66.5934 54.0393 67.698C54.0393 68.8026 53.1439 69.698 52.0393 69.698C50.9347 69.698 50.0393 68.8026 50.0393 67.698Z" fill="#DBD5D5"/>
<path d="M84.1493 67.3889C84.0307 68.4033 83.6553 69.1872 83.0229 69.7405C82.3949 70.2894 81.5583 70.5639 80.5132 70.5639C79.3802 70.5639 78.4712 70.1577 77.7861 69.3452C77.1054 68.5328 76.7651 67.4459 76.7651 66.0846V65.1624C76.7651 64.2709 76.9232 63.487 77.2394 62.8108C77.5599 62.1345 78.0122 61.6163 78.5963 61.2562C79.1804 60.8917 79.8567 60.7095 80.6252 60.7095C81.644 60.7095 82.4608 60.9949 83.0756 61.5658C83.6904 62.1323 84.0483 62.9184 84.1493 63.924H82.878C82.7682 63.1599 82.5289 62.6066 82.16 62.264C81.7955 61.9215 81.2839 61.7502 80.6252 61.7502C79.8171 61.7502 79.1826 62.0488 78.7215 62.6461C78.2648 63.2433 78.0364 64.0931 78.0364 65.1953V66.1241C78.0364 67.1649 78.2538 67.9927 78.6885 68.6075C79.1233 69.2223 79.7315 69.5297 80.5132 69.5297C81.2158 69.5297 81.7538 69.3716 82.127 69.0554C82.5047 68.7348 82.755 68.1793 82.878 67.3889H84.1493ZM90.0909 69.7273C89.6167 70.285 88.9206 70.5639 88.0028 70.5639C87.2431 70.5639 86.6634 70.3443 86.2638 69.9052C85.8686 69.4616 85.6687 68.8073 85.6644 67.9422V63.3048H86.883V67.9092C86.883 68.9895 87.3221 69.5297 88.2004 69.5297C89.1314 69.5297 89.7506 69.1828 90.058 68.4889V63.3048H91.2766V70.4321H90.1173L90.0909 69.7273ZM97.2841 68.5416C97.2841 68.2122 97.159 67.9575 96.9087 67.7775C96.6627 67.5931 96.2302 67.435 95.611 67.3032C94.9962 67.1715 94.5065 67.0134 94.1421 66.8289C93.782 66.6445 93.5141 66.4249 93.3384 66.1702C93.1672 65.9155 93.0815 65.6125 93.0815 65.2612C93.0815 64.6771 93.3274 64.1831 93.8193 63.7791C94.3155 63.3751 94.9479 63.1731 95.7164 63.1731C96.5244 63.1731 97.1787 63.3817 97.6794 63.7988C98.1844 64.216 98.4369 64.7496 98.4369 65.3995H97.2117C97.2117 65.0658 97.069 64.7781 96.7835 64.5366C96.5025 64.2951 96.1468 64.1743 95.7164 64.1743C95.2729 64.1743 94.9259 64.2709 94.6756 64.4641C94.4253 64.6574 94.3001 64.9099 94.3001 65.2217C94.3001 65.5159 94.4165 65.7377 94.6493 65.887C94.882 66.0363 95.3014 66.179 95.9074 66.3151C96.5178 66.4513 97.0119 66.6138 97.3895 66.8026C97.7672 66.9914 98.0461 67.2198 98.2261 67.4877C98.4105 67.7511 98.5028 68.0739 98.5028 68.456C98.5028 69.0927 98.2481 69.6043 97.7387 69.9908C97.2292 70.3728 96.5683 70.5639 95.7559 70.5639C95.185 70.5639 94.68 70.4629 94.2409 70.2609C93.8017 70.0589 93.457 69.7778 93.2067 69.4177C92.9608 69.0532 92.8378 68.6602 92.8378 68.2386H94.0564C94.0784 68.647 94.2409 68.972 94.5439 69.2135C94.8513 69.4506 95.2553 69.5692 95.7559 69.5692C96.217 69.5692 96.5859 69.477 96.8626 69.2925C97.1436 69.1037 97.2841 68.8534 97.2841 68.5416ZM101.744 61.579V63.3048H103.074V64.2468H101.744V68.6668C101.744 68.9522 101.803 69.1674 101.922 69.3123C102.04 69.4528 102.242 69.5231 102.528 69.5231C102.668 69.5231 102.861 69.4967 103.107 69.4441V70.4321C102.787 70.52 102.475 70.5639 102.172 70.5639C101.627 70.5639 101.217 70.3992 100.94 70.0698C100.663 69.7405 100.525 69.2728 100.525 68.6668V64.2468H99.2274V63.3048H100.525V61.579H101.744ZM104.049 66.8026C104.049 66.1044 104.185 65.4764 104.458 64.9187C104.734 64.3609 105.116 63.9306 105.604 63.6276C106.096 63.3246 106.655 63.1731 107.283 63.1731C108.254 63.1731 109.038 63.509 109.635 64.1809C110.237 64.8528 110.538 65.7464 110.538 66.8619V66.9475C110.538 67.6414 110.404 68.2649 110.136 68.8183C109.872 69.3672 109.492 69.7954 108.996 70.1028C108.504 70.4102 107.938 70.5639 107.297 70.5639C106.331 70.5639 105.547 70.2279 104.945 69.556C104.348 68.8841 104.049 67.9949 104.049 66.8882V66.8026ZM105.274 66.9475C105.274 67.738 105.457 68.3725 105.821 68.8512C106.19 69.3299 106.682 69.5692 107.297 69.5692C107.916 69.5692 108.408 69.3277 108.772 68.8446C109.137 68.3572 109.319 67.6765 109.319 66.8026C109.319 66.0209 109.132 65.3885 108.759 64.9055C108.39 64.418 107.898 64.1743 107.283 64.1743C106.682 64.1743 106.197 64.4136 105.828 64.8923C105.459 65.371 105.274 66.056 105.274 66.9475ZM113.212 63.3048L113.245 64.0953C113.767 63.4805 114.472 63.1731 115.359 63.1731C116.356 63.1731 117.035 63.5551 117.395 64.3192C117.632 63.9767 117.939 63.7 118.317 63.4892C118.699 63.2785 119.149 63.1731 119.667 63.1731C121.231 63.1731 122.026 64.0008 122.052 65.6564V70.4321H120.833V65.7289C120.833 65.2195 120.717 64.8396 120.484 64.5893C120.251 64.3346 119.861 64.2072 119.312 64.2072C118.859 64.2072 118.484 64.3434 118.185 64.6157C117.887 64.8835 117.713 65.2458 117.665 65.7025V70.4321H116.44V65.7618C116.44 64.7254 115.932 64.2072 114.918 64.2072C114.119 64.2072 113.572 64.5476 113.278 65.2283V70.4321H112.059V63.3048H113.212ZM130.951 66.5523H128.698V70.4321H127.427V60.8412H130.602C131.682 60.8412 132.512 61.0871 133.092 61.579C133.676 62.0708 133.968 62.7866 133.968 63.7264C133.968 64.3236 133.806 64.844 133.481 65.2875C133.16 65.7311 132.712 66.0626 132.137 66.2822L134.39 70.3531V70.4321H133.033L130.951 66.5523ZM128.698 65.5181H130.642C131.27 65.5181 131.768 65.3556 132.137 65.0306C132.51 64.7057 132.697 64.2709 132.697 63.7264C132.697 63.1335 132.519 62.679 132.163 62.3628C131.812 62.0467 131.303 61.8864 130.635 61.882H128.698V65.5181ZM143.124 65.9463C143.124 66.886 142.966 67.7072 142.65 68.4099C142.334 69.1081 141.886 69.6417 141.306 70.0105C140.727 70.3794 140.05 70.5639 139.277 70.5639C138.522 70.5639 137.852 70.3794 137.268 70.0105C136.684 69.6373 136.23 69.1081 135.905 68.423C135.584 67.7336 135.42 66.9365 135.411 66.0319V65.3402C135.411 64.418 135.571 63.6034 135.892 62.8964C136.212 62.1894 136.664 61.6492 137.249 61.276C137.837 60.8983 138.509 60.7095 139.264 60.7095C140.033 60.7095 140.709 60.8961 141.293 61.2694C141.882 61.6382 142.334 62.1762 142.65 62.8832C142.966 63.5859 143.124 64.4049 143.124 65.3402V65.9463ZM141.866 65.3271C141.866 64.1897 141.638 63.318 141.181 62.712C140.724 62.1015 140.085 61.7963 139.264 61.7963C138.465 61.7963 137.835 62.1015 137.374 62.712C136.917 63.318 136.682 64.1611 136.669 65.2414V65.9463C136.669 67.0485 136.899 67.9158 137.361 68.5482C137.826 69.1762 138.465 69.4902 139.277 69.4902C140.094 69.4902 140.727 69.1937 141.175 68.6009C141.622 68.0037 141.853 67.1495 141.866 66.0385V65.3271ZM150.173 67.929H146.154L145.252 70.4321H143.948L147.61 60.8412H148.717L152.386 70.4321H151.088L150.173 67.929ZM146.536 66.8882H149.797L148.164 62.4024L146.536 66.8882ZM156.503 66.1571C155.418 65.8453 154.628 65.4632 154.131 65.0109C153.64 64.5542 153.394 63.9921 153.394 63.3246C153.394 62.5692 153.695 61.9456 154.296 61.4538C154.902 60.9576 155.688 60.7095 156.654 60.7095C157.313 60.7095 157.899 60.8368 158.413 61.0915C158.931 61.3462 159.331 61.6975 159.612 62.1455C159.897 62.5934 160.04 63.083 160.04 63.6144H158.769C158.769 63.0347 158.584 62.5802 158.216 62.2509C157.847 61.9171 157.326 61.7502 156.654 61.7502C156.031 61.7502 155.543 61.8886 155.192 62.1652C154.845 62.4375 154.672 62.8174 154.672 63.3048C154.672 63.6956 154.836 64.0272 155.166 64.2995C155.499 64.5673 156.064 64.8133 156.859 65.0372C157.658 65.2612 158.281 65.5093 158.729 65.7816C159.182 66.0495 159.515 66.3634 159.731 66.7235C159.95 67.0836 160.06 67.5074 160.06 67.9949C160.06 68.7722 159.757 69.3957 159.151 69.8656C158.545 70.3311 157.735 70.5639 156.72 70.5639C156.062 70.5639 155.447 70.4387 154.876 70.1884C154.305 69.9337 153.864 69.5868 153.552 69.1476C153.244 68.7085 153.091 68.2101 153.091 67.6523H154.362C154.362 68.232 154.575 68.6909 155.001 69.0291C155.431 69.3628 156.004 69.5297 156.72 69.5297C157.388 69.5297 157.899 69.3936 158.255 69.1213C158.611 68.849 158.789 68.4779 158.789 68.008C158.789 67.5382 158.624 67.1759 158.295 66.9212C157.965 66.6621 157.368 66.4074 156.503 66.1571Z" fill="#333333"/>
<path d="M192.462 66.3415C192.462 67.7687 192.219 68.8292 191.731 69.5231C191.244 70.2169 190.482 70.5639 189.445 70.5639C188.422 70.5639 187.665 70.2257 187.173 69.5494C186.681 68.8688 186.426 67.8543 186.409 66.5062V64.8791C186.409 63.4695 186.652 62.4221 187.14 61.7371C187.627 61.052 188.391 60.7095 189.432 60.7095C190.464 60.7095 191.224 61.041 191.711 61.7041C192.199 62.3628 192.449 63.3817 192.462 64.7606V66.3415ZM191.244 64.6749C191.244 63.6429 191.099 62.892 190.809 62.4221C190.519 61.9478 190.06 61.7107 189.432 61.7107C188.809 61.7107 188.354 61.9456 188.069 62.4155C187.783 62.8854 187.636 63.6078 187.627 64.5827V66.5325C187.627 67.5689 187.777 68.3352 188.075 68.8314C188.378 69.3233 188.835 69.5692 189.445 69.5692C190.047 69.5692 190.493 69.3365 190.783 68.871C191.077 68.4055 191.23 67.6721 191.244 66.6709V64.6749ZM194.175 69.7932C194.175 69.5824 194.236 69.4067 194.359 69.2662C194.487 69.1257 194.676 69.0554 194.926 69.0554C195.176 69.0554 195.365 69.1257 195.492 69.2662C195.624 69.4067 195.69 69.5824 195.69 69.7932C195.69 69.9952 195.624 70.1643 195.492 70.3004C195.365 70.4365 195.176 70.5046 194.926 70.5046C194.676 70.5046 194.487 70.4365 194.359 70.3004C194.236 70.1643 194.175 69.9952 194.175 69.7932ZM203.397 63.3443C203.397 63.823 203.27 64.249 203.015 64.6222C202.765 64.9955 202.424 65.2875 201.994 65.4983C202.495 65.7135 202.89 66.0275 203.18 66.4403C203.474 66.8531 203.621 67.3208 203.621 67.8434C203.621 68.6734 203.34 69.3343 202.778 69.8261C202.22 70.318 201.485 70.5639 200.571 70.5639C199.649 70.5639 198.909 70.318 198.351 69.8261C197.798 69.3299 197.521 68.669 197.521 67.8434C197.521 67.3252 197.662 66.8575 197.943 66.4403C198.228 66.0231 198.621 65.7069 199.122 65.4917C198.696 65.281 198.36 64.9889 198.114 64.6157C197.868 64.2424 197.745 63.8186 197.745 63.3443C197.745 62.5363 198.004 61.8951 198.522 61.4209C199.041 60.9466 199.724 60.7095 200.571 60.7095C201.414 60.7095 202.095 60.9466 202.613 61.4209C203.136 61.8951 203.397 62.5363 203.397 63.3443ZM202.402 67.817C202.402 67.2813 202.231 66.8443 201.889 66.5062C201.55 66.168 201.107 65.999 200.558 65.999C200.009 65.999 199.568 66.1658 199.234 66.4996C198.905 66.8333 198.74 67.2725 198.74 67.817C198.74 68.3616 198.9 68.7897 199.221 69.1015C199.546 69.4133 199.996 69.5692 200.571 69.5692C201.142 69.5692 201.59 69.4133 201.915 69.1015C202.24 68.7853 202.402 68.3572 202.402 67.817ZM200.571 61.7107C200.092 61.7107 199.704 61.86 199.405 62.1586C199.111 62.4529 198.964 62.8547 198.964 63.3641C198.964 63.8515 199.109 64.2468 199.399 64.5498C199.693 64.8484 200.084 64.9977 200.571 64.9977C201.059 64.9977 201.447 64.8484 201.737 64.5498C202.031 64.2468 202.178 63.8515 202.178 63.3641C202.178 62.8766 202.027 62.4792 201.724 62.1718C201.421 61.8644 201.037 61.7107 200.571 61.7107Z" fill="#333333"/>
<g filter="url(#filter1_d)">
<path d="M61.4807 113.445C61.4807 106.818 66.8533 101.445 73.4807 101.445H297.822C304.449 101.445 309.822 106.818 309.822 113.445V144.625C309.822 151.253 304.449 156.625 297.822 156.625H73.4807C66.8533 156.625 61.4807 151.253 61.4807 144.625V113.445Z" fill="white"/>
</g>
<path d="M82.011 126.141C82.011 125.036 82.9064 124.141 84.011 124.141C85.1156 124.141 86.011 125.036 86.011 126.141C86.011 127.245 85.1156 128.141 84.011 128.141C82.9064 128.141 82.011 127.245 82.011 126.141Z" fill="#DBD5D5"/>
<path d="M87.9241 126.141C87.9241 125.036 88.8195 124.141 89.9241 124.141C91.0286 124.141 91.9241 125.036 91.9241 126.141C91.9241 127.245 91.0286 128.141 89.9241 128.141C88.8195 128.141 87.9241 127.245 87.9241 126.141Z" fill="#DBD5D5"/>
<path d="M93.8372 126.141C93.8372 125.036 94.7326 124.141 95.8372 124.141C96.9417 124.141 97.8372 125.036 97.8372 126.141C97.8372 127.245 96.9417 128.141 95.8372 128.141C94.7326 128.141 93.8372 127.245 93.8372 126.141Z" fill="#DBD5D5"/>
<path d="M109.813 116.973C109.813 116.696 110.037 116.473 110.313 116.473C110.59 116.473 110.813 116.696 110.813 116.973V145.63C110.813 145.906 110.59 146.13 110.313 146.13C110.037 146.13 109.813 145.906 109.813 145.63V116.973Z" fill="#DFDFDF"/>
<path d="M82.011 133.301C82.011 132.196 82.9064 131.301 84.011 131.301C85.1156 131.301 86.011 132.196 86.011 133.301C86.011 134.406 85.1156 135.301 84.011 135.301C82.9064 135.301 82.011 134.406 82.011 133.301Z" fill="#DBD5D5"/>
<path d="M87.9241 133.301C87.9241 132.196 88.8195 131.301 89.9241 131.301C91.0286 131.301 91.9241 132.196 91.9241 133.301C91.9241 134.406 91.0286 135.301 89.9241 135.301C88.8195 135.301 87.9241 134.406 87.9241 133.301Z" fill="#DBD5D5"/>
<path d="M93.8372 133.301C93.8372 132.196 94.7326 131.301 95.8372 131.301C96.9417 131.301 97.8372 132.196 97.8372 133.301C97.8372 134.406 96.9417 135.301 95.8372 135.301C94.7326 135.301 93.8372 134.406 93.8372 133.301Z" fill="#DBD5D5"/>
<path d="M137.797 130.278L137.981 131.542L138.251 130.403L140.148 123.71H141.215L143.066 130.403L143.33 131.562L143.534 130.271L145.023 123.71H146.294L143.969 133.301H142.816L140.84 126.312L140.688 125.581L140.537 126.312L138.488 133.301H137.335L135.017 123.71H136.282L137.797 130.278ZM150.26 133.433C149.293 133.433 148.507 133.117 147.901 132.484C147.295 131.847 146.992 130.998 146.992 129.935V129.711C146.992 129.004 147.126 128.374 147.394 127.82C147.666 127.263 148.044 126.828 148.527 126.516C149.015 126.2 149.542 126.042 150.108 126.042C151.035 126.042 151.755 126.347 152.269 126.958C152.782 127.568 153.039 128.442 153.039 129.579V130.086H148.211C148.228 130.789 148.433 131.358 148.824 131.793C149.219 132.223 149.719 132.438 150.325 132.438C150.756 132.438 151.12 132.35 151.419 132.175C151.718 131.999 151.979 131.766 152.203 131.476L152.947 132.056C152.35 132.974 151.454 133.433 150.26 133.433ZM150.108 127.043C149.616 127.043 149.203 127.223 148.87 127.583C148.536 127.939 148.329 128.44 148.25 129.085H151.821V128.993C151.786 128.374 151.619 127.895 151.32 127.557C151.021 127.214 150.617 127.043 150.108 127.043ZM160.489 129.816C160.489 130.905 160.239 131.782 159.738 132.445C159.238 133.103 158.566 133.433 157.723 133.433C156.823 133.433 156.127 133.114 155.635 132.478L155.575 133.301H154.456V123.183H155.674V126.958C156.166 126.347 156.845 126.042 157.71 126.042C158.575 126.042 159.253 126.369 159.745 127.023C160.241 127.678 160.489 128.574 160.489 129.711V129.816ZM159.271 129.678C159.271 128.848 159.111 128.207 158.79 127.755C158.469 127.302 158.008 127.076 157.407 127.076C156.603 127.076 156.026 127.449 155.674 128.196V131.279C156.047 132.025 156.629 132.399 157.42 132.399C158.004 132.399 158.458 132.172 158.783 131.72C159.108 131.268 159.271 130.587 159.271 129.678ZM166.181 131.411C166.181 131.081 166.056 130.826 165.805 130.646C165.559 130.462 165.127 130.304 164.508 130.172C163.893 130.04 163.403 129.882 163.039 129.698C162.679 129.513 162.411 129.294 162.235 129.039C162.064 128.784 161.978 128.481 161.978 128.13C161.978 127.546 162.224 127.052 162.716 126.648C163.212 126.244 163.844 126.042 164.613 126.042C165.421 126.042 166.075 126.251 166.576 126.668C167.081 127.085 167.334 127.618 167.334 128.268H166.108C166.108 127.935 165.966 127.647 165.68 127.406C165.399 127.164 165.043 127.043 164.613 127.043C164.169 127.043 163.823 127.14 163.572 127.333C163.322 127.526 163.197 127.779 163.197 128.091C163.197 128.385 163.313 128.607 163.546 128.756C163.779 128.905 164.198 129.048 164.804 129.184C165.414 129.32 165.908 129.483 166.286 129.671C166.664 129.86 166.943 130.089 167.123 130.357C167.307 130.62 167.399 130.943 167.399 131.325C167.399 131.962 167.145 132.473 166.635 132.86C166.126 133.242 165.465 133.433 164.653 133.433C164.082 133.433 163.577 133.332 163.137 133.13C162.698 132.928 162.354 132.647 162.103 132.287C161.857 131.922 161.734 131.529 161.734 131.107H162.953C162.975 131.516 163.137 131.841 163.44 132.082C163.748 132.32 164.152 132.438 164.653 132.438C165.114 132.438 165.483 132.346 165.759 132.161C166.04 131.973 166.181 131.722 166.181 131.411ZM170.311 133.301H169.092V126.174H170.311V133.301ZM168.993 124.283C168.993 124.086 169.053 123.919 169.171 123.783C169.294 123.646 169.474 123.578 169.711 123.578C169.949 123.578 170.129 123.646 170.252 123.783C170.375 123.919 170.436 124.086 170.436 124.283C170.436 124.481 170.375 124.645 170.252 124.777C170.129 124.909 169.949 124.975 169.711 124.975C169.474 124.975 169.294 124.909 169.171 124.777C169.053 124.645 168.993 124.481 168.993 124.283ZM173.921 124.448V126.174H175.251V127.116H173.921V131.536C173.921 131.821 173.98 132.036 174.099 132.181C174.217 132.322 174.419 132.392 174.705 132.392C174.845 132.392 175.038 132.366 175.284 132.313V133.301C174.964 133.389 174.652 133.433 174.349 133.433C173.804 133.433 173.394 133.268 173.117 132.939C172.84 132.609 172.702 132.142 172.702 131.536V127.116H171.404V126.174H172.702V124.448H173.921ZM179.638 133.433C178.672 133.433 177.886 133.117 177.28 132.484C176.674 131.847 176.371 130.998 176.371 129.935V129.711C176.371 129.004 176.505 128.374 176.773 127.82C177.045 127.263 177.423 126.828 177.906 126.516C178.393 126.2 178.92 126.042 179.487 126.042C180.413 126.042 181.134 126.347 181.647 126.958C182.161 127.568 182.418 128.442 182.418 129.579V130.086H177.59C177.607 130.789 177.812 131.358 178.202 131.793C178.598 132.223 179.098 132.438 179.704 132.438C180.135 132.438 180.499 132.35 180.798 132.175C181.096 131.999 181.358 131.766 181.582 131.476L182.326 132.056C181.729 132.974 180.833 133.433 179.638 133.433ZM179.487 127.043C178.995 127.043 178.582 127.223 178.248 127.583C177.915 127.939 177.708 128.44 177.629 129.085H181.2V128.993C181.164 128.374 180.998 127.895 180.699 127.557C180.4 127.214 179.996 127.043 179.487 127.043ZM188.636 129.546V133.301H187.372V123.71H190.909C191.959 123.71 192.78 123.978 193.373 124.514C193.97 125.049 194.268 125.759 194.268 126.641C194.268 127.572 193.976 128.29 193.392 128.795C192.813 129.296 191.981 129.546 190.896 129.546H188.636ZM188.636 128.512H190.909C191.585 128.512 192.103 128.354 192.464 128.038C192.824 127.717 193.004 127.256 193.004 126.655C193.004 126.084 192.824 125.627 192.464 125.284C192.103 124.942 191.609 124.764 190.981 124.751H188.636V128.512ZM200.092 132.596C199.617 133.154 198.921 133.433 198.003 133.433C197.244 133.433 196.664 133.213 196.264 132.774C195.869 132.331 195.669 131.676 195.665 130.811V126.174H196.884V130.778C196.884 131.858 197.323 132.399 198.201 132.399C199.132 132.399 199.751 132.052 200.059 131.358V126.174H201.277V133.301H200.118L200.092 132.596ZM206.58 127.267C206.395 127.236 206.196 127.221 205.98 127.221C205.181 127.221 204.639 127.561 204.353 128.242V133.301H203.135V126.174H204.321L204.34 126.997C204.74 126.36 205.306 126.042 206.04 126.042C206.277 126.042 206.457 126.073 206.58 126.134V127.267ZM210.433 132.438C210.868 132.438 211.248 132.306 211.573 132.043C211.898 131.779 212.078 131.45 212.113 131.055H213.266C213.244 131.463 213.103 131.852 212.844 132.221C212.585 132.59 212.238 132.884 211.804 133.103C211.373 133.323 210.916 133.433 210.433 133.433C209.463 133.433 208.69 133.11 208.115 132.464C207.544 131.815 207.258 130.927 207.258 129.803V129.599C207.258 128.905 207.386 128.288 207.64 127.748C207.895 127.208 208.26 126.789 208.734 126.49C209.213 126.191 209.777 126.042 210.427 126.042C211.226 126.042 211.889 126.281 212.416 126.76C212.948 127.239 213.231 127.86 213.266 128.624H212.113C212.078 128.163 211.902 127.785 211.586 127.491C211.274 127.193 210.888 127.043 210.427 127.043C209.808 127.043 209.327 127.267 208.984 127.715C208.646 128.159 208.477 128.802 208.477 129.645V129.876C208.477 130.697 208.646 131.329 208.984 131.773C209.322 132.216 209.805 132.438 210.433 132.438ZM215.855 127.037C216.395 126.374 217.097 126.042 217.963 126.042C219.469 126.042 220.229 126.892 220.242 128.591V133.301H219.023V128.585C219.019 128.071 218.9 127.691 218.667 127.445C218.439 127.199 218.081 127.076 217.594 127.076C217.198 127.076 216.852 127.182 216.553 127.392C216.254 127.603 216.022 127.88 215.855 128.222V133.301H214.636V123.183H215.855V127.037ZM226.467 133.301C226.396 133.16 226.339 132.91 226.295 132.55C225.729 133.139 225.053 133.433 224.266 133.433C223.564 133.433 222.986 133.235 222.534 132.84C222.086 132.44 221.862 131.935 221.862 131.325C221.862 130.583 222.143 130.007 222.705 129.599C223.272 129.186 224.067 128.98 225.09 128.98H226.276V128.42C226.276 127.994 226.148 127.656 225.894 127.406C225.639 127.151 225.263 127.023 224.767 127.023C224.332 127.023 223.968 127.133 223.674 127.353C223.379 127.572 223.232 127.838 223.232 128.15H222.007C222.007 127.794 222.132 127.452 222.383 127.122C222.637 126.789 222.98 126.525 223.41 126.332C223.845 126.139 224.321 126.042 224.84 126.042C225.661 126.042 226.304 126.248 226.77 126.661C227.235 127.07 227.477 127.634 227.494 128.354V131.634C227.494 132.289 227.578 132.809 227.745 133.196V133.301H226.467ZM224.444 132.372C224.826 132.372 225.189 132.273 225.531 132.076C225.874 131.878 226.122 131.621 226.276 131.305V129.843H225.32C223.827 129.843 223.081 130.28 223.081 131.154C223.081 131.536 223.208 131.834 223.463 132.049C223.718 132.265 224.045 132.372 224.444 132.372ZM233.554 131.411C233.554 131.081 233.429 130.826 233.179 130.646C232.933 130.462 232.5 130.304 231.881 130.172C231.266 130.04 230.777 129.882 230.412 129.698C230.052 129.513 229.784 129.294 229.609 129.039C229.437 128.784 229.352 128.481 229.352 128.13C229.352 127.546 229.598 127.052 230.09 126.648C230.586 126.244 231.218 126.042 231.987 126.042C232.795 126.042 233.449 126.251 233.95 126.668C234.455 127.085 234.707 127.618 234.707 128.268H233.482C233.482 127.935 233.339 127.647 233.054 127.406C232.773 127.164 232.417 127.043 231.987 127.043C231.543 127.043 231.196 127.14 230.946 127.333C230.696 127.526 230.57 127.779 230.57 128.091C230.57 128.385 230.687 128.607 230.92 128.756C231.152 128.905 231.572 129.048 232.178 129.184C232.788 129.32 233.282 129.483 233.66 129.671C234.037 129.86 234.316 130.089 234.496 130.357C234.681 130.62 234.773 130.943 234.773 131.325C234.773 131.962 234.518 132.473 234.009 132.86C233.5 133.242 232.839 133.433 232.026 133.433C231.455 133.433 230.95 133.332 230.511 133.13C230.072 132.928 229.727 132.647 229.477 132.287C229.231 131.922 229.108 131.529 229.108 131.107H230.327C230.349 131.516 230.511 131.841 230.814 132.082C231.122 132.32 231.526 132.438 232.026 132.438C232.487 132.438 232.856 132.346 233.133 132.161C233.414 131.973 233.554 131.722 233.554 131.411ZM239.318 133.433C238.352 133.433 237.566 133.117 236.96 132.484C236.354 131.847 236.051 130.998 236.051 129.935V129.711C236.051 129.004 236.185 128.374 236.453 127.82C236.725 127.263 237.103 126.828 237.586 126.516C238.073 126.2 238.6 126.042 239.167 126.042C240.093 126.042 240.813 126.347 241.327 126.958C241.841 127.568 242.098 128.442 242.098 129.579V130.086H237.27C237.287 130.789 237.491 131.358 237.882 131.793C238.277 132.223 238.778 132.438 239.384 132.438C239.814 132.438 240.179 132.35 240.478 132.175C240.776 131.999 241.037 131.766 241.261 131.476L242.006 132.056C241.409 132.974 240.513 133.433 239.318 133.433ZM239.167 127.043C238.675 127.043 238.262 127.223 237.928 127.583C237.595 127.939 237.388 128.44 237.309 129.085H240.879V128.993C240.844 128.374 240.677 127.895 240.379 127.557C240.08 127.214 239.676 127.043 239.167 127.043ZM250.569 129.421H248.316V133.301H247.045V123.71H250.22C251.3 123.71 252.13 123.956 252.71 124.448C253.294 124.94 253.586 125.656 253.586 126.595C253.586 127.193 253.424 127.713 253.099 128.156C252.778 128.6 252.33 128.932 251.755 129.151L254.008 133.222V133.301H252.651L250.569 129.421ZM248.316 128.387H250.259C250.887 128.387 251.386 128.225 251.755 127.9C252.128 127.575 252.315 127.14 252.315 126.595C252.315 126.002 252.137 125.548 251.781 125.232C251.43 124.916 250.92 124.755 250.253 124.751H248.316V128.387ZM262.742 128.815C262.742 129.755 262.584 130.576 262.268 131.279C261.952 131.977 261.504 132.511 260.924 132.879C260.344 133.248 259.668 133.433 258.895 133.433C258.14 133.433 257.47 133.248 256.886 132.879C256.302 132.506 255.848 131.977 255.523 131.292C255.202 130.602 255.037 129.805 255.029 128.901V128.209C255.029 127.287 255.189 126.472 255.509 125.765C255.83 125.058 256.282 124.518 256.866 124.145C257.455 123.767 258.127 123.578 258.882 123.578C259.651 123.578 260.327 123.765 260.911 124.138C261.499 124.507 261.952 125.045 262.268 125.752C262.584 126.455 262.742 127.274 262.742 128.209V128.815ZM261.484 128.196C261.484 127.059 261.256 126.187 260.799 125.581C260.342 124.97 259.703 124.665 258.882 124.665C258.083 124.665 257.453 124.97 256.992 125.581C256.535 126.187 256.3 127.03 256.287 128.11V128.815C256.287 129.917 256.517 130.785 256.978 131.417C257.444 132.045 258.083 132.359 258.895 132.359C259.712 132.359 260.344 132.063 260.792 131.47C261.24 130.873 261.471 130.018 261.484 128.907V128.196ZM269.79 130.798H265.772L264.87 133.301H263.566L267.228 123.71H268.335L272.004 133.301H270.706L269.79 130.798ZM266.154 129.757H269.415L267.781 125.271L266.154 129.757ZM276.121 129.026C275.036 128.714 274.246 128.332 273.749 127.88C273.258 127.423 273.012 126.861 273.012 126.193C273.012 125.438 273.312 124.815 273.914 124.323C274.52 123.826 275.306 123.578 276.272 123.578C276.931 123.578 277.517 123.706 278.031 123.96C278.549 124.215 278.949 124.566 279.23 125.014C279.515 125.462 279.658 125.952 279.658 126.483H278.387C278.387 125.904 278.202 125.449 277.833 125.12C277.465 124.786 276.944 124.619 276.272 124.619C275.649 124.619 275.161 124.757 274.81 125.034C274.463 125.306 274.29 125.686 274.29 126.174C274.29 126.565 274.454 126.896 274.784 127.168C275.117 127.436 275.682 127.682 276.476 127.906C277.276 128.13 277.899 128.378 278.347 128.65C278.8 128.918 279.133 129.232 279.348 129.592C279.568 129.953 279.678 130.376 279.678 130.864C279.678 131.641 279.375 132.265 278.769 132.735C278.163 133.2 277.353 133.433 276.338 133.433C275.679 133.433 275.065 133.308 274.494 133.057C273.923 132.803 273.481 132.456 273.17 132.017C272.862 131.577 272.709 131.079 272.709 130.521H273.98C273.98 131.101 274.193 131.56 274.619 131.898C275.049 132.232 275.622 132.399 276.338 132.399C277.006 132.399 277.517 132.262 277.873 131.99C278.229 131.718 278.407 131.347 278.407 130.877C278.407 130.407 278.242 130.045 277.912 129.79C277.583 129.531 276.986 129.276 276.121 129.026Z" fill="#333333"/>
<path d="M185.651 12.0098C185.651 5.38236 191.024 0.00976562 197.651 0.00976562H319.656C326.284 0.00976562 331.656 5.38235 331.656 12.0098V205.445C331.656 212.072 326.284 217.445 319.656 217.445H197.651C191.024 217.445 185.651 212.072 185.651 205.445V12.0098Z" fill="url(#paint0_linear)"/>
<defs>
<filter id="filter0_d" x="0.819685" y="18.9789" width="282.067" height="88.9064" filterUnits="userSpaceOnUse" color-interpolation-filters="sRGB">
<feFlood flood-opacity="0" result="BackgroundImageFix"/>
<feColorMatrix in="SourceAlpha" type="matrix" values="0 0 0 0 0 0 0 0 0 0 0 0 0 0 0 0 0 0 127 0" result="hardAlpha"/>
<feOffset/>
<feGaussianBlur stdDeviation="8.43159"/>
<feColorMatrix type="matrix" values="0 0 0 0 0 0 0 0 0 0 0 0 0 0 0 0 0 0 0.1 0"/>
<feBlend mode="normal" in2="BackgroundImageFix" result="effect1_dropShadow"/>
<feBlend mode="normal" in="SourceGraphic" in2="effect1_dropShadow" result="shape"/>
</filter>
<filter id="filter1_d" x="44.6175" y="84.5819" width="282.067" height="88.9064" filterUnits="userSpaceOnUse" color-interpolation-filters="sRGB">
<feFlood flood-opacity="0" result="BackgroundImageFix"/>
<feColorMatrix in="SourceAlpha" type="matrix" values="0 0 0 0 0 0 0 0 0 0 0 0 0 0 0 0 0 0 127 0" result="hardAlpha"/>
<feOffset/>
<feGaussianBlur stdDeviation="8.43159"/>
<feColorMatrix type="matrix" values="0 0 0 0 0 0 0 0 0 0 0 0 0 0 0 0 0 0 0.1 0"/>
<feBlend mode="normal" in2="BackgroundImageFix" result="effect1_dropShadow"/>
<feBlend mode="normal" in="SourceGraphic" in2="effect1_dropShadow" result="shape"/>
</filter>
<linearGradient id="paint0_linear" x1="282.444" y1="121.556" x2="181.128" y2="122.461" gradientUnits="userSpaceOnUse">
<stop stop-color="#FAFAFA"/>
<stop offset="1" stop-color="#FAFAFA" stop-opacity="0"/>
</linearGradient>
</defs>
</svg>
