<svg width="337" height="90" viewBox="0 0 337 90" fill="none" xmlns="http://www.w3.org/2000/svg">
<g filter="url(#filter0_d)">
<path d="M17.6829 29.6089C17.6829 22.9815 23.0554 17.6089 29.6829 17.6089H307.908C314.536 17.6089 319.908 22.9815 319.908 29.6089V60.7889C319.908 67.4163 314.536 72.7889 307.908 72.7889H29.6829C23.0554 72.7889 17.6829 67.4163 17.6829 60.7889V29.6089Z" fill="white"/>
</g>
<path d="M38.2131 42.3044C38.2131 41.1999 39.1086 40.3044 40.2131 40.3044C41.3177 40.3044 42.2131 41.1999 42.2131 42.3044C42.2131 43.409 41.3177 44.3044 40.2131 44.3044C39.1086 44.3044 38.2131 43.409 38.2131 42.3044Z" fill="#DBD5D5"/>
<path d="M44.1262 42.3044C44.1262 41.1999 45.0217 40.3044 46.1262 40.3044C47.2308 40.3044 48.1262 41.1999 48.1262 42.3044C48.1262 43.409 47.2308 44.3044 46.1262 44.3044C45.0217 44.3044 44.1262 43.409 44.1262 42.3044Z" fill="#DBD5D5"/>
<path d="M50.0393 42.3044C50.0393 41.1999 50.9347 40.3044 52.0393 40.3044C53.1439 40.3044 54.0393 41.1999 54.0393 42.3044C54.0393 43.409 53.1439 44.3044 52.0393 44.3044C50.9347 44.3044 50.0393 43.409 50.0393 42.3044Z" fill="#DBD5D5"/>
<path d="M66.0154 31.1364C66.0154 30.8602 66.2392 30.6364 66.5154 30.6364C66.7915 30.6364 67.0154 30.8602 67.0154 31.1364V59.7934C67.0154 60.0695 66.7915 60.2934 66.5154 60.2934C66.2392 60.2934 66.0154 60.0695 66.0154 59.7934V31.1364Z" fill="#DFDFDF"/>
<path d="M158.947 35.6364C158.947 32.8749 161.186 30.6364 163.947 30.6364H182.757C185.518 30.6364 187.757 32.8749 187.757 35.6364V55.2934C187.757 58.0548 185.518 60.2934 182.757 60.2934H163.947C161.186 60.2934 158.947 58.0548 158.947 55.2934V35.6364Z" fill="#F2F2F2"/>
<path d="M38.2131 49.4648C38.2131 48.3603 39.1086 47.4648 40.2131 47.4648C41.3177 47.4648 42.2131 48.3603 42.2131 49.4648C42.2131 50.5694 41.3177 51.4648 40.2131 51.4648C39.1086 51.4648 38.2131 50.5694 38.2131 49.4648Z" fill="#DBD5D5"/>
<path d="M44.1262 49.4648C44.1262 48.3603 45.0217 47.4648 46.1262 47.4648C47.2308 47.4648 48.1262 48.3603 48.1262 49.4648C48.1262 50.5694 47.2308 51.4648 46.1262 51.4648C45.0217 51.4648 44.1262 50.5694 44.1262 49.4648Z" fill="#DBD5D5"/>
<path d="M50.0393 49.4648C50.0393 48.3603 50.9347 47.4648 52.0393 47.4648C53.1439 47.4648 54.0393 48.3603 54.0393 49.4648C54.0393 50.5694 53.1439 51.4648 52.0393 51.4648C50.9347 51.4648 50.0393 50.5694 50.0393 49.4648Z" fill="#DBD5D5"/>
<path d="M80.612 46.3191H78.3592V50.199H77.0878V40.608H80.2629C81.3432 40.608 82.1731 40.854 82.7528 41.3458C83.3369 41.8376 83.6289 42.5535 83.6289 43.4932C83.6289 44.0905 83.4664 44.6109 83.1415 45.0544C82.8209 45.4979 82.373 45.8295 81.7977 46.0491L84.0505 50.1199V50.199H82.6935L80.612 46.3191ZM78.3592 45.2849H80.3024C80.9304 45.2849 81.4288 45.1225 81.7977 44.7975C82.171 44.4725 82.3576 44.0378 82.3576 43.4932C82.3576 42.9004 82.1797 42.4459 81.824 42.1297C81.4727 41.8135 80.9633 41.6532 80.2958 41.6488H78.3592V45.2849ZM92.7851 45.7131C92.7851 46.6529 92.627 47.4741 92.3108 48.1767C91.9946 48.875 91.5467 49.4085 90.967 49.7774C90.3874 50.1463 89.7111 50.3307 88.9382 50.3307C88.1829 50.3307 87.5132 50.1463 86.9291 49.7774C86.345 49.4041 85.8905 48.875 85.5655 48.1899C85.245 47.5004 85.0803 46.7034 85.0715 45.7987V45.1071C85.0715 44.1849 85.2318 43.3703 85.5524 42.6632C85.8729 41.9562 86.3253 41.4161 86.9093 41.0428C87.4978 40.6651 88.1697 40.4763 88.925 40.4763C89.6935 40.4763 90.3698 40.6629 90.9539 41.0362C91.5423 41.4051 91.9946 41.943 92.3108 42.6501C92.627 43.3527 92.7851 44.1717 92.7851 45.1071V45.7131ZM91.5269 45.0939C91.5269 43.9565 91.2986 43.0848 90.8419 42.4788C90.3852 41.8684 89.7462 41.5632 88.925 41.5632C88.1258 41.5632 87.4956 41.8684 87.0345 42.4788C86.5778 43.0848 86.3428 43.928 86.3297 45.0083V45.7131C86.3297 46.8154 86.5602 47.6827 87.0213 48.315C87.4868 48.943 88.1258 49.257 88.9382 49.257C89.755 49.257 90.3874 48.9606 90.8353 48.3677C91.2832 47.7705 91.5138 46.9164 91.5269 45.8053V45.0939ZM99.8334 47.6958H95.8152L94.9128 50.199H93.6085L97.271 40.608H98.3776L102.047 50.199H100.749L99.8334 47.6958ZM96.1973 46.6551H99.4579L97.8243 42.1692L96.1973 46.6551ZM106.164 45.9239C105.079 45.6121 104.289 45.23 103.792 44.7777C103.3 44.321 103.055 43.7589 103.055 43.0914C103.055 42.3361 103.355 41.7125 103.957 41.2207C104.563 40.7244 105.349 40.4763 106.315 40.4763C106.974 40.4763 107.56 40.6037 108.074 40.8584C108.592 41.1131 108.992 41.4644 109.273 41.9123C109.558 42.3602 109.701 42.8499 109.701 43.3812H108.43C108.43 42.8016 108.245 42.3471 107.876 42.0177C107.507 41.6839 106.987 41.5171 106.315 41.5171C105.692 41.5171 105.204 41.6554 104.853 41.9321C104.506 42.2043 104.332 42.5842 104.332 43.0716C104.332 43.4625 104.497 43.794 104.826 44.0663C105.16 44.3342 105.725 44.5801 106.519 44.8041C107.319 45.028 107.942 45.2762 108.39 45.5484C108.842 45.8163 109.176 46.1303 109.391 46.4904C109.611 46.8505 109.721 47.2743 109.721 47.7617C109.721 48.539 109.418 49.1626 108.812 49.6325C108.206 50.098 107.395 50.3307 106.381 50.3307C105.722 50.3307 105.108 50.2056 104.537 49.9552C103.966 49.7005 103.524 49.3536 103.213 48.9145C102.905 48.4753 102.751 47.9769 102.751 47.4192H104.023C104.023 47.9989 104.236 48.4578 104.662 48.7959C105.092 49.1297 105.665 49.2965 106.381 49.2965C107.049 49.2965 107.56 49.1604 107.916 48.8881C108.272 48.6159 108.449 48.2448 108.449 47.7749C108.449 47.305 108.285 46.9427 107.955 46.688C107.626 46.4289 107.029 46.1742 106.164 45.9239ZM121.057 41.6488H117.974V50.199H116.716V41.6488H113.64V40.608H121.057V41.6488ZM121.308 46.5694C121.308 45.8712 121.444 45.2432 121.716 44.6855C121.993 44.1278 122.375 43.6974 122.862 43.3944C123.354 43.0914 123.914 42.9399 124.542 42.9399C125.512 42.9399 126.296 43.2759 126.894 43.9477C127.495 44.6196 127.796 45.5133 127.796 46.6287V46.7144C127.796 47.4082 127.662 48.0318 127.394 48.5851C127.131 49.134 126.751 49.5622 126.255 49.8696C125.763 50.177 125.196 50.3307 124.555 50.3307C123.589 50.3307 122.805 49.9948 122.203 49.3229C121.606 48.651 121.308 47.7617 121.308 46.6551V46.5694ZM122.533 46.7144C122.533 47.5048 122.715 48.1394 123.08 48.6181C123.448 49.0967 123.94 49.3361 124.555 49.3361C125.174 49.3361 125.666 49.0945 126.031 48.6115C126.395 48.124 126.577 47.4433 126.577 46.5694C126.577 45.7878 126.391 45.1554 126.017 44.6723C125.649 44.1849 125.157 43.9412 124.542 43.9412C123.94 43.9412 123.455 44.1805 123.086 44.6592C122.717 45.1378 122.533 45.8229 122.533 46.7144ZM129.028 46.576C129.028 45.4826 129.287 44.6043 129.805 43.9412C130.323 43.2737 131.002 42.9399 131.84 42.9399C132.675 42.9399 133.336 43.2253 133.823 43.7962V40.0811H135.042V50.199H133.922L133.863 49.4349C133.375 50.0321 132.697 50.3307 131.827 50.3307C131.002 50.3307 130.328 49.9926 129.805 49.3163C129.287 48.64 129.028 47.7573 129.028 46.6682V46.576ZM130.246 46.7144C130.246 47.5224 130.413 48.1548 130.747 48.6115C131.081 49.0682 131.542 49.2965 132.13 49.2965C132.903 49.2965 133.468 48.9496 133.823 48.2558V44.9819C133.459 44.31 132.899 43.9741 132.143 43.9741C131.546 43.9741 131.081 44.2046 130.747 44.6657C130.413 45.1268 130.246 45.8097 130.246 46.7144ZM141.339 50.199C141.269 50.0584 141.212 49.8081 141.168 49.448C140.601 50.0365 139.925 50.3307 139.139 50.3307C138.436 50.3307 137.859 50.1331 137.407 49.7379C136.959 49.3382 136.735 48.8332 136.735 48.2228C136.735 47.4807 137.016 46.9054 137.578 46.497C138.144 46.0842 138.939 45.8778 139.962 45.8778H141.148V45.3179C141.148 44.8919 141.021 44.5538 140.766 44.3034C140.511 44.0487 140.136 43.9214 139.64 43.9214C139.205 43.9214 138.84 44.0312 138.546 44.2508C138.252 44.4703 138.105 44.736 138.105 45.0478H136.88C136.88 44.6921 137.005 44.3496 137.255 44.0202C137.51 43.6865 137.852 43.423 138.283 43.2297C138.717 43.0365 139.194 42.9399 139.712 42.9399C140.533 42.9399 141.177 43.1463 141.642 43.5591C142.108 43.9675 142.349 44.5318 142.367 45.252V48.5324C142.367 49.1867 142.45 49.7071 142.617 50.0936V50.199H141.339ZM139.317 49.2702C139.699 49.2702 140.061 49.1714 140.404 48.9738C140.746 48.7761 140.994 48.5192 141.148 48.2031V46.7407H140.193C138.7 46.7407 137.953 47.1777 137.953 48.0516C137.953 48.4336 138.081 48.7322 138.335 48.9474C138.59 49.1626 138.917 49.2702 139.317 49.2702ZM146.504 48.4138L148.164 43.0716H149.468L146.602 51.299C146.159 52.4847 145.454 53.0776 144.488 53.0776L144.257 53.0578L143.803 52.9722V51.9841L144.132 52.0104C144.545 52.0104 144.866 51.927 145.094 51.7601C145.327 51.5933 145.518 51.2881 145.667 50.8445L145.937 50.1199L143.394 43.0716H144.725L146.504 48.4138Z" fill="#333333"/>
<path d="M201.501 46.3191H199.248V50.199H197.977V40.608H201.152C202.232 40.608 203.062 40.854 203.642 41.3458C204.226 41.8376 204.518 42.5535 204.518 43.4932C204.518 44.0905 204.356 44.6109 204.031 45.0544C203.71 45.4979 203.262 45.8295 202.687 46.0491L204.94 50.1199V50.199H203.583L201.501 46.3191ZM199.248 45.2849H201.192C201.82 45.2849 202.318 45.1225 202.687 44.7975C203.06 44.4725 203.247 44.0378 203.247 43.4932C203.247 42.9004 203.069 42.4459 202.713 42.1297C202.362 41.8135 201.852 41.6532 201.185 41.6488H199.248V45.2849ZM213.674 45.7131C213.674 46.6529 213.516 47.4741 213.2 48.1767C212.884 48.875 212.436 49.4085 211.856 49.7774C211.277 50.1463 210.6 50.3307 209.827 50.3307C209.072 50.3307 208.402 50.1463 207.818 49.7774C207.234 49.4041 206.78 48.875 206.455 48.1899C206.134 47.5004 205.969 46.7034 205.961 45.7987V45.1071C205.961 44.1849 206.121 43.3703 206.442 42.6632C206.762 41.9562 207.214 41.4161 207.798 41.0428C208.387 40.6651 209.059 40.4763 209.814 40.4763C210.583 40.4763 211.259 40.6629 211.843 41.0362C212.431 41.4051 212.884 41.943 213.2 42.6501C213.516 43.3527 213.674 44.1717 213.674 45.1071V45.7131ZM212.416 45.0939C212.416 43.9565 212.188 43.0848 211.731 42.4788C211.274 41.8684 210.635 41.5632 209.814 41.5632C209.015 41.5632 208.385 41.8684 207.924 42.4788C207.467 43.0848 207.232 43.928 207.219 45.0083V45.7131C207.219 46.8154 207.449 47.6827 207.91 48.315C208.376 48.943 209.015 49.257 209.827 49.257C210.644 49.257 211.277 48.9606 211.724 48.3677C212.172 47.7705 212.403 46.9164 212.416 45.8053V45.0939ZM220.723 47.6958H216.704L215.802 50.199H214.498L218.16 40.608H219.267L222.936 50.199H221.638L220.723 47.6958ZM217.086 46.6551H220.347L218.713 42.1692L217.086 46.6551ZM227.053 45.9239C225.968 45.6121 225.178 45.23 224.681 44.7777C224.19 44.321 223.944 43.7589 223.944 43.0914C223.944 42.3361 224.244 41.7125 224.846 41.2207C225.452 40.7244 226.238 40.4763 227.204 40.4763C227.863 40.4763 228.449 40.6037 228.963 40.8584C229.481 41.1131 229.881 41.4644 230.162 41.9123C230.447 42.3602 230.59 42.8499 230.59 43.3812H229.319C229.319 42.8016 229.134 42.3471 228.765 42.0177C228.397 41.6839 227.876 41.5171 227.204 41.5171C226.581 41.5171 226.093 41.6554 225.742 41.9321C225.395 42.2043 225.222 42.5842 225.222 43.0716C225.222 43.4625 225.386 43.794 225.716 44.0663C226.049 44.3342 226.614 44.5801 227.409 44.8041C228.208 45.028 228.831 45.2762 229.279 45.5484C229.732 45.8163 230.065 46.1303 230.281 46.4904C230.5 46.8505 230.61 47.2743 230.61 47.7617C230.61 48.539 230.307 49.1626 229.701 49.6325C229.095 50.098 228.285 50.3307 227.27 50.3307C226.611 50.3307 225.997 50.2056 225.426 49.9552C224.855 49.7005 224.414 49.3536 224.102 48.9145C223.794 48.4753 223.641 47.9769 223.641 47.4192H224.912C224.912 47.9989 225.125 48.4578 225.551 48.7959C225.981 49.1297 226.554 49.2965 227.27 49.2965C227.938 49.2965 228.449 49.1604 228.805 48.8881C229.161 48.6159 229.339 48.2448 229.339 47.7749C229.339 47.305 229.174 46.9427 228.845 46.688C228.515 46.4289 227.918 46.1742 227.053 45.9239ZM238.508 45.4233L241.011 40.608H242.447L239.14 46.6221V50.199H237.876V46.6221L234.569 40.608H236.018L238.508 45.4233ZM246.017 50.3307C245.051 50.3307 244.265 50.0145 243.659 49.3822C243.053 48.7454 242.75 47.8957 242.75 46.8329V46.609C242.75 45.9019 242.884 45.2718 243.152 44.7184C243.424 44.1607 243.802 43.726 244.285 43.4142C244.772 43.098 245.299 42.9399 245.866 42.9399C246.792 42.9399 247.513 43.2451 248.026 43.8555C248.54 44.4659 248.797 45.3398 248.797 46.4772V46.9844H243.969C243.986 47.6871 244.19 48.2558 244.581 48.6905C244.977 49.1209 245.477 49.3361 246.083 49.3361C246.514 49.3361 246.878 49.2482 247.177 49.0726C247.475 48.8969 247.737 48.6642 247.961 48.3743L248.705 48.954C248.108 49.8718 247.212 50.3307 246.017 50.3307ZM245.866 43.9412C245.374 43.9412 244.961 44.1212 244.627 44.4813C244.294 44.837 244.087 45.3376 244.008 45.9832H247.578V45.891C247.543 45.2718 247.376 44.7931 247.078 44.455C246.779 44.1124 246.375 43.9412 245.866 43.9412ZM254.363 48.3085C254.363 47.9791 254.238 47.7244 253.988 47.5443C253.742 47.3599 253.309 47.2018 252.69 47.0701C252.075 46.9383 251.586 46.7802 251.221 46.5958C250.861 46.4113 250.593 46.1918 250.418 45.9371C250.246 45.6824 250.161 45.3794 250.161 45.028C250.161 44.444 250.407 43.9499 250.898 43.5459C251.395 43.1419 252.027 42.9399 252.796 42.9399C253.604 42.9399 254.258 43.1485 254.758 43.5657C255.264 43.9829 255.516 44.5164 255.516 45.1664H254.291C254.291 44.8326 254.148 44.545 253.863 44.3034C253.582 44.0619 253.226 43.9412 252.796 43.9412C252.352 43.9412 252.005 44.0378 251.755 44.231C251.504 44.4242 251.379 44.6767 251.379 44.9885C251.379 45.2827 251.496 45.5045 251.728 45.6538C251.961 45.8031 252.381 45.9459 252.987 46.082C253.597 46.2181 254.091 46.3806 254.469 46.5694C254.846 46.7583 255.125 46.9866 255.305 47.2545C255.49 47.518 255.582 47.8408 255.582 48.2228C255.582 48.8596 255.327 49.3712 254.818 49.7576C254.308 50.1397 253.647 50.3307 252.835 50.3307C252.264 50.3307 251.759 50.2297 251.32 50.0277C250.881 49.8257 250.536 49.5446 250.286 49.1845C250.04 48.8201 249.917 48.427 249.917 48.0054H251.136C251.157 48.4138 251.32 48.7388 251.623 48.9803C251.93 49.2175 252.334 49.3361 252.835 49.3361C253.296 49.3361 253.665 49.2438 253.942 49.0594C254.223 48.8706 254.363 48.6202 254.363 48.3085ZM258.823 41.3458V43.0716H260.153V44.0136H258.823V48.4336C258.823 48.7191 258.882 48.9342 259.001 49.0792C259.119 49.2197 259.321 49.2899 259.607 49.2899C259.747 49.2899 259.94 49.2636 260.186 49.2109V50.199C259.866 50.2868 259.554 50.3307 259.251 50.3307C258.706 50.3307 258.296 50.166 258.019 49.8367C257.742 49.5073 257.604 49.0396 257.604 48.4336V44.0136H256.306V43.0716H257.604V41.3458H258.823ZM264.54 50.3307C263.574 50.3307 262.788 50.0145 262.182 49.3822C261.576 48.7454 261.273 47.8957 261.273 46.8329V46.609C261.273 45.9019 261.407 45.2718 261.675 44.7184C261.947 44.1607 262.325 43.726 262.808 43.4142C263.295 43.098 263.822 42.9399 264.389 42.9399C265.316 42.9399 266.036 43.2451 266.55 43.8555C267.063 44.4659 267.32 45.3398 267.32 46.4772V46.9844H262.492C262.509 47.6871 262.714 48.2558 263.104 48.6905C263.5 49.1209 264 49.3361 264.606 49.3361C265.037 49.3361 265.401 49.2482 265.7 49.0726C265.998 48.8969 266.26 48.6642 266.484 48.3743L267.228 48.954C266.631 49.8718 265.735 50.3307 264.54 50.3307ZM264.389 43.9412C263.897 43.9412 263.484 44.1212 263.151 44.4813C262.817 44.837 262.61 45.3376 262.531 45.9832H266.102V45.891C266.066 45.2718 265.9 44.7931 265.601 44.455C265.302 44.1124 264.898 43.9412 264.389 43.9412ZM272.182 44.1651C271.997 44.1344 271.797 44.119 271.582 44.119C270.783 44.119 270.241 44.4593 269.955 45.14V50.199H268.736V43.0716H269.922L269.942 43.895C270.342 43.2583 270.908 42.9399 271.641 42.9399C271.879 42.9399 272.059 42.9706 272.182 43.0321V44.1651ZM272.88 46.576C272.88 45.4826 273.139 44.6043 273.657 43.9412C274.175 43.2737 274.854 42.9399 275.693 42.9399C276.527 42.9399 277.188 43.2253 277.675 43.7962V40.0811H278.894V50.199H277.774L277.715 49.4349C277.227 50.0321 276.549 50.3307 275.679 50.3307C274.854 50.3307 274.18 49.9926 273.657 49.3163C273.139 48.64 272.88 47.7573 272.88 46.6682V46.576ZM274.098 46.7144C274.098 47.5224 274.265 48.1548 274.599 48.6115C274.933 49.0682 275.394 49.2965 275.982 49.2965C276.755 49.2965 277.32 48.9496 277.675 48.2558V44.9819C277.311 44.31 276.751 43.9741 275.996 43.9741C275.398 43.9741 274.933 44.2046 274.599 44.6657C274.265 45.1268 274.098 45.8097 274.098 46.7144ZM285.191 50.199C285.121 50.0584 285.064 49.8081 285.02 49.448C284.453 50.0365 283.777 50.3307 282.991 50.3307C282.289 50.3307 281.711 50.1331 281.259 49.7379C280.811 49.3382 280.587 48.8332 280.587 48.2228C280.587 47.4807 280.868 46.9054 281.43 46.497C281.996 46.0842 282.791 45.8778 283.815 45.8778H285V45.3179C285 44.8919 284.873 44.5538 284.618 44.3034C284.363 44.0487 283.988 43.9214 283.492 43.9214C283.057 43.9214 282.693 44.0312 282.398 44.2508C282.104 44.4703 281.957 44.736 281.957 45.0478H280.732C280.732 44.6921 280.857 44.3496 281.107 44.0202C281.362 43.6865 281.704 43.423 282.135 43.2297C282.57 43.0365 283.046 42.9399 283.564 42.9399C284.385 42.9399 285.029 43.1463 285.494 43.5591C285.96 43.9675 286.201 44.5318 286.219 45.252V48.5324C286.219 49.1867 286.302 49.7071 286.469 50.0936V50.199H285.191ZM283.169 49.2702C283.551 49.2702 283.913 49.1714 284.256 48.9738C284.598 48.7761 284.847 48.5192 285 48.2031V46.7407H284.045C282.552 46.7407 281.805 47.1777 281.805 48.0516C281.805 48.4336 281.933 48.7322 282.187 48.9474C282.442 49.1626 282.769 49.2702 283.169 49.2702ZM290.356 48.4138L292.016 43.0716H293.32L290.454 51.299C290.011 52.4847 289.306 53.0776 288.34 53.0776L288.109 53.0578L287.655 52.9722V51.9841L287.984 52.0104C288.397 52.0104 288.718 51.927 288.946 51.7601C289.179 51.5933 289.37 51.2881 289.519 50.8445L289.789 50.1199L287.246 43.0716H288.577L290.356 48.4138Z" fill="#333333"/>
<path d="M171.591 46.2228L175.714 47.8894V49.1805L170.326 46.6839V45.7222L175.714 43.2322V44.5233L171.591 46.2228Z" fill="#333333"/>
<defs>
<filter id="filter0_d" x="0.819685" y="0.74571" width="335.952" height="88.9064" filterUnits="userSpaceOnUse" color-interpolation-filters="sRGB">
<feFlood flood-opacity="0" result="BackgroundImageFix"/>
<feColorMatrix in="SourceAlpha" type="matrix" values="0 0 0 0 0 0 0 0 0 0 0 0 0 0 0 0 0 0 127 0" result="hardAlpha"/>
<feOffset/>
<feGaussianBlur stdDeviation="8.43159"/>
<feColorMatrix type="matrix" values="0 0 0 0 0 0 0 0 0 0 0 0 0 0 0 0 0 0 0.1 0"/>
<feBlend mode="normal" in2="BackgroundImageFix" result="effect1_dropShadow"/>
<feBlend mode="normal" in="SourceGraphic" in2="effect1_dropShadow" result="shape"/>
</filter>
</defs>
</svg>
