<svg width="325" height="258" viewBox="0 0 325 258" fill="none" xmlns="http://www.w3.org/2000/svg">
<path d="M59.7358 39.7627C59.7358 37.0013 61.9744 34.7627 64.7358 34.7627H278.229C280.991 34.7627 283.229 37.0013 283.229 39.7627V59.1625C283.229 61.9239 280.991 64.1625 278.229 64.1625H64.7358C61.9744 64.1625 59.7358 61.9239 59.7358 59.1625V39.7627Z" fill="white"/>
<path d="M59.7358 75.1382C59.7358 72.3768 61.9744 70.1382 64.7358 70.1382H278.229C280.991 70.1382 283.229 72.3768 283.229 75.1382V94.538C283.229 97.2994 280.991 99.538 278.229 99.538H64.7358C61.9744 99.538 59.7358 97.2994 59.7358 94.538V75.1382Z" fill="white"/>
<path d="M59.7358 110.514C59.7358 107.752 61.9744 105.514 64.7358 105.514H278.229C280.991 105.514 283.229 107.752 283.229 110.514V129.913C283.229 132.675 280.991 134.913 278.229 134.913H64.7358C61.9744 134.913 59.7358 132.675 59.7358 129.913V110.514Z" fill="white"/>
<path d="M70.4668 45.7869C70.4668 44.9585 71.1384 44.2869 71.9668 44.2869C72.7952 44.2869 73.4668 44.9585 73.4668 45.7869C73.4668 46.6154 72.7952 47.2869 71.9668 47.2869C71.1384 47.2869 70.4668 46.6154 70.4668 45.7869Z" fill="#F0F0F0" stroke="#E3E3E3"/>
<path d="M76.3799 45.7869C76.3799 44.9585 77.0515 44.2869 77.8799 44.2869C78.7083 44.2869 79.3799 44.9585 79.3799 45.7869C79.3799 46.6154 78.7083 47.2869 77.8799 47.2869C77.0515 47.2869 76.3799 46.6154 76.3799 45.7869Z" fill="#F0F0F0" stroke="#E3E3E3"/>
<path d="M82.293 45.7869C82.293 44.9585 82.9645 44.2869 83.793 44.2869C84.6214 44.2869 85.293 44.9585 85.293 45.7869C85.293 46.6154 84.6214 47.2869 83.793 47.2869C82.9645 47.2869 82.293 46.6154 82.293 45.7869Z" fill="#F0F0F0" stroke="#E3E3E3"/>
<path d="M95.2119 50.7869C95.2119 49.13 96.5551 47.7869 98.2119 47.7869H259.64C261.297 47.7869 262.64 49.13 262.64 50.7869C262.64 52.4437 261.297 53.7869 259.64 53.7869H98.2119C96.5551 53.7869 95.2119 52.4437 95.2119 50.7869Z" fill="#F0F0F0"/>
<path d="M70.4668 52.9473C70.4668 52.1189 71.1384 51.4473 71.9668 51.4473C72.7952 51.4473 73.4668 52.1189 73.4668 52.9473C73.4668 53.7758 72.7952 54.4473 71.9668 54.4473C71.1384 54.4473 70.4668 53.7758 70.4668 52.9473Z" fill="#F0F0F0" stroke="#E3E3E3"/>
<path d="M76.3799 52.9473C76.3799 52.1189 77.0515 51.4473 77.8799 51.4473C78.7083 51.4473 79.3799 52.1189 79.3799 52.9473C79.3799 53.7758 78.7083 54.4473 77.8799 54.4473C77.0515 54.4473 76.3799 53.7758 76.3799 52.9473Z" fill="#F0F0F0" stroke="#E3E3E3"/>
<path d="M82.293 52.9473C82.293 52.1189 82.9645 51.4473 83.793 51.4473C84.6214 51.4473 85.293 52.1189 85.293 52.9473C85.293 53.7758 84.6214 54.4473 83.793 54.4473C82.9645 54.4473 82.293 53.7758 82.293 52.9473Z" fill="#F0F0F0" stroke="#E3E3E3"/>
<path d="M70.4668 81.1624C70.4668 80.334 71.1384 79.6624 71.9668 79.6624C72.7952 79.6624 73.4668 80.334 73.4668 81.1624C73.4668 81.9908 72.7952 82.6624 71.9668 82.6624C71.1384 82.6624 70.4668 81.9908 70.4668 81.1624Z" fill="#F0F0F0" stroke="#E3E3E3"/>
<path d="M76.3799 81.1624C76.3799 80.334 77.0515 79.6624 77.8799 79.6624C78.7083 79.6624 79.3799 80.334 79.3799 81.1624C79.3799 81.9908 78.7083 82.6624 77.8799 82.6624C77.0515 82.6624 76.3799 81.9908 76.3799 81.1624Z" fill="#F0F0F0" stroke="#E3E3E3"/>
<path d="M82.293 81.1624C82.293 80.334 82.9645 79.6624 83.793 79.6624C84.6214 79.6624 85.293 80.334 85.293 81.1624C85.293 81.9908 84.6214 82.6624 83.793 82.6624C82.9645 82.6624 82.293 81.9908 82.293 81.1624Z" fill="#F0F0F0" stroke="#E3E3E3"/>
<path d="M95.2119 86.1624C95.2119 84.5055 96.5551 83.1624 98.2119 83.1624H259.64C261.297 83.1624 262.64 84.5055 262.64 86.1624C262.64 87.8192 261.297 89.1624 259.64 89.1624H98.2119C96.5551 89.1624 95.2119 87.8192 95.2119 86.1624Z" fill="#F0F0F0"/>
<path d="M70.4668 88.3228C70.4668 87.4944 71.1384 86.8228 71.9668 86.8228C72.7952 86.8228 73.4668 87.4944 73.4668 88.3228C73.4668 89.1512 72.7952 89.8228 71.9668 89.8228C71.1384 89.8228 70.4668 89.1512 70.4668 88.3228Z" fill="#F0F0F0" stroke="#E3E3E3"/>
<path d="M76.3799 88.3228C76.3799 87.4944 77.0515 86.8228 77.8799 86.8228C78.7083 86.8228 79.3799 87.4944 79.3799 88.3228C79.3799 89.1512 78.7083 89.8228 77.8799 89.8228C77.0515 89.8228 76.3799 89.1512 76.3799 88.3228Z" fill="#F0F0F0" stroke="#E3E3E3"/>
<path d="M82.293 88.3228C82.293 87.4944 82.9645 86.8228 83.793 86.8228C84.6214 86.8228 85.293 87.4944 85.293 88.3228C85.293 89.1512 84.6214 89.8228 83.793 89.8228C82.9645 89.8228 82.293 89.1512 82.293 88.3228Z" fill="#F0F0F0" stroke="#E3E3E3"/>
<path d="M70.4668 116.538C70.4668 115.709 71.1384 115.038 71.9668 115.038C72.7952 115.038 73.4668 115.709 73.4668 116.538C73.4668 117.366 72.7952 118.038 71.9668 118.038C71.1384 118.038 70.4668 117.366 70.4668 116.538Z" fill="#F0F0F0" stroke="#E3E3E3"/>
<path d="M76.3799 116.538C76.3799 115.709 77.0515 115.038 77.8799 115.038C78.7083 115.038 79.3799 115.709 79.3799 116.538C79.3799 117.366 78.7083 118.038 77.8799 118.038C77.0515 118.038 76.3799 117.366 76.3799 116.538Z" fill="#F0F0F0" stroke="#E3E3E3"/>
<path d="M82.293 116.538C82.293 115.709 82.9645 115.038 83.793 115.038C84.6214 115.038 85.293 115.709 85.293 116.538C85.293 117.366 84.6214 118.038 83.793 118.038C82.9645 118.038 82.293 117.366 82.293 116.538Z" fill="#F0F0F0" stroke="#E3E3E3"/>
<path d="M95.2119 121.538C95.2119 119.881 96.5551 118.538 98.2119 118.538H259.64C261.297 118.538 262.64 119.881 262.64 121.538C262.64 123.195 261.297 124.538 259.64 124.538H98.2119C96.5551 124.538 95.2119 123.195 95.2119 121.538Z" fill="#F0F0F0"/>
<path d="M70.4668 123.698C70.4668 122.87 71.1384 122.198 71.9668 122.198C72.7952 122.198 73.4668 122.87 73.4668 123.698C73.4668 124.527 72.7952 125.198 71.9668 125.198C71.1384 125.198 70.4668 124.527 70.4668 123.698Z" fill="#F0F0F0" stroke="#E3E3E3"/>
<path d="M76.3799 123.698C76.3799 122.87 77.0515 122.198 77.8799 122.198C78.7083 122.198 79.3799 122.87 79.3799 123.698C79.3799 124.527 78.7083 125.198 77.8799 125.198C77.0515 125.198 76.3799 124.527 76.3799 123.698Z" fill="#F0F0F0" stroke="#E3E3E3"/>
<path d="M82.293 123.698C82.293 122.87 82.9645 122.198 83.793 122.198C84.6214 122.198 85.293 122.87 85.293 123.698C85.293 124.527 84.6214 125.198 83.793 125.198C82.9645 125.198 82.293 124.527 82.293 123.698Z" fill="#F0F0F0" stroke="#E3E3E3"/>
<path d="M107 148C107 145.239 109.239 143 112 143H317C319.761 143 322 145.239 322 148V166C322 168.761 319.761 171 317 171H112C109.239 171 107 168.761 107 166V148Z" fill="white"/>
<path d="M107 181C107 178.239 109.239 176 112 176H317C319.761 176 322 178.239 322 181V200C322 202.761 319.761 205 317 205H112C109.239 205 107 202.761 107 200V181Z" fill="white"/>
<g opacity="0.2">
<g filter="url(#filter0_d)">
<path d="M23.0713 240.113C23.0713 239.802 23.3235 239.55 23.6347 239.55H46.9932C47.3044 239.55 47.5566 239.802 47.5566 240.113C47.5566 240.424 47.3044 240.677 46.9932 240.677H23.6347C23.3235 240.677 23.0713 240.424 23.0713 240.113Z" fill="white"/>
</g>
</g>
<g filter="url(#filter1_d)">
<path d="M17.4575 37.7627C17.4575 36.1058 18.8007 34.7627 20.4575 34.7627H38.9429C40.5997 34.7627 41.9429 36.1058 41.9429 37.7627V201.568C41.9429 203.225 40.5997 204.568 38.9429 204.568H20.4575C18.8007 204.568 17.4575 203.225 17.4575 201.568V37.7627Z" fill="#249CE2"/>
</g>
<path d="M32.4676 149.254L32.4676 152.969L34.7007 153.746L34.7007 155.479L25.1098 151.856L25.1098 150.36L34.7007 146.731L34.7007 148.47L32.4676 149.254ZM31.1238 152.501L31.1238 149.721L27.1452 151.111L31.1238 152.501ZM34.7007 138.029L34.7007 139.696L27.8961 143.971L34.7007 143.971L34.7007 145.637L25.1098 145.637L25.1098 143.971L31.9407 139.683L25.1098 139.683L25.1098 138.029L34.7007 138.029ZM34.7007 136.06L25.1098 136.06L25.1098 133.227C25.1098 132.38 25.2986 131.629 25.6762 130.974C26.0539 130.316 26.5897 129.806 27.2835 129.446C27.9774 129.086 28.7722 128.906 29.6681 128.906L30.1489 128.906C31.058 128.906 31.8572 129.088 32.5467 129.453C33.2361 129.813 33.7675 130.329 34.1408 131.001C34.514 131.668 34.7007 132.434 34.7007 133.3L34.7007 136.06ZM26.4535 134.393L33.3701 134.393L33.3701 133.306C33.3701 132.432 33.0978 131.763 32.5533 131.297C32.0043 130.827 31.2183 130.588 30.1951 130.579L29.6615 130.579C28.6207 130.579 27.8259 130.805 27.2769 131.258C26.728 131.71 26.4535 132.366 26.4535 133.227L26.4535 134.393Z" fill="white"/>
<g filter="url(#filter2_d)">
<path d="M29.7002 189.639C29.7002 189.363 29.9241 189.139 30.2002 189.139C30.4763 189.139 30.7002 189.363 30.7002 189.639V198.949C30.7002 199.226 30.4763 199.449 30.2002 199.449C29.9241 199.449 29.7002 199.226 29.7002 198.949V189.639Z" fill="white"/>
</g>
<g filter="url(#filter3_d)">
<path d="M34.855 193.794C35.1311 193.794 35.355 194.018 35.355 194.294C35.355 194.57 35.1311 194.794 34.855 194.794L25.5449 194.794C25.2687 194.794 25.0449 194.57 25.0449 194.294C25.0449 194.018 25.2687 193.794 25.5449 193.794L34.855 193.794Z" fill="white"/>
</g>
<g opacity="0.3">
<g filter="url(#filter4_d)">
<path d="M41.4429 180.597C41.719 180.597 41.9429 180.821 41.9429 181.097C41.9429 181.373 41.719 181.597 41.4429 181.597L17.9575 181.597C17.6814 181.597 17.4575 181.373 17.4575 181.097C17.4575 180.821 17.6814 180.597 17.9575 180.597L41.4429 180.597Z" fill="white"/>
</g>
</g>
<g filter="url(#filter5_d)">
<path d="M63.6523 147.666C63.6523 146.009 64.9955 144.666 66.6523 144.666H85.1377C86.7945 144.666 88.1377 146.009 88.1377 147.666V201.568C88.1377 203.225 86.7945 204.568 85.1377 204.568H66.6523C64.9955 204.568 63.6523 203.225 63.6523 201.568V147.666Z" fill="#3CBE97"/>
</g>
<g opacity="0.3">
<g filter="url(#filter6_d)">
<path d="M87.251 183.855C87.5271 183.855 87.751 184.079 87.751 184.355C87.751 184.631 87.5271 184.855 87.251 184.855L63.7656 184.855C63.4895 184.855 63.2656 184.631 63.2656 184.355C63.2656 184.079 63.4895 183.855 63.7656 183.855L87.251 183.855Z" fill="white"/>
</g>
</g>
<path d="M76.3504 165.834C77.2901 165.834 78.1157 165.997 78.8271 166.322C79.5342 166.647 80.0787 167.112 80.4608 167.718C80.8384 168.32 81.0273 169.014 81.0273 169.8C81.0273 170.577 80.8384 171.271 80.4608 171.881C80.0787 172.487 79.5364 172.957 78.8337 173.291C78.1311 173.62 77.3209 173.787 76.4031 173.792L75.8629 173.792C74.9275 173.792 74.1019 173.627 73.3861 173.298C72.6703 172.964 72.1236 172.496 71.7459 171.895C71.3639 171.289 71.1728 170.595 71.1728 169.813C71.1728 169.031 71.3617 168.34 71.7393 167.738C72.1126 167.132 72.6528 166.664 73.3598 166.335C74.0624 166.006 74.8814 165.839 75.8168 165.834L76.3504 165.834ZM75.8497 167.501C74.787 167.501 73.9724 167.703 73.4059 168.107C72.8394 168.507 72.5561 169.075 72.5561 169.813C72.5561 170.533 72.8394 171.098 73.4059 171.506C73.968 171.91 74.765 172.116 75.797 172.125L76.3504 172.125C77.4043 172.125 78.2189 171.921 78.7942 171.513C79.3695 171.1 79.6571 170.529 79.6571 169.8C79.6571 169.062 79.3761 168.496 78.814 168.1C78.2519 167.701 77.4307 167.501 76.3504 167.501L75.8497 167.501ZM77.2001 160.65L77.2001 162.508L80.8955 162.508L80.8955 164.174L71.3046 164.174L71.3046 160.802C71.3046 159.695 71.5527 158.841 72.0489 158.239C72.5452 157.638 73.2632 157.337 74.2029 157.337C74.8441 157.337 75.382 157.493 75.8168 157.805C76.2472 158.112 76.5787 158.542 76.8115 159.096L80.8099 156.942L80.8955 156.942L80.8955 158.727L77.2001 160.65ZM75.8629 162.508L75.8629 160.795C75.8629 160.233 75.7224 159.794 75.4413 159.478C75.1559 159.162 74.7672 159.003 74.2754 159.003C73.7616 159.003 73.3642 159.151 73.0831 159.445C72.8021 159.735 72.6571 160.169 72.6484 160.749L72.6484 162.508L75.8629 162.508Z" fill="white"/>
<g filter="url(#filter7_d)">
<path d="M75.895 189.639C75.895 189.363 76.1189 189.139 76.395 189.139C76.6712 189.139 76.895 189.363 76.895 189.639V198.949C76.895 199.225 76.6712 199.449 76.395 199.449C76.1189 199.449 75.895 199.225 75.895 198.949V189.639Z" fill="white"/>
</g>
<g filter="url(#filter8_d)">
<path d="M81.0498 193.794C81.3259 193.794 81.5498 194.018 81.5498 194.294C81.5498 194.57 81.3259 194.794 81.0498 194.794L71.7397 194.794C71.4636 194.794 71.2397 194.57 71.2397 194.294C71.2397 194.018 71.4636 193.794 71.7397 193.794L81.0498 193.794Z" fill="white"/>
</g>
<path d="M117.405 153.156C117.405 152.328 118.076 151.656 118.905 151.656C119.733 151.656 120.405 152.328 120.405 153.156C120.405 153.984 119.733 154.656 118.905 154.656C118.076 154.656 117.405 153.984 117.405 153.156Z" fill="#F0F0F0" stroke="#E3E3E3"/>
<path d="M123.318 153.156C123.318 152.328 123.989 151.656 124.818 151.656C125.646 151.656 126.318 152.328 126.318 153.156C126.318 153.984 125.646 154.656 124.818 154.656C123.989 154.656 123.318 153.984 123.318 153.156Z" fill="#F0F0F0" stroke="#E3E3E3"/>
<path d="M129.231 153.156C129.231 152.328 129.903 151.656 130.731 151.656C131.559 151.656 132.231 152.328 132.231 153.156C132.231 153.984 131.559 154.656 130.731 154.656C129.903 154.656 129.231 153.984 129.231 153.156Z" fill="#F0F0F0" stroke="#E3E3E3"/>
<path d="M142.15 158.156C142.15 156.499 143.493 155.156 145.15 155.156H306.578C308.234 155.156 309.578 156.499 309.578 158.156C309.578 159.813 308.234 161.156 306.578 161.156H145.15C143.493 161.156 142.15 159.813 142.15 158.156Z" fill="#F0F0F0"/>
<path d="M117.405 160.316C117.405 159.488 118.076 158.816 118.905 158.816C119.733 158.816 120.405 159.488 120.405 160.316C120.405 161.145 119.733 161.816 118.905 161.816C118.076 161.816 117.405 161.145 117.405 160.316Z" fill="#F0F0F0" stroke="#E3E3E3"/>
<path d="M123.318 160.316C123.318 159.488 123.989 158.816 124.818 158.816C125.646 158.816 126.318 159.488 126.318 160.316C126.318 161.145 125.646 161.816 124.818 161.816C123.989 161.816 123.318 161.145 123.318 160.316Z" fill="#F0F0F0" stroke="#E3E3E3"/>
<path d="M129.231 160.316C129.231 159.488 129.903 158.816 130.731 158.816C131.559 158.816 132.231 159.488 132.231 160.316C132.231 161.145 131.559 161.816 130.731 161.816C129.903 161.816 129.231 161.145 129.231 160.316Z" fill="#F0F0F0" stroke="#E3E3E3"/>
<path d="M117.405 186.946C117.405 186.118 118.076 185.446 118.905 185.446C119.733 185.446 120.405 186.118 120.405 186.946C120.405 187.775 119.733 188.446 118.905 188.446C118.076 188.446 117.405 187.775 117.405 186.946Z" fill="#F0F0F0" stroke="#E3E3E3"/>
<path d="M123.318 186.946C123.318 186.118 123.989 185.446 124.818 185.446C125.646 185.446 126.318 186.118 126.318 186.946C126.318 187.775 125.646 188.446 124.818 188.446C123.989 188.446 123.318 187.775 123.318 186.946Z" fill="#F0F0F0" stroke="#E3E3E3"/>
<path d="M129.231 186.946C129.231 186.118 129.903 185.446 130.731 185.446C131.559 185.446 132.231 186.118 132.231 186.946C132.231 187.775 131.559 188.446 130.731 188.446C129.903 188.446 129.231 187.775 129.231 186.946Z" fill="#F0F0F0" stroke="#E3E3E3"/>
<path d="M142.15 191.946C142.15 190.289 143.493 188.946 145.15 188.946H306.578C308.234 188.946 309.578 190.289 309.578 191.946C309.578 193.603 308.234 194.946 306.578 194.946H145.15C143.493 194.946 142.15 193.603 142.15 191.946Z" fill="#F0F0F0"/>
<path d="M117.405 194.107C117.405 193.278 118.076 192.607 118.905 192.607C119.733 192.607 120.405 193.278 120.405 194.107C120.405 194.935 119.733 195.607 118.905 195.607C118.076 195.607 117.405 194.935 117.405 194.107Z" fill="#F0F0F0" stroke="#E3E3E3"/>
<path d="M123.318 194.107C123.318 193.278 123.989 192.607 124.818 192.607C125.646 192.607 126.318 193.278 126.318 194.107C126.318 194.935 125.646 195.607 124.818 195.607C123.989 195.607 123.318 194.935 123.318 194.107Z" fill="#F0F0F0" stroke="#E3E3E3"/>
<path d="M129.231 194.107C129.231 193.278 129.903 192.607 130.731 192.607C131.559 192.607 132.231 193.278 132.231 194.107C132.231 194.935 131.559 195.607 130.731 195.607C129.903 195.607 129.231 194.935 129.231 194.107Z" fill="#F0F0F0" stroke="#E3E3E3"/>
<path d="M41.916 49.5505H60.6714" stroke="#C9C9C9"/>
<path d="M41.916 86.1624H60.6714" stroke="#C9C9C9"/>
<path d="M87.751 158.316H106.506" stroke="#C9C9C9"/>
<path d="M41.916 120.774H60.6714" stroke="#C9C9C9"/>
<path d="M87.751 192.928H106.506" stroke="#C9C9C9"/>
<path d="M178.926 12.4932C178.926 5.86576 184.298 0.493164 190.926 0.493164H312.931C319.558 0.493164 324.931 5.86575 324.931 12.4932V205.928C324.931 212.556 319.558 217.928 312.931 217.928H190.926C184.298 217.928 178.926 212.556 178.926 205.928V12.4932Z" fill="url(#paint0_linear)"/>
<defs>
<filter id="filter0_d" x="6.20811" y="222.687" width="58.2117" height="34.8532" filterUnits="userSpaceOnUse" color-interpolation-filters="sRGB">
<feFlood flood-opacity="0" result="BackgroundImageFix"/>
<feColorMatrix in="SourceAlpha" type="matrix" values="0 0 0 0 0 0 0 0 0 0 0 0 0 0 0 0 0 0 127 0" result="hardAlpha"/>
<feOffset/>
<feGaussianBlur stdDeviation="8.43159"/>
<feColorMatrix type="matrix" values="0 0 0 0 0 0 0 0 0 0 0 0 0 0 0 0 0 0 0.1 0"/>
<feBlend mode="normal" in2="BackgroundImageFix" result="effect1_dropShadow"/>
<feBlend mode="normal" in="SourceGraphic" in2="effect1_dropShadow" result="shape"/>
</filter>
<filter id="filter1_d" x="0.594343" y="17.8995" width="58.2117" height="203.532" filterUnits="userSpaceOnUse" color-interpolation-filters="sRGB">
<feFlood flood-opacity="0" result="BackgroundImageFix"/>
<feColorMatrix in="SourceAlpha" type="matrix" values="0 0 0 0 0 0 0 0 0 0 0 0 0 0 0 0 0 0 127 0" result="hardAlpha"/>
<feOffset/>
<feGaussianBlur stdDeviation="8.43159"/>
<feColorMatrix type="matrix" values="0 0 0 0 0 0 0 0 0 0 0 0 0 0 0 0 0 0 0.1 0"/>
<feBlend mode="normal" in2="BackgroundImageFix" result="effect1_dropShadow"/>
<feBlend mode="normal" in="SourceGraphic" in2="effect1_dropShadow" result="shape"/>
</filter>
<filter id="filter2_d" x="12.837" y="172.276" width="34.7264" height="44.0365" filterUnits="userSpaceOnUse" color-interpolation-filters="sRGB">
<feFlood flood-opacity="0" result="BackgroundImageFix"/>
<feColorMatrix in="SourceAlpha" type="matrix" values="0 0 0 0 0 0 0 0 0 0 0 0 0 0 0 0 0 0 127 0" result="hardAlpha"/>
<feOffset/>
<feGaussianBlur stdDeviation="8.43159"/>
<feColorMatrix type="matrix" values="0 0 0 0 0 0 0 0 0 0 0 0 0 0 0 0 0 0 0.1 0"/>
<feBlend mode="normal" in2="BackgroundImageFix" result="effect1_dropShadow"/>
<feBlend mode="normal" in="SourceGraphic" in2="effect1_dropShadow" result="shape"/>
</filter>
<filter id="filter3_d" x="8.18175" y="176.931" width="44.0365" height="34.7264" filterUnits="userSpaceOnUse" color-interpolation-filters="sRGB">
<feFlood flood-opacity="0" result="BackgroundImageFix"/>
<feColorMatrix in="SourceAlpha" type="matrix" values="0 0 0 0 0 0 0 0 0 0 0 0 0 0 0 0 0 0 127 0" result="hardAlpha"/>
<feOffset/>
<feGaussianBlur stdDeviation="8.43159"/>
<feColorMatrix type="matrix" values="0 0 0 0 0 0 0 0 0 0 0 0 0 0 0 0 0 0 0.1 0"/>
<feBlend mode="normal" in2="BackgroundImageFix" result="effect1_dropShadow"/>
<feBlend mode="normal" in="SourceGraphic" in2="effect1_dropShadow" result="shape"/>
</filter>
<filter id="filter4_d" x="0.594343" y="163.734" width="58.2117" height="34.7264" filterUnits="userSpaceOnUse" color-interpolation-filters="sRGB">
<feFlood flood-opacity="0" result="BackgroundImageFix"/>
<feColorMatrix in="SourceAlpha" type="matrix" values="0 0 0 0 0 0 0 0 0 0 0 0 0 0 0 0 0 0 127 0" result="hardAlpha"/>
<feOffset/>
<feGaussianBlur stdDeviation="8.43159"/>
<feColorMatrix type="matrix" values="0 0 0 0 0 0 0 0 0 0 0 0 0 0 0 0 0 0 0.1 0"/>
<feBlend mode="normal" in2="BackgroundImageFix" result="effect1_dropShadow"/>
<feBlend mode="normal" in="SourceGraphic" in2="effect1_dropShadow" result="shape"/>
</filter>
<filter id="filter5_d" x="46.7892" y="127.802" width="58.2117" height="93.6291" filterUnits="userSpaceOnUse" color-interpolation-filters="sRGB">
<feFlood flood-opacity="0" result="BackgroundImageFix"/>
<feColorMatrix in="SourceAlpha" type="matrix" values="0 0 0 0 0 0 0 0 0 0 0 0 0 0 0 0 0 0 127 0" result="hardAlpha"/>
<feOffset/>
<feGaussianBlur stdDeviation="8.43159"/>
<feColorMatrix type="matrix" values="0 0 0 0 0 0 0 0 0 0 0 0 0 0 0 0 0 0 0.1 0"/>
<feBlend mode="normal" in2="BackgroundImageFix" result="effect1_dropShadow"/>
<feBlend mode="normal" in="SourceGraphic" in2="effect1_dropShadow" result="shape"/>
</filter>
<filter id="filter6_d" x="46.4024" y="166.992" width="58.2117" height="34.7264" filterUnits="userSpaceOnUse" color-interpolation-filters="sRGB">
<feFlood flood-opacity="0" result="BackgroundImageFix"/>
<feColorMatrix in="SourceAlpha" type="matrix" values="0 0 0 0 0 0 0 0 0 0 0 0 0 0 0 0 0 0 127 0" result="hardAlpha"/>
<feOffset/>
<feGaussianBlur stdDeviation="8.43159"/>
<feColorMatrix type="matrix" values="0 0 0 0 0 0 0 0 0 0 0 0 0 0 0 0 0 0 0.1 0"/>
<feBlend mode="normal" in2="BackgroundImageFix" result="effect1_dropShadow"/>
<feBlend mode="normal" in="SourceGraphic" in2="effect1_dropShadow" result="shape"/>
</filter>
<filter id="filter7_d" x="59.0318" y="172.276" width="34.7264" height="44.0365" filterUnits="userSpaceOnUse" color-interpolation-filters="sRGB">
<feFlood flood-opacity="0" result="BackgroundImageFix"/>
<feColorMatrix in="SourceAlpha" type="matrix" values="0 0 0 0 0 0 0 0 0 0 0 0 0 0 0 0 0 0 127 0" result="hardAlpha"/>
<feOffset/>
<feGaussianBlur stdDeviation="8.43159"/>
<feColorMatrix type="matrix" values="0 0 0 0 0 0 0 0 0 0 0 0 0 0 0 0 0 0 0.1 0"/>
<feBlend mode="normal" in2="BackgroundImageFix" result="effect1_dropShadow"/>
<feBlend mode="normal" in="SourceGraphic" in2="effect1_dropShadow" result="shape"/>
</filter>
<filter id="filter8_d" x="54.3766" y="176.931" width="44.0365" height="34.7264" filterUnits="userSpaceOnUse" color-interpolation-filters="sRGB">
<feFlood flood-opacity="0" result="BackgroundImageFix"/>
<feColorMatrix in="SourceAlpha" type="matrix" values="0 0 0 0 0 0 0 0 0 0 0 0 0 0 0 0 0 0 127 0" result="hardAlpha"/>
<feOffset/>
<feGaussianBlur stdDeviation="8.43159"/>
<feColorMatrix type="matrix" values="0 0 0 0 0 0 0 0 0 0 0 0 0 0 0 0 0 0 0.1 0"/>
<feBlend mode="normal" in2="BackgroundImageFix" result="effect1_dropShadow"/>
<feBlend mode="normal" in="SourceGraphic" in2="effect1_dropShadow" result="shape"/>
</filter>
<linearGradient id="paint0_linear" x1="275.719" y1="122.04" x2="174.403" y2="122.944" gradientUnits="userSpaceOnUse">
<stop stop-color="#FAFAFA"/>
<stop offset="1" stop-color="#FAFAFA" stop-opacity="0"/>
</linearGradient>
</defs>
</svg>
