<svg width="373" height="218" viewBox="0 0 373 218" fill="none" xmlns="http://www.w3.org/2000/svg">
<g filter="url(#filter0_d)">
<path d="M17.6829 83.2787C17.6829 76.6513 23.0554 71.2787 29.6829 71.2787H323.319C329.946 71.2787 335.319 76.6513 335.319 83.2787V126.308C335.319 132.936 329.946 138.308 323.319 138.308H29.6829C23.0555 138.308 17.6829 132.936 17.6829 126.308V83.2787Z" fill="white"/>
</g>
<g filter="url(#filter1_d)">
<path d="M27.6829 93.2787C27.6829 86.6513 33.0554 81.2787 39.6829 81.2787H333.319C339.946 81.2787 345.319 86.6513 345.319 93.2787V136.308C345.319 142.936 339.946 148.308 333.319 148.308H39.6829C33.0555 148.308 27.6829 142.936 27.6829 136.308V93.2787Z" fill="white"/>
</g>
<g filter="url(#filter2_d)">
<path d="M37.6829 103.279C37.6829 96.6513 43.0554 91.2787 49.6829 91.2787H343.319C349.946 91.2787 355.319 96.6513 355.319 103.279V146.308C355.319 152.936 349.946 158.308 343.319 158.308H49.6829C43.0555 158.308 37.6829 152.936 37.6829 146.308V103.279Z" fill="white"/>
</g>
<path d="M103.478 133.771L105.575 138.791L107.681 133.771H108.322V139.459H107.841V136.982L107.88 134.443L105.763 139.459H105.392L103.282 134.463L103.322 136.966V139.459H102.841V133.771H103.478ZM112.322 139.459C112.275 139.326 112.245 139.129 112.232 138.869C112.068 139.082 111.858 139.248 111.603 139.365C111.35 139.479 111.082 139.537 110.798 139.537C110.392 139.537 110.062 139.423 109.81 139.197C109.56 138.97 109.435 138.684 109.435 138.338C109.435 137.926 109.605 137.601 109.947 137.361C110.29 137.121 110.768 137.002 111.38 137.002H112.228V136.521C112.228 136.219 112.134 135.982 111.947 135.81C111.762 135.636 111.491 135.548 111.134 135.548C110.809 135.548 110.539 135.632 110.325 135.798C110.112 135.965 110.005 136.166 110.005 136.4L109.536 136.396C109.536 136.06 109.693 135.77 110.005 135.525C110.318 135.278 110.702 135.154 111.157 135.154C111.629 135.154 112 135.272 112.271 135.509C112.544 135.744 112.685 136.072 112.693 136.494V138.494C112.693 138.903 112.736 139.209 112.822 139.412V139.459H112.322ZM110.853 139.123C111.165 139.123 111.444 139.047 111.689 138.896C111.936 138.745 112.116 138.543 112.228 138.291V137.361H111.392C110.926 137.366 110.561 137.452 110.298 137.619C110.035 137.783 109.904 138.009 109.904 138.298C109.904 138.535 109.991 138.732 110.165 138.888C110.342 139.045 110.572 139.123 110.853 139.123ZM115.896 135.63C115.797 135.612 115.691 135.603 115.579 135.603C115.288 135.603 115.04 135.685 114.837 135.849C114.637 136.011 114.493 136.246 114.407 136.556V139.459H113.943V135.232H114.4L114.407 135.904C114.655 135.404 115.052 135.154 115.599 135.154C115.729 135.154 115.832 135.171 115.907 135.205L115.896 135.63ZM118.122 139.142C118.448 139.142 118.72 139.051 118.939 138.869C119.16 138.684 119.28 138.446 119.298 138.154H119.747C119.734 138.412 119.654 138.647 119.505 138.861C119.357 139.072 119.159 139.237 118.911 139.357C118.667 139.477 118.404 139.537 118.122 139.537C117.568 139.537 117.128 139.344 116.802 138.959C116.479 138.573 116.318 138.055 116.318 137.404V137.263C116.318 136.847 116.391 136.478 116.536 136.158C116.682 135.838 116.891 135.59 117.161 135.416C117.435 135.241 117.754 135.154 118.118 135.154C118.582 135.154 118.963 135.292 119.263 135.568C119.565 135.844 119.726 136.207 119.747 136.658H119.298C119.277 136.327 119.157 136.06 118.939 135.857C118.723 135.654 118.449 135.552 118.118 135.552C117.697 135.552 117.368 135.705 117.134 136.009C116.902 136.314 116.786 136.741 116.786 137.291V137.427C116.786 137.966 116.902 138.387 117.134 138.689C117.368 138.991 117.698 139.142 118.122 139.142ZM121.15 135.947C121.303 135.694 121.5 135.499 121.74 135.361C121.979 135.223 122.241 135.154 122.525 135.154C122.978 135.154 123.315 135.282 123.536 135.537C123.758 135.792 123.87 136.175 123.872 136.685V139.459H123.407V136.681C123.405 136.304 123.324 136.022 123.165 135.838C123.009 135.653 122.758 135.56 122.411 135.56C122.122 135.56 121.866 135.651 121.642 135.834C121.42 136.013 121.256 136.257 121.15 136.564V139.459H120.685V133.459H121.15V135.947ZM130.376 137.088C130.376 137.89 130.229 138.499 129.935 138.916C129.641 139.33 129.207 139.537 128.634 139.537C128.072 139.537 127.641 139.334 127.341 138.927C127.042 138.519 126.888 137.925 126.88 137.146V136.127C126.88 135.327 127.029 134.722 127.325 134.31C127.622 133.899 128.056 133.693 128.626 133.693C129.189 133.693 129.618 133.892 129.915 134.291C130.212 134.686 130.366 135.271 130.376 136.045V137.088ZM129.907 136.068C129.907 135.417 129.801 134.925 129.587 134.591C129.376 134.258 129.056 134.091 128.626 134.091C128.204 134.091 127.887 134.254 127.673 134.58C127.46 134.905 127.35 135.386 127.345 136.021V137.138C127.345 137.787 127.454 138.283 127.673 138.627C127.894 138.97 128.215 139.142 128.634 139.142C129.051 139.142 129.366 138.974 129.579 138.638C129.795 138.302 129.905 137.81 129.907 137.162V136.068ZM134.947 139.459H131.384V139.099L133.333 136.888C133.656 136.516 133.88 136.209 134.005 135.966C134.13 135.724 134.193 135.489 134.193 135.259C134.193 134.9 134.087 134.616 133.876 134.408C133.665 134.197 133.375 134.091 133.005 134.091C132.622 134.091 132.312 134.214 132.075 134.459C131.841 134.703 131.724 135.021 131.724 135.412H131.259C131.259 135.091 131.331 134.8 131.474 134.537C131.62 134.274 131.825 134.068 132.091 133.92C132.359 133.769 132.664 133.693 133.005 133.693C133.526 133.693 133.932 133.83 134.224 134.103C134.518 134.377 134.665 134.749 134.665 135.22C134.665 135.486 134.582 135.776 134.415 136.091C134.251 136.407 133.961 136.8 133.544 137.271L131.958 139.064H134.947V139.459ZM135.798 140.521L135.521 140.318C135.758 140 135.88 139.671 135.888 139.33V138.724H136.345V139.213C136.345 139.754 136.163 140.19 135.798 140.521ZM142.728 137.088C142.728 137.89 142.581 138.499 142.286 138.916C141.992 139.33 141.559 139.537 140.986 139.537C140.423 139.537 139.992 139.334 139.693 138.927C139.393 138.519 139.24 137.925 139.232 137.146V136.127C139.232 135.327 139.38 134.722 139.677 134.31C139.974 133.899 140.407 133.693 140.978 133.693C141.54 133.693 141.97 133.892 142.267 134.291C142.564 134.686 142.717 135.271 142.728 136.045V137.088ZM142.259 136.068C142.259 135.417 142.152 134.925 141.939 134.591C141.728 134.258 141.407 134.091 140.978 134.091C140.556 134.091 140.238 134.254 140.025 134.58C139.811 134.905 139.702 135.386 139.697 136.021V137.138C139.697 137.787 139.806 138.283 140.025 138.627C140.246 138.97 140.566 139.142 140.986 139.142C141.402 139.142 141.717 138.974 141.931 138.638C142.147 138.302 142.256 137.81 142.259 137.162V136.068ZM146.607 137.627H147.493V138.021H146.607V139.459H146.138V138.021H143.462V137.755L146.095 133.771H146.607V137.627ZM144.036 137.627H146.138V134.377L145.931 134.736L144.036 137.627ZM148.134 139.177C148.134 139.086 148.163 139.009 148.22 138.947C148.28 138.882 148.362 138.849 148.466 138.849C148.57 138.849 148.652 138.882 148.712 138.947C148.772 139.009 148.802 139.086 148.802 139.177C148.802 139.269 148.772 139.344 148.712 139.404C148.652 139.461 148.57 139.49 148.466 139.49C148.362 139.49 148.28 139.461 148.22 139.404C148.163 139.344 148.134 139.269 148.134 139.177ZM148.142 135.572C148.142 135.481 148.17 135.404 148.228 135.341C148.288 135.276 148.37 135.244 148.474 135.244C148.578 135.244 148.66 135.276 148.72 135.341C148.78 135.404 148.81 135.481 148.81 135.572C148.81 135.663 148.78 135.739 148.72 135.798C148.66 135.856 148.578 135.884 148.474 135.884C148.37 135.884 148.288 135.856 148.228 135.798C148.17 135.739 148.142 135.663 148.142 135.572ZM153.415 139.459H149.853V139.099L151.802 136.888C152.125 136.516 152.349 136.209 152.474 135.966C152.599 135.724 152.661 135.489 152.661 135.259C152.661 134.9 152.556 134.616 152.345 134.408C152.134 134.197 151.844 134.091 151.474 134.091C151.091 134.091 150.781 134.214 150.544 134.459C150.31 134.703 150.193 135.021 150.193 135.412H149.728C149.728 135.091 149.799 134.8 149.943 134.537C150.088 134.274 150.294 134.068 150.56 133.92C150.828 133.769 151.133 133.693 151.474 133.693C151.995 133.693 152.401 133.83 152.693 134.103C152.987 134.377 153.134 134.749 153.134 135.22C153.134 135.486 153.051 135.776 152.884 136.091C152.72 136.407 152.43 136.8 152.013 137.271L150.427 139.064H153.415V139.459ZM157.853 139.459H154.29V139.099L156.24 136.888C156.562 136.516 156.786 136.209 156.911 135.966C157.036 135.724 157.099 135.489 157.099 135.259C157.099 134.9 156.993 134.616 156.782 134.408C156.572 134.197 156.281 134.091 155.911 134.091C155.529 134.091 155.219 134.214 154.982 134.459C154.747 134.703 154.63 135.021 154.63 135.412H154.165C154.165 135.091 154.237 134.8 154.38 134.537C154.526 134.274 154.732 134.068 154.997 133.92C155.266 133.769 155.57 133.693 155.911 133.693C156.432 133.693 156.838 133.83 157.13 134.103C157.424 134.377 157.572 134.749 157.572 135.22C157.572 135.486 157.488 135.776 157.322 136.091C157.157 136.407 156.867 136.8 156.45 137.271L154.865 139.064H157.853V139.459ZM161.337 137.142V139.459H160.857V133.771H162.794C163.385 133.771 163.851 133.922 164.193 134.224C164.536 134.526 164.708 134.942 164.708 135.47C164.708 136.004 164.543 136.417 164.212 136.709C163.884 136.998 163.407 137.142 162.782 137.142H161.337ZM161.337 136.736H162.794C163.26 136.736 163.616 136.625 163.861 136.404C164.105 136.183 164.228 135.874 164.228 135.478C164.228 135.085 164.105 134.772 163.861 134.541C163.618 134.306 163.273 134.186 162.825 134.181H161.337V136.736ZM166.423 133.771L168.521 138.791L170.626 133.771H171.267V139.459H170.786V136.982L170.825 134.443L168.708 139.459H168.337L166.228 134.463L166.267 136.966V139.459H165.786V133.771H166.423Z" fill="#282B31"/>
<path d="M104.691 118.315H105.607C106.182 118.306 106.635 118.154 106.964 117.86C107.293 117.566 107.458 117.169 107.458 116.668C107.458 115.544 106.898 114.982 105.778 114.982C105.251 114.982 104.83 115.133 104.513 115.436C104.202 115.735 104.046 116.132 104.046 116.628H102.827C102.827 115.869 103.104 115.238 103.657 114.738C104.215 114.233 104.922 113.98 105.778 113.98C106.683 113.98 107.392 114.22 107.906 114.698C108.42 115.177 108.677 115.842 108.677 116.694C108.677 117.111 108.54 117.515 108.268 117.906C108 118.297 107.634 118.589 107.168 118.782C107.695 118.949 108.101 119.226 108.387 119.612C108.677 119.999 108.821 120.471 108.821 121.029C108.821 121.889 108.54 122.572 107.978 123.077C107.416 123.582 106.685 123.835 105.785 123.835C104.885 123.835 104.151 123.591 103.585 123.104C103.023 122.616 102.742 121.973 102.742 121.174H103.967C103.967 121.679 104.131 122.083 104.461 122.386C104.79 122.689 105.231 122.84 105.785 122.84C106.373 122.84 106.823 122.686 107.135 122.379C107.447 122.072 107.603 121.63 107.603 121.055C107.603 120.497 107.432 120.069 107.089 119.77C106.747 119.472 106.252 119.318 105.607 119.309H104.691V118.315ZM114.5 123.703H113.274V115.581L110.817 116.483V115.377L114.309 114.066H114.5V123.703ZM124.354 123.703H118.07V122.827L121.39 119.138C121.882 118.58 122.22 118.128 122.404 117.781C122.593 117.43 122.687 117.068 122.687 116.694C122.687 116.194 122.536 115.783 122.233 115.462C121.93 115.142 121.526 114.982 121.021 114.982C120.415 114.982 119.943 115.155 119.605 115.502C119.271 115.844 119.104 116.323 119.104 116.938H117.885C117.885 116.055 118.169 115.342 118.735 114.797C119.306 114.253 120.068 113.98 121.021 113.98C121.912 113.98 122.617 114.215 123.135 114.685C123.654 115.151 123.913 115.772 123.913 116.549C123.913 117.493 123.311 118.618 122.108 119.922L119.539 122.708H124.354V123.703ZM133.517 123.703C133.447 123.562 133.389 123.312 133.346 122.952C132.779 123.541 132.103 123.835 131.317 123.835C130.614 123.835 130.037 123.637 129.584 123.242C129.136 122.842 128.912 122.337 128.912 121.727C128.912 120.985 129.193 120.409 129.756 120.001C130.322 119.588 131.117 119.382 132.14 119.382H133.326V118.822C133.326 118.396 133.198 118.058 132.944 117.807C132.689 117.553 132.314 117.425 131.817 117.425C131.383 117.425 131.018 117.535 130.724 117.755C130.43 117.974 130.283 118.24 130.283 118.552H129.057C129.057 118.196 129.182 117.854 129.433 117.524C129.687 117.19 130.03 116.927 130.46 116.734C130.895 116.541 131.372 116.444 131.89 116.444C132.711 116.444 133.354 116.65 133.82 117.063C134.285 117.472 134.527 118.036 134.544 118.756V122.036C134.544 122.691 134.628 123.211 134.795 123.598V123.703H133.517ZM131.495 122.774C131.877 122.774 132.239 122.675 132.581 122.478C132.924 122.28 133.172 122.023 133.326 121.707V120.245H132.371C130.878 120.245 130.131 120.682 130.131 121.556C130.131 121.938 130.258 122.236 130.513 122.451C130.768 122.667 131.095 122.774 131.495 122.774ZM136.158 120.08C136.158 118.987 136.417 118.108 136.936 117.445C137.454 116.778 138.132 116.444 138.971 116.444C139.805 116.444 140.466 116.729 140.954 117.3V113.585H142.172V123.703H141.053L140.993 122.939C140.506 123.536 139.827 123.835 138.958 123.835C138.132 123.835 137.458 123.497 136.936 122.82C136.417 122.144 136.158 121.261 136.158 120.172V120.08ZM137.377 120.218C137.377 121.026 137.544 121.659 137.878 122.115C138.211 122.572 138.672 122.801 139.261 122.801C140.034 122.801 140.598 122.454 140.954 121.76V118.486C140.589 117.814 140.029 117.478 139.274 117.478C138.677 117.478 138.211 117.709 137.878 118.17C137.544 118.631 137.377 119.314 137.377 120.218ZM151.566 121.812C151.566 121.483 151.441 121.228 151.19 121.048C150.944 120.864 150.512 120.706 149.893 120.574C149.278 120.442 148.788 120.284 148.424 120.1C148.063 119.915 147.796 119.696 147.62 119.441C147.449 119.186 147.363 118.883 147.363 118.532C147.363 117.948 147.609 117.454 148.101 117.05C148.597 116.646 149.229 116.444 149.998 116.444C150.806 116.444 151.46 116.653 151.961 117.07C152.466 117.487 152.718 118.02 152.718 118.67H151.493C151.493 118.337 151.35 118.049 151.065 117.807C150.784 117.566 150.428 117.445 149.998 117.445C149.554 117.445 149.207 117.542 148.957 117.735C148.707 117.928 148.582 118.181 148.582 118.493C148.582 118.787 148.698 119.009 148.931 119.158C149.164 119.307 149.583 119.45 150.189 119.586C150.799 119.722 151.293 119.885 151.671 120.073C152.049 120.262 152.328 120.491 152.508 120.759C152.692 121.022 152.784 121.345 152.784 121.727C152.784 122.364 152.53 122.875 152.02 123.262C151.511 123.644 150.85 123.835 150.037 123.835C149.467 123.835 148.962 123.734 148.522 123.532C148.083 123.33 147.739 123.049 147.488 122.689C147.242 122.324 147.119 121.931 147.119 121.509H148.338C148.36 121.918 148.522 122.243 148.825 122.484C149.133 122.722 149.537 122.84 150.037 122.84C150.499 122.84 150.867 122.748 151.144 122.563C151.425 122.375 151.566 122.124 151.566 121.812ZM157.329 123.835C156.363 123.835 155.577 123.519 154.971 122.886C154.365 122.249 154.062 121.4 154.062 120.337V120.113C154.062 119.406 154.196 118.776 154.464 118.222C154.736 117.665 155.114 117.23 155.597 116.918C156.084 116.602 156.611 116.444 157.178 116.444C158.105 116.444 158.825 116.749 159.339 117.36C159.852 117.97 160.109 118.844 160.109 119.981V120.488H155.281C155.298 121.191 155.503 121.76 155.893 122.195C156.289 122.625 156.789 122.84 157.395 122.84C157.826 122.84 158.19 122.752 158.489 122.577C158.787 122.401 159.049 122.168 159.273 121.878L160.017 122.458C159.42 123.376 158.524 123.835 157.329 123.835ZM157.178 117.445C156.686 117.445 156.273 117.625 155.94 117.985C155.606 118.341 155.399 118.842 155.32 119.487H158.891V119.395C158.855 118.776 158.689 118.297 158.39 117.959C158.091 117.616 157.687 117.445 157.178 117.445ZM163.179 114.85V116.576H164.509V117.518H163.179V121.938C163.179 122.223 163.238 122.438 163.357 122.583C163.475 122.724 163.677 122.794 163.963 122.794C164.103 122.794 164.296 122.768 164.542 122.715V123.703C164.222 123.791 163.91 123.835 163.607 123.835C163.063 123.835 162.652 123.67 162.375 123.341C162.099 123.011 161.96 122.544 161.96 121.938V117.518H160.663V116.576H161.96V114.85H163.179ZM170.089 121.812C170.089 121.483 169.964 121.228 169.713 121.048C169.467 120.864 169.035 120.706 168.416 120.574C167.801 120.442 167.311 120.284 166.947 120.1C166.587 119.915 166.319 119.696 166.143 119.441C165.972 119.186 165.886 118.883 165.886 118.532C165.886 117.948 166.132 117.454 166.624 117.05C167.12 116.646 167.753 116.444 168.521 116.444C169.329 116.444 169.983 116.653 170.484 117.07C170.989 117.487 171.242 118.02 171.242 118.67H170.016C170.016 118.337 169.874 118.049 169.588 117.807C169.307 117.566 168.951 117.445 168.521 117.445C168.078 117.445 167.731 117.542 167.48 117.735C167.23 117.928 167.105 118.181 167.105 118.493C167.105 118.787 167.221 119.009 167.454 119.158C167.687 119.307 168.106 119.45 168.712 119.586C169.323 119.722 169.817 119.885 170.194 120.073C170.572 120.262 170.851 120.491 171.031 120.759C171.215 121.022 171.307 121.345 171.307 121.727C171.307 122.364 171.053 122.875 170.543 123.262C170.034 123.644 169.373 123.835 168.561 123.835C167.99 123.835 167.485 123.734 167.046 123.532C166.606 123.33 166.262 123.049 166.011 122.689C165.765 122.324 165.642 121.931 165.642 121.509H166.861C166.883 121.918 167.046 122.243 167.349 122.484C167.656 122.722 168.06 122.84 168.561 122.84C169.022 122.84 169.391 122.748 169.667 122.563C169.948 122.375 170.089 122.124 170.089 121.812ZM182.262 120.218C182.262 121.303 182.014 122.177 181.518 122.84C181.021 123.503 180.349 123.835 179.502 123.835C178.637 123.835 177.956 123.56 177.46 123.011V126.443H176.241V116.576H177.354L177.414 117.366C177.91 116.751 178.599 116.444 179.482 116.444C180.338 116.444 181.015 116.767 181.511 117.412C182.012 118.058 182.262 118.956 182.262 120.106V120.218ZM181.043 120.08C181.043 119.276 180.872 118.642 180.529 118.176C180.187 117.711 179.717 117.478 179.12 117.478C178.382 117.478 177.829 117.805 177.46 118.46V121.865C177.824 122.515 178.382 122.84 179.133 122.84C179.717 122.84 180.18 122.61 180.523 122.148C180.87 121.683 181.043 120.993 181.043 120.08ZM188.217 123.703C188.146 123.562 188.089 123.312 188.045 122.952C187.479 123.541 186.803 123.835 186.017 123.835C185.314 123.835 184.737 123.637 184.284 123.242C183.836 122.842 183.612 122.337 183.612 121.727C183.612 120.985 183.893 120.409 184.455 120.001C185.022 119.588 185.817 119.382 186.84 119.382H188.026V118.822C188.026 118.396 187.898 118.058 187.644 117.807C187.389 117.553 187.013 117.425 186.517 117.425C186.082 117.425 185.718 117.535 185.424 117.755C185.13 117.974 184.982 118.24 184.982 118.552H183.757C183.757 118.196 183.882 117.854 184.133 117.524C184.387 117.19 184.73 116.927 185.16 116.734C185.595 116.541 186.072 116.444 186.59 116.444C187.411 116.444 188.054 116.65 188.52 117.063C188.985 117.472 189.227 118.036 189.244 118.756V122.036C189.244 122.691 189.328 123.211 189.495 123.598V123.703H188.217ZM186.194 122.774C186.577 122.774 186.939 122.675 187.281 122.478C187.624 122.28 187.872 122.023 188.026 121.707V120.245H187.071C185.577 120.245 184.831 120.682 184.831 121.556C184.831 121.938 184.958 122.236 185.213 122.451C185.468 122.667 185.795 122.774 186.194 122.774ZM195.555 122.998C195.081 123.556 194.385 123.835 193.467 123.835C192.707 123.835 192.127 123.615 191.728 123.176C191.332 122.732 191.133 122.078 191.128 121.213V116.576H192.347V121.18C192.347 122.26 192.786 122.801 193.664 122.801C194.595 122.801 195.215 122.454 195.522 121.76V116.576H196.741V123.703H195.581L195.555 122.998ZM202.748 121.812C202.748 121.483 202.623 121.228 202.373 121.048C202.127 120.864 201.694 120.706 201.075 120.574C200.46 120.442 199.97 120.284 199.606 120.1C199.246 119.915 198.978 119.696 198.802 119.441C198.631 119.186 198.545 118.883 198.545 118.532C198.545 117.948 198.791 117.454 199.283 117.05C199.779 116.646 200.412 116.444 201.18 116.444C201.988 116.444 202.643 116.653 203.143 117.07C203.648 117.487 203.901 118.02 203.901 118.67H202.676C202.676 118.337 202.533 118.049 202.247 117.807C201.966 117.566 201.611 117.445 201.18 117.445C200.737 117.445 200.39 117.542 200.14 117.735C199.889 117.928 199.764 118.181 199.764 118.493C199.764 118.787 199.88 119.009 200.113 119.158C200.346 119.307 200.765 119.45 201.371 119.586C201.982 119.722 202.476 119.885 202.853 120.073C203.231 120.262 203.51 120.491 203.69 120.759C203.874 121.022 203.967 121.345 203.967 121.727C203.967 122.364 203.712 122.875 203.203 123.262C202.693 123.644 202.032 123.835 201.22 123.835C200.649 123.835 200.144 123.734 199.705 123.532C199.266 123.33 198.921 123.049 198.671 122.689C198.425 122.324 198.302 121.931 198.302 121.509H199.52C199.542 121.918 199.705 122.243 200.008 122.484C200.315 122.722 200.719 122.84 201.22 122.84C201.681 122.84 202.05 122.748 202.326 122.563C202.608 122.375 202.748 122.124 202.748 121.812ZM208.512 123.835C207.546 123.835 206.76 123.519 206.154 122.886C205.548 122.249 205.245 121.4 205.245 120.337V120.113C205.245 119.406 205.379 118.776 205.646 118.222C205.919 117.665 206.296 117.23 206.779 116.918C207.267 116.602 207.794 116.444 208.36 116.444C209.287 116.444 210.007 116.749 210.521 117.36C211.035 117.97 211.292 118.844 211.292 119.981V120.488H206.463C206.481 121.191 206.685 121.76 207.076 122.195C207.471 122.625 207.972 122.84 208.578 122.84C209.008 122.84 209.373 122.752 209.671 122.577C209.97 122.401 210.231 122.168 210.455 121.878L211.199 122.458C210.602 123.376 209.706 123.835 208.512 123.835ZM208.36 117.445C207.868 117.445 207.456 117.625 207.122 117.985C206.788 118.341 206.582 118.842 206.503 119.487H210.073V119.395C210.038 118.776 209.871 118.297 209.572 117.959C209.274 117.616 208.87 117.445 208.36 117.445ZM212.411 120.08C212.411 118.987 212.671 118.108 213.189 117.445C213.707 116.778 214.385 116.444 215.224 116.444C216.059 116.444 216.719 116.729 217.207 117.3V113.585H218.426V123.703H217.306L217.246 122.939C216.759 123.536 216.081 123.835 215.211 123.835C214.385 123.835 213.711 123.497 213.189 122.82C212.671 122.144 212.411 121.261 212.411 120.172V120.08ZM213.63 120.218C213.63 121.026 213.797 121.659 214.131 122.115C214.464 122.572 214.926 122.801 215.514 122.801C216.287 122.801 216.851 122.454 217.207 121.76V118.486C216.842 117.814 216.283 117.478 215.527 117.478C214.93 117.478 214.464 117.709 214.131 118.17C213.797 118.631 213.63 119.314 213.63 120.218Z" fill="#333333"/>
<path d="M54.8162 113.624C54.8162 111.968 56.1593 110.624 57.8162 110.624H84.8162C86.473 110.624 87.8162 111.968 87.8162 113.624V137.624C87.8162 139.281 86.473 140.624 84.8162 140.624H57.8162C56.1593 140.624 54.8162 139.281 54.8162 137.624V113.624Z" fill="#3A91D3"/>
<path d="M79.3162 133.624H63.3162C62.7857 133.624 62.277 133.414 61.9019 133.039C61.5269 132.664 61.3162 132.155 61.3162 131.624V119.537C61.3386 119.022 61.5592 118.536 61.9318 118.179C62.3045 117.823 62.8005 117.624 63.3162 117.624H79.3162C79.8466 117.624 80.3553 117.835 80.7304 118.21C81.1054 118.585 81.3162 119.094 81.3162 119.624V131.624C81.3162 132.155 81.1054 132.664 80.7304 133.039C80.3553 133.414 79.8466 133.624 79.3162 133.624ZM63.3162 121.492V131.624H79.3162V121.492L71.3162 126.824L63.3162 121.492ZM64.1162 119.624L71.3162 124.424L78.5162 119.624H64.1162Z" fill="white"/>
<path d="M240.447 137.624C240.447 139.281 241.79 140.624 243.447 140.624H312.447C314.104 140.624 315.447 139.281 315.447 137.624V109.624C315.447 107.968 314.104 106.624 312.447 106.624H243.447C241.79 106.624 240.447 107.968 240.447 109.624V137.624Z" fill="#F9F9F9"/>
<path d="M255.255 128.792C254.611 128.792 254.014 128.671 253.463 128.428C252.913 128.186 252.437 127.854 252.035 127.434L252.735 126.622C253.062 126.968 253.445 127.248 253.883 127.462C254.331 127.668 254.793 127.77 255.269 127.77C255.876 127.77 256.347 127.635 256.683 127.364C257.019 127.084 257.187 126.72 257.187 126.272C257.187 126.039 257.145 125.843 257.061 125.684C256.987 125.516 256.879 125.376 256.739 125.264C256.609 125.143 256.45 125.036 256.263 124.942C256.077 124.849 255.876 124.751 255.661 124.648L254.345 124.074C254.131 123.981 253.911 123.869 253.687 123.738C253.463 123.608 253.263 123.449 253.085 123.262C252.908 123.076 252.763 122.856 252.651 122.604C252.539 122.343 252.483 122.044 252.483 121.708C252.483 121.363 252.553 121.041 252.693 120.742C252.843 120.444 253.043 120.187 253.295 119.972C253.557 119.748 253.86 119.576 254.205 119.454C254.56 119.333 254.947 119.272 255.367 119.272C255.918 119.272 256.427 119.38 256.893 119.594C257.36 119.8 257.757 120.07 258.083 120.406L257.453 121.162C257.173 120.892 256.861 120.682 256.515 120.532C256.179 120.374 255.797 120.294 255.367 120.294C254.854 120.294 254.439 120.416 254.121 120.658C253.813 120.892 253.659 121.218 253.659 121.638C253.659 121.862 253.701 122.054 253.785 122.212C253.879 122.362 254 122.497 254.149 122.618C254.299 122.73 254.462 122.833 254.639 122.926C254.817 123.01 254.999 123.09 255.185 123.164L256.487 123.724C256.749 123.836 256.996 123.967 257.229 124.116C257.463 124.256 257.663 124.424 257.831 124.62C257.999 124.807 258.13 125.031 258.223 125.292C258.326 125.544 258.377 125.838 258.377 126.174C258.377 126.538 258.303 126.879 258.153 127.196C258.013 127.514 257.808 127.794 257.537 128.036C257.267 128.27 256.94 128.456 256.557 128.596C256.175 128.727 255.741 128.792 255.255 128.792ZM260.074 128.624V118.656H261.222V121.372L261.18 122.772C261.506 122.464 261.847 122.203 262.202 121.988C262.556 121.764 262.972 121.652 263.448 121.652C264.166 121.652 264.689 121.876 265.016 122.324C265.352 122.772 265.52 123.435 265.52 124.312V128.624H264.372V124.466C264.372 123.822 264.269 123.36 264.064 123.08C263.858 122.791 263.532 122.646 263.084 122.646C262.729 122.646 262.416 122.735 262.146 122.912C261.875 123.09 261.567 123.351 261.222 123.696V128.624H260.074ZM270.335 128.792C269.915 128.792 269.514 128.713 269.131 128.554C268.758 128.396 268.426 128.167 268.137 127.868C267.848 127.56 267.614 127.187 267.437 126.748C267.269 126.3 267.185 125.796 267.185 125.236C267.185 124.667 267.269 124.163 267.437 123.724C267.614 123.276 267.848 122.898 268.137 122.59C268.426 122.282 268.758 122.049 269.131 121.89C269.514 121.732 269.915 121.652 270.335 121.652C270.755 121.652 271.152 121.732 271.525 121.89C271.908 122.049 272.244 122.282 272.533 122.59C272.822 122.898 273.051 123.276 273.219 123.724C273.396 124.163 273.485 124.667 273.485 125.236C273.485 125.796 273.396 126.3 273.219 126.748C273.051 127.187 272.822 127.56 272.533 127.868C272.244 128.167 271.908 128.396 271.525 128.554C271.152 128.713 270.755 128.792 270.335 128.792ZM270.335 127.84C270.624 127.84 270.89 127.78 271.133 127.658C271.376 127.528 271.581 127.35 271.749 127.126C271.926 126.893 272.062 126.618 272.155 126.3C272.248 125.983 272.295 125.628 272.295 125.236C272.295 124.844 272.248 124.49 272.155 124.172C272.062 123.846 271.926 123.566 271.749 123.332C271.581 123.099 271.376 122.922 271.133 122.8C270.89 122.67 270.624 122.604 270.335 122.604C270.046 122.604 269.78 122.67 269.537 122.8C269.294 122.922 269.084 123.099 268.907 123.332C268.739 123.566 268.608 123.846 268.515 124.172C268.422 124.49 268.375 124.844 268.375 125.236C268.375 125.628 268.422 125.983 268.515 126.3C268.608 126.618 268.739 126.893 268.907 127.126C269.084 127.35 269.294 127.528 269.537 127.658C269.78 127.78 270.046 127.84 270.335 127.84ZM276.3 128.624L274.41 121.82H275.586L276.594 125.754C276.669 126.081 276.739 126.398 276.804 126.706C276.87 127.014 276.935 127.327 277 127.644H277.056C277.131 127.327 277.206 127.014 277.28 126.706C277.355 126.389 277.434 126.072 277.518 125.754L278.568 121.82H279.688L280.752 125.754C280.836 126.081 280.916 126.398 280.99 126.706C281.074 127.014 281.154 127.327 281.228 127.644H281.284C281.359 127.327 281.429 127.014 281.494 126.706C281.56 126.398 281.63 126.081 281.704 125.754L282.698 121.82H283.79L281.97 128.624H280.57L279.59 124.97C279.506 124.644 279.427 124.322 279.352 124.004C279.287 123.687 279.212 123.356 279.128 123.01H279.072C278.998 123.356 278.923 123.692 278.848 124.018C278.774 124.336 278.69 124.658 278.596 124.984L277.644 128.624H276.3ZM289.292 128.792C288.853 128.792 288.54 128.662 288.354 128.4C288.167 128.139 288.074 127.756 288.074 127.252V118.656H289.222V127.336C289.222 127.523 289.254 127.654 289.32 127.728C289.385 127.803 289.46 127.84 289.544 127.84C289.581 127.84 289.614 127.84 289.642 127.84C289.679 127.84 289.73 127.831 289.796 127.812L289.95 128.68C289.875 128.718 289.786 128.746 289.684 128.764C289.581 128.783 289.45 128.792 289.292 128.792ZM294.288 128.792C293.868 128.792 293.467 128.713 293.084 128.554C292.711 128.396 292.379 128.167 292.09 127.868C291.801 127.56 291.567 127.187 291.39 126.748C291.222 126.3 291.138 125.796 291.138 125.236C291.138 124.667 291.222 124.163 291.39 123.724C291.567 123.276 291.801 122.898 292.09 122.59C292.379 122.282 292.711 122.049 293.084 121.89C293.467 121.732 293.868 121.652 294.288 121.652C294.708 121.652 295.105 121.732 295.478 121.89C295.861 122.049 296.197 122.282 296.486 122.59C296.775 122.898 297.004 123.276 297.172 123.724C297.349 124.163 297.438 124.667 297.438 125.236C297.438 125.796 297.349 126.3 297.172 126.748C297.004 127.187 296.775 127.56 296.486 127.868C296.197 128.167 295.861 128.396 295.478 128.554C295.105 128.713 294.708 128.792 294.288 128.792ZM294.288 127.84C294.577 127.84 294.843 127.78 295.086 127.658C295.329 127.528 295.534 127.35 295.702 127.126C295.879 126.893 296.015 126.618 296.108 126.3C296.201 125.983 296.248 125.628 296.248 125.236C296.248 124.844 296.201 124.49 296.108 124.172C296.015 123.846 295.879 123.566 295.702 123.332C295.534 123.099 295.329 122.922 295.086 122.8C294.843 122.67 294.577 122.604 294.288 122.604C293.999 122.604 293.733 122.67 293.49 122.8C293.247 122.922 293.037 123.099 292.86 123.332C292.692 123.566 292.561 123.846 292.468 124.172C292.375 124.49 292.328 124.844 292.328 125.236C292.328 125.628 292.375 125.983 292.468 126.3C292.561 126.618 292.692 126.893 292.86 127.126C293.037 127.35 293.247 127.528 293.49 127.658C293.733 127.78 293.999 127.84 294.288 127.84ZM301.526 131.76C301.106 131.76 300.723 131.718 300.378 131.634C300.033 131.56 299.734 131.443 299.482 131.284C299.239 131.126 299.048 130.934 298.908 130.71C298.777 130.486 298.712 130.225 298.712 129.926C298.712 129.637 298.801 129.362 298.978 129.1C299.155 128.839 299.398 128.601 299.706 128.386V128.33C299.538 128.228 299.393 128.088 299.272 127.91C299.16 127.724 299.104 127.495 299.104 127.224C299.104 126.935 299.183 126.683 299.342 126.468C299.501 126.254 299.669 126.086 299.846 125.964V125.908C299.622 125.722 299.417 125.474 299.23 125.166C299.053 124.849 298.964 124.485 298.964 124.074C298.964 123.701 299.029 123.365 299.16 123.066C299.3 122.768 299.487 122.516 299.72 122.31C299.953 122.096 300.224 121.932 300.532 121.82C300.849 121.708 301.181 121.652 301.526 121.652C301.713 121.652 301.885 121.671 302.044 121.708C302.212 121.736 302.361 121.774 302.492 121.82H304.858V122.702H303.458C303.617 122.861 303.747 123.062 303.85 123.304C303.962 123.547 304.018 123.813 304.018 124.102C304.018 124.466 303.953 124.798 303.822 125.096C303.691 125.386 303.514 125.633 303.29 125.838C303.066 126.034 302.8 126.188 302.492 126.3C302.193 126.412 301.871 126.468 301.526 126.468C301.358 126.468 301.185 126.45 301.008 126.412C300.831 126.366 300.663 126.305 300.504 126.23C300.383 126.333 300.28 126.45 300.196 126.58C300.112 126.702 300.07 126.856 300.07 127.042C300.07 127.257 300.154 127.434 300.322 127.574C300.49 127.714 300.807 127.784 301.274 127.784H302.59C303.383 127.784 303.976 127.915 304.368 128.176C304.769 128.428 304.97 128.839 304.97 129.408C304.97 129.726 304.891 130.024 304.732 130.304C304.573 130.594 304.345 130.846 304.046 131.06C303.747 131.275 303.383 131.443 302.954 131.564C302.534 131.695 302.058 131.76 301.526 131.76ZM301.526 125.698C301.722 125.698 301.904 125.661 302.072 125.586C302.249 125.512 302.403 125.404 302.534 125.264C302.674 125.124 302.781 124.956 302.856 124.76C302.931 124.555 302.968 124.326 302.968 124.074C302.968 123.57 302.828 123.183 302.548 122.912C302.268 122.632 301.927 122.492 301.526 122.492C301.125 122.492 300.784 122.632 300.504 122.912C300.224 123.183 300.084 123.57 300.084 124.074C300.084 124.326 300.121 124.555 300.196 124.76C300.271 124.956 300.373 125.124 300.504 125.264C300.644 125.404 300.798 125.512 300.966 125.586C301.143 125.661 301.33 125.698 301.526 125.698ZM301.694 130.962C302.021 130.962 302.315 130.92 302.576 130.836C302.847 130.762 303.075 130.659 303.262 130.528C303.449 130.407 303.593 130.262 303.696 130.094C303.799 129.926 303.85 129.754 303.85 129.576C303.85 129.259 303.733 129.04 303.5 128.918C303.267 128.797 302.926 128.736 302.478 128.736H301.302C301.171 128.736 301.027 128.727 300.868 128.708C300.719 128.699 300.569 128.671 300.42 128.624C300.177 128.802 300 128.988 299.888 129.184C299.776 129.38 299.72 129.576 299.72 129.772C299.72 130.136 299.893 130.426 300.238 130.64C300.593 130.855 301.078 130.962 301.694 130.962Z" fill="#444444"/>
<path d="M225.991 12.2476C225.991 5.62015 231.363 0.247559 237.991 0.247559H358C364.628 0.247559 370 5.62014 370 12.2476V205.683C370 212.31 364.628 217.683 358 217.683H237.991C231.363 217.683 225.991 212.31 225.991 205.683V12.2476Z" fill="url(#paint0_linear)"/>
<defs>
<filter id="filter0_d" x="0.819685" y="54.4155" width="351.362" height="100.756" filterUnits="userSpaceOnUse" color-interpolation-filters="sRGB">
<feFlood flood-opacity="0" result="BackgroundImageFix"/>
<feColorMatrix in="SourceAlpha" type="matrix" values="0 0 0 0 0 0 0 0 0 0 0 0 0 0 0 0 0 0 127 0" result="hardAlpha"/>
<feOffset/>
<feGaussianBlur stdDeviation="8.43159"/>
<feColorMatrix type="matrix" values="0 0 0 0 0 0 0 0 0 0 0 0 0 0 0 0 0 0 0.1 0"/>
<feBlend mode="normal" in2="BackgroundImageFix" result="effect1_dropShadow"/>
<feBlend mode="normal" in="SourceGraphic" in2="effect1_dropShadow" result="shape"/>
</filter>
<filter id="filter1_d" x="10.8197" y="64.4155" width="351.362" height="100.756" filterUnits="userSpaceOnUse" color-interpolation-filters="sRGB">
<feFlood flood-opacity="0" result="BackgroundImageFix"/>
<feColorMatrix in="SourceAlpha" type="matrix" values="0 0 0 0 0 0 0 0 0 0 0 0 0 0 0 0 0 0 127 0" result="hardAlpha"/>
<feOffset/>
<feGaussianBlur stdDeviation="8.43159"/>
<feColorMatrix type="matrix" values="0 0 0 0 0 0 0 0 0 0 0 0 0 0 0 0 0 0 0.1 0"/>
<feBlend mode="normal" in2="BackgroundImageFix" result="effect1_dropShadow"/>
<feBlend mode="normal" in="SourceGraphic" in2="effect1_dropShadow" result="shape"/>
</filter>
<filter id="filter2_d" x="20.8197" y="74.4155" width="351.362" height="100.756" filterUnits="userSpaceOnUse" color-interpolation-filters="sRGB">
<feFlood flood-opacity="0" result="BackgroundImageFix"/>
<feColorMatrix in="SourceAlpha" type="matrix" values="0 0 0 0 0 0 0 0 0 0 0 0 0 0 0 0 0 0 127 0" result="hardAlpha"/>
<feOffset/>
<feGaussianBlur stdDeviation="8.43159"/>
<feColorMatrix type="matrix" values="0 0 0 0 0 0 0 0 0 0 0 0 0 0 0 0 0 0 0.1 0"/>
<feBlend mode="normal" in2="BackgroundImageFix" result="effect1_dropShadow"/>
<feBlend mode="normal" in="SourceGraphic" in2="effect1_dropShadow" result="shape"/>
</filter>
<linearGradient id="paint0_linear" x1="321.461" y1="121.794" x2="221.529" y2="122.674" gradientUnits="userSpaceOnUse">
<stop stop-color="#FAFAFA"/>
<stop offset="1" stop-color="#FAFAFA" stop-opacity="0"/>
</linearGradient>
</defs>
</svg>
