<svg width="234" height="229" viewBox="0 0 234 229" fill="none" xmlns="http://www.w3.org/2000/svg">
<path d="M0.45752 143.965C0.45752 141.756 2.24838 139.965 4.45752 139.965H32.4575C34.6667 139.965 36.4575 141.756 36.4575 143.965V167.965C36.4575 170.174 34.6667 171.965 32.4575 171.965H4.45752C2.24838 171.965 0.45752 170.174 0.45752 167.965V143.965Z" fill="#007BFF"/>
<circle cx="17.9575" cy="14.4653" r="13.5" fill="#EFEFEF"/>
<path fill-rule="evenodd" clip-rule="evenodd" d="M20.3805 9.77058L19.624 8.96533L14.4575 14.4648L19.624 19.9642L20.3805 19.1589L15.9705 14.4648L20.3805 9.77058Z" fill="#1E2023"/>
<path d="M87.2587 20.9653V11.1253H88.7587L90.6487 16.3753C90.7687 16.7153 90.8837 17.0603 90.9937 17.4103C91.1137 17.7503 91.2337 18.0903 91.3537 18.4303H91.4137C91.5337 18.0903 91.6437 17.7503 91.7437 17.4103C91.8537 17.0603 91.9687 16.7153 92.0887 16.3753L93.9487 11.1253H95.4637V20.9653H94.2937V15.5503C94.2937 15.1103 94.3137 14.6253 94.3537 14.0953C94.3937 13.5653 94.4287 13.0803 94.4587 12.6403H94.3987L93.6187 14.8753L91.7587 19.9753H90.9337L89.0737 14.8753L88.2937 12.6403H88.2337C88.2637 13.0803 88.2937 13.5653 88.3237 14.0953C88.3637 14.6253 88.3837 15.1103 88.3837 15.5503V20.9653H87.2587ZM99.7171 21.1453C99.1071 21.1453 98.5971 20.9653 98.1871 20.6053C97.7871 20.2453 97.5871 19.7353 97.5871 19.0753C97.5871 18.2753 97.9421 17.6653 98.6521 17.2453C99.3621 16.8153 100.497 16.5153 102.057 16.3453C102.057 16.1153 102.032 15.8903 101.982 15.6703C101.942 15.4503 101.867 15.2553 101.757 15.0853C101.647 14.9153 101.492 14.7803 101.292 14.6803C101.102 14.5703 100.857 14.5153 100.557 14.5153C100.137 14.5153 99.7421 14.5953 99.3721 14.7553C99.0021 14.9153 98.6721 15.0953 98.3821 15.2953L97.9021 14.4403C98.2421 14.2203 98.6571 14.0103 99.1471 13.8103C99.6371 13.6003 100.177 13.4953 100.767 13.4953C101.657 13.4953 102.302 13.7703 102.702 14.3203C103.102 14.8603 103.302 15.5853 103.302 16.4953V20.9653H102.282L102.177 20.0953H102.132C101.782 20.3853 101.407 20.6353 101.007 20.8453C100.607 21.0453 100.177 21.1453 99.7171 21.1453ZM100.077 20.1553C100.427 20.1553 100.757 20.0753 101.067 19.9153C101.377 19.7453 101.707 19.5003 102.057 19.1803V17.1553C101.447 17.2353 100.932 17.3303 100.512 17.4403C100.102 17.5503 99.7671 17.6803 99.5071 17.8303C99.2571 17.9803 99.0721 18.1553 98.9521 18.3553C98.8421 18.5453 98.7871 18.7553 98.7871 18.9853C98.7871 19.4053 98.9121 19.7053 99.1621 19.8853C99.4121 20.0653 99.7171 20.1553 100.077 20.1553ZM105.716 24.1003C105.546 24.1003 105.391 24.0853 105.251 24.0553C105.111 24.0353 104.981 24.0003 104.861 23.9503L105.101 22.9753C105.181 22.9953 105.271 23.0153 105.371 23.0353C105.471 23.0653 105.566 23.0803 105.656 23.0803C106.076 23.0803 106.416 22.9303 106.676 22.6303C106.946 22.3403 107.156 21.9703 107.306 21.5203L107.471 20.9803L104.546 13.6753H105.821L107.306 17.7103C107.416 18.0303 107.531 18.3703 107.651 18.7303C107.781 19.0803 107.901 19.4253 108.011 19.7653H108.071C108.181 19.4353 108.286 19.0903 108.386 18.7303C108.486 18.3703 108.586 18.0303 108.686 17.7103L109.991 13.6753H111.191L108.446 21.5653C108.316 21.9253 108.171 22.2603 108.011 22.5703C107.851 22.8803 107.661 23.1453 107.441 23.3653C107.221 23.5953 106.971 23.7753 106.691 23.9053C106.411 24.0353 106.086 24.1003 105.716 24.1003ZM114.971 20.9653V20.2303C115.691 19.5103 116.331 18.8603 116.891 18.2803C117.451 17.7003 117.921 17.1653 118.301 16.6753C118.681 16.1753 118.971 15.7203 119.171 15.3103C119.371 14.8903 119.471 14.4853 119.471 14.0953C119.471 13.5453 119.321 13.0953 119.021 12.7453C118.721 12.3953 118.266 12.2203 117.656 12.2203C117.256 12.2203 116.886 12.3353 116.546 12.5653C116.206 12.7853 115.896 13.0553 115.616 13.3753L114.911 12.6703C115.311 12.2303 115.736 11.8803 116.186 11.6203C116.636 11.3503 117.176 11.2153 117.806 11.2153C118.696 11.2153 119.396 11.4753 119.906 11.9953C120.416 12.5053 120.671 13.1853 120.671 14.0353C120.671 14.4853 120.571 14.9403 120.371 15.4003C120.181 15.8503 119.911 16.3203 119.561 16.8103C119.221 17.2903 118.811 17.7953 118.331 18.3253C117.861 18.8453 117.341 19.4003 116.771 19.9903C117.031 19.9703 117.301 19.9503 117.581 19.9303C117.861 19.9103 118.126 19.9003 118.376 19.9003H121.151V20.9653H114.971ZM125.562 21.1453C124.592 21.1453 123.837 20.7153 123.297 19.8553C122.757 18.9953 122.487 17.7603 122.487 16.1503C122.487 14.5403 122.757 13.3153 123.297 12.4753C123.837 11.6353 124.592 11.2153 125.562 11.2153C126.522 11.2153 127.272 11.6353 127.812 12.4753C128.352 13.3153 128.622 14.5403 128.622 16.1503C128.622 17.7603 128.352 18.9953 127.812 19.8553C127.272 20.7153 126.522 21.1453 125.562 21.1453ZM125.562 20.1553C125.842 20.1553 126.092 20.0803 126.312 19.9303C126.542 19.7703 126.737 19.5303 126.897 19.2103C127.067 18.8803 127.197 18.4653 127.287 17.9653C127.377 17.4553 127.422 16.8503 127.422 16.1503C127.422 15.4503 127.377 14.8503 127.287 14.3503C127.197 13.8503 127.067 13.4453 126.897 13.1353C126.737 12.8153 126.542 12.5803 126.312 12.4303C126.092 12.2803 125.842 12.2053 125.562 12.2053C125.282 12.2053 125.027 12.2803 124.797 12.4303C124.567 12.5803 124.367 12.8153 124.197 13.1353C124.037 13.4453 123.912 13.8503 123.822 14.3503C123.732 14.8503 123.687 15.4503 123.687 16.1503C123.687 17.5503 123.857 18.5703 124.197 19.2103C124.547 19.8403 125.002 20.1553 125.562 20.1553ZM129.883 20.9653V20.2303C130.603 19.5103 131.243 18.8603 131.803 18.2803C132.363 17.7003 132.833 17.1653 133.213 16.6753C133.593 16.1753 133.883 15.7203 134.083 15.3103C134.283 14.8903 134.383 14.4853 134.383 14.0953C134.383 13.5453 134.233 13.0953 133.933 12.7453C133.633 12.3953 133.178 12.2203 132.568 12.2203C132.168 12.2203 131.798 12.3353 131.458 12.5653C131.118 12.7853 130.808 13.0553 130.528 13.3753L129.823 12.6703C130.223 12.2303 130.648 11.8803 131.098 11.6203C131.548 11.3503 132.088 11.2153 132.718 11.2153C133.608 11.2153 134.308 11.4753 134.818 11.9953C135.328 12.5053 135.583 13.1853 135.583 14.0353C135.583 14.4853 135.483 14.9403 135.283 15.4003C135.093 15.8503 134.823 16.3203 134.473 16.8103C134.133 17.2903 133.723 17.7953 133.243 18.3253C132.773 18.8453 132.253 19.4003 131.683 19.9903C131.943 19.9703 132.213 19.9503 132.493 19.9303C132.773 19.9103 133.038 19.9003 133.288 19.9003H136.063V20.9653H129.883ZM140.474 21.1453C139.504 21.1453 138.749 20.7153 138.209 19.8553C137.669 18.9953 137.399 17.7603 137.399 16.1503C137.399 14.5403 137.669 13.3153 138.209 12.4753C138.749 11.6353 139.504 11.2153 140.474 11.2153C141.434 11.2153 142.184 11.6353 142.724 12.4753C143.264 13.3153 143.534 14.5403 143.534 16.1503C143.534 17.7603 143.264 18.9953 142.724 19.8553C142.184 20.7153 141.434 21.1453 140.474 21.1453ZM140.474 20.1553C140.754 20.1553 141.004 20.0803 141.224 19.9303C141.454 19.7703 141.649 19.5303 141.809 19.2103C141.979 18.8803 142.109 18.4653 142.199 17.9653C142.289 17.4553 142.334 16.8503 142.334 16.1503C142.334 15.4503 142.289 14.8503 142.199 14.3503C142.109 13.8503 141.979 13.4453 141.809 13.1353C141.649 12.8153 141.454 12.5803 141.224 12.4303C141.004 12.2803 140.754 12.2053 140.474 12.2053C140.194 12.2053 139.939 12.2803 139.709 12.4303C139.479 12.5803 139.279 12.8153 139.109 13.1353C138.949 13.4453 138.824 13.8503 138.734 14.3503C138.644 14.8503 138.599 15.4503 138.599 16.1503C138.599 17.5503 138.769 18.5703 139.109 19.2103C139.459 19.8403 139.914 20.1553 140.474 20.1553Z" fill="#212529"/>
<path d="M14.1698 62.1333C13.5258 62.1333 12.9285 62.012 12.3778 61.7693C11.8271 61.5267 11.3511 61.1953 10.9498 60.7753L11.6498 59.9633C11.9765 60.3087 12.3591 60.5887 12.7978 60.8033C13.2458 61.0087 13.7078 61.1113 14.1838 61.1113C14.7905 61.1113 15.2618 60.976 15.5978 60.7053C15.9338 60.4253 16.1018 60.0613 16.1018 59.6133C16.1018 59.38 16.0598 59.184 15.9758 59.0253C15.9011 58.8573 15.7938 58.7173 15.6538 58.6053C15.5232 58.484 15.3645 58.3767 15.1778 58.2833C14.9911 58.19 14.7905 58.092 14.5758 57.9893L13.2598 57.4153C13.0451 57.322 12.8258 57.21 12.6018 57.0793C12.3778 56.9487 12.1771 56.79 11.9998 56.6033C11.8225 56.4167 11.6778 56.1973 11.5658 55.9453C11.4538 55.684 11.3978 55.3853 11.3978 55.0493C11.3978 54.704 11.4678 54.382 11.6078 54.0833C11.7571 53.7847 11.9578 53.528 12.2098 53.3133C12.4711 53.0893 12.7745 52.9167 13.1198 52.7953C13.4745 52.674 13.8618 52.6133 14.2818 52.6133C14.8325 52.6133 15.3412 52.7207 15.8078 52.9353C16.2745 53.1407 16.6712 53.4113 16.9978 53.7473L16.3678 54.5033C16.0878 54.2327 15.7752 54.0227 15.4298 53.8733C15.0938 53.7147 14.7111 53.6353 14.2818 53.6353C13.7685 53.6353 13.3531 53.7567 13.0358 53.9993C12.7278 54.2327 12.5738 54.5593 12.5738 54.9793C12.5738 55.2033 12.6158 55.3947 12.6998 55.5533C12.7931 55.7027 12.9145 55.838 13.0638 55.9593C13.2131 56.0713 13.3765 56.174 13.5538 56.2673C13.7311 56.3513 13.9131 56.4307 14.0998 56.5053L15.4018 57.0653C15.6631 57.1773 15.9105 57.308 16.1438 57.4573C16.3772 57.5973 16.5778 57.7653 16.7458 57.9613C16.9138 58.148 17.0445 58.372 17.1378 58.6333C17.2405 58.8853 17.2918 59.1793 17.2918 59.5153C17.2918 59.8793 17.2172 60.22 17.0678 60.5373C16.9278 60.8547 16.7225 61.1347 16.4518 61.3773C16.1812 61.6107 15.8545 61.7973 15.4718 61.9373C15.0891 62.068 14.6551 62.1333 14.1698 62.1333ZM20.9763 62.1333C20.2483 62.1333 19.7163 61.9093 19.3803 61.4613C19.0537 61.0133 18.8903 60.3507 18.8903 59.4733V55.1613H20.0523V59.3193C20.0523 59.9633 20.1503 60.43 20.3463 60.7193C20.5517 60.9993 20.8783 61.1393 21.3263 61.1393C21.681 61.1393 21.9937 61.0507 22.2643 60.8733C22.535 60.6867 22.8337 60.3927 23.1603 59.9913V55.1613H24.3083V61.9653H23.3563L23.2583 60.9013H23.2163C22.899 61.2747 22.563 61.5733 22.2083 61.7973C21.863 62.0213 21.4523 62.1333 20.9763 62.1333Z" fill="#212529"/>
<path d="M47.2888 61.9653V52.7813H48.6888L50.4528 57.6813C50.5648 57.9987 50.6721 58.3207 50.7748 58.6473C50.8868 58.9647 50.9988 59.282 51.1108 59.5993H51.1668C51.2788 59.282 51.3815 58.9647 51.4748 58.6473C51.5775 58.3207 51.6848 57.9987 51.7968 57.6813L53.5328 52.7813H54.9468V61.9653H53.8548V56.9113C53.8548 56.5007 53.8735 56.048 53.9108 55.5533C53.9481 55.0587 53.9808 54.606 54.0088 54.1953H53.9528L53.2248 56.2813L51.4888 61.0413H50.7188L48.9828 56.2813L48.2548 54.1953H48.1988C48.2268 54.606 48.2548 55.0587 48.2828 55.5533C48.3201 56.048 48.3388 56.5007 48.3388 56.9113V61.9653H47.2888ZM59.9947 62.1333C59.5747 62.1333 59.1734 62.054 58.7907 61.8953C58.4174 61.7367 58.086 61.508 57.7967 61.2093C57.5074 60.9013 57.274 60.528 57.0967 60.0893C56.9287 59.6413 56.8447 59.1373 56.8447 58.5773C56.8447 58.008 56.9287 57.504 57.0967 57.0653C57.274 56.6173 57.5074 56.2393 57.7967 55.9313C58.086 55.6233 58.4174 55.39 58.7907 55.2313C59.1734 55.0727 59.5747 54.9933 59.9947 54.9933C60.4147 54.9933 60.8114 55.0727 61.1847 55.2313C61.5674 55.39 61.9034 55.6233 62.1927 55.9313C62.482 56.2393 62.7107 56.6173 62.8787 57.0653C63.056 57.504 63.1447 58.008 63.1447 58.5773C63.1447 59.1373 63.056 59.6413 62.8787 60.0893C62.7107 60.528 62.482 60.9013 62.1927 61.2093C61.9034 61.508 61.5674 61.7367 61.1847 61.8953C60.8114 62.054 60.4147 62.1333 59.9947 62.1333ZM59.9947 61.1813C60.284 61.1813 60.55 61.1207 60.7927 60.9993C61.0354 60.8687 61.2407 60.6913 61.4087 60.4673C61.586 60.234 61.7214 59.9587 61.8147 59.6413C61.908 59.324 61.9547 58.9693 61.9547 58.5773C61.9547 58.1853 61.908 57.8307 61.8147 57.5133C61.7214 57.1867 61.586 56.9067 61.4087 56.6733C61.2407 56.44 61.0354 56.2627 60.7927 56.1413C60.55 56.0107 60.284 55.9453 59.9947 55.9453C59.7054 55.9453 59.4394 56.0107 59.1967 56.1413C58.954 56.2627 58.744 56.44 58.5667 56.6733C58.3987 56.9067 58.268 57.1867 58.1747 57.5133C58.0814 57.8307 58.0347 58.1853 58.0347 58.5773C58.0347 58.9693 58.0814 59.324 58.1747 59.6413C58.268 59.9587 58.3987 60.234 58.5667 60.4673C58.744 60.6913 58.954 60.8687 59.1967 60.9993C59.4394 61.1207 59.7054 61.1813 59.9947 61.1813Z" fill="#212529"/>
<path d="M85.3334 61.9653V53.7613H82.5614V52.7813H89.2814V53.7613H86.5094V61.9653H85.3334ZM92.1687 62.1333C91.4407 62.1333 90.9087 61.9093 90.5727 61.4613C90.246 61.0133 90.0827 60.3507 90.0827 59.4733V55.1613H91.2447V59.3193C91.2447 59.9633 91.3427 60.43 91.5387 60.7193C91.744 60.9993 92.0707 61.1393 92.5187 61.1393C92.8734 61.1393 93.186 61.0507 93.4567 60.8733C93.7274 60.6867 94.026 60.3927 94.3527 59.9913V55.1613H95.5007V61.9653H94.5487L94.4507 60.9013H94.4087C94.0914 61.2747 93.7554 61.5733 93.4007 61.7973C93.0554 62.0213 92.6447 62.1333 92.1687 62.1333Z" fill="#212529"/>
<path d="M118.201 61.9653L116.255 52.7813H117.459L118.425 57.7793C118.509 58.2833 118.598 58.778 118.691 59.2633C118.784 59.7487 118.873 60.2433 118.957 60.7473H119.013C119.116 60.2433 119.223 59.7487 119.335 59.2633C119.447 58.7687 119.554 58.274 119.657 57.7793L120.931 52.7813H121.995L123.269 57.7793C123.381 58.2647 123.493 58.7547 123.605 59.2493C123.717 59.744 123.829 60.2433 123.941 60.7473H123.997C124.081 60.2433 124.165 59.7487 124.249 59.2633C124.333 58.7687 124.422 58.274 124.515 57.7793L125.481 52.7813H126.601L124.697 61.9653H123.297L121.911 56.4353C121.827 56.0807 121.748 55.7353 121.673 55.3993C121.608 55.054 121.538 54.704 121.463 54.3493H121.407C121.332 54.704 121.253 55.054 121.169 55.3993C121.094 55.7353 121.02 56.0807 120.945 56.4353L119.587 61.9653H118.201ZM130.845 62.1333C130.388 62.1333 129.958 62.054 129.557 61.8953C129.165 61.7273 128.82 61.494 128.521 61.1953C128.232 60.8873 128.003 60.514 127.835 60.0753C127.667 59.6367 127.583 59.1373 127.583 58.5773C127.583 58.0173 127.667 57.518 127.835 57.0793C128.012 56.6313 128.241 56.2533 128.521 55.9453C128.81 55.6373 129.137 55.404 129.501 55.2453C129.865 55.0773 130.243 54.9933 130.635 54.9933C131.064 54.9933 131.447 55.068 131.783 55.2173C132.128 55.3667 132.413 55.5813 132.637 55.8613C132.87 56.1413 133.048 56.4773 133.169 56.8693C133.29 57.2613 133.351 57.7 133.351 58.1853C133.351 58.3067 133.346 58.428 133.337 58.5493C133.337 58.6613 133.328 58.7593 133.309 58.8433H128.717C128.764 59.5713 128.988 60.15 129.389 60.5793C129.8 60.9993 130.332 61.2093 130.985 61.2093C131.312 61.2093 131.61 61.1627 131.881 61.0693C132.161 60.9667 132.427 60.836 132.679 60.6773L133.085 61.4333C132.786 61.62 132.455 61.7833 132.091 61.9233C131.727 62.0633 131.312 62.1333 130.845 62.1333ZM128.703 58.0173H132.343C132.343 57.3267 132.194 56.804 131.895 56.4493C131.606 56.0853 131.195 55.9033 130.663 55.9033C130.42 55.9033 130.187 55.95 129.963 56.0433C129.748 56.1367 129.552 56.2767 129.375 56.4633C129.198 56.6407 129.048 56.86 128.927 57.1213C128.815 57.3827 128.74 57.6813 128.703 58.0173Z" fill="#212529"/>
<path d="M154.512 61.9653V53.7613H151.74V52.7813H158.46V53.7613H155.688V61.9653H154.512ZM160.002 61.9653V51.9973H161.15V54.7133L161.108 56.1133C161.435 55.8053 161.775 55.544 162.13 55.3293C162.485 55.1053 162.9 54.9933 163.376 54.9933C164.095 54.9933 164.617 55.2173 164.944 55.6653C165.28 56.1133 165.448 56.776 165.448 57.6533V61.9653H164.3V57.8073C164.3 57.1633 164.197 56.7013 163.992 56.4213C163.787 56.132 163.46 55.9873 163.012 55.9873C162.657 55.9873 162.345 56.076 162.074 56.2533C161.803 56.4307 161.495 56.692 161.15 57.0373V61.9653H160.002Z" fill="#212529"/>
<path d="M187.42 61.9653V52.7813H192.712V53.7613H188.582V56.8693H192.082V57.8493H188.582V61.9653H187.42ZM193.952 61.9653V55.1613H194.904L195.002 56.3933H195.044C195.278 55.964 195.558 55.6233 195.884 55.3713C196.22 55.1193 196.584 54.9933 196.976 54.9933C197.247 54.9933 197.49 55.04 197.704 55.1333L197.48 56.1413C197.368 56.104 197.266 56.076 197.172 56.0573C197.079 56.0387 196.962 56.0293 196.822 56.0293C196.533 56.0293 196.23 56.146 195.912 56.3793C195.604 56.6127 195.334 57.0187 195.1 57.5973V61.9653H193.952Z" fill="#212529"/>
<path d="M222.95 62.1333C222.306 62.1333 221.709 62.012 221.158 61.7693C220.607 61.5267 220.131 61.1953 219.73 60.7753L220.43 59.9633C220.757 60.3087 221.139 60.5887 221.578 60.8033C222.026 61.0087 222.488 61.1113 222.964 61.1113C223.571 61.1113 224.042 60.976 224.378 60.7053C224.714 60.4253 224.882 60.0613 224.882 59.6133C224.882 59.38 224.84 59.184 224.756 59.0253C224.681 58.8573 224.574 58.7173 224.434 58.6053C224.303 58.484 224.145 58.3767 223.958 58.2833C223.771 58.19 223.571 58.092 223.356 57.9893L222.04 57.4153C221.825 57.322 221.606 57.21 221.382 57.0793C221.158 56.9487 220.957 56.79 220.78 56.6033C220.603 56.4167 220.458 56.1973 220.346 55.9453C220.234 55.684 220.178 55.3853 220.178 55.0493C220.178 54.704 220.248 54.382 220.388 54.0833C220.537 53.7847 220.738 53.528 220.99 53.3133C221.251 53.0893 221.555 52.9167 221.9 52.7953C222.255 52.674 222.642 52.6133 223.062 52.6133C223.613 52.6133 224.121 52.7207 224.588 52.9353C225.055 53.1407 225.451 53.4113 225.778 53.7473L225.148 54.5033C224.868 54.2327 224.555 54.0227 224.21 53.8733C223.874 53.7147 223.491 53.6353 223.062 53.6353C222.549 53.6353 222.133 53.7567 221.816 53.9993C221.508 54.2327 221.354 54.5593 221.354 54.9793C221.354 55.2033 221.396 55.3947 221.48 55.5533C221.573 55.7027 221.695 55.838 221.844 55.9593C221.993 56.0713 222.157 56.174 222.334 56.2673C222.511 56.3513 222.693 56.4307 222.88 56.5053L224.182 57.0653C224.443 57.1773 224.691 57.308 224.924 57.4573C225.157 57.5973 225.358 57.7653 225.526 57.9613C225.694 58.148 225.825 58.372 225.918 58.6333C226.021 58.8853 226.072 59.1793 226.072 59.5153C226.072 59.8793 225.997 60.22 225.848 60.5373C225.708 60.8547 225.503 61.1347 225.232 61.3773C224.961 61.6107 224.635 61.7973 224.252 61.9373C223.869 62.068 223.435 62.1333 222.95 62.1333ZM229.337 62.1333C228.767 62.1333 228.291 61.9653 227.909 61.6293C227.535 61.2933 227.349 60.8173 227.349 60.2013C227.349 59.4547 227.68 58.8853 228.343 58.4933C229.005 58.092 230.065 57.812 231.521 57.6533C231.521 57.4387 231.497 57.2287 231.451 57.0233C231.413 56.818 231.343 56.636 231.241 56.4773C231.138 56.3187 230.993 56.1927 230.807 56.0993C230.629 55.9967 230.401 55.9453 230.121 55.9453C229.729 55.9453 229.36 56.02 229.015 56.1693C228.669 56.3187 228.361 56.4867 228.091 56.6733L227.643 55.8753C227.96 55.67 228.347 55.474 228.805 55.2873C229.262 55.0913 229.766 54.9933 230.317 54.9933C231.147 54.9933 231.749 55.25 232.123 55.7633C232.496 56.2673 232.683 56.944 232.683 57.7933V61.9653H231.731L231.633 61.1533H231.591C231.264 61.424 230.914 61.6573 230.541 61.8533C230.167 62.04 229.766 62.1333 229.337 62.1333ZM229.673 61.2093C229.999 61.2093 230.307 61.1347 230.597 60.9853C230.886 60.8267 231.194 60.598 231.521 60.2993V58.4093C230.951 58.484 230.471 58.5727 230.079 58.6753C229.696 58.778 229.383 58.8993 229.141 59.0393C228.907 59.1793 228.735 59.3427 228.623 59.5293C228.52 59.7067 228.469 59.9027 228.469 60.1173C228.469 60.5093 228.585 60.7893 228.819 60.9573C229.052 61.1253 229.337 61.2093 229.673 61.2093Z" fill="#212529"/>
<path d="M11.5097 96.9653V96.2793C12.1817 95.6073 12.779 95.0007 13.3017 94.4593C13.8244 93.918 14.263 93.4187 14.6177 92.9613C14.9724 92.4947 15.243 92.07 15.4297 91.6873C15.6164 91.2953 15.7097 90.9173 15.7097 90.5533C15.7097 90.04 15.5697 89.62 15.2897 89.2933C15.0097 88.9667 14.585 88.8033 14.0157 88.8033C13.6424 88.8033 13.297 88.9107 12.9797 89.1253C12.6624 89.3307 12.373 89.5827 12.1117 89.8813L11.4537 89.2233C11.827 88.8127 12.2237 88.486 12.6437 88.2433C13.0637 87.9913 13.5677 87.8653 14.1557 87.8653C14.9864 87.8653 15.6397 88.108 16.1157 88.5933C16.5917 89.0693 16.8297 89.704 16.8297 90.4973C16.8297 90.9173 16.7364 91.342 16.5497 91.7713C16.3724 92.1913 16.1204 92.63 15.7937 93.0873C15.4764 93.5353 15.0937 94.0067 14.6457 94.5013C14.207 94.9867 13.7217 95.5047 13.1897 96.0553C13.4324 96.0367 13.6844 96.018 13.9457 95.9993C14.207 95.9807 14.4544 95.9713 14.6877 95.9713H17.2777V96.9653H11.5097ZM21.1987 92.6253C21.4974 92.6253 21.81 92.532 22.1367 92.3453C22.4727 92.1587 22.7854 91.8553 23.0747 91.4353C23 90.558 22.7947 89.8953 22.4587 89.4473C22.1227 88.9993 21.67 88.7753 21.1007 88.7753C20.886 88.7753 20.6807 88.822 20.4847 88.9153C20.298 89.0087 20.1347 89.144 19.9947 89.3213C19.8547 89.4893 19.7427 89.6947 19.6587 89.9373C19.584 90.18 19.5467 90.446 19.5467 90.7353C19.5467 91.3233 19.682 91.7853 19.9527 92.1213C20.2234 92.4573 20.6387 92.6253 21.1987 92.6253ZM20.7787 97.1333C20.3027 97.1333 19.8827 97.0447 19.5187 96.8673C19.164 96.69 18.8654 96.466 18.6227 96.1953L19.2667 95.4673C19.4534 95.682 19.6727 95.8547 19.9247 95.9853C20.186 96.116 20.4567 96.1813 20.7367 96.1813C21.054 96.1813 21.3527 96.116 21.6327 95.9853C21.9127 95.8547 22.16 95.64 22.3747 95.3413C22.5894 95.0333 22.762 94.6367 22.8927 94.1513C23.0234 93.666 23.0934 93.064 23.1027 92.3453C22.8227 92.7 22.496 92.98 22.1227 93.1853C21.7494 93.3907 21.376 93.4933 21.0027 93.4933C20.228 93.4933 19.612 93.2647 19.1547 92.8073C18.6974 92.35 18.4687 91.6593 18.4687 90.7353C18.4687 90.306 18.5387 89.9187 18.6787 89.5733C18.8187 89.2187 19.0054 88.9153 19.2387 88.6633C19.4814 88.4113 19.7614 88.2153 20.0787 88.0753C20.4054 87.9353 20.746 87.8653 21.1007 87.8653C21.5394 87.8653 21.9454 87.954 22.3187 88.1313C22.7014 88.3087 23.028 88.5793 23.2987 88.9433C23.5787 89.298 23.7934 89.746 23.9427 90.2873C24.1014 90.8193 24.1807 91.4447 24.1807 92.1633C24.1807 93.0593 24.0874 93.8247 23.9007 94.4593C23.714 95.0847 23.462 95.598 23.1447 95.9993C22.8274 96.3913 22.4634 96.6807 22.0527 96.8673C21.6514 97.0447 21.2267 97.1333 20.7787 97.1333Z" fill="#808181"/>
<path d="M51.2537 97.1333C50.899 97.1333 50.5724 97.096 50.2737 97.0213C49.9844 96.956 49.7184 96.8673 49.4757 96.7553C49.233 96.634 49.0137 96.4987 48.8177 96.3493C48.631 96.2 48.463 96.0413 48.3137 95.8733L48.9017 95.1173C49.1724 95.3973 49.485 95.6447 49.8397 95.8593C50.2037 96.074 50.6517 96.1813 51.1837 96.1813C51.725 96.1813 52.1684 96.0367 52.5137 95.7473C52.859 95.4487 53.0317 95.0473 53.0317 94.5433C53.0317 94.282 52.9804 94.044 52.8777 93.8293C52.7844 93.6053 52.6257 93.414 52.4017 93.2553C52.1777 93.0967 51.8837 92.9753 51.5197 92.8913C51.1557 92.8073 50.7077 92.7653 50.1757 92.7653V91.8833C50.6517 91.8833 51.0484 91.8413 51.3657 91.7573C51.6924 91.6733 51.9537 91.5567 52.1497 91.4073C52.355 91.258 52.4997 91.0807 52.5837 90.8753C52.6677 90.67 52.7097 90.4507 52.7097 90.2173C52.7097 89.7787 52.5697 89.4333 52.2897 89.1813C52.019 88.9293 51.6457 88.8033 51.1697 88.8033C50.7964 88.8033 50.451 88.8873 50.1337 89.0553C49.8257 89.2233 49.5364 89.4427 49.2657 89.7133L48.6497 88.9853C48.995 88.6587 49.373 88.3927 49.7837 88.1873C50.2037 87.9727 50.6797 87.8653 51.2117 87.8653C51.6037 87.8653 51.963 87.9167 52.2897 88.0193C52.6164 88.122 52.8964 88.2713 53.1297 88.4673C53.3724 88.654 53.559 88.8873 53.6897 89.1673C53.8204 89.4473 53.8857 89.7693 53.8857 90.1333C53.8857 90.6747 53.7364 91.118 53.4377 91.4633C53.139 91.8087 52.747 92.0747 52.2617 92.2613V92.3173C52.5324 92.3827 52.7844 92.4807 53.0177 92.6113C53.251 92.7327 53.4564 92.8913 53.6337 93.0873C53.811 93.274 53.9464 93.4933 54.0397 93.7453C54.1424 93.9973 54.1937 94.2773 54.1937 94.5853C54.1937 94.9773 54.1144 95.332 53.9557 95.6493C53.8064 95.9667 53.5964 96.2373 53.3257 96.4613C53.0644 96.676 52.7564 96.844 52.4017 96.9653C52.047 97.0773 51.6644 97.1333 51.2537 97.1333ZM58.3947 97.1333C57.4894 97.1333 56.7847 96.732 56.2807 95.9293C55.7767 95.1267 55.5247 93.974 55.5247 92.4713C55.5247 90.9687 55.7767 89.8253 56.2807 89.0413C56.7847 88.2573 57.4894 87.8653 58.3947 87.8653C59.2907 87.8653 59.9907 88.2573 60.4947 89.0413C60.9987 89.8253 61.2507 90.9687 61.2507 92.4713C61.2507 93.974 60.9987 95.1267 60.4947 95.9293C59.9907 96.732 59.2907 97.1333 58.3947 97.1333ZM58.3947 96.2093C58.656 96.2093 58.8894 96.1393 59.0947 95.9993C59.3094 95.85 59.4914 95.626 59.6407 95.3273C59.7994 95.0193 59.9207 94.632 60.0047 94.1653C60.0887 93.6893 60.1307 93.1247 60.1307 92.4713C60.1307 91.818 60.0887 91.258 60.0047 90.7913C59.9207 90.3247 59.7994 89.9467 59.6407 89.6573C59.4914 89.3587 59.3094 89.1393 59.0947 88.9993C58.8894 88.8593 58.656 88.7893 58.3947 88.7893C58.1334 88.7893 57.8954 88.8593 57.6807 88.9993C57.466 89.1393 57.2794 89.3587 57.1207 89.6573C56.9714 89.9467 56.8547 90.3247 56.7707 90.7913C56.6867 91.258 56.6447 91.818 56.6447 92.4713C56.6447 93.778 56.8034 94.73 57.1207 95.3273C57.4474 95.9153 57.872 96.2093 58.3947 96.2093Z" fill="#808181"/>
<path d="M87.0352 96.9653V96.0133H89.0792V89.4333H87.4552V88.6913C87.8659 88.6167 88.2205 88.528 88.5192 88.4253C88.8272 88.3133 89.1025 88.1827 89.3452 88.0333H90.2272V96.0133H92.0752V96.9653H87.0352Z" fill="#808181"/>
<path d="M121.489 96.9653V96.2793C122.161 95.6073 122.759 95.0007 123.281 94.4593C123.804 93.918 124.243 93.4187 124.597 92.9613C124.952 92.4947 125.223 92.07 125.409 91.6873C125.596 91.2953 125.689 90.9173 125.689 90.5533C125.689 90.04 125.549 89.62 125.269 89.2933C124.989 88.9667 124.565 88.8033 123.995 88.8033C123.622 88.8033 123.277 88.9107 122.959 89.1253C122.642 89.3307 122.353 89.5827 122.091 89.8813L121.433 89.2233C121.807 88.8127 122.203 88.486 122.623 88.2433C123.043 87.9913 123.547 87.8653 124.135 87.8653C124.966 87.8653 125.619 88.108 126.095 88.5933C126.571 89.0693 126.809 89.704 126.809 90.4973C126.809 90.9173 126.716 91.342 126.529 91.7713C126.352 92.1913 126.1 92.63 125.773 93.0873C125.456 93.5353 125.073 94.0067 124.625 94.5013C124.187 94.9867 123.701 95.5047 123.169 96.0553C123.412 96.0367 123.664 96.018 123.925 95.9993C124.187 95.9807 124.434 95.9713 124.667 95.9713H127.257V96.9653H121.489Z" fill="#808181"/>
<path d="M158.233 97.1333C157.879 97.1333 157.552 97.096 157.253 97.0213C156.964 96.956 156.698 96.8673 156.455 96.7553C156.213 96.634 155.993 96.4987 155.797 96.3493C155.611 96.2 155.443 96.0413 155.293 95.8733L155.881 95.1173C156.152 95.3973 156.465 95.6447 156.819 95.8593C157.183 96.074 157.631 96.1813 158.163 96.1813C158.705 96.1813 159.148 96.0367 159.493 95.7473C159.839 95.4487 160.011 95.0473 160.011 94.5433C160.011 94.282 159.96 94.044 159.857 93.8293C159.764 93.6053 159.605 93.414 159.381 93.2553C159.157 93.0967 158.863 92.9753 158.499 92.8913C158.135 92.8073 157.687 92.7653 157.155 92.7653V91.8833C157.631 91.8833 158.028 91.8413 158.345 91.7573C158.672 91.6733 158.933 91.5567 159.129 91.4073C159.335 91.258 159.479 91.0807 159.563 90.8753C159.647 90.67 159.689 90.4507 159.689 90.2173C159.689 89.7787 159.549 89.4333 159.269 89.1813C158.999 88.9293 158.625 88.8033 158.149 88.8033C157.776 88.8033 157.431 88.8873 157.113 89.0553C156.805 89.2233 156.516 89.4427 156.245 89.7133L155.629 88.9853C155.975 88.6587 156.353 88.3927 156.763 88.1873C157.183 87.9727 157.659 87.8653 158.191 87.8653C158.583 87.8653 158.943 87.9167 159.269 88.0193C159.596 88.122 159.876 88.2713 160.109 88.4673C160.352 88.654 160.539 88.8873 160.669 89.1673C160.8 89.4473 160.865 89.7693 160.865 90.1333C160.865 90.6747 160.716 91.118 160.417 91.4633C160.119 91.8087 159.727 92.0747 159.241 92.2613V92.3173C159.512 92.3827 159.764 92.4807 159.997 92.6113C160.231 92.7327 160.436 92.8913 160.613 93.0873C160.791 93.274 160.926 93.4933 161.019 93.7453C161.122 93.9973 161.173 94.2773 161.173 94.5853C161.173 94.9773 161.094 95.332 160.935 95.6493C160.786 95.9667 160.576 96.2373 160.305 96.4613C160.044 96.676 159.736 96.844 159.381 96.9653C159.027 97.0773 158.644 97.1333 158.233 97.1333Z" fill="#808181"/>
<path d="M193.185 96.9653V94.5013H189.167V93.7453L192.989 88.0333H194.277V93.5773H195.495V94.5013H194.277V96.9653H193.185ZM190.385 93.5773H193.185V90.9873C193.185 90.7447 193.19 90.46 193.199 90.1333C193.218 89.7973 193.237 89.508 193.255 89.2653H193.199C193.087 89.48 192.971 89.69 192.849 89.8953C192.728 90.1007 192.602 90.3107 192.471 90.5253L190.385 93.5773Z" fill="#808181"/>
<path d="M226.205 97.1333C225.851 97.1333 225.524 97.096 225.225 97.0213C224.936 96.956 224.67 96.8673 224.427 96.7553C224.194 96.6433 223.979 96.5173 223.783 96.3773C223.597 96.228 223.429 96.074 223.279 95.9153L223.839 95.1593C224.101 95.43 224.409 95.668 224.763 95.8733C225.127 96.0787 225.571 96.1813 226.093 96.1813C226.364 96.1813 226.616 96.1347 226.849 96.0413C227.092 95.9387 227.302 95.7987 227.479 95.6213C227.657 95.444 227.797 95.2293 227.899 94.9773C228.002 94.7253 228.053 94.4453 228.053 94.1373C228.053 93.5213 227.881 93.0407 227.535 92.6953C227.19 92.35 226.728 92.1773 226.149 92.1773C225.841 92.1773 225.575 92.224 225.351 92.3173C225.137 92.4107 224.894 92.546 224.623 92.7233L224.007 92.3313L224.301 88.0333H228.767V89.0273H225.309L225.071 91.6733C225.286 91.5613 225.501 91.4727 225.715 91.4073C225.93 91.342 226.173 91.3093 226.443 91.3093C226.826 91.3093 227.185 91.3653 227.521 91.4773C227.857 91.5893 228.151 91.762 228.403 91.9953C228.655 92.2193 228.851 92.5087 228.991 92.8633C229.141 93.2087 229.215 93.624 229.215 94.1093C229.215 94.5947 229.131 95.024 228.963 95.3973C228.795 95.7707 228.571 96.088 228.291 96.3493C228.011 96.6013 227.689 96.7973 227.325 96.9373C226.971 97.068 226.597 97.1333 226.205 97.1333Z" fill="#808181"/>
<path d="M17.6812 129.133C17.2425 129.133 16.8365 129.045 16.4632 128.867C16.0899 128.69 15.7632 128.424 15.4832 128.069C15.2125 127.705 14.9979 127.257 14.8392 126.725C14.6805 126.184 14.6012 125.554 14.6012 124.835C14.6012 123.939 14.6945 123.179 14.8812 122.553C15.0679 121.919 15.3199 121.405 15.6372 121.013C15.9545 120.612 16.3139 120.323 16.7152 120.145C17.1259 119.959 17.5552 119.865 18.0032 119.865C18.4885 119.865 18.9039 119.959 19.2492 120.145C19.6039 120.323 19.9072 120.547 20.1592 120.817L19.5152 121.531C19.3285 121.317 19.1045 121.149 18.8432 121.027C18.5912 120.897 18.3252 120.831 18.0452 120.831C17.7372 120.831 17.4432 120.897 17.1632 121.027C16.8832 121.158 16.6359 121.373 16.4212 121.671C16.2065 121.97 16.0339 122.362 15.9032 122.847C15.7725 123.323 15.7025 123.916 15.6932 124.625C15.9732 124.28 16.2999 124.009 16.6732 123.813C17.0465 123.608 17.4152 123.505 17.7792 123.505C18.5539 123.505 19.1699 123.734 19.6272 124.191C20.0939 124.649 20.3272 125.339 20.3272 126.263C20.3272 126.693 20.2572 127.085 20.1172 127.439C19.9772 127.785 19.7859 128.083 19.5432 128.335C19.3005 128.587 19.0205 128.783 18.7032 128.923C18.3859 129.063 18.0452 129.133 17.6812 129.133ZM17.6812 128.223C17.9052 128.223 18.1105 128.177 18.2972 128.083C18.4839 127.99 18.6472 127.859 18.7872 127.691C18.9272 127.514 19.0345 127.309 19.1092 127.075C19.1932 126.833 19.2352 126.562 19.2352 126.263C19.2352 125.675 19.0999 125.213 18.8292 124.877C18.5585 124.541 18.1432 124.373 17.5832 124.373C17.2939 124.373 16.9812 124.467 16.6452 124.653C16.3092 124.831 16.0012 125.129 15.7212 125.549C15.7959 126.427 15.9965 127.094 16.3232 127.551C16.6592 127.999 17.1119 128.223 17.6812 128.223Z" fill="#808181"/>
<path d="M54.4072 128.965C54.4445 128.125 54.5192 127.355 54.6312 126.655C54.7432 125.955 54.8972 125.293 55.0932 124.667C55.2985 124.033 55.5552 123.421 55.8632 122.833C56.1805 122.245 56.5585 121.643 56.9972 121.027H52.5452V120.033H58.2992V120.747C57.7672 121.419 57.3332 122.063 56.9972 122.679C56.6705 123.295 56.4092 123.925 56.2132 124.569C56.0172 125.204 55.8725 125.881 55.7792 126.599C55.6952 127.309 55.6345 128.097 55.5972 128.965H54.4072Z" fill="#808181"/>
<path d="M89.4292 129.133C89.0092 129.133 88.6172 129.073 88.2532 128.951C87.8985 128.83 87.5905 128.662 87.3292 128.447C87.0772 128.223 86.8765 127.962 86.7272 127.663C86.5779 127.365 86.5032 127.038 86.5032 126.683C86.5032 126.394 86.5499 126.128 86.6432 125.885C86.7459 125.633 86.8719 125.409 87.0212 125.213C87.1799 125.008 87.3572 124.831 87.5532 124.681C87.7585 124.523 87.9685 124.387 88.1832 124.275V124.219C87.8565 123.986 87.5672 123.706 87.3152 123.379C87.0632 123.043 86.9372 122.637 86.9372 122.161C86.9372 121.816 87.0025 121.503 87.1332 121.223C87.2639 120.943 87.4412 120.705 87.6652 120.509C87.8892 120.304 88.1552 120.145 88.4632 120.033C88.7712 119.921 89.1072 119.865 89.4712 119.865C89.8632 119.865 90.2132 119.926 90.5212 120.047C90.8292 120.159 91.0905 120.323 91.3052 120.537C91.5292 120.743 91.6972 120.995 91.8092 121.293C91.9305 121.583 91.9912 121.9 91.9912 122.245C91.9912 122.479 91.9492 122.703 91.8652 122.917C91.7905 123.132 91.6925 123.333 91.5712 123.519C91.4592 123.706 91.3285 123.874 91.1792 124.023C91.0392 124.173 90.8992 124.299 90.7592 124.401V124.457C90.9552 124.569 91.1465 124.7 91.3332 124.849C91.5199 124.989 91.6832 125.153 91.8232 125.339C91.9725 125.517 92.0892 125.722 92.1732 125.955C92.2665 126.189 92.3132 126.455 92.3132 126.753C92.3132 127.089 92.2432 127.402 92.1032 127.691C91.9632 127.981 91.7672 128.233 91.5152 128.447C91.2632 128.662 90.9599 128.83 90.6052 128.951C90.2505 129.073 89.8585 129.133 89.4292 129.133ZM90.0592 124.093C90.3579 123.823 90.5865 123.538 90.7452 123.239C90.9132 122.941 90.9972 122.628 90.9972 122.301C90.9972 121.853 90.8619 121.48 90.5912 121.181C90.3205 120.873 89.9379 120.719 89.4432 120.719C89.0232 120.719 88.6779 120.85 88.4072 121.111C88.1365 121.373 88.0012 121.723 88.0012 122.161C88.0012 122.432 88.0572 122.665 88.1692 122.861C88.2812 123.048 88.4305 123.216 88.6172 123.365C88.8132 123.515 89.0325 123.65 89.2752 123.771C89.5272 123.883 89.7885 123.991 90.0592 124.093ZM89.4572 128.279C89.9799 128.279 90.3999 128.135 90.7172 127.845C91.0439 127.556 91.2072 127.178 91.2072 126.711C91.2072 126.422 91.1419 126.175 91.0112 125.969C90.8805 125.764 90.7032 125.587 90.4792 125.437C90.2552 125.279 89.9939 125.139 89.6952 125.017C89.4059 124.887 89.1025 124.756 88.7852 124.625C88.4305 124.868 88.1319 125.153 87.8892 125.479C87.6559 125.797 87.5392 126.161 87.5392 126.571C87.5392 126.823 87.5859 127.052 87.6792 127.257C87.7819 127.463 87.9172 127.645 88.0852 127.803C88.2625 127.953 88.4679 128.069 88.7012 128.153C88.9345 128.237 89.1865 128.279 89.4572 128.279Z" fill="#808181"/>
<path d="M124.219 124.625C124.518 124.625 124.831 124.532 125.157 124.345C125.493 124.159 125.806 123.855 126.095 123.435C126.021 122.558 125.815 121.895 125.479 121.447C125.143 120.999 124.691 120.775 124.121 120.775C123.907 120.775 123.701 120.822 123.505 120.915C123.319 121.009 123.155 121.144 123.015 121.321C122.875 121.489 122.763 121.695 122.679 121.937C122.605 122.18 122.567 122.446 122.567 122.735C122.567 123.323 122.703 123.785 122.973 124.121C123.244 124.457 123.659 124.625 124.219 124.625ZM123.799 129.133C123.323 129.133 122.903 129.045 122.539 128.867C122.185 128.69 121.886 128.466 121.643 128.195L122.287 127.467C122.474 127.682 122.693 127.855 122.945 127.985C123.207 128.116 123.477 128.181 123.757 128.181C124.075 128.181 124.373 128.116 124.653 127.985C124.933 127.855 125.181 127.64 125.395 127.341C125.61 127.033 125.783 126.637 125.913 126.151C126.044 125.666 126.114 125.064 126.123 124.345C125.843 124.7 125.517 124.98 125.143 125.185C124.77 125.391 124.397 125.493 124.023 125.493C123.249 125.493 122.633 125.265 122.175 124.807C121.718 124.35 121.489 123.659 121.489 122.735C121.489 122.306 121.559 121.919 121.699 121.573C121.839 121.219 122.026 120.915 122.259 120.663C122.502 120.411 122.782 120.215 123.099 120.075C123.426 119.935 123.767 119.865 124.121 119.865C124.56 119.865 124.966 119.954 125.339 120.131C125.722 120.309 126.049 120.579 126.319 120.943C126.599 121.298 126.814 121.746 126.963 122.287C127.122 122.819 127.201 123.445 127.201 124.163C127.201 125.059 127.108 125.825 126.921 126.459C126.735 127.085 126.483 127.598 126.165 127.999C125.848 128.391 125.484 128.681 125.073 128.867C124.672 129.045 124.247 129.133 123.799 129.133Z" fill="#808181"/>
<path d="M153.056 128.965V128.013H155.1V121.433H153.476V120.691C153.886 120.617 154.241 120.528 154.54 120.425C154.848 120.313 155.123 120.183 155.366 120.033H156.248V128.013H158.096V128.965H153.056ZM162.395 129.133C161.489 129.133 160.785 128.732 160.281 127.929C159.777 127.127 159.525 125.974 159.525 124.471C159.525 122.969 159.777 121.825 160.281 121.041C160.785 120.257 161.489 119.865 162.395 119.865C163.291 119.865 163.991 120.257 164.495 121.041C164.999 121.825 165.251 122.969 165.251 124.471C165.251 125.974 164.999 127.127 164.495 127.929C163.991 128.732 163.291 129.133 162.395 129.133ZM162.395 128.209C162.656 128.209 162.889 128.139 163.095 127.999C163.309 127.85 163.491 127.626 163.641 127.327C163.799 127.019 163.921 126.632 164.005 126.165C164.089 125.689 164.131 125.125 164.131 124.471C164.131 123.818 164.089 123.258 164.005 122.791C163.921 122.325 163.799 121.947 163.641 121.657C163.491 121.359 163.309 121.139 163.095 120.999C162.889 120.859 162.656 120.789 162.395 120.789C162.133 120.789 161.895 120.859 161.681 120.999C161.466 121.139 161.279 121.359 161.121 121.657C160.971 121.947 160.855 122.325 160.771 122.791C160.687 123.258 160.645 123.818 160.645 124.471C160.645 125.778 160.803 126.73 161.121 127.327C161.447 127.915 161.872 128.209 162.395 128.209Z" fill="#808181"/>
<path d="M186.056 128.965V128.013H188.1V121.433H186.476V120.691C186.886 120.617 187.241 120.528 187.54 120.425C187.848 120.313 188.123 120.183 188.366 120.033H189.248V128.013H191.096V128.965H186.056ZM193.015 128.965V128.013H195.059V121.433H193.435V120.691C193.845 120.617 194.2 120.528 194.499 120.425C194.807 120.313 195.082 120.183 195.325 120.033H196.207V128.013H198.055V128.965H193.015Z" fill="#808181"/>
<path d="M220.056 128.965V128.013H222.1V121.433H220.476V120.691C220.886 120.617 221.241 120.528 221.54 120.425C221.848 120.313 222.123 120.183 222.366 120.033H223.248V128.013H225.096V128.965H220.056ZM226.469 128.965V128.279C227.141 127.607 227.738 127.001 228.261 126.459C228.783 125.918 229.222 125.419 229.577 124.961C229.931 124.495 230.202 124.07 230.389 123.687C230.575 123.295 230.669 122.917 230.669 122.553C230.669 122.04 230.529 121.62 230.249 121.293C229.969 120.967 229.544 120.803 228.975 120.803C228.601 120.803 228.256 120.911 227.939 121.125C227.621 121.331 227.332 121.583 227.071 121.881L226.413 121.223C226.786 120.813 227.183 120.486 227.603 120.243C228.023 119.991 228.527 119.865 229.115 119.865C229.945 119.865 230.599 120.108 231.075 120.593C231.551 121.069 231.789 121.704 231.789 122.497C231.789 122.917 231.695 123.342 231.509 123.771C231.331 124.191 231.079 124.63 230.753 125.087C230.435 125.535 230.053 126.007 229.605 126.501C229.166 126.987 228.681 127.505 228.149 128.055C228.391 128.037 228.643 128.018 228.905 127.999C229.166 127.981 229.413 127.971 229.647 127.971H232.237V128.965H226.469Z" fill="#808181"/>
<path d="M12.0557 160.965V160.013H14.0997V153.433H12.4757V152.691C12.8864 152.617 13.241 152.528 13.5397 152.425C13.8477 152.313 14.123 152.183 14.3657 152.033H15.2477V160.013H17.0957V160.965H12.0557ZM21.2127 161.133C20.858 161.133 20.5314 161.096 20.2327 161.021C19.9434 160.956 19.6774 160.867 19.4347 160.755C19.192 160.634 18.9727 160.499 18.7767 160.349C18.59 160.2 18.422 160.041 18.2727 159.873L18.8607 159.117C19.1314 159.397 19.444 159.645 19.7987 159.859C20.1627 160.074 20.6107 160.181 21.1427 160.181C21.684 160.181 22.1274 160.037 22.4727 159.747C22.818 159.449 22.9907 159.047 22.9907 158.543C22.9907 158.282 22.9394 158.044 22.8367 157.829C22.7434 157.605 22.5847 157.414 22.3607 157.255C22.1367 157.097 21.8427 156.975 21.4787 156.891C21.1147 156.807 20.6667 156.765 20.1347 156.765V155.883C20.6107 155.883 21.0074 155.841 21.3247 155.757C21.6514 155.673 21.9127 155.557 22.1087 155.407C22.314 155.258 22.4587 155.081 22.5427 154.875C22.6267 154.67 22.6687 154.451 22.6687 154.217C22.6687 153.779 22.5287 153.433 22.2487 153.181C21.978 152.929 21.6047 152.803 21.1287 152.803C20.7554 152.803 20.41 152.887 20.0927 153.055C19.7847 153.223 19.4954 153.443 19.2247 153.713L18.6087 152.985C18.954 152.659 19.332 152.393 19.7427 152.187C20.1627 151.973 20.6387 151.865 21.1707 151.865C21.5627 151.865 21.922 151.917 22.2487 152.019C22.5754 152.122 22.8554 152.271 23.0887 152.467C23.3314 152.654 23.518 152.887 23.6487 153.167C23.7794 153.447 23.8447 153.769 23.8447 154.133C23.8447 154.675 23.6954 155.118 23.3967 155.463C23.098 155.809 22.706 156.075 22.2207 156.261V156.317C22.4914 156.383 22.7434 156.481 22.9767 156.611C23.21 156.733 23.4154 156.891 23.5927 157.087C23.77 157.274 23.9054 157.493 23.9987 157.745C24.1014 157.997 24.1527 158.277 24.1527 158.585C24.1527 158.977 24.0734 159.332 23.9147 159.649C23.7654 159.967 23.5554 160.237 23.2847 160.461C23.0234 160.676 22.7154 160.844 22.3607 160.965C22.006 161.077 21.6234 161.133 21.2127 161.133Z" fill="white"/>
<path d="M49.0557 160.965V160.013H51.0997V153.433H49.4757V152.691C49.8864 152.617 50.241 152.528 50.5397 152.425C50.8477 152.313 51.123 152.183 51.3657 152.033H52.2477V160.013H54.0957V160.965H49.0557ZM59.1647 160.965V158.501H55.1467V157.745L58.9687 152.033H60.2567V157.577H61.4747V158.501H60.2567V160.965H59.1647ZM56.3647 157.577H59.1647V154.987C59.1647 154.745 59.1694 154.46 59.1787 154.133C59.1974 153.797 59.216 153.508 59.2347 153.265H59.1787C59.0667 153.48 58.95 153.69 58.8287 153.895C58.7074 154.101 58.5814 154.311 58.4507 154.525L56.3647 157.577Z" fill="#808181"/>
<path d="M84.0557 160.965V160.013H86.0997V153.433H84.4757V152.691C84.8864 152.617 85.241 152.528 85.5397 152.425C85.8477 152.313 86.123 152.183 86.3657 152.033H87.2477V160.013H89.0957V160.965H84.0557ZM93.1847 161.133C92.83 161.133 92.5034 161.096 92.2047 161.021C91.9154 160.956 91.6494 160.867 91.4067 160.755C91.1734 160.643 90.9587 160.517 90.7627 160.377C90.576 160.228 90.408 160.074 90.2587 159.915L90.8187 159.159C91.08 159.43 91.388 159.668 91.7427 159.873C92.1067 160.079 92.55 160.181 93.0727 160.181C93.3434 160.181 93.5954 160.135 93.8287 160.041C94.0714 159.939 94.2814 159.799 94.4587 159.621C94.636 159.444 94.776 159.229 94.8787 158.977C94.9814 158.725 95.0327 158.445 95.0327 158.137C95.0327 157.521 94.86 157.041 94.5147 156.695C94.1694 156.35 93.7074 156.177 93.1287 156.177C92.8207 156.177 92.5547 156.224 92.3307 156.317C92.116 156.411 91.8734 156.546 91.6027 156.723L90.9867 156.331L91.2807 152.033H95.7467V153.027H92.2887L92.0507 155.673C92.2654 155.561 92.48 155.473 92.6947 155.407C92.9094 155.342 93.152 155.309 93.4227 155.309C93.8054 155.309 94.1647 155.365 94.5007 155.477C94.8367 155.589 95.1307 155.762 95.3827 155.995C95.6347 156.219 95.8307 156.509 95.9707 156.863C96.12 157.209 96.1947 157.624 96.1947 158.109C96.1947 158.595 96.1107 159.024 95.9427 159.397C95.7747 159.771 95.5507 160.088 95.2707 160.349C94.9907 160.601 94.6687 160.797 94.3047 160.937C93.95 161.068 93.5767 161.133 93.1847 161.133Z" fill="#808181"/>
<path d="M119.056 160.965V160.013H121.1V153.433H119.476V152.691C119.886 152.617 120.241 152.528 120.54 152.425C120.848 152.313 121.123 152.183 121.366 152.033H122.248V160.013H124.096V160.965H119.056ZM128.661 161.133C128.222 161.133 127.816 161.045 127.443 160.867C127.069 160.69 126.743 160.424 126.463 160.069C126.192 159.705 125.977 159.257 125.819 158.725C125.66 158.184 125.581 157.554 125.581 156.835C125.581 155.939 125.674 155.179 125.861 154.553C126.047 153.919 126.299 153.405 126.617 153.013C126.934 152.612 127.293 152.323 127.695 152.145C128.105 151.959 128.535 151.865 128.983 151.865C129.468 151.865 129.883 151.959 130.229 152.145C130.583 152.323 130.887 152.547 131.139 152.817L130.495 153.531C130.308 153.317 130.084 153.149 129.823 153.027C129.571 152.897 129.305 152.831 129.025 152.831C128.717 152.831 128.423 152.897 128.143 153.027C127.863 153.158 127.615 153.373 127.401 153.671C127.186 153.97 127.013 154.362 126.883 154.847C126.752 155.323 126.682 155.916 126.673 156.625C126.953 156.28 127.279 156.009 127.653 155.813C128.026 155.608 128.395 155.505 128.759 155.505C129.533 155.505 130.149 155.734 130.607 156.191C131.073 156.649 131.307 157.339 131.307 158.263C131.307 158.693 131.237 159.085 131.097 159.439C130.957 159.785 130.765 160.083 130.523 160.335C130.28 160.587 130 160.783 129.683 160.923C129.365 161.063 129.025 161.133 128.661 161.133ZM128.661 160.223C128.885 160.223 129.09 160.177 129.277 160.083C129.463 159.99 129.627 159.859 129.767 159.691C129.907 159.514 130.014 159.309 130.089 159.075C130.173 158.833 130.215 158.562 130.215 158.263C130.215 157.675 130.079 157.213 129.809 156.877C129.538 156.541 129.123 156.373 128.563 156.373C128.273 156.373 127.961 156.467 127.625 156.653C127.289 156.831 126.981 157.129 126.701 157.549C126.775 158.427 126.976 159.094 127.303 159.551C127.639 159.999 128.091 160.223 128.661 160.223Z" fill="#808181"/>
<path d="M152.056 160.965V160.013H154.1V153.433H152.476V152.691C152.886 152.617 153.241 152.528 153.54 152.425C153.848 152.313 154.123 152.183 154.366 152.033H155.248V160.013H157.096V160.965H152.056ZM160.387 160.965C160.424 160.125 160.499 159.355 160.611 158.655C160.723 157.955 160.877 157.293 161.073 156.667C161.278 156.033 161.535 155.421 161.843 154.833C162.16 154.245 162.538 153.643 162.977 153.027H158.525V152.033H164.279V152.747C163.747 153.419 163.313 154.063 162.977 154.679C162.65 155.295 162.389 155.925 162.193 156.569C161.997 157.204 161.852 157.881 161.759 158.599C161.675 159.309 161.614 160.097 161.577 160.965H160.387Z" fill="#808181"/>
<path d="M186.056 160.965V160.013H188.1V153.433H186.476V152.691C186.886 152.617 187.241 152.528 187.54 152.425C187.848 152.313 188.123 152.183 188.366 152.033H189.248V160.013H191.096V160.965H186.056ZM195.409 161.133C194.989 161.133 194.597 161.073 194.233 160.951C193.878 160.83 193.57 160.662 193.309 160.447C193.057 160.223 192.856 159.962 192.707 159.663C192.557 159.365 192.483 159.038 192.483 158.683C192.483 158.394 192.529 158.128 192.623 157.885C192.725 157.633 192.851 157.409 193.001 157.213C193.159 157.008 193.337 156.831 193.533 156.681C193.738 156.523 193.948 156.387 194.163 156.275V156.219C193.836 155.986 193.547 155.706 193.295 155.379C193.043 155.043 192.917 154.637 192.917 154.161C192.917 153.816 192.982 153.503 193.113 153.223C193.243 152.943 193.421 152.705 193.645 152.509C193.869 152.304 194.135 152.145 194.443 152.033C194.751 151.921 195.087 151.865 195.451 151.865C195.843 151.865 196.193 151.926 196.501 152.047C196.809 152.159 197.07 152.323 197.285 152.537C197.509 152.743 197.677 152.995 197.789 153.293C197.91 153.583 197.971 153.9 197.971 154.245C197.971 154.479 197.929 154.703 197.845 154.917C197.77 155.132 197.672 155.333 197.551 155.519C197.439 155.706 197.308 155.874 197.159 156.023C197.019 156.173 196.879 156.299 196.739 156.401V156.457C196.935 156.569 197.126 156.7 197.313 156.849C197.499 156.989 197.663 157.153 197.803 157.339C197.952 157.517 198.069 157.722 198.153 157.955C198.246 158.189 198.293 158.455 198.293 158.753C198.293 159.089 198.223 159.402 198.083 159.691C197.943 159.981 197.747 160.233 197.495 160.447C197.243 160.662 196.939 160.83 196.585 160.951C196.23 161.073 195.838 161.133 195.409 161.133ZM196.039 156.093C196.337 155.823 196.566 155.538 196.725 155.239C196.893 154.941 196.977 154.628 196.977 154.301C196.977 153.853 196.841 153.48 196.571 153.181C196.3 152.873 195.917 152.719 195.423 152.719C195.003 152.719 194.657 152.85 194.387 153.111C194.116 153.373 193.981 153.723 193.981 154.161C193.981 154.432 194.037 154.665 194.149 154.861C194.261 155.048 194.41 155.216 194.597 155.365C194.793 155.515 195.012 155.65 195.255 155.771C195.507 155.883 195.768 155.991 196.039 156.093ZM195.437 160.279C195.959 160.279 196.379 160.135 196.697 159.845C197.023 159.556 197.187 159.178 197.187 158.711C197.187 158.422 197.121 158.175 196.991 157.969C196.86 157.764 196.683 157.587 196.459 157.437C196.235 157.279 195.973 157.139 195.675 157.017C195.385 156.887 195.082 156.756 194.765 156.625C194.41 156.868 194.111 157.153 193.869 157.479C193.635 157.797 193.519 158.161 193.519 158.571C193.519 158.823 193.565 159.052 193.659 159.257C193.761 159.463 193.897 159.645 194.065 159.803C194.242 159.953 194.447 160.069 194.681 160.153C194.914 160.237 195.166 160.279 195.437 160.279Z" fill="#808181"/>
<path d="M221.056 160.965V160.013H223.1V153.433H221.476V152.691C221.886 152.617 222.241 152.528 222.54 152.425C222.848 152.313 223.123 152.183 223.366 152.033H224.248V160.013H226.096V160.965H221.056ZM230.199 156.625C230.497 156.625 230.81 156.532 231.137 156.345C231.473 156.159 231.785 155.855 232.075 155.435C232 154.558 231.795 153.895 231.459 153.447C231.123 152.999 230.67 152.775 230.101 152.775C229.886 152.775 229.681 152.822 229.485 152.915C229.298 153.009 229.135 153.144 228.995 153.321C228.855 153.489 228.743 153.695 228.659 153.937C228.584 154.18 228.547 154.446 228.547 154.735C228.547 155.323 228.682 155.785 228.953 156.121C229.223 156.457 229.639 156.625 230.199 156.625ZM229.779 161.133C229.303 161.133 228.883 161.045 228.519 160.867C228.164 160.69 227.865 160.466 227.623 160.195L228.267 159.467C228.453 159.682 228.673 159.855 228.925 159.985C229.186 160.116 229.457 160.181 229.737 160.181C230.054 160.181 230.353 160.116 230.633 159.985C230.913 159.855 231.16 159.64 231.375 159.341C231.589 159.033 231.762 158.637 231.893 158.151C232.023 157.666 232.093 157.064 232.103 156.345C231.823 156.7 231.496 156.98 231.123 157.185C230.749 157.391 230.376 157.493 230.003 157.493C229.228 157.493 228.612 157.265 228.155 156.807C227.697 156.35 227.469 155.659 227.469 154.735C227.469 154.306 227.539 153.919 227.679 153.573C227.819 153.219 228.005 152.915 228.239 152.663C228.481 152.411 228.761 152.215 229.079 152.075C229.405 151.935 229.746 151.865 230.101 151.865C230.539 151.865 230.945 151.954 231.319 152.131C231.701 152.309 232.028 152.579 232.299 152.943C232.579 153.298 232.793 153.746 232.943 154.287C233.101 154.819 233.181 155.445 233.181 156.163C233.181 157.059 233.087 157.825 232.901 158.459C232.714 159.085 232.462 159.598 232.145 159.999C231.827 160.391 231.463 160.681 231.053 160.867C230.651 161.045 230.227 161.133 229.779 161.133Z" fill="#808181"/>
<path d="M11.5097 192.965V192.279C12.1817 191.607 12.779 191.001 13.3017 190.459C13.8244 189.918 14.263 189.419 14.6177 188.961C14.9724 188.495 15.243 188.07 15.4297 187.687C15.6164 187.295 15.7097 186.917 15.7097 186.553C15.7097 186.04 15.5697 185.62 15.2897 185.293C15.0097 184.967 14.585 184.803 14.0157 184.803C13.6424 184.803 13.297 184.911 12.9797 185.125C12.6624 185.331 12.373 185.583 12.1117 185.881L11.4537 185.223C11.827 184.813 12.2237 184.486 12.6437 184.243C13.0637 183.991 13.5677 183.865 14.1557 183.865C14.9864 183.865 15.6397 184.108 16.1157 184.593C16.5917 185.069 16.8297 185.704 16.8297 186.497C16.8297 186.917 16.7364 187.342 16.5497 187.771C16.3724 188.191 16.1204 188.63 15.7937 189.087C15.4764 189.535 15.0937 190.007 14.6457 190.501C14.207 190.987 13.7217 191.505 13.1897 192.055C13.4324 192.037 13.6844 192.018 13.9457 191.999C14.207 191.981 14.4544 191.971 14.6877 191.971H17.2777V192.965H11.5097ZM21.3947 193.133C20.4894 193.133 19.7847 192.732 19.2807 191.929C18.7767 191.127 18.5247 189.974 18.5247 188.471C18.5247 186.969 18.7767 185.825 19.2807 185.041C19.7847 184.257 20.4894 183.865 21.3947 183.865C22.2907 183.865 22.9907 184.257 23.4947 185.041C23.9987 185.825 24.2507 186.969 24.2507 188.471C24.2507 189.974 23.9987 191.127 23.4947 191.929C22.9907 192.732 22.2907 193.133 21.3947 193.133ZM21.3947 192.209C21.656 192.209 21.8894 192.139 22.0947 191.999C22.3094 191.85 22.4914 191.626 22.6407 191.327C22.7994 191.019 22.9207 190.632 23.0047 190.165C23.0887 189.689 23.1307 189.125 23.1307 188.471C23.1307 187.818 23.0887 187.258 23.0047 186.791C22.9207 186.325 22.7994 185.947 22.6407 185.657C22.4914 185.359 22.3094 185.139 22.0947 184.999C21.8894 184.859 21.656 184.789 21.3947 184.789C21.1334 184.789 20.8954 184.859 20.6807 184.999C20.466 185.139 20.2794 185.359 20.1207 185.657C19.9714 185.947 19.8547 186.325 19.7707 186.791C19.6867 187.258 19.6447 187.818 19.6447 188.471C19.6447 189.778 19.8034 190.73 20.1207 191.327C20.4474 191.915 20.872 192.209 21.3947 192.209Z" fill="#808181"/>
<path d="M48.5097 192.965V192.279C49.1817 191.607 49.779 191.001 50.3017 190.459C50.8244 189.918 51.263 189.419 51.6177 188.961C51.9724 188.495 52.243 188.07 52.4297 187.687C52.6164 187.295 52.7097 186.917 52.7097 186.553C52.7097 186.04 52.5697 185.62 52.2897 185.293C52.0097 184.967 51.585 184.803 51.0157 184.803C50.6424 184.803 50.297 184.911 49.9797 185.125C49.6624 185.331 49.373 185.583 49.1117 185.881L48.4537 185.223C48.827 184.813 49.2237 184.486 49.6437 184.243C50.0637 183.991 50.5677 183.865 51.1557 183.865C51.9864 183.865 52.6397 184.108 53.1157 184.593C53.5917 185.069 53.8297 185.704 53.8297 186.497C53.8297 186.917 53.7364 187.342 53.5497 187.771C53.3724 188.191 53.1204 188.63 52.7937 189.087C52.4764 189.535 52.0937 190.007 51.6457 190.501C51.207 190.987 50.7217 191.505 50.1897 192.055C50.4324 192.037 50.6844 192.018 50.9457 191.999C51.207 191.981 51.4544 191.971 51.6877 191.971H54.2777V192.965H48.5097ZM56.0147 192.965V192.013H58.0587V185.433H56.4347V184.691C56.8454 184.617 57.2 184.528 57.4987 184.425C57.8067 184.313 58.082 184.183 58.3247 184.033H59.2067V192.013H61.0547V192.965H56.0147Z" fill="#808181"/>
<path d="M82.5097 192.965V192.279C83.1817 191.607 83.779 191.001 84.3017 190.459C84.8244 189.918 85.263 189.419 85.6177 188.961C85.9724 188.495 86.243 188.07 86.4297 187.687C86.6164 187.295 86.7097 186.917 86.7097 186.553C86.7097 186.04 86.5697 185.62 86.2897 185.293C86.0097 184.967 85.585 184.803 85.0157 184.803C84.6424 184.803 84.297 184.911 83.9797 185.125C83.6624 185.331 83.373 185.583 83.1117 185.881L82.4537 185.223C82.827 184.813 83.2237 184.486 83.6437 184.243C84.0637 183.991 84.5677 183.865 85.1557 183.865C85.9864 183.865 86.6397 184.108 87.1157 184.593C87.5917 185.069 87.8297 185.704 87.8297 186.497C87.8297 186.917 87.7364 187.342 87.5497 187.771C87.3724 188.191 87.1204 188.63 86.7937 189.087C86.4764 189.535 86.0937 190.007 85.6457 190.501C85.207 190.987 84.7217 191.505 84.1897 192.055C84.4324 192.037 84.6844 192.018 84.9457 191.999C85.207 191.981 85.4544 191.971 85.6877 191.971H88.2777V192.965H82.5097ZM89.4687 192.965V192.279C90.1407 191.607 90.738 191.001 91.2607 190.459C91.7834 189.918 92.222 189.419 92.5767 188.961C92.9314 188.495 93.202 188.07 93.3887 187.687C93.5754 187.295 93.6687 186.917 93.6687 186.553C93.6687 186.04 93.5287 185.62 93.2487 185.293C92.9687 184.967 92.544 184.803 91.9747 184.803C91.6014 184.803 91.256 184.911 90.9387 185.125C90.6214 185.331 90.332 185.583 90.0707 185.881L89.4127 185.223C89.786 184.813 90.1827 184.486 90.6027 184.243C91.0227 183.991 91.5267 183.865 92.1147 183.865C92.9454 183.865 93.5987 184.108 94.0747 184.593C94.5507 185.069 94.7887 185.704 94.7887 186.497C94.7887 186.917 94.6954 187.342 94.5087 187.771C94.3314 188.191 94.0794 188.63 93.7527 189.087C93.4354 189.535 93.0527 190.007 92.6047 190.501C92.166 190.987 91.6807 191.505 91.1487 192.055C91.3914 192.037 91.6434 192.018 91.9047 191.999C92.166 191.981 92.4134 191.971 92.6467 191.971H95.2367V192.965H89.4687Z" fill="#808181"/>
<path d="M118.51 192.965V192.279C119.182 191.607 119.779 191.001 120.302 190.459C120.824 189.918 121.263 189.419 121.618 188.961C121.972 188.495 122.243 188.07 122.43 187.687C122.616 187.295 122.71 186.917 122.71 186.553C122.71 186.04 122.57 185.62 122.29 185.293C122.01 184.967 121.585 184.803 121.016 184.803C120.642 184.803 120.297 184.911 119.98 185.125C119.662 185.331 119.373 185.583 119.112 185.881L118.454 185.223C118.827 184.813 119.224 184.486 119.644 184.243C120.064 183.991 120.568 183.865 121.156 183.865C121.986 183.865 122.64 184.108 123.116 184.593C123.592 185.069 123.83 185.704 123.83 186.497C123.83 186.917 123.736 187.342 123.55 187.771C123.372 188.191 123.12 188.63 122.794 189.087C122.476 189.535 122.094 190.007 121.646 190.501C121.207 190.987 120.722 191.505 120.19 192.055C120.432 192.037 120.684 192.018 120.946 191.999C121.207 191.981 121.454 191.971 121.688 191.971H124.278V192.965H118.51ZM128.213 193.133C127.858 193.133 127.531 193.096 127.233 193.021C126.943 192.956 126.677 192.867 126.435 192.755C126.192 192.634 125.973 192.499 125.777 192.349C125.59 192.2 125.422 192.041 125.273 191.873L125.861 191.117C126.131 191.397 126.444 191.645 126.799 191.859C127.163 192.074 127.611 192.181 128.143 192.181C128.684 192.181 129.127 192.037 129.473 191.747C129.818 191.449 129.991 191.047 129.991 190.543C129.991 190.282 129.939 190.044 129.837 189.829C129.743 189.605 129.585 189.414 129.361 189.255C129.137 189.097 128.843 188.975 128.479 188.891C128.115 188.807 127.667 188.765 127.135 188.765V187.883C127.611 187.883 128.007 187.841 128.325 187.757C128.651 187.673 128.913 187.557 129.109 187.407C129.314 187.258 129.459 187.081 129.543 186.875C129.627 186.67 129.669 186.451 129.669 186.217C129.669 185.779 129.529 185.433 129.249 185.181C128.978 184.929 128.605 184.803 128.129 184.803C127.755 184.803 127.41 184.887 127.093 185.055C126.785 185.223 126.495 185.443 126.225 185.713L125.609 184.985C125.954 184.659 126.332 184.393 126.743 184.187C127.163 183.973 127.639 183.865 128.171 183.865C128.563 183.865 128.922 183.917 129.249 184.019C129.575 184.122 129.855 184.271 130.089 184.467C130.331 184.654 130.518 184.887 130.649 185.167C130.779 185.447 130.845 185.769 130.845 186.133C130.845 186.675 130.695 187.118 130.397 187.463C130.098 187.809 129.706 188.075 129.221 188.261V188.317C129.491 188.383 129.743 188.481 129.977 188.611C130.21 188.733 130.415 188.891 130.593 189.087C130.77 189.274 130.905 189.493 130.999 189.745C131.101 189.997 131.153 190.277 131.153 190.585C131.153 190.977 131.073 191.332 130.915 191.649C130.765 191.967 130.555 192.237 130.285 192.461C130.023 192.676 129.715 192.844 129.361 192.965C129.006 193.077 128.623 193.133 128.213 193.133Z" fill="#808181"/>
<path d="M152.51 192.965V192.279C153.182 191.607 153.779 191.001 154.302 190.459C154.824 189.918 155.263 189.419 155.618 188.961C155.972 188.495 156.243 188.07 156.43 187.687C156.616 187.295 156.71 186.917 156.71 186.553C156.71 186.04 156.57 185.62 156.29 185.293C156.01 184.967 155.585 184.803 155.016 184.803C154.642 184.803 154.297 184.911 153.98 185.125C153.662 185.331 153.373 185.583 153.112 185.881L152.454 185.223C152.827 184.813 153.224 184.486 153.644 184.243C154.064 183.991 154.568 183.865 155.156 183.865C155.986 183.865 156.64 184.108 157.116 184.593C157.592 185.069 157.83 185.704 157.83 186.497C157.83 186.917 157.736 187.342 157.55 187.771C157.372 188.191 157.12 188.63 156.794 189.087C156.476 189.535 156.094 190.007 155.646 190.501C155.207 190.987 154.722 191.505 154.19 192.055C154.432 192.037 154.684 192.018 154.946 191.999C155.207 191.981 155.454 191.971 155.688 191.971H158.278V192.965H152.51ZM163.165 192.965V190.501H159.147V189.745L162.969 184.033H164.257V189.577H165.475V190.501H164.257V192.965H163.165ZM160.365 189.577H163.165V186.987C163.165 186.745 163.169 186.46 163.179 186.133C163.197 185.797 163.216 185.508 163.235 185.265H163.179C163.067 185.48 162.95 185.69 162.829 185.895C162.707 186.101 162.581 186.311 162.451 186.525L160.365 189.577Z" fill="#808181"/>
<path d="M185.51 192.965V192.279C186.182 191.607 186.779 191.001 187.302 190.459C187.824 189.918 188.263 189.419 188.618 188.961C188.972 188.495 189.243 188.07 189.43 187.687C189.616 187.295 189.71 186.917 189.71 186.553C189.71 186.04 189.57 185.62 189.29 185.293C189.01 184.967 188.585 184.803 188.016 184.803C187.642 184.803 187.297 184.911 186.98 185.125C186.662 185.331 186.373 185.583 186.112 185.881L185.454 185.223C185.827 184.813 186.224 184.486 186.644 184.243C187.064 183.991 187.568 183.865 188.156 183.865C188.986 183.865 189.64 184.108 190.116 184.593C190.592 185.069 190.83 185.704 190.83 186.497C190.83 186.917 190.736 187.342 190.55 187.771C190.372 188.191 190.12 188.63 189.794 189.087C189.476 189.535 189.094 190.007 188.646 190.501C188.207 190.987 187.722 191.505 187.19 192.055C187.432 192.037 187.684 192.018 187.946 191.999C188.207 191.981 188.454 191.971 188.688 191.971H191.278V192.965H185.51ZM195.185 193.133C194.83 193.133 194.503 193.096 194.205 193.021C193.915 192.956 193.649 192.867 193.407 192.755C193.173 192.643 192.959 192.517 192.763 192.377C192.576 192.228 192.408 192.074 192.259 191.915L192.819 191.159C193.08 191.43 193.388 191.668 193.743 191.873C194.107 192.079 194.55 192.181 195.073 192.181C195.343 192.181 195.595 192.135 195.829 192.041C196.071 191.939 196.281 191.799 196.459 191.621C196.636 191.444 196.776 191.229 196.879 190.977C196.981 190.725 197.033 190.445 197.033 190.137C197.033 189.521 196.86 189.041 196.515 188.695C196.169 188.35 195.707 188.177 195.129 188.177C194.821 188.177 194.555 188.224 194.331 188.317C194.116 188.411 193.873 188.546 193.603 188.723L192.987 188.331L193.281 184.033H197.747V185.027H194.289L194.051 187.673C194.265 187.561 194.48 187.473 194.695 187.407C194.909 187.342 195.152 187.309 195.423 187.309C195.805 187.309 196.165 187.365 196.501 187.477C196.837 187.589 197.131 187.762 197.383 187.995C197.635 188.219 197.831 188.509 197.971 188.863C198.12 189.209 198.195 189.624 198.195 190.109C198.195 190.595 198.111 191.024 197.943 191.397C197.775 191.771 197.551 192.088 197.271 192.349C196.991 192.601 196.669 192.797 196.305 192.937C195.95 193.068 195.577 193.133 195.185 193.133Z" fill="#808181"/>
<path d="M220.51 192.965V192.279C221.182 191.607 221.779 191.001 222.302 190.459C222.824 189.918 223.263 189.419 223.618 188.961C223.972 188.495 224.243 188.07 224.43 187.687C224.616 187.295 224.71 186.917 224.71 186.553C224.71 186.04 224.57 185.62 224.29 185.293C224.01 184.967 223.585 184.803 223.016 184.803C222.642 184.803 222.297 184.911 221.98 185.125C221.662 185.331 221.373 185.583 221.112 185.881L220.454 185.223C220.827 184.813 221.224 184.486 221.644 184.243C222.064 183.991 222.568 183.865 223.156 183.865C223.986 183.865 224.64 184.108 225.116 184.593C225.592 185.069 225.83 185.704 225.83 186.497C225.83 186.917 225.736 187.342 225.55 187.771C225.372 188.191 225.12 188.63 224.794 189.087C224.476 189.535 224.094 190.007 223.646 190.501C223.207 190.987 222.722 191.505 222.19 192.055C222.432 192.037 222.684 192.018 222.946 191.999C223.207 191.981 223.454 191.971 223.688 191.971H226.278V192.965H220.51ZM230.661 193.133C230.222 193.133 229.816 193.045 229.443 192.867C229.069 192.69 228.743 192.424 228.463 192.069C228.192 191.705 227.977 191.257 227.819 190.725C227.66 190.184 227.581 189.554 227.581 188.835C227.581 187.939 227.674 187.179 227.861 186.553C228.047 185.919 228.299 185.405 228.617 185.013C228.934 184.612 229.293 184.323 229.695 184.145C230.105 183.959 230.535 183.865 230.983 183.865C231.468 183.865 231.883 183.959 232.229 184.145C232.583 184.323 232.887 184.547 233.139 184.817L232.495 185.531C232.308 185.317 232.084 185.149 231.823 185.027C231.571 184.897 231.305 184.831 231.025 184.831C230.717 184.831 230.423 184.897 230.143 185.027C229.863 185.158 229.615 185.373 229.401 185.671C229.186 185.97 229.013 186.362 228.883 186.847C228.752 187.323 228.682 187.916 228.673 188.625C228.953 188.28 229.279 188.009 229.653 187.813C230.026 187.608 230.395 187.505 230.759 187.505C231.533 187.505 232.149 187.734 232.607 188.191C233.073 188.649 233.307 189.339 233.307 190.263C233.307 190.693 233.237 191.085 233.097 191.439C232.957 191.785 232.765 192.083 232.523 192.335C232.28 192.587 232 192.783 231.683 192.923C231.365 193.063 231.025 193.133 230.661 193.133ZM230.661 192.223C230.885 192.223 231.09 192.177 231.277 192.083C231.463 191.99 231.627 191.859 231.767 191.691C231.907 191.514 232.014 191.309 232.089 191.075C232.173 190.833 232.215 190.562 232.215 190.263C232.215 189.675 232.079 189.213 231.809 188.877C231.538 188.541 231.123 188.373 230.563 188.373C230.273 188.373 229.961 188.467 229.625 188.653C229.289 188.831 228.981 189.129 228.701 189.549C228.775 190.427 228.976 191.094 229.303 191.551C229.639 191.999 230.091 192.223 230.661 192.223Z" fill="#808181"/>
<path d="M10.5097 224.965V224.279C11.1817 223.607 11.779 223.001 12.3017 222.459C12.8244 221.918 13.263 221.419 13.6177 220.961C13.9724 220.495 14.243 220.07 14.4297 219.687C14.6164 219.295 14.7097 218.917 14.7097 218.553C14.7097 218.04 14.5697 217.62 14.2897 217.293C14.0097 216.967 13.585 216.803 13.0157 216.803C12.6424 216.803 12.297 216.911 11.9797 217.125C11.6624 217.331 11.373 217.583 11.1117 217.881L10.4537 217.223C10.827 216.813 11.2237 216.486 11.6437 216.243C12.0637 215.991 12.5677 215.865 13.1557 215.865C13.9864 215.865 14.6397 216.108 15.1157 216.593C15.5917 217.069 15.8297 217.704 15.8297 218.497C15.8297 218.917 15.7364 219.342 15.5497 219.771C15.3724 220.191 15.1204 220.63 14.7937 221.087C14.4764 221.535 14.0937 222.007 13.6457 222.501C13.207 222.987 12.7217 223.505 12.1897 224.055C12.4324 224.037 12.6844 224.018 12.9457 223.999C13.207 223.981 13.4544 223.971 13.6877 223.971H16.2777V224.965H10.5097ZM19.3867 224.965C19.424 224.125 19.4987 223.355 19.6107 222.655C19.7227 221.955 19.8767 221.293 20.0727 220.667C20.278 220.033 20.5347 219.421 20.8427 218.833C21.16 218.245 21.538 217.643 21.9767 217.027H17.5247V216.033H23.2787V216.747C22.7467 217.419 22.3127 218.063 21.9767 218.679C21.65 219.295 21.3887 219.925 21.1927 220.569C20.9967 221.204 20.852 221.881 20.7587 222.599C20.6747 223.309 20.614 224.097 20.5767 224.965H19.3867Z" fill="#808181"/>
<path d="M48.5097 224.965V224.279C49.1817 223.607 49.779 223.001 50.3017 222.459C50.8244 221.918 51.263 221.419 51.6177 220.961C51.9724 220.495 52.243 220.07 52.4297 219.687C52.6164 219.295 52.7097 218.917 52.7097 218.553C52.7097 218.04 52.5697 217.62 52.2897 217.293C52.0097 216.967 51.585 216.803 51.0157 216.803C50.6424 216.803 50.297 216.911 49.9797 217.125C49.6624 217.331 49.373 217.583 49.1117 217.881L48.4537 217.223C48.827 216.813 49.2237 216.486 49.6437 216.243C50.0637 215.991 50.5677 215.865 51.1557 215.865C51.9864 215.865 52.6397 216.108 53.1157 216.593C53.5917 217.069 53.8297 217.704 53.8297 218.497C53.8297 218.917 53.7364 219.342 53.5497 219.771C53.3724 220.191 53.1204 220.63 52.7937 221.087C52.4764 221.535 52.0937 222.007 51.6457 222.501C51.207 222.987 50.7217 223.505 50.1897 224.055C50.4324 224.037 50.6844 224.018 50.9457 223.999C51.207 223.981 51.4544 223.971 51.6877 223.971H54.2777V224.965H48.5097ZM58.4087 225.133C57.9887 225.133 57.5967 225.073 57.2327 224.951C56.878 224.83 56.57 224.662 56.3087 224.447C56.0567 224.223 55.856 223.962 55.7067 223.663C55.5574 223.365 55.4827 223.038 55.4827 222.683C55.4827 222.394 55.5294 222.128 55.6227 221.885C55.7254 221.633 55.8514 221.409 56.0007 221.213C56.1594 221.008 56.3367 220.831 56.5327 220.681C56.738 220.523 56.948 220.387 57.1627 220.275V220.219C56.836 219.986 56.5467 219.706 56.2947 219.379C56.0427 219.043 55.9167 218.637 55.9167 218.161C55.9167 217.816 55.982 217.503 56.1127 217.223C56.2434 216.943 56.4207 216.705 56.6447 216.509C56.8687 216.304 57.1347 216.145 57.4427 216.033C57.7507 215.921 58.0867 215.865 58.4507 215.865C58.8427 215.865 59.1927 215.926 59.5007 216.047C59.8087 216.159 60.07 216.323 60.2847 216.537C60.5087 216.743 60.6767 216.995 60.7887 217.293C60.91 217.583 60.9707 217.9 60.9707 218.245C60.9707 218.479 60.9287 218.703 60.8447 218.917C60.77 219.132 60.672 219.333 60.5507 219.519C60.4387 219.706 60.308 219.874 60.1587 220.023C60.0187 220.173 59.8787 220.299 59.7387 220.401V220.457C59.9347 220.569 60.126 220.7 60.3127 220.849C60.4994 220.989 60.6627 221.153 60.8027 221.339C60.952 221.517 61.0687 221.722 61.1527 221.955C61.246 222.189 61.2927 222.455 61.2927 222.753C61.2927 223.089 61.2227 223.402 61.0827 223.691C60.9427 223.981 60.7467 224.233 60.4947 224.447C60.2427 224.662 59.9394 224.83 59.5847 224.951C59.23 225.073 58.838 225.133 58.4087 225.133ZM59.0387 220.093C59.3374 219.823 59.566 219.538 59.7247 219.239C59.8927 218.941 59.9767 218.628 59.9767 218.301C59.9767 217.853 59.8414 217.48 59.5707 217.181C59.3 216.873 58.9174 216.719 58.4227 216.719C58.0027 216.719 57.6574 216.85 57.3867 217.111C57.116 217.373 56.9807 217.723 56.9807 218.161C56.9807 218.432 57.0367 218.665 57.1487 218.861C57.2607 219.048 57.41 219.216 57.5967 219.365C57.7927 219.515 58.012 219.65 58.2547 219.771C58.5067 219.883 58.768 219.991 59.0387 220.093ZM58.4367 224.279C58.9594 224.279 59.3794 224.135 59.6967 223.845C60.0234 223.556 60.1867 223.178 60.1867 222.711C60.1867 222.422 60.1214 222.175 59.9907 221.969C59.86 221.764 59.6827 221.587 59.4587 221.437C59.2347 221.279 58.9734 221.139 58.6747 221.017C58.3854 220.887 58.082 220.756 57.7647 220.625C57.41 220.868 57.1114 221.153 56.8687 221.479C56.6354 221.797 56.5187 222.161 56.5187 222.571C56.5187 222.823 56.5654 223.052 56.6587 223.257C56.7614 223.463 56.8967 223.645 57.0647 223.803C57.242 223.953 57.4474 224.069 57.6807 224.153C57.914 224.237 58.166 224.279 58.4367 224.279Z" fill="#808181"/>
<path d="M83.5097 224.965V224.279C84.1817 223.607 84.779 223.001 85.3017 222.459C85.8244 221.918 86.263 221.419 86.6177 220.961C86.9724 220.495 87.243 220.07 87.4297 219.687C87.6164 219.295 87.7097 218.917 87.7097 218.553C87.7097 218.04 87.5697 217.62 87.2897 217.293C87.0097 216.967 86.585 216.803 86.0157 216.803C85.6424 216.803 85.297 216.911 84.9797 217.125C84.6624 217.331 84.373 217.583 84.1117 217.881L83.4537 217.223C83.827 216.813 84.2237 216.486 84.6437 216.243C85.0637 215.991 85.5677 215.865 86.1557 215.865C86.9864 215.865 87.6397 216.108 88.1157 216.593C88.5917 217.069 88.8297 217.704 88.8297 218.497C88.8297 218.917 88.7364 219.342 88.5497 219.771C88.3724 220.191 88.1204 220.63 87.7937 221.087C87.4764 221.535 87.0937 222.007 86.6457 222.501C86.207 222.987 85.7217 223.505 85.1897 224.055C85.4324 224.037 85.6844 224.018 85.9457 223.999C86.207 223.981 86.4544 223.971 86.6877 223.971H89.2777V224.965H83.5097ZM93.1987 220.625C93.4974 220.625 93.81 220.532 94.1367 220.345C94.4727 220.159 94.7854 219.855 95.0747 219.435C95 218.558 94.7947 217.895 94.4587 217.447C94.1227 216.999 93.67 216.775 93.1007 216.775C92.886 216.775 92.6807 216.822 92.4847 216.915C92.298 217.009 92.1347 217.144 91.9947 217.321C91.8547 217.489 91.7427 217.695 91.6587 217.937C91.584 218.18 91.5467 218.446 91.5467 218.735C91.5467 219.323 91.682 219.785 91.9527 220.121C92.2234 220.457 92.6387 220.625 93.1987 220.625ZM92.7787 225.133C92.3027 225.133 91.8827 225.045 91.5187 224.867C91.164 224.69 90.8654 224.466 90.6227 224.195L91.2667 223.467C91.4534 223.682 91.6727 223.855 91.9247 223.985C92.186 224.116 92.4567 224.181 92.7367 224.181C93.054 224.181 93.3527 224.116 93.6327 223.985C93.9127 223.855 94.16 223.64 94.3747 223.341C94.5894 223.033 94.762 222.637 94.8927 222.151C95.0234 221.666 95.0934 221.064 95.1027 220.345C94.8227 220.7 94.496 220.98 94.1227 221.185C93.7494 221.391 93.376 221.493 93.0027 221.493C92.228 221.493 91.612 221.265 91.1547 220.807C90.6974 220.35 90.4687 219.659 90.4687 218.735C90.4687 218.306 90.5387 217.919 90.6787 217.573C90.8187 217.219 91.0054 216.915 91.2387 216.663C91.4814 216.411 91.7614 216.215 92.0787 216.075C92.4054 215.935 92.746 215.865 93.1007 215.865C93.5394 215.865 93.9454 215.954 94.3187 216.131C94.7014 216.309 95.028 216.579 95.2987 216.943C95.5787 217.298 95.7934 217.746 95.9427 218.287C96.1014 218.819 96.1807 219.445 96.1807 220.163C96.1807 221.059 96.0874 221.825 95.9007 222.459C95.714 223.085 95.462 223.598 95.1447 223.999C94.8274 224.391 94.4634 224.681 94.0527 224.867C93.6514 225.045 93.2267 225.133 92.7787 225.133Z" fill="#808181"/>
<path d="M121.254 225.133C120.899 225.133 120.572 225.096 120.274 225.021C119.984 224.956 119.718 224.867 119.476 224.755C119.233 224.634 119.014 224.499 118.818 224.349C118.631 224.2 118.463 224.041 118.314 223.873L118.902 223.117C119.172 223.397 119.485 223.645 119.84 223.859C120.204 224.074 120.652 224.181 121.184 224.181C121.725 224.181 122.168 224.037 122.514 223.747C122.859 223.449 123.032 223.047 123.032 222.543C123.032 222.282 122.98 222.044 122.878 221.829C122.784 221.605 122.626 221.414 122.402 221.255C122.178 221.097 121.884 220.975 121.52 220.891C121.156 220.807 120.708 220.765 120.176 220.765V219.883C120.652 219.883 121.048 219.841 121.366 219.757C121.692 219.673 121.954 219.557 122.15 219.407C122.355 219.258 122.5 219.081 122.584 218.875C122.668 218.67 122.71 218.451 122.71 218.217C122.71 217.779 122.57 217.433 122.29 217.181C122.019 216.929 121.646 216.803 121.17 216.803C120.796 216.803 120.451 216.887 120.134 217.055C119.826 217.223 119.536 217.443 119.266 217.713L118.65 216.985C118.995 216.659 119.373 216.393 119.784 216.187C120.204 215.973 120.68 215.865 121.212 215.865C121.604 215.865 121.963 215.917 122.29 216.019C122.616 216.122 122.896 216.271 123.13 216.467C123.372 216.654 123.559 216.887 123.69 217.167C123.82 217.447 123.886 217.769 123.886 218.133C123.886 218.675 123.736 219.118 123.438 219.463C123.139 219.809 122.747 220.075 122.262 220.261V220.317C122.532 220.383 122.784 220.481 123.018 220.611C123.251 220.733 123.456 220.891 123.634 221.087C123.811 221.274 123.946 221.493 124.04 221.745C124.142 221.997 124.194 222.277 124.194 222.585C124.194 222.977 124.114 223.332 123.956 223.649C123.806 223.967 123.596 224.237 123.326 224.461C123.064 224.676 122.756 224.844 122.402 224.965C122.047 225.077 121.664 225.133 121.254 225.133ZM128.395 225.133C127.489 225.133 126.785 224.732 126.281 223.929C125.777 223.127 125.525 221.974 125.525 220.471C125.525 218.969 125.777 217.825 126.281 217.041C126.785 216.257 127.489 215.865 128.395 215.865C129.291 215.865 129.991 216.257 130.495 217.041C130.999 217.825 131.251 218.969 131.251 220.471C131.251 221.974 130.999 223.127 130.495 223.929C129.991 224.732 129.291 225.133 128.395 225.133ZM128.395 224.209C128.656 224.209 128.889 224.139 129.095 223.999C129.309 223.85 129.491 223.626 129.641 223.327C129.799 223.019 129.921 222.632 130.005 222.165C130.089 221.689 130.131 221.125 130.131 220.471C130.131 219.818 130.089 219.258 130.005 218.791C129.921 218.325 129.799 217.947 129.641 217.657C129.491 217.359 129.309 217.139 129.095 216.999C128.889 216.859 128.656 216.789 128.395 216.789C128.133 216.789 127.895 216.859 127.681 216.999C127.466 217.139 127.279 217.359 127.121 217.657C126.971 217.947 126.855 218.325 126.771 218.791C126.687 219.258 126.645 219.818 126.645 220.471C126.645 221.778 126.803 222.73 127.121 223.327C127.447 223.915 127.872 224.209 128.395 224.209Z" fill="#808181"/>
<path d="M155.254 225.133C154.899 225.133 154.572 225.096 154.274 225.021C153.984 224.956 153.718 224.867 153.476 224.755C153.233 224.634 153.014 224.499 152.818 224.349C152.631 224.2 152.463 224.041 152.314 223.873L152.902 223.117C153.172 223.397 153.485 223.645 153.84 223.859C154.204 224.074 154.652 224.181 155.184 224.181C155.725 224.181 156.168 224.037 156.514 223.747C156.859 223.449 157.032 223.047 157.032 222.543C157.032 222.282 156.98 222.044 156.878 221.829C156.784 221.605 156.626 221.414 156.402 221.255C156.178 221.097 155.884 220.975 155.52 220.891C155.156 220.807 154.708 220.765 154.176 220.765V219.883C154.652 219.883 155.048 219.841 155.366 219.757C155.692 219.673 155.954 219.557 156.15 219.407C156.355 219.258 156.5 219.081 156.584 218.875C156.668 218.67 156.71 218.451 156.71 218.217C156.71 217.779 156.57 217.433 156.29 217.181C156.019 216.929 155.646 216.803 155.17 216.803C154.796 216.803 154.451 216.887 154.134 217.055C153.826 217.223 153.536 217.443 153.266 217.713L152.65 216.985C152.995 216.659 153.373 216.393 153.784 216.187C154.204 215.973 154.68 215.865 155.212 215.865C155.604 215.865 155.963 215.917 156.29 216.019C156.616 216.122 156.896 216.271 157.13 216.467C157.372 216.654 157.559 216.887 157.69 217.167C157.82 217.447 157.886 217.769 157.886 218.133C157.886 218.675 157.736 219.118 157.438 219.463C157.139 219.809 156.747 220.075 156.262 220.261V220.317C156.532 220.383 156.784 220.481 157.018 220.611C157.251 220.733 157.456 220.891 157.634 221.087C157.811 221.274 157.946 221.493 158.04 221.745C158.142 221.997 158.194 222.277 158.194 222.585C158.194 222.977 158.114 223.332 157.956 223.649C157.806 223.967 157.596 224.237 157.326 224.461C157.064 224.676 156.756 224.844 156.402 224.965C156.047 225.077 155.664 225.133 155.254 225.133ZM160.015 224.965V224.013H162.059V217.433H160.435V216.691C160.845 216.617 161.2 216.528 161.499 216.425C161.807 216.313 162.082 216.183 162.325 216.033H163.207V224.013H165.055V224.965H160.015Z" fill="#808181"/>
<path d="M189.035 224.965V224.013H191.079V217.433H189.455V216.691C189.866 216.617 190.221 216.528 190.519 216.425C190.827 216.313 191.103 216.183 191.345 216.033H192.227V224.013H194.075V224.965H189.035Z" fill="#808181"/>
<path d="M223.489 224.965V224.279C224.161 223.607 224.759 223.001 225.281 222.459C225.804 221.918 226.243 221.419 226.597 220.961C226.952 220.495 227.223 220.07 227.409 219.687C227.596 219.295 227.689 218.917 227.689 218.553C227.689 218.04 227.549 217.62 227.269 217.293C226.989 216.967 226.565 216.803 225.995 216.803C225.622 216.803 225.277 216.911 224.959 217.125C224.642 217.331 224.353 217.583 224.091 217.881L223.433 217.223C223.807 216.813 224.203 216.486 224.623 216.243C225.043 215.991 225.547 215.865 226.135 215.865C226.966 215.865 227.619 216.108 228.095 216.593C228.571 217.069 228.809 217.704 228.809 218.497C228.809 218.917 228.716 219.342 228.529 219.771C228.352 220.191 228.1 220.63 227.773 221.087C227.456 221.535 227.073 222.007 226.625 222.501C226.187 222.987 225.701 223.505 225.169 224.055C225.412 224.037 225.664 224.018 225.925 223.999C226.187 223.981 226.434 223.971 226.667 223.971H229.257V224.965H223.489Z" fill="#808181"/>
</svg>
